<svg width="131" height="31" viewBox="0 0 131 31" fill="none" xmlns="http://www.w3.org/2000/svg">
<path d="M24.5777 0C25.0121 0.311484 24.9465 0.770514 24.8646 1.19676C24.5695 2.73778 23.2498 3.68863 21.7087 3.45912C19.807 3.17222 17.9053 2.87713 16.0118 2.56565C14.7331 2.35253 13.6921 2.68041 12.9462 3.7788C12.5691 4.33619 12.1593 4.87719 11.7166 5.50016C12.5036 5.49196 13.2085 5.50835 13.9052 5.61492C20.1677 6.58216 24.4711 11.5167 24.5367 17.8612C24.5777 21.476 24.5449 25.0991 24.5449 28.7139C24.5449 28.7467 24.5285 28.7877 24.5285 28.8205C24.3809 28.8287 24.34 28.7057 24.2662 28.6402C22.7825 27.1647 21.3153 25.6811 19.8316 24.2138C19.6267 24.0089 19.5529 23.8122 19.5693 23.5335C19.6595 22.0908 19.7087 20.6399 19.5693 19.1973C19.4218 17.6399 19.3644 16.0742 18.6267 14.6316C16.6266 10.738 11.6839 9.52486 8.12638 12.0659C7.93785 12.1971 7.83948 12.2299 7.65915 12.0413C6.56895 10.9347 5.47056 9.82815 4.35578 8.73796C4.15085 8.53303 4.22462 8.45926 4.40496 8.31171C6.14271 6.88544 8.11818 5.98378 10.3396 5.63951C10.6264 5.59852 10.8068 5.49196 10.9625 5.25425C11.4871 4.45914 12.0363 3.67224 12.5609 2.87713C13.1183 2.03285 13.9052 1.50824 14.8151 1.12298C16.5201 0.409848 18.307 0.172136 20.1267 0.0737726" fill="#4FFFC6"/>
<path d="M0.019615 16.812C0.0278119 16.5169 0.0524028 16.271 0.0851906 15.9104C0.470448 13.6808 1.38851 11.607 2.83937 9.8692C3.0197 9.64788 3.11806 9.66427 3.2984 9.8528C4.3722 10.943 5.4542 12.025 6.54439 13.0988C6.73292 13.2791 6.72473 13.3857 6.56898 13.5988C3.43775 17.8366 5.69191 23.7712 10.8396 24.8532C13.2249 25.3533 15.643 25.3369 18.0529 25.1073C18.3726 25.0746 18.5857 25.1401 18.807 25.3696C20.2661 26.8451 21.7416 28.3124 23.2006 29.7796C23.2908 29.8698 23.4465 29.919 23.4219 30.0911C19.1349 30.0911 15.2332 30.0419 10.9462 30.0419C10.5609 30.0009 10.315 29.9845 10.192 29.9599C4.98697 29.0337 1.04423 25.0991 0.0933876 19.8777C0.0687967 19.7547 0.0278119 19.0006 0.011418 18.6645C0.00322104 17.4678 -0.0131729 17.435 0.019615 16.812Z" fill="white"/>
<path d="M104.121 18.6069C104.145 18.6889 104.227 18.6725 104.285 18.6889C106.588 19.2873 107.727 21.1398 107.252 23.4759C106.883 25.2956 105.678 26.2711 104.006 26.8039C103.088 27.099 102.145 27.2219 101.186 27.2219C99.1124 27.2219 97.0304 27.2137 94.9565 27.2301C94.6614 27.2301 94.5303 27.1973 94.5303 26.8449C94.5467 21.6398 94.5385 16.4347 94.5303 11.2297C94.5303 10.9018 94.6286 10.8198 94.9483 10.828C97.1041 10.8444 99.2681 10.8198 101.424 10.8444C102.424 10.8526 103.399 11.0411 104.326 11.4428C105.949 12.1559 106.752 13.4756 106.662 15.238C106.588 16.7216 105.842 17.7381 104.531 18.3774C104.399 18.443 104.26 18.5004 104.121 18.5659C104.121 18.5741 104.121 18.5905 104.121 18.6069ZM98.391 22.1316C98.391 22.6644 98.391 23.1972 98.391 23.73C98.391 23.853 98.3337 24.0251 98.5632 24.0169C99.6534 23.9759 100.752 24.1317 101.826 23.8858C102.481 23.7382 103.031 23.4267 103.26 22.7464C103.645 21.6152 103.072 20.6726 101.842 20.4103C100.776 20.1889 99.6944 20.3119 98.6206 20.2791C98.3992 20.2709 98.391 20.4021 98.391 20.566C98.391 21.0906 98.391 21.607 98.391 22.1316ZM98.391 15.6724C98.391 16.1478 98.391 16.6233 98.391 17.1069C98.391 17.2544 98.3992 17.3774 98.6042 17.3692C99.5058 17.3446 100.408 17.4512 101.301 17.2872C101.973 17.1643 102.539 16.8446 102.76 16.1314C103.072 15.1478 102.571 14.3527 101.489 14.115C100.53 13.9101 99.555 14.0412 98.596 14.0084C98.3829 14.0002 98.3992 14.1478 98.3992 14.2871C98.391 14.7462 98.391 15.2052 98.391 15.6724Z" fill="white"/>
<path d="M32.2008 27.2302C32.8975 25.5744 33.5697 23.9842 34.2337 22.3858C35.7911 18.6644 37.3567 14.9511 38.9059 11.2297C39.0289 10.9346 39.16 10.8199 39.4961 10.8281C40.5207 10.8527 41.5453 10.8445 42.57 10.8281C42.8405 10.8199 42.9798 10.8936 43.0864 11.1559C45.2586 16.402 47.4308 21.6481 49.6111 26.8941C49.6521 26.9925 49.6849 27.0908 49.7341 27.222C48.3078 27.222 46.9225 27.2138 45.5291 27.2302C45.2995 27.2302 45.275 27.0744 45.2176 26.9269C44.8733 26.0662 44.5208 25.2055 44.2012 24.3449C44.111 24.1071 44.0044 24.0088 43.7421 24.017C41.8568 24.0334 39.9715 24.0334 38.0862 24.017C37.8239 24.017 37.7092 24.0907 37.619 24.3367C37.3075 25.2055 36.9714 26.0744 36.6518 26.9433C36.5944 27.099 36.5616 27.2384 36.3321 27.2384C34.9714 27.222 33.6189 27.2302 32.2008 27.2302ZM38.8895 20.7956C40.2666 20.7956 41.5945 20.7956 42.9552 20.7956C42.2831 18.9513 41.6273 17.1397 40.9388 15.2544C40.2338 17.1479 39.5699 18.9595 38.8895 20.7956Z" fill="white"/>
<path d="M75.2186 22.6726C76.2514 23.7874 77.4973 24.4349 79.0794 24.353C79.3581 24.3366 79.6204 24.2792 79.8745 24.1808C80.522 23.9431 80.9237 23.5169 80.9811 22.8037C81.0466 22.0742 80.6942 21.566 80.0958 21.2299C79.3663 20.8201 78.563 20.5906 77.776 20.3283C76.7596 19.9922 75.7842 19.5987 74.9235 18.9348C73.9972 18.2216 73.5218 17.2708 73.4399 16.1314C73.2513 13.574 74.3169 11.8444 76.7514 10.9673C79.6531 9.91813 82.3827 10.3116 84.8664 12.1887C85.0795 12.3526 85.1369 12.4592 84.9156 12.6805C84.1943 13.41 83.4975 14.156 82.8008 14.9101C82.6368 15.0904 82.5631 15.0576 82.3991 14.9019C81.2925 13.8445 80.0056 13.41 78.4974 13.8937C77.858 14.0986 77.4482 14.5002 77.399 15.2134C77.358 15.9101 77.7187 16.3281 78.3006 16.6314C79.0794 17.0331 79.94 17.2298 80.7515 17.5249C81.3663 17.7462 81.9647 18.0003 82.5549 18.2954C84.5057 19.2627 85.2353 21.066 84.932 23.1808C84.6451 25.1891 83.4401 26.4842 81.604 27.1235C78.6039 28.1728 75.7678 27.7055 73.1939 25.8366C72.5054 25.3366 72.5218 25.3038 73.1366 24.6972C73.8251 24.0251 74.5137 23.3611 75.2186 22.6726Z" fill="#4FFFC6"/>
<path d="M116.957 22.525C115.703 22.525 114.449 22.5414 113.187 22.5168C112.801 22.5086 112.793 22.6479 112.892 22.943C113.252 24.0578 114.646 24.8283 115.982 24.648C116.752 24.5414 117.424 24.2545 117.933 23.6397C118.056 23.4922 118.146 23.484 118.302 23.5906C119.047 24.0742 119.793 24.5496 120.548 25.0086C120.793 25.1562 120.662 25.2545 120.564 25.3857C119.605 26.6562 118.285 27.312 116.744 27.5251C115.301 27.7218 113.883 27.6317 112.539 27.0087C110.441 26.0251 109.301 24.3693 109.162 22.0413C109.064 20.3528 109.375 18.779 110.506 17.451C111.654 16.1149 113.129 15.4346 114.867 15.3362C116.441 15.2461 117.908 15.5494 119.146 16.6068C120.4 17.6806 120.974 19.0904 121.113 20.697C121.162 21.1971 121.179 21.6971 121.146 22.2053C121.13 22.484 121.039 22.5414 120.785 22.5332C119.523 22.525 118.236 22.525 116.957 22.525ZM115.195 20.1233C115.834 20.1233 116.474 20.1233 117.121 20.1233C117.72 20.1233 117.744 20.0905 117.588 19.5003C117.58 19.4757 117.564 19.4511 117.564 19.4265C117.244 18.4101 116.367 17.8691 115.162 17.9593C114.023 18.0494 113.006 18.9101 112.842 19.8855C112.801 20.1314 112.908 20.1314 113.072 20.1314C113.777 20.1233 114.482 20.1233 115.195 20.1233Z" fill="white"/>
<path d="M54.5788 17.279C55.9313 15.1724 58.4396 15.0166 60.0626 15.7708C61.2429 16.32 61.7921 17.3856 62.1118 18.5905C62.2348 19.0659 62.284 19.5578 62.284 20.0496C62.284 22.3201 62.2758 24.5825 62.2922 26.853C62.2922 27.1481 62.2348 27.2465 61.9151 27.2383C60.8659 27.2137 59.8085 27.2219 58.7593 27.2383C58.4806 27.2465 58.4232 27.1563 58.4232 26.894C58.4314 24.8612 58.4232 22.8283 58.4314 20.7873C58.4314 20.4266 58.3904 20.0824 58.292 19.7381C57.915 18.4594 56.4149 18.0659 55.4559 18.9922C54.9231 19.5086 54.7264 20.1561 54.7264 20.8857C54.7264 22.8693 54.7182 24.8448 54.7346 26.8285C54.7346 27.1481 54.6608 27.2465 54.3329 27.2383C53.2919 27.2137 52.2591 27.2219 51.2181 27.2383C50.964 27.2383 50.8656 27.1891 50.8656 26.9022C50.8738 23.2874 50.8738 19.6643 50.8656 16.0495C50.8656 15.7954 50.923 15.697 51.2017 15.697C52.2263 15.7134 53.2509 15.7134 54.2755 15.697C54.505 15.697 54.587 15.7544 54.5788 15.9921C54.5624 16.3773 54.5788 16.7708 54.5788 17.279Z" fill="white"/>
<path d="M69.0221 21.1734C69.0549 21.8209 68.9484 22.6324 69.0631 23.4357C69.1697 24.2144 69.4975 24.4931 70.2763 24.5587C70.6205 24.5915 70.9566 24.5505 71.2927 24.4603C71.4648 24.4112 71.5714 24.403 71.5714 24.6489C71.5796 25.403 71.6042 26.1489 71.6206 26.903C71.6288 27.0834 71.596 27.2063 71.3828 27.2637C70.0222 27.6244 68.6533 27.6818 67.3172 27.1899C66.145 26.7637 65.6286 25.7883 65.3991 24.6325C65.2843 24.0505 65.3089 23.4603 65.3089 22.8783C65.3089 21.5504 65.3007 20.2307 65.3171 18.9028C65.3171 18.6323 65.2433 18.5421 64.9728 18.5585C64.563 18.5831 64.1531 18.5585 63.7433 18.5667C63.5466 18.5749 63.44 18.5339 63.4482 18.3044C63.4646 17.5421 63.4564 16.7716 63.4482 16.0093C63.4482 15.7962 63.5138 15.7142 63.7269 15.7224C64.1121 15.7306 64.4892 15.706 64.8745 15.7306C65.186 15.747 65.3089 15.665 65.2925 15.3289C65.2679 14.5666 65.2925 13.7961 65.2761 13.0338C65.2679 12.7715 65.3499 12.6813 65.6204 12.6813C66.645 12.6977 67.6696 12.6977 68.6942 12.6813C68.9811 12.6731 69.0303 12.7879 69.0221 13.0338C69.0057 13.7879 69.0303 14.5338 69.0139 15.288C69.0057 15.6158 69.0795 15.747 69.432 15.7306C70.0713 15.6978 70.7189 15.7388 71.3583 15.7142C71.637 15.706 71.7435 15.7716 71.7353 16.0667C71.7107 16.788 71.7189 17.5175 71.7353 18.2389C71.7435 18.4848 71.6779 18.5667 71.4156 18.5585C70.7353 18.5421 70.0467 18.5667 69.3664 18.5503C69.1041 18.5421 69.0057 18.6159 69.0139 18.8864C69.0303 19.5996 69.0221 20.3127 69.0221 21.1734Z" fill="white"/>
<path d="M123.925 21.566C123.925 20.5332 123.917 19.7053 123.933 18.8692C123.941 18.5905 123.843 18.525 123.589 18.5332C123.195 18.5495 122.794 18.525 122.4 18.5413C122.138 18.5577 122.08 18.4594 122.08 18.2135C122.097 17.4757 122.089 16.738 122.08 16.0003C122.08 15.7708 122.146 15.6806 122.384 15.6888C122.777 15.7052 123.179 15.6806 123.572 15.697C123.835 15.7052 123.933 15.6396 123.925 15.3527C123.908 14.5576 123.925 13.7707 123.908 12.9756C123.9 12.7297 123.974 12.6477 124.228 12.6477C125.269 12.6641 126.302 12.6641 127.343 12.6477C127.605 12.6477 127.663 12.7461 127.654 12.9838C127.646 13.7625 127.663 14.5412 127.646 15.3199C127.638 15.5986 127.712 15.7052 128.007 15.697C128.679 15.6724 129.343 15.7052 130.015 15.6888C130.286 15.6806 130.368 15.7708 130.359 16.0331C130.343 16.7544 130.343 17.4839 130.359 18.2053C130.368 18.4922 130.253 18.5413 130.007 18.5332C129.327 18.5168 128.638 18.5332 127.958 18.525C127.728 18.525 127.646 18.5823 127.646 18.82C127.654 20.2381 127.63 21.6644 127.654 23.0825C127.679 24.2956 128.392 24.7792 129.753 24.4677C130.154 24.3776 130.204 24.4759 130.195 24.8284C130.179 25.5088 130.212 26.1891 130.236 26.8777C130.245 27.099 130.163 27.1891 129.958 27.2465C128.704 27.5744 127.441 27.6154 126.195 27.2547C124.826 26.8531 124.22 25.7957 123.999 24.4677C123.835 23.4431 123.966 22.4021 123.925 21.566Z" fill="white"/>
<path d="M89.4155 27.4598C88.0876 27.4598 87.0548 26.4762 87.0548 25.2138C87.0548 23.9351 88.0958 22.9105 89.4155 22.9105C90.7107 22.9105 91.7599 23.9269 91.7517 25.1892C91.7517 26.4598 90.7189 27.4598 89.4155 27.4598Z" fill="white"/>
<path d="M15.9053 17.1972C15.9053 17.853 15.6758 18.0415 14.9217 18.0251C13.7003 18.0005 12.7003 16.8612 12.7987 15.6398C12.8315 15.2382 13.02 15.066 13.4053 15.0087C14.7741 14.8201 15.9135 15.812 15.9053 17.1972Z" fill="white"/>
</svg>
