<svg width="130" height="187" viewBox="0 0 130 187" fill="none" xmlns="http://www.w3.org/2000/svg">
<circle cx="65.1479" cy="87" r="57" fill="url(#paint0_radial)"/>
<path d="M88.3442 49.2645C66.5984 36.7096 38.7922 44.1602 26.2373 65.9059C13.6823 87.6517 21.133 115.458 42.8788 128.013C64.6245 140.568 92.4307 133.117 104.986 111.371C117.541 89.6256 110.09 61.8194 88.3442 49.2645Z" stroke="#FFF961" stroke-miterlimit="10"/>
<path d="M31.7111 57.8157C30.8668 57.3282 29.7872 57.6175 29.2998 58.4618C28.8123 59.3061 29.1016 60.3857 29.9459 60.8731C30.7902 61.3606 31.8698 61.0713 32.3572 60.227C32.8447 59.3827 32.5554 58.3031 31.7111 57.8157Z" fill="#FFF961"/>
<path d="M84.4421 45.5104C83.5978 45.0229 82.5182 45.3122 82.0307 46.1565C81.5433 47.0008 81.8325 48.0804 82.6768 48.5678C83.5211 49.0553 84.6007 48.766 85.0882 47.9217C85.5756 47.0774 85.2864 45.9978 84.4421 45.5104Z" fill="#FFF961"/>
<path d="M110.532 76.7646C109.814 76.3504 108.897 76.5962 108.482 77.3136C108.068 78.0311 108.314 78.9485 109.032 79.3627C109.749 79.7769 110.666 79.5311 111.081 78.8136C111.495 78.0962 111.249 77.1788 110.532 76.7646Z" fill="#FFF961"/>
<path d="M109.991 100.701C109.513 100.425 108.901 100.589 108.625 101.067C108.349 101.545 108.513 102.157 108.991 102.433C109.469 102.709 110.081 102.545 110.357 102.067C110.633 101.589 110.469 100.977 109.991 100.701Z" fill="#FFF961"/>
<path d="M59.9422 42.9379C59.5716 42.7239 59.0976 42.8509 58.8836 43.2216C58.6696 43.5923 58.7966 44.0662 59.1673 44.2803C59.5379 44.4943 60.0119 44.3672 60.2259 43.9966C60.4399 43.6259 60.3129 43.152 59.9422 42.9379Z" fill="#FFF961"/>
<path d="M111.929 83.3449C110.972 82.7926 109.749 83.1203 109.197 84.0769C108.644 85.0335 108.972 86.2567 109.929 86.809C110.885 87.3612 112.108 87.0335 112.661 86.0769C113.213 85.1203 112.885 83.8971 111.929 83.3449Z" fill="#FFF961"/>
<circle cx="110.928" cy="85.0769" r="3.75" transform="rotate(30 110.928 85.0769)" stroke="#FFF961" stroke-width="0.5"/>
<path d="M23.6122 70.36C22.6556 69.8077 21.4324 70.1355 20.8801 71.092C20.3278 72.0486 20.6556 73.2718 21.6122 73.8241C22.5688 74.3764 23.792 74.0486 24.3442 73.092C24.8965 72.1355 24.5688 70.9123 23.6122 70.36Z" fill="#FFF961"/>
<circle cx="22.6121" cy="72.092" r="3.75" transform="rotate(30 22.6121 72.092)" stroke="#FFF961" stroke-width="0.5"/>
<path d="M92.6122 49.36C91.6556 48.8077 90.4324 49.1355 89.8801 50.092C89.3278 51.0486 89.6556 52.2718 90.6122 52.8241C91.5688 53.3764 92.792 53.0486 93.3442 52.092C93.8965 51.1355 93.5688 49.9123 92.6122 49.36Z" fill="#FFF961"/>
<circle cx="91.6121" cy="51.092" r="3.75" transform="rotate(30 91.6121 51.092)" stroke="#FFF961" stroke-width="0.5"/>
<path d="M27.1479 128.079L65.3626 150.028V186.185L27.1479 164.285V128.079Z" fill="url(#paint1_linear)"/>
<path d="M103.448 128.079L65.2331 150.028V186.185L103.448 164.285V128.079Z" fill="url(#paint2_linear)"/>
<path d="M15.1494 112.857L65.1489 141.714V150.552L15.1494 121.695V112.857Z" fill="#A5CBFA"/>
<path d="M65.1484 141.714L115.148 112.857V121.695C115.148 121.695 65.1484 151.577 65.1484 150.552C65.1484 149.575 65.1484 141.714 65.1484 141.714Z" fill="#C8E2FF"/>
<path d="M115.147 112.857L65.1474 84L15.1479 112.857L65.1474 141.714L115.147 112.857Z" fill="#DCEEFF"/>
<path d="M87.1389 107.734C87.1389 107.717 87.1389 107.708 87.1389 107.69C87.1389 107.645 87.13 107.582 87.13 107.529C87.121 107.332 87.1121 107.135 87.1031 106.973L87.0763 106.767C87.0673 106.696 87.0583 106.615 87.0494 106.535L87.0136 106.257C86.9778 106.015 86.9151 105.702 86.8614 105.469L86.7002 104.824C86.6465 104.618 86.5569 104.35 86.4942 104.144L86.4584 104.036C86.4495 104.01 86.4405 103.992 86.4316 103.965L86.3689 103.786C86.3689 103.795 86.3778 103.804 86.3778 103.813C86.342 103.723 86.3152 103.643 86.2883 103.571C86.2614 103.508 86.2256 103.428 86.1988 103.347C86.3778 102.747 86.5301 102.093 86.5569 101.35C86.6017 100.213 86.4674 99.5326 86.342 98.9417C86.2883 98.6999 86.1988 98.3865 86.1182 98.1537C85.9928 97.8045 85.8048 97.3478 85.6526 97.0076C85.9122 97.5538 86.1092 98.1 86.2435 98.6551C85.948 97.4105 85.3302 96.1838 84.3721 95.0288C84.1841 94.796 83.9244 94.4826 83.7275 94.2498C83.629 94.1334 83.5036 93.9811 83.4051 93.8647C83.2081 93.6319 82.9574 93.3186 82.7604 93.0857C82.5724 92.8529 82.3127 92.5396 82.1157 92.3067C82.0172 92.1903 81.8919 92.0381 81.7934 91.9217C81.6054 91.6889 81.3457 91.3755 81.1487 91.1427C80.9607 90.9099 80.701 90.5965 80.504 90.3637C80.4055 90.2473 80.2802 90.0951 80.1817 89.9787C79.9936 89.7459 79.734 89.4325 79.537 89.1997C79.4474 89.0923 79.34 88.958 79.2326 88.8326C79.2415 88.8595 79.2415 88.9042 79.2415 88.9311C79.1341 88.358 78.9908 87.9372 78.955 87.8298C78.7849 87.3821 78.6864 87.1134 78.4715 86.7284C78.1849 86.2091 78.0596 86.0121 77.6835 85.5017C77.4686 85.2152 77.1552 84.857 76.9045 84.6063C76.7792 84.481 76.6359 84.3466 76.4837 84.2123C76.8956 84.6063 77.2448 85.0182 77.5223 85.439C77.2269 84.9913 76.8508 84.5615 76.4031 84.1497C76.43 84.1676 76.4568 84.1944 76.4747 84.2123C76.4479 84.1855 76.421 84.1676 76.3941 84.1407C76.3852 84.1318 76.3673 84.1138 76.3494 84.1049C76.2777 84.0422 76.2061 83.9706 76.1345 83.9079V83.9169C76.1971 83.9706 76.2688 84.0333 76.3315 84.087C76.2688 84.0333 76.1792 83.9795 76.1166 83.9258C75.0152 77.2999 73.0364 64.3434 72.4633 53.0703C72.4365 52.4257 72.5618 51.9332 72.6961 51.575C72.8036 51.5303 72.9289 51.4676 73.0543 51.4049C73.0812 51.3959 73.117 51.378 73.1349 51.3691L73.9139 50.9662L74.4153 50.6707L75.0779 50.2319C75.051 50.2498 75.0242 50.2677 74.9973 50.2856C75.248 50.1155 75.4719 49.9364 75.8211 49.6589L76.3673 49.1664C76.6896 48.8441 76.6986 48.8351 77.2358 48.1815L77.594 47.6711C77.7283 47.4562 77.8895 47.1517 78.0148 46.9279L78.2387 46.4354C78.3013 46.2743 78.3819 46.0504 78.4356 45.8803L78.561 45.4415C78.5879 45.3162 78.6237 45.155 78.6595 45.0297L78.7311 44.6536C78.749 44.564 78.7669 44.4387 78.7759 44.3491L78.8117 44.0447C78.8207 43.9731 78.8296 43.8835 78.8386 43.8119L78.8654 43.5791C78.8744 43.5254 78.8744 43.4627 78.8833 43.409L78.9013 43.2389V43.212L78.9192 43.0777C78.955 42.827 78.9729 42.6389 78.9818 42.4599C78.9818 42.5046 78.9818 42.5315 78.9818 42.5852C78.9997 42.3524 78.9997 42.3166 78.9908 41.851L78.9639 41.4839C78.9281 41.1705 78.9281 41.1705 78.7759 40.5527L78.6237 40.096C78.5252 39.8542 78.373 39.5498 78.2566 39.317L77.9521 38.8156C77.8089 38.6096 77.594 38.341 77.4328 38.144L76.9582 37.6426C76.1971 36.8994 75.3107 36.3443 74.9973 36.1383C75.7136 34.061 76.0539 31.6613 76.0539 29.0736C76.0539 23.4505 70.5651 13.7175 67.3148 8.45257C68.6668 7.66462 69.5801 6.21407 69.5801 4.53968C69.5801 2.03256 67.5476 0 65.0405 0C62.5333 0 60.5008 2.03256 60.5008 4.53968C60.5008 6.21407 61.4141 7.65567 62.7572 8.44362C62.6498 8.6227 62.5602 8.77492 62.4438 8.96295C62.3632 9.09726 62.2826 9.24052 62.211 9.35693L61.5395 10.503C61.3246 10.8702 61.047 11.3537 60.841 11.7208L60.1337 12.9743C59.9188 13.3683 59.6323 13.8876 59.4174 14.2816L58.7189 15.5979C58.5041 16.0097 58.2265 16.5559 58.0205 16.9678L57.3669 18.3109C57.1699 18.7318 56.9102 19.2959 56.7133 19.7167L56.1402 21.0508C55.9611 21.4806 55.7373 22.0537 55.5671 22.4835L55.1105 23.7639C54.9672 24.2116 54.7971 24.8026 54.6628 25.2503L54.3763 26.4322C54.2867 26.9336 54.1882 27.6052 54.1255 28.1066L54.0808 29.1094L54.0897 29.6825L54.1076 30.2376C54.1166 30.363 54.1166 30.4794 54.1255 30.6048V30.6227C54.1435 30.9271 54.1793 31.339 54.1972 31.6434L54.2061 31.7509C54.2151 31.8762 54.233 32.0016 54.2509 32.1269L54.3046 32.5657C54.3315 32.7358 54.3584 32.9238 54.3852 33.1208C54.3942 33.1835 54.4031 33.2462 54.4121 33.3089C54.43 33.4074 54.4479 33.5148 54.4568 33.6044L54.6449 34.4908C54.7255 34.8131 54.8419 35.234 54.9225 35.5474L54.9851 35.7354C54.9851 35.7533 54.9941 35.7623 55.003 35.7802L55.0926 36.0577C54.8956 36.1741 54.6897 36.2995 54.5195 36.407L53.839 36.8905C53.6241 37.0606 53.3466 37.3023 53.1406 37.4814L52.6302 38.0008C52.4601 38.1978 52.2452 38.4753 52.084 38.6813L51.7438 39.2096C51.6184 39.4424 51.4573 39.7647 51.3498 40.0065L51.1707 40.5168C51.0633 40.8839 51.0543 40.9287 50.9648 41.4928L50.929 41.9405C50.92 42.2629 50.92 42.2987 50.9558 42.7643L51.0006 43.1314C51.0096 43.2209 51.0275 43.3463 51.0454 43.4358L51.0633 43.5791C51.0722 43.6507 51.0812 43.7403 51.0901 43.803L51.117 44.0179C51.126 44.1074 51.1439 44.2327 51.1528 44.3223L51.1976 44.6088C51.2155 44.7342 51.2513 44.8953 51.2692 45.0117L51.3498 45.3699C51.3946 45.5311 51.4573 45.746 51.502 45.9071L51.6542 46.328C51.7438 46.5518 51.8781 46.8384 51.9855 47.0533L52.2452 47.5189C52.4422 47.8143 52.7287 48.2083 52.9436 48.4949L53.2749 48.862C53.266 48.853 53.266 48.853 53.257 48.853C53.2928 48.8888 53.3376 48.9425 53.3734 48.9784C54.036 49.6231 54.2061 49.7484 54.9314 50.2946L55.603 50.7244C55.8626 50.8766 56.2208 51.0646 56.4894 51.2169L57.2684 51.584C57.3042 51.6735 57.349 51.781 57.3669 51.8526C57.5102 52.3809 57.5191 52.6674 57.5102 53.0793C56.9908 64.3345 55.1015 77.264 54.036 83.9079C54.0271 83.9169 54.0181 83.9258 54.0091 83.9348V83.9437C54.0181 83.9348 54.0271 83.9258 54.036 83.9169C53.6331 84.2571 53.3197 84.6242 53.0242 84.9913C53.2391 84.7317 53.4361 84.4631 53.7047 84.2123C53.5704 84.3377 53.4361 84.4541 53.3286 84.5705C53.1137 84.7854 52.8362 85.0898 52.6481 85.3316C52.3347 85.7345 52.1646 85.9584 51.8512 86.4867C51.5647 86.9791 51.3409 87.5522 51.3319 87.5522C51.2513 87.7671 51.0991 88.1611 51.0185 88.5282C51.0006 88.5908 50.9737 88.7341 50.9469 88.8595L45.861 95.0825C45.4491 95.5839 45.1268 96.1032 44.8403 96.6226C44.7686 96.7569 44.697 96.9001 44.6254 97.0345C44.5895 97.1061 44.5537 97.1688 44.5269 97.2404C44.5537 97.1867 44.5627 97.124 44.5895 97.0613C44.5537 97.1509 44.509 97.2583 44.4642 97.3658C44.4373 97.4374 44.4015 97.5001 44.3746 97.5717C44.2851 97.7866 44.2045 98.0015 44.1418 98.1806C44.0613 98.4044 43.9807 98.7178 43.9269 98.9506C43.8464 99.2819 43.7837 99.7386 43.7389 100.079C43.7121 100.294 43.7031 100.589 43.6941 100.804C43.6852 101.019 43.6941 101.314 43.7121 101.529C43.7389 101.861 43.8016 102.308 43.8643 102.64C43.918 102.908 43.9896 103.186 44.0702 103.437L43.9896 103.634V103.643C43.909 103.848 43.8374 104.054 43.7568 104.296C43.5956 104.807 43.533 105.021 43.3897 105.666L43.2733 106.32C43.2644 106.356 43.2644 106.4 43.2554 106.436C43.2554 106.463 43.2464 106.499 43.2375 106.526C43.2375 106.57 43.2285 106.615 43.2285 106.66C43.2106 106.857 43.1838 107.063 43.1748 107.242C43.1748 107.314 43.1659 107.403 43.1659 107.493C43.1659 107.511 43.1659 107.52 43.1569 107.537C43.1479 107.663 43.1479 107.833 43.1479 107.958L43.1569 110.519C43.1659 112.829 44.2672 115.148 46.443 117.181V117.199C46.4609 117.217 46.4878 117.235 46.5057 117.253C47.0071 117.709 47.5712 118.157 48.1801 118.578C48.2428 118.623 48.2875 118.667 48.3502 118.712C48.6457 118.909 48.9501 119.106 49.2725 119.303C50.2574 119.894 51.3319 120.404 52.4512 120.87C52.8183 121.022 53.2122 121.13 53.5883 121.264C54.1793 121.479 54.7434 121.712 55.3612 121.882C55.5671 121.936 55.782 121.971 55.988 122.025C56.4357 122.141 56.8834 122.231 57.34 122.329C57.7967 122.428 58.2354 122.562 58.701 122.643V122.58C66.0791 123.879 74.3974 122.938 80.3608 119.616C84.8736 117.1 87.13 113.752 87.121 110.394L87.1121 107.833C87.1479 107.851 87.1389 107.788 87.1389 107.734Z" fill="#AEB1B3"/>
<path d="M43.1925 110.591L43.1836 108.03C43.1925 111.191 45.2251 114.352 49.2992 116.814C57.707 121.873 71.6215 122.016 80.3785 117.127C84.8913 114.611 87.1477 111.262 87.1388 107.905L87.1477 110.466C87.1567 113.823 84.8913 117.172 80.3874 119.688C71.6304 124.577 57.7159 124.434 49.3081 119.375C45.2341 116.921 43.2015 113.752 43.1925 110.591Z" fill="#A5CBFA"/>
<path d="M49.2992 116.814C45.2162 114.36 43.1925 111.2 43.1836 108.03C43.1836 107.905 43.1836 107.734 43.1925 107.609C43.3537 105.469 43.9268 103.822 44.3834 102.819C44.4819 102.613 44.6162 102.335 44.7237 102.12C44.8043 101.977 44.9028 101.78 44.9923 101.628L45.2341 101.225C45.3146 101.1 45.4131 100.929 45.4937 100.813L45.7265 100.464C45.7982 100.356 45.8967 100.222 45.9683 100.115L46.1832 99.8191C46.2459 99.7296 46.3354 99.6222 46.3981 99.5326L46.5861 99.2998C46.6398 99.2371 46.7115 99.1476 46.7652 99.076L46.8995 98.9237C46.9353 98.879 46.9801 98.8252 47.0159 98.7894C43.1299 103.159 44.2402 108.648 50.4363 112.382C54.3492 114.737 59.5515 115.945 64.7896 115.99C64.7448 115.999 64.6911 116.008 64.6463 116.017C63.9748 116.5 62.0228 119.581 67.0102 120.413C67.3594 120.476 67.8339 120.53 68.1921 120.566C61.4497 121.121 54.3761 119.858 49.2992 116.814Z" fill="#D2D5D6"/>
<path d="M43.1836 108.03C43.1925 107.6 43.2284 107.027 43.2731 106.597C43.3 106.338 43.3627 105.988 43.4164 105.729C43.5597 105.075 43.6223 104.86 43.7835 104.35C43.9268 103.884 44.079 103.526 44.2312 103.15C44.4551 102.604 45.3236 100.679 47.007 98.7805C43.1209 103.15 44.2312 108.639 50.4274 112.373C58.2353 117.074 71.1559 117.199 79.2861 112.668C85.9747 108.934 87.3447 103.213 83.2796 98.682C83.8526 99.3267 84.372 100.007 84.8107 100.688C85.5539 101.843 85.9479 102.729 86.0464 102.971C86.2881 103.544 86.6194 104.323 86.8701 105.46C87.0492 106.275 87.1388 107.009 87.1477 107.896C87.1567 111.253 84.8913 114.602 80.3874 117.118C71.6304 122.007 57.7159 121.864 49.3081 116.805C45.2251 114.352 43.1925 111.191 43.1836 108.03Z" fill="#C8E2FF"/>
<path d="M43.1836 108.03C43.2194 106.794 43.3358 103.043 46.998 98.7894C43.1209 103.159 44.2223 108.648 50.4274 112.382C58.2353 117.082 71.1559 117.208 79.2861 112.677C85.9747 108.943 87.3447 103.222 83.2796 98.6909C86.8701 102.801 87.0761 106.481 87.1477 107.69C87.1567 111.253 84.8913 114.611 80.3874 117.127C71.6304 122.016 57.7159 121.873 49.3081 116.814C45.2251 114.351 43.1925 111.191 43.1836 108.03Z" fill="#C8E2FF"/>
<path d="M83.5301 98.9775C83.7719 99.264 83.7719 99.264 83.8973 99.4252L84.1032 99.6938C84.1659 99.7833 84.2644 99.9087 84.327 99.9982L84.5598 100.33C84.6315 100.437 84.73 100.58 84.8016 100.697L85.0434 101.082C85.1239 101.207 85.2224 101.386 85.303 101.511L85.5537 101.959C85.6343 102.111 85.7328 102.308 85.8134 102.461L86.0462 102.971C86.1178 103.15 86.2163 103.383 86.288 103.553L86.4939 104.135C86.5566 104.341 86.6461 104.61 86.6999 104.815L86.861 105.46C86.9058 105.693 86.9685 106.015 87.0132 106.248L87.1028 106.964C87.1207 107.242 87.1386 107.618 87.1476 107.896C87.1565 111.253 84.8911 114.602 80.3873 117.118C71.6303 122.007 57.7158 121.864 49.308 116.805C45.2249 114.352 43.2013 111.191 43.1924 108.021C43.2013 107.806 43.2103 107.52 43.2103 107.305C43.2372 107.027 43.273 106.651 43.3088 106.373L43.4252 105.72C43.4789 105.487 43.5505 105.174 43.6132 104.932L43.7923 104.341C43.8639 104.144 43.9535 103.875 44.0251 103.669L44.24 103.141C44.3206 102.971 44.4191 102.738 44.4997 102.568L44.7325 102.102C44.8131 101.959 44.9116 101.762 45.0011 101.61L45.2428 101.207C45.3234 101.082 45.4219 100.912 45.5025 100.795L45.7353 100.446C45.8069 100.338 45.9054 100.204 45.9771 100.097L46.192 99.8013C46.2546 99.7117 46.3442 99.6043 46.4069 99.5147L46.5949 99.2819C46.6486 99.2192 46.7203 99.1297 46.774 99.0581L46.9083 98.9059L47.0247 98.7715C43.1387 103.141 44.249 108.63 50.4451 112.364C55.6474 115.498 63.115 116.599 69.929 115.641C69.929 115.65 69.929 115.659 69.929 115.677C67.5114 116.554 67.601 118.032 68.4516 118.542C70.8244 119.966 76.8146 117.924 76.3669 115.847C76.1162 114.683 74.7552 115.327 74.0747 114.79C75.9551 114.262 77.719 113.555 79.3039 112.668C85.9925 108.934 87.3624 103.213 83.2973 98.682C83.3331 98.7178 83.3779 98.7715 83.4137 98.8163L83.5301 98.9775Z" fill="#C8E2FF"/>
<path d="M83.5301 98.9775C83.7719 99.264 83.7719 99.264 83.8973 99.4252L84.1032 99.6938C84.1659 99.7833 84.2644 99.9087 84.327 99.9982L84.5598 100.33C84.6315 100.437 84.73 100.58 84.8016 100.697L85.0434 101.082C85.1239 101.207 85.2224 101.386 85.303 101.511L85.5537 101.959C85.6343 102.111 85.7328 102.308 85.8134 102.461L86.0462 102.971C86.1178 103.15 86.2163 103.383 86.288 103.553L86.4939 104.135C86.5566 104.341 86.6461 104.61 86.6999 104.815L86.861 105.46C86.9058 105.693 86.9685 106.015 87.0132 106.248L87.1028 106.964C87.1207 107.242 87.1386 107.618 87.1476 107.896C87.1565 111.253 84.8911 114.602 80.3873 117.118C71.6303 122.007 57.7158 121.864 49.308 116.805C45.2249 114.351 43.2013 111.191 43.1924 108.021C43.2013 107.806 43.2103 107.52 43.2103 107.305C43.2372 107.027 43.273 106.651 43.3088 106.373L43.4252 105.72C43.4789 105.487 43.5505 105.174 43.6132 104.932L43.7923 104.341C43.8639 104.144 43.9535 103.875 44.0251 103.669L44.24 103.141C44.3206 102.971 44.4191 102.738 44.4997 102.568L44.7325 102.102C44.8131 101.959 44.9116 101.762 45.0011 101.61L45.2428 101.207C45.3234 101.082 45.4219 100.912 45.5025 100.795L45.7353 100.446C45.8069 100.338 45.9054 100.204 45.9771 100.097L46.192 99.8012C46.2546 99.7117 46.3442 99.6042 46.4069 99.5147L46.5949 99.2819C46.6486 99.2192 46.7203 99.1297 46.774 99.058L46.9083 98.9058L47.0247 98.7715C43.1387 103.141 44.249 108.63 50.4451 112.364C55.2892 115.283 62.1211 116.438 68.5411 115.802C68.5232 115.811 68.4964 115.829 68.4785 115.838C66.7772 116.447 66.2847 118.417 68.1114 119.07C71.487 120.279 78.5338 117.835 77.3161 115.22C77.1101 114.772 76.6445 114.244 75.6238 114.28C76.9221 113.823 78.1577 113.286 79.2949 112.65C85.9835 108.916 87.3535 103.195 83.2884 98.6641C83.3242 98.6999 83.369 98.7536 83.4048 98.7984L83.5301 98.9775Z" fill="#C8E2FF"/>
<path d="M83.5301 98.9775C83.7719 99.2641 83.7719 99.2641 83.8973 99.4252L84.1032 99.6938C84.1659 99.7834 84.2644 99.9087 84.327 99.9983L84.5598 100.33C84.6315 100.437 84.73 100.58 84.8016 100.697L85.0434 101.082C85.1239 101.207 85.2224 101.386 85.303 101.512L85.5537 101.959C85.6343 102.111 85.7328 102.308 85.8134 102.461L86.0462 102.971C86.1178 103.15 86.2163 103.383 86.288 103.553L86.4939 104.135C86.5566 104.341 86.6461 104.61 86.6999 104.816L86.861 105.46C86.9058 105.693 86.9685 106.015 87.0132 106.248L87.1028 106.964C87.1207 107.242 87.1386 107.618 87.1476 107.896C87.1565 111.253 84.8911 114.602 80.3873 117.118C71.6303 122.007 57.7158 121.864 49.308 116.805C45.2249 114.352 43.2013 111.191 43.1924 108.021C43.2013 107.806 43.2103 107.52 43.2103 107.305C43.2372 107.027 43.273 106.651 43.3088 106.374L43.4252 105.72C43.4789 105.487 43.5505 105.174 43.6132 104.932L43.7923 104.341C43.8639 104.144 43.9535 103.875 44.0251 103.669L44.24 103.141C44.3206 102.971 44.4191 102.738 44.4997 102.568L44.7325 102.102C44.8131 101.959 44.9116 101.762 45.0011 101.61L45.2428 101.207C45.3234 101.082 45.4219 100.912 45.5025 100.795L45.7353 100.446C45.8069 100.339 45.9054 100.204 45.9771 100.097L46.192 99.8013C46.2546 99.7118 46.3442 99.6043 46.4069 99.5148L46.5949 99.282C46.6486 99.2193 46.7203 99.1297 46.774 99.0581L46.9083 98.9059L47.0247 98.7716C43.1387 103.141 44.249 108.63 50.4451 112.364C54.9848 115.095 61.2436 116.277 67.2965 115.91C67.2697 115.918 67.2339 115.936 67.207 115.945C65.8997 116.617 65.1744 118.596 67.404 119.393C71.3796 120.816 80.1634 117.763 78.5338 114.701C78.2473 114.164 77.6832 113.653 76.94 113.796C77.7638 113.456 78.5607 113.08 79.3128 112.659C86.0014 108.925 87.3714 103.204 83.3063 98.6731C83.3421 98.7089 83.3869 98.7626 83.4227 98.8074L83.5301 98.9775Z" fill="#C8E2FF"/>
<path d="M83.5301 98.9775C83.7719 99.2641 83.7719 99.2641 83.8973 99.4252L84.1032 99.6938C84.1659 99.7834 84.2644 99.9087 84.327 99.9983L84.5598 100.33C84.6315 100.437 84.73 100.58 84.8016 100.697L85.0434 101.082C85.1239 101.207 85.2224 101.386 85.303 101.512L85.5537 101.959C85.6343 102.111 85.7328 102.308 85.8134 102.461L86.0462 102.971C86.1178 103.15 86.2163 103.383 86.288 103.553L86.4939 104.135C86.5566 104.341 86.6461 104.61 86.6999 104.816L86.861 105.46C86.9058 105.693 86.9685 106.015 87.0132 106.248L87.1028 106.964C87.1207 107.242 87.1386 107.618 87.1476 107.896C87.1565 111.253 84.8911 114.602 80.3873 117.118C71.6303 122.007 57.7158 121.864 49.308 116.805C45.2249 114.352 43.2013 111.191 43.1924 108.021C43.2013 107.806 43.2103 107.52 43.2103 107.305C43.2372 107.027 43.273 106.651 43.3088 106.374L43.4252 105.72C43.4789 105.487 43.5505 105.174 43.6132 104.932L43.7923 104.341C43.8639 104.144 43.9535 103.875 44.0251 103.669L44.24 103.141C44.3206 102.971 44.4191 102.738 44.4997 102.568L44.7325 102.102C44.8131 101.959 44.9116 101.762 45.0011 101.61L45.2428 101.207C45.3234 101.082 45.4219 100.912 45.5025 100.795L45.7353 100.446C45.8069 100.339 45.9054 100.204 45.9771 100.097L46.192 99.8013C46.2546 99.7118 46.3442 99.6043 46.4069 99.5148L46.5949 99.282C46.6486 99.2193 46.7203 99.1297 46.774 99.0581L46.9083 98.9059L47.0247 98.7716C43.1387 103.141 44.249 108.63 50.4451 112.364C54.6893 114.916 60.4378 116.124 66.1146 115.963C66.0698 115.972 66.0161 115.99 65.9803 115.999C65.0312 116.536 63.5985 119.079 67.3055 119.903C72.7406 121.121 82.1423 117.548 80.1187 114.119C79.671 113.358 79.089 113.026 78.3995 113.143C78.7129 112.991 79.0173 112.829 79.3128 112.659C86.0014 108.925 87.3714 103.204 83.3063 98.6731C83.3511 98.7805 83.4585 98.888 83.5301 98.9775Z" fill="#C8E2FF"/>
<path d="M83.5302 98.9774C83.772 99.264 83.772 99.264 83.8974 99.4251L84.1033 99.6938C84.166 99.7833 84.2645 99.9087 84.3271 99.9982L84.5599 100.33C84.6316 100.437 84.7301 100.58 84.8017 100.697L85.0435 101.082C85.1241 101.207 85.2225 101.386 85.3031 101.511L85.5538 101.959C85.6344 102.111 85.7329 102.308 85.8135 102.461L86.0463 102.971C86.1179 103.15 86.2164 103.383 86.2881 103.553L86.494 104.135C86.5567 104.341 86.6462 104.61 86.7 104.815L86.8611 105.46C86.9059 105.693 86.9686 106.015 87.0133 106.248L87.1029 106.964C87.1208 107.242 87.1387 107.618 87.1477 107.896C87.1566 110.877 85.3748 113.85 81.82 116.241C81.9454 116.089 82.1066 115.874 82.2319 115.721C84.0675 112.937 80.6918 111.925 80.4859 111.979C80.4322 111.988 80.3695 112.023 80.3247 112.05C86.109 108.325 87.1297 102.971 83.2795 98.6909C83.3153 98.7267 83.3601 98.7805 83.3959 98.8252C83.4317 98.87 83.4855 98.9327 83.5302 98.9774Z" fill="#C8E2FF"/>
<path d="M49.2992 116.814C46.2907 115.005 44.4014 112.811 43.6045 110.51C43.6403 110.528 43.6851 110.555 43.7209 110.573C45.0013 111.8 45.0013 111.8 45.3416 111.531C45.9863 111.039 46.0221 108.827 46.0131 108.809C46.0131 108.8 45.9952 108.621 45.8699 108.146C45.8788 108.155 45.8967 108.164 45.9146 108.164C46.8548 109.695 48.3501 111.128 50.4185 112.373C53.9464 114.495 58.5218 115.686 63.2227 115.936C62.4706 116.044 61.5035 118.721 63.2675 119.93C63.6167 120.172 63.9569 120.315 64.2882 120.449C64.5031 120.521 64.7807 120.619 64.9956 120.691C59.2829 120.682 53.5792 119.384 49.2992 116.814Z" fill="#C8E2FF"/>
<path d="M49.2994 116.814C47.4101 115.677 45.9596 114.387 44.9478 113.026C45.0283 113.062 45.1358 113.107 45.2164 113.143C47.3564 114.074 46.8729 109.516 46.855 109.472C47.7504 110.519 48.9412 111.504 50.4186 112.391C53.4451 114.208 57.2326 115.345 61.2172 115.784C60.5635 115.856 59.6144 118.703 61.0739 120.019C61.1724 120.109 61.3157 120.216 61.4231 120.297C61.5574 120.378 61.7365 120.485 61.8708 120.566C57.2416 120.163 52.8004 118.918 49.2994 116.814Z" fill="#C8E2FF"/>
<path d="M49.2994 116.814C48.207 116.151 47.2578 115.444 46.4609 114.701C48.6815 114.826 48.0816 110.761 47.9115 110.546C48.6278 111.2 49.4605 111.817 50.4186 112.391C52.7466 113.796 55.5403 114.79 58.522 115.372C58.3698 115.399 56.6058 117.772 58.3966 119.867C58.4951 119.957 58.6294 120.073 58.7279 120.154C55.2538 119.545 51.9945 118.434 49.2994 116.814Z" fill="#C8E2FF"/>
<path d="M49.299 116.814C48.9946 116.626 48.6991 116.438 48.4126 116.25C48.538 116.259 48.6991 116.277 48.8245 116.286C48.9677 116.232 49.1647 116.169 49.2722 116.062C49.4602 115.883 49.7378 115.829 49.9079 115.632C49.9169 115.623 50.0959 115.399 50.1944 114.969C50.2213 114.844 50.3108 114.369 50.2303 113.698C50.2124 113.546 50.1676 113.349 50.1318 113.196C50.0601 112.919 50.1497 112.632 50.078 112.364C50.0243 112.176 50.0243 112.176 49.8094 111.997C50.0064 112.122 50.2034 112.247 50.4093 112.373C51.7703 113.196 53.2925 113.877 54.9222 114.414C54.8595 114.405 54.7699 114.351 54.6983 114.369C54.6177 114.387 53.785 115.48 53.8387 116.868C53.8477 117.1 53.8745 117.727 54.8863 119.008C55.0206 119.115 55.1997 119.258 55.334 119.375C53.1582 118.748 51.0988 117.897 49.299 116.814Z" fill="#C8E2FF"/>
<path d="M75.2209 116.483C75.006 118.247 70.1798 119.437 69.1411 117.978C68.5949 117.208 69.7858 116.268 69.9828 116.151C70.6006 115.793 72.9824 115.166 73.7524 115.292C75.2209 115.525 75.2477 116.259 75.2209 116.483Z" fill="#C8E2FF"/>
<path d="M73.9585 116.841C73.8779 117.288 72.1588 117.978 72.1408 117.978C72.1319 117.978 70.6097 118.005 70.2874 117.584C70.2426 117.53 70.2068 117.432 70.2157 117.36C70.2695 116.903 71.8185 116.115 71.8901 116.098C72.0961 116.044 73.7347 116.151 73.8779 116.384C73.9496 116.509 73.9854 116.706 73.9585 116.841Z" fill="#C8E2FF"/>
<path d="M44.8221 103.15C44.9206 102.478 45.1355 101.091 46.6487 99.2103C46.7204 99.1207 46.8188 99.0133 46.8905 98.9237C46.9263 98.879 46.9711 98.8252 47.0069 98.7894C45.7444 100.213 45.0101 101.753 44.8042 103.311C44.8042 103.257 44.8132 103.195 44.8221 103.15Z" fill="#C8E2FF"/>
<path d="M83.5302 98.9775C83.7719 99.264 83.7719 99.264 83.8973 99.4252L84.1032 99.6938C84.1659 99.7833 84.2644 99.9087 84.3271 99.9982L84.5599 100.33C84.6315 100.437 84.73 100.58 84.8016 100.697L85.0434 101.082C85.124 101.207 85.2225 101.386 85.303 101.511L85.5538 101.959C85.6343 102.111 85.7328 102.308 85.8134 102.461L86.0462 102.971C86.1179 103.15 86.2163 103.383 86.288 103.553L86.4939 104.135C86.5566 104.341 86.6461 104.61 86.6999 104.815L86.861 105.46C86.9058 105.693 86.9685 106.015 87.0133 106.248L87.1028 106.964C87.1207 107.242 87.1386 107.618 87.1476 107.896C87.1565 110.045 86.2253 112.203 84.3629 114.128C84.4256 113.993 84.4972 113.814 84.5599 113.68C85.509 110.94 83.0019 110.116 82.6885 110.188C86.3059 106.669 86.5297 102.299 83.2794 98.682C83.3153 98.7178 83.36 98.7715 83.3958 98.8163C83.4317 98.87 83.4854 98.9327 83.5302 98.9775Z" fill="#C8E2FF"/>
<path d="M83.5302 98.9774C83.7719 99.264 83.7719 99.264 83.8973 99.4251L84.1032 99.6938C84.1659 99.7833 84.2644 99.9087 84.3271 99.9982L84.5599 100.33C84.6315 100.437 84.73 100.58 84.8016 100.697L85.0434 101.082C85.124 101.207 85.2225 101.386 85.3031 101.511L85.5538 101.959C85.6344 102.111 85.7329 102.308 85.8134 102.461L86.0462 102.971C86.1179 103.15 86.2164 103.383 86.288 103.553L86.4939 104.135C86.5566 104.341 86.6462 104.61 86.6999 104.815L86.8611 105.46C86.9058 105.693 86.9685 106.015 87.0133 106.248L87.1028 106.964C87.1207 107.242 87.1386 107.618 87.1476 107.896C87.1476 109.373 86.7178 110.859 85.8313 112.265C85.8672 112.14 85.9119 111.97 85.9388 111.844C86.4402 109.051 84.3718 108.146 84.3539 108.137C86.2611 105.066 85.9119 101.628 83.2705 98.6909C83.3063 98.7267 83.3511 98.7805 83.3869 98.8252C83.4317 98.87 83.4854 98.9327 83.5302 98.9774Z" fill="#C8E2FF"/>
<path d="M83.5305 98.9775C83.7723 99.264 83.7723 99.264 83.8976 99.4252L84.1036 99.6938C84.1662 99.7833 84.2647 99.9087 84.3274 99.9982L84.5602 100.33C84.6318 100.437 84.7303 100.58 84.802 100.697L85.0437 101.082C85.1243 101.207 85.2228 101.386 85.3034 101.511L85.5541 101.959C85.6347 102.111 85.7332 102.308 85.8138 102.461L86.0466 102.971C86.1182 103.15 86.2167 103.383 86.2883 103.553L86.4943 104.135C86.557 104.341 86.6465 104.61 86.7002 104.815L86.8614 105.46C86.9062 105.693 86.9688 106.015 87.0136 106.248L87.1031 106.964C87.1211 107.242 87.139 107.618 87.1479 107.896C87.1479 108.737 87.0046 109.579 86.7271 110.412C86.745 110.304 86.7629 110.161 86.7718 110.045C86.9688 107.224 85.2944 106.114 85.2765 106.105C86.0108 103.598 85.3482 100.983 83.2798 98.682C83.3156 98.7178 83.3604 98.7715 83.3962 98.8163C83.432 98.87 83.4857 98.9327 83.5305 98.9775Z" fill="#C8E2FF"/>
<path d="M83.5305 98.9774C83.7723 99.264 83.7723 99.264 83.8976 99.4251L84.1036 99.6938C84.1662 99.7833 84.2647 99.9087 84.3274 99.9982L84.5602 100.33C84.6318 100.437 84.7303 100.58 84.802 100.697L85.0437 101.082C85.1243 101.207 85.2228 101.386 85.3034 101.511L85.5541 101.959C85.6347 102.111 85.7332 102.308 85.8138 102.461L86.0466 102.971C86.1182 103.15 86.2167 103.383 86.2883 103.553L86.4943 104.135C86.557 104.341 86.6465 104.61 86.7002 104.815L86.8614 105.46C86.9062 105.693 86.9688 106.015 87.0136 106.248L87.1031 106.964C87.1211 107.242 87.139 107.618 87.1479 107.896C87.1479 108.075 87.139 108.245 87.13 108.424C87.13 108.299 87.13 108.137 87.13 108.012C86.9957 105.227 85.572 103.983 85.5631 103.983C85.5272 102.165 84.7661 100.347 83.2798 98.6909C83.3156 98.7267 83.3604 98.7805 83.3962 98.8252C83.432 98.87 83.4857 98.9327 83.5305 98.9774Z" fill="#C8E2FF"/>
<path d="M83.5305 98.9775C83.7723 99.264 83.7723 99.264 83.8976 99.4252L84.1036 99.6938C84.1662 99.7833 84.2647 99.9087 84.3274 99.9982L84.5602 100.33C84.6318 100.437 84.7303 100.58 84.802 100.697L85.0437 101.082C85.1243 101.207 85.2228 101.386 85.3034 101.511L85.5541 101.959C85.6347 102.111 85.7332 102.308 85.8138 102.461L86.0466 102.971C86.1182 103.15 86.2167 103.383 86.2883 103.553C86.3421 103.687 86.4047 103.875 86.4585 104.01C86.4405 103.956 86.4137 103.884 86.3958 103.831C86.2346 103.428 85.8675 102.47 85.0616 101.476C85.0616 101.476 85.0616 101.485 85.0527 101.485C84.6766 100.518 84.0767 99.5774 83.2798 98.682C83.3156 98.7178 83.3604 98.7715 83.3962 98.8163C83.432 98.87 83.4857 98.9327 83.5305 98.9775Z" fill="#C8E2FF"/>
<path d="M85.2495 102.058C84.569 99.8371 82.7872 97.6971 79.8771 95.951C73.8242 92.3067 64.7001 91.4113 57.1161 93.3096C54.9134 93.8558 52.845 94.6437 51.0184 95.6645C49.6842 96.4077 48.556 97.2314 47.6517 98.1089C45.6012 100.088 44.6342 102.335 44.7506 104.574C44.8759 106.92 46.2101 109.257 48.753 111.235C49.2007 111.585 49.6842 111.916 50.2036 112.247C50.2752 112.292 50.3468 112.337 50.4185 112.382C52.8002 113.814 55.6566 114.826 58.7099 115.399C61.0379 115.838 63.4734 116.035 65.8999 115.981C70.7261 115.874 75.5165 114.772 79.2772 112.668C80.6293 111.916 81.7664 111.074 82.6887 110.179C83.9781 108.925 84.8376 107.555 85.2585 106.159C85.6704 104.807 85.6614 103.419 85.2495 102.058ZM81.0949 108.657C80.2621 109.472 79.2235 110.233 77.9968 110.913C74.5764 112.82 70.2337 113.814 65.8373 113.922C63.6346 113.975 61.414 113.796 59.3008 113.393C56.5251 112.865 53.9284 111.952 51.7705 110.645C51.7078 110.609 51.6362 110.564 51.5735 110.528C51.099 110.233 50.6602 109.928 50.2483 109.615C47.9382 107.815 46.7294 105.693 46.613 103.562C46.5056 101.529 47.3831 99.4789 49.2455 97.6881C50.0693 96.8912 51.09 96.1391 52.3078 95.4675C53.9732 94.5452 55.8535 93.8289 57.8503 93.3275C64.7449 91.6083 73.0363 92.4231 78.534 95.7272C81.1754 97.312 82.7961 99.255 83.4139 101.279C83.79 102.514 83.79 103.777 83.4229 105.004C83.0379 106.275 82.2678 107.52 81.0949 108.657Z" fill="#A5CBFA"/>
<path d="M57.528 53.133C57.5369 52.7212 57.528 52.4346 57.3847 51.9064C57.322 51.6825 57.1519 51.2706 56.9639 51.0468C57.2683 51.3243 57.7697 51.6198 58.4592 51.9243C59.2024 52.2556 59.9993 52.4615 60.4291 52.5779C60.6708 52.6406 61.0021 52.7212 61.2528 52.757C61.7543 52.8465 62.4169 52.945 62.9272 52.9987C63.2585 53.0435 64.2166 53.0972 64.7538 53.0972C65.9 53.0972 66.4999 53.0614 67.4311 52.945C68.5145 52.8107 69.3025 52.6137 69.8308 52.4794C69.8666 52.4705 70.7978 52.2287 71.7021 51.8168C72.5259 51.4318 72.902 51.1363 73.0542 50.993C73.0273 51.0199 72.4364 51.7452 72.4991 53.0793C72.5617 54.2612 71.7917 55.4521 70.1979 56.3386C67.2162 58.004 62.4795 57.9503 59.6232 56.2311C58.1727 55.3805 57.4832 54.2523 57.528 53.133Z" fill="#C8E2FF"/>
<path d="M72.3561 54.0284C72.2934 53.2494 72.3382 52.8285 72.3472 52.7479C72.4457 51.9152 72.4546 51.8615 72.3651 51.8436C72.3024 51.8257 72.2308 51.9063 72.177 51.9331C71.1384 52.4166 70.2519 52.7838 70.2519 52.7838C68.4611 53.4195 66.5181 53.5628 64.8348 54.5119C63.429 55.3088 63.1514 56.0341 62.6589 57.3503C61.5397 57.1354 60.4921 56.7683 59.6235 56.24C59.2922 56.043 59.0057 55.8281 58.755 55.6043C58.3521 53.1867 57.5552 51.9331 57.0806 51.1899L57.0269 51.1094L57.0179 51.1004L56.9911 51.0646L56.9731 51.0467L57.0269 51.1004C57.0716 51.1362 57.1343 51.181 57.1791 51.2168L57.3761 51.3511L57.5462 51.4586L57.8865 51.6556C58.0566 51.7361 58.2894 51.8525 58.4685 51.9331L59.0057 52.148C59.2206 52.2197 59.5161 52.3271 59.731 52.3898L60.4383 52.5868C60.6891 52.6405 61.0114 52.7211 61.2621 52.7658L62.0859 52.9091C62.3545 52.9449 62.7037 52.9897 62.9634 53.0166L63.8498 53.0882C64.1184 53.0971 64.4855 53.1151 64.7542 53.1151L65.6585 53.1061C65.9271 53.0882 66.2943 53.0792 66.5629 53.0524L67.4314 52.9628C67.6911 52.927 68.0403 52.8823 68.2999 52.8375L69.0789 52.6853C69.3207 52.6226 69.6431 52.551 69.8848 52.4883L70.5295 52.2913C70.7444 52.2107 71.0309 52.1122 71.2369 52.0316L71.6935 51.8346C71.8636 51.754 72.0964 51.6376 72.2666 51.5481L72.5352 51.3869C72.6247 51.3243 72.7501 51.2437 72.8396 51.181L72.9381 51.1004C72.965 51.0735 73.0098 51.0377 73.0366 51.0109L73.0277 51.0198L72.9918 51.0646L72.9381 51.1452C72.9113 51.1899 72.8754 51.2437 72.8575 51.2884L72.7859 51.4317C72.759 51.4944 72.7232 51.575 72.6964 51.6376L72.6337 51.8257C72.6158 51.8973 72.58 52.0048 72.5621 52.0764L72.5173 52.2913C72.5083 52.3719 72.4904 52.4883 72.4815 52.5778L72.4725 52.8106C72.4725 52.9002 72.4725 53.0166 72.4725 53.1061C72.4994 53.4016 72.4636 53.7239 72.3561 54.0284Z" fill="#A5CBFA"/>
<path d="M74.7376 82.914L73.6184 83.7915C78.1312 86.5046 77.97 90.8294 73.2691 93.4529C68.5683 96.0764 61.1007 95.9958 56.5879 93.2828C53.2212 91.2592 52.4511 88.3402 54.233 85.8957C54.8418 85.063 55.7372 84.284 56.9371 83.6214C59.5069 82.1888 62.9094 81.562 66.2044 81.7321L66.3477 80.577C62.6229 80.3801 58.7726 81.0964 55.8626 82.717C54.5105 83.4692 53.4898 84.3467 52.8093 85.2958C50.8036 88.0536 51.6721 91.3576 55.4776 93.6499C60.5813 96.7211 69.025 96.8106 74.3436 93.8379C79.6713 90.8741 79.8414 85.9853 74.7376 82.914Z" fill="#A5CBFA"/>
<path d="M53.3196 88.3849C53.4987 87.3999 56.8206 68.6413 57.5369 53.1419C57.4832 54.2612 58.1726 55.3804 59.6142 56.249C62.4706 57.9681 67.2072 58.0219 70.1889 56.3564C71.7738 55.47 72.5438 54.2791 72.4901 53.0972C73.287 68.5965 76.7253 87.3283 76.9044 88.3222C77.0029 90.1846 75.7852 92.065 73.278 93.4618C68.5772 96.0853 61.1096 96.0047 56.5967 93.2917C54.3314 91.9217 53.239 90.1399 53.3196 88.3849Z" fill="#C8E2FF"/>
<path d="M66.9568 68.7487C66.9568 68.7487 67.3956 57.3772 67.8433 56.052C68.291 54.7268 68.9357 58.9531 70.046 69.671C71.1562 80.3889 72.8127 93.3722 72.8127 93.3722C72.8127 93.3722 71.0219 94.9034 66.4644 95.1362C66.6972 92.9424 66.9568 68.7487 66.9568 68.7487Z" fill="#DCEEFF"/>
<path d="M62.587 58.0935C61.1096 94.9303 61.1096 94.9303 61.1365 94.984C59.4621 94.6437 57.9041 94.0796 56.5968 93.2827C56.2028 93.0499 55.8536 92.7992 55.5312 92.5485C56.2744 90.31 58.7457 64.5046 58.7368 55.6133C58.9875 55.8371 59.274 56.052 59.6053 56.249C60.4739 56.7773 61.5215 57.1444 62.6407 57.3593C62.6318 57.5742 62.6049 57.8697 62.587 58.0935Z" fill="#A5CBFA"/>
<path d="M79.0175 41.8778L78.9906 41.5107C78.9548 41.1973 78.9548 41.1973 78.8026 40.5795L78.6504 40.1229C78.5519 39.8811 78.3997 39.5767 78.2833 39.3439L77.9788 38.8424C77.8356 38.6365 77.6207 38.3679 77.4595 38.1709L76.9849 37.6695C76.2059 36.9084 75.2926 36.3353 74.9882 36.1473C74.7375 35.9951 74.3883 35.816 74.1286 35.6727L73.278 35.2787C73.0004 35.1623 72.6243 35.0191 72.3468 34.9116L71.4155 34.5982C71.1201 34.5087 70.7261 34.4102 70.4306 34.3296L69.4367 34.1058C69.1323 34.0431 68.7204 33.9804 68.407 33.9267L67.3683 33.8013C67.055 33.7655 66.6341 33.7476 66.3118 33.7208L65.2552 33.6849C64.9329 33.6849 64.512 33.6939 64.1897 33.6939L63.1331 33.7566C62.8197 33.7834 62.3989 33.8282 62.0855 33.864L61.0468 34.0162C60.7334 34.07 60.3305 34.1595 60.0171 34.2222L59.0232 34.4729C58.7277 34.5535 58.3338 34.6878 58.0383 34.7773L57.116 35.1176C56.8384 35.234 56.4713 35.4041 56.1938 35.5205L55.361 35.9503C55.1014 36.0936 54.7701 36.3085 54.5194 36.4607L53.8389 36.9442C53.624 37.1143 53.3464 37.3561 53.1404 37.5352L52.6301 38.0545C52.4599 38.2515 52.245 38.529 52.0839 38.735L51.7436 39.2633C51.6183 39.4961 51.4571 39.8184 51.3496 40.0602L51.1706 40.5706C51.0631 40.9377 51.0542 40.9824 50.9646 41.5465L50.9288 41.9942C50.9198 42.3166 50.9198 42.3524 50.9557 42.818L51.0004 43.1851C51.0094 43.2747 51.0273 43.4 51.0452 43.4896L51.0631 43.6328C51.0721 43.7045 51.081 43.794 51.09 43.8567L51.1168 44.0716C51.1258 44.1611 51.1437 44.2865 51.1527 44.376L51.1974 44.6625C51.2153 44.7879 51.2511 44.9491 51.2691 45.0655L51.3496 45.4236C51.3944 45.5848 51.4571 45.7997 51.5019 45.9609L51.6541 46.3817C51.7436 46.6056 51.8779 46.8921 51.9854 47.107L52.245 47.5726C52.442 47.8681 52.7286 48.262 52.9435 48.5486L53.3732 49.0231C54.0358 49.6678 54.206 49.7932 54.9312 50.3394L55.6028 50.7692C55.8625 50.9214 56.2206 51.1094 56.4892 51.2616L57.2772 51.6287C57.5458 51.7451 57.9219 51.8795 58.1905 51.9959L59.0501 52.2824C59.3277 52.363 59.7037 52.4615 59.9813 52.542L60.8946 52.739C61.1811 52.7928 61.5572 52.8554 61.8437 52.9002L62.7928 53.0166C63.0794 53.0435 63.4644 53.0703 63.7509 53.0882L64.709 53.1151C64.9955 53.1151 65.3806 53.1062 65.676 53.1062L66.6341 53.0524C66.9206 53.0256 67.3057 52.9808 67.6011 52.9539L68.5413 52.8107C68.8278 52.7569 69.2129 52.6764 69.4994 52.6226L70.4127 52.3988C70.6992 52.3182 71.0753 52.1928 71.3618 52.1033L72.2214 51.7899C72.5079 51.6735 72.875 51.5034 73.1526 51.378L73.9316 50.9751C74.8986 50.3931 75.1135 50.2409 75.8388 49.6678L76.385 49.1753C76.7074 48.853 76.7163 48.8441 77.2536 48.1904L77.6117 47.68C77.746 47.4651 77.9072 47.1607 78.0326 46.9369L78.2564 46.4444C78.3191 46.2832 78.3997 46.0594 78.4534 45.8892L78.5787 45.4505C78.6056 45.3251 78.6414 45.164 78.6772 45.0386L78.7489 44.6625C78.7668 44.573 78.7847 44.4476 78.7936 44.3581L78.8295 44.0537C78.8384 43.982 78.8474 43.8925 78.8563 43.8209L78.8832 43.5881C78.8921 43.5343 78.8921 43.4717 78.9011 43.4179L78.919 43.2478V43.2209L78.9369 43.0866C79.0264 42.5673 79.0175 42.2629 79.0175 41.8778Z" fill="#C8E2FF"/>
<path d="M73.9407 50.993C72.92 51.5212 72.8842 51.5391 72.2305 51.8078L71.3709 52.1212C71.0844 52.2107 70.7083 52.3361 70.4218 52.4166L69.5085 52.6405C69.222 52.6942 68.837 52.7838 68.5504 52.8285L67.6103 52.9718C67.3237 52.9986 66.9387 53.0434 66.6432 53.0703L65.6851 53.124C65.3986 53.124 65.0136 53.1419 64.7181 53.133L63.76 53.1061C63.4735 53.0882 63.0885 53.0613 62.802 53.0345L61.8528 52.9181C61.5663 52.8733 61.1902 52.8106 60.9037 52.7569L59.9904 52.5599C59.7128 52.4793 59.3368 52.3898 59.0592 52.3002L58.1996 52.0137C57.922 51.9063 57.5549 51.763 57.2863 51.6466L56.4983 51.2795C56.2297 51.1362 55.8716 50.9482 55.6119 50.787L54.9404 50.3572C54.2151 49.811 54.036 49.6857 53.3824 49.041C53.3376 48.9962 53.2839 48.9425 53.248 48.8977C53.257 48.9067 53.266 48.9156 53.266 48.9156C54.0091 49.6319 54.618 49.4529 54.5822 48.5396C54.5553 47.9128 54.5553 47.9128 54.5911 47.8859C54.627 47.8591 58.4235 48.844 58.4503 50.017C58.5399 53.2225 68.7832 54.5566 75.1048 50.2587L74.4422 50.6975L73.9407 50.993Z" fill="#A5CBFA"/>
<path d="M79.0175 41.8778L78.9906 41.5107C78.9548 41.1973 78.9548 41.1973 78.8026 40.5795L78.6504 40.1229C78.5519 39.8811 78.3996 39.5767 78.2832 39.3439L77.9788 38.8424C77.8355 38.6365 77.6206 38.3679 77.4595 38.1709L76.9849 37.6695C76.2059 36.9084 75.2926 36.3353 74.9882 36.1473C74.7375 35.9951 74.3883 35.816 74.1286 35.6727L73.278 35.2787C73.0004 35.1623 72.6243 35.0191 72.3467 34.9116L71.4155 34.5982C71.12 34.5087 70.7261 34.4102 70.4306 34.3296L69.4367 34.1058C69.1323 34.0431 68.7204 33.9804 68.407 33.9267L67.3683 33.8013C67.0549 33.7655 66.6341 33.7476 66.3117 33.7208L65.2552 33.6849C64.9328 33.6849 64.512 33.6939 64.1897 33.6939L63.1331 33.7566C62.8197 33.7834 62.3989 33.8282 62.0855 33.864L61.0468 34.0162C60.7334 34.07 60.3305 34.1595 60.0171 34.2222L59.0232 34.4729L58.1009 34.7505L57.1787 35.0907C51.672 37.3113 49.6752 41.3854 52.3256 45.0028C57.5279 52.0944 77.0207 51.1005 78.919 41.6361C78.9727 41.7793 79.0264 41.9226 78.9906 42.6031C79.0175 42.3793 79.0175 42.3435 79.0175 41.8778Z" fill="#DCEEFF"/>
<path d="M77.3523 40.4452C77.9701 42.7106 76.7255 45.1103 73.6543 46.8294C68.658 49.6141 60.7337 49.5335 55.9433 46.6503C53.1317 44.958 52.0304 42.6748 52.6035 40.5169C53.5794 40.6064 54.7882 40.5079 55.4329 38.5649C55.4329 38.5828 55.4329 38.6097 55.4419 38.6276L55.4508 38.6544C55.2628 40.1587 56.1313 41.7077 58.0833 42.8807C59.901 43.9731 62.3185 44.5372 64.763 44.5641C64.754 44.573 64.6734 44.5551 64.8436 44.5551C69.5802 44.77 72.6873 42.2808 72.6873 42.2808C74.2184 41.063 74.7915 39.5677 74.4064 38.144C75.0243 40.4452 76.3226 40.5437 77.3523 40.4452Z" fill="#C8E2FF"/>
<path d="M77.3523 40.4451C77.9701 42.7105 76.7255 45.1102 73.6543 46.8293C68.658 49.614 60.7337 49.5334 55.9433 46.6503C53.1317 44.9579 52.0304 42.6747 52.6035 40.5168C53.1317 40.5615 53.7317 40.5615 54.2689 40.2302C53.6063 43.4268 56.5969 44.2237 57.0536 43.8924C57.3849 43.6507 57.367 43.3283 57.3312 42.3702C57.564 42.5493 57.8147 42.7195 58.0833 42.8806C59.113 43.4984 60.3397 43.9551 61.647 44.2327C59.319 47.3218 65.0316 47.9486 67.5924 47.671C68.9803 47.5188 72.4276 46.9099 74.4781 44.564C75.4899 43.4 75.4899 43.4 74.4154 39.8452C74.5587 39.2901 74.5587 38.717 74.3975 38.1619C75.0243 40.4451 76.3226 40.5436 77.3523 40.4451Z" fill="#A5CBFA"/>
<path d="M65.0137 4.86206C65.0137 4.86206 54.0898 21.6418 54.0898 29.1811C54.0898 36.7204 56.9909 43.3732 64.9689 43.3732C72.947 43.3732 76.0719 37.0875 76.0719 29.1184C76.0719 21.1494 65.0137 4.86206 65.0137 4.86206Z" fill="#C8E2FF"/>
<path d="M64.9688 43.3731C64.7718 43.3731 64.4047 43.3641 63.9033 43.3194L63.366 43.2567C63.2049 43.2298 62.99 43.194 62.8288 43.1672L62.2915 43.0508C62.1304 43.006 61.9065 42.9523 61.7454 42.8985L61.1992 42.7195C61.029 42.6568 60.8052 42.5672 60.6351 42.4956L60.0799 42.2359C59.9008 42.1375 59.6591 42.0121 59.48 41.9046L58.9159 41.5375C58.3966 41.1436 57.913 40.7675 57.3042 40.0959L56.8296 39.5139C56.5789 39.1558 56.2655 38.6723 56.0417 38.3051L55.6656 37.5709C55.5223 37.2396 55.3343 36.8009 55.2 36.4606L54.9224 35.6369C54.8329 35.3235 54.7165 34.8937 54.6448 34.5803L54.4568 33.6938C54.4031 33.3804 54.3404 32.9686 54.2956 32.6552L54.1882 31.7329C54.1613 31.4285 54.1345 31.0166 54.1165 30.7122L54.0807 29.772L54.0718 29.1989L54.1165 28.1961C54.1792 27.6947 54.2777 27.0231 54.3673 26.5217L54.6538 25.3398C54.7881 24.8921 54.9582 24.2921 55.1015 23.8534L55.5581 22.573C55.7283 22.1432 55.9521 21.5612 56.1222 21.1403L56.6953 19.8062C56.8923 19.3853 57.143 18.8212 57.3489 18.4004L58.0026 17.0573C58.2085 16.6454 58.4861 16.0903 58.701 15.6873L59.3994 14.3711C59.6143 13.9771 59.9008 13.4489 60.1157 13.0638L60.8231 11.8103C61.029 11.4432 61.3156 10.9596 61.5215 10.5925L62.1931 9.44641C62.39 9.12407 62.6497 8.68532 62.8467 8.36298L63.4556 7.36013C63.6257 7.08256 63.8495 6.71545 64.0197 6.43787L64.53 5.62306C64.6644 5.40816 64.8793 5.13954 64.9777 4.90674C58.5667 20.4061 53.6241 38.5648 65.2016 43.4179C65.1658 43.3462 65.0494 43.3731 64.9688 43.3731Z" fill="#A5CBFA"/>
<path d="M65.4254 9.11522C65.4254 9.11522 65.0135 27.8917 66.3297 31.9569C67.646 36.022 72.2394 34.8311 72.6065 31.9569C72.9736 29.0826 71.917 24.9817 70.2963 20.254C68.6846 15.5263 65.103 5.31873 65.103 5.31873L65.4254 9.11522Z" fill="#DCEEFF"/>
<path d="M69.6072 4.58448C69.6072 7.09159 67.5746 9.12415 65.0675 9.12415C62.5604 9.12415 60.5278 7.09159 60.5278 4.58448C60.5278 2.07736 62.5604 0.0447998 65.0675 0.0447998C67.5746 0.0447998 69.6072 2.07736 69.6072 4.58448Z" fill="#A5CBFA"/>
<path d="M69.3116 4.1188C69.3116 6.20508 67.6193 7.89738 65.533 7.89738C63.4467 7.89738 61.7544 6.20508 61.7544 4.1188C61.7544 2.03252 63.4467 0.34021 65.533 0.34021C67.6193 0.34021 69.3116 2.03252 69.3116 4.1188Z" fill="#C8E2FF"/>
<path d="M67.6731 3.45619C67.6731 4.13669 67.1269 4.68289 66.4464 4.68289C65.7659 4.68289 65.2197 4.13669 65.2197 3.45619C65.2197 2.77569 65.7659 2.22949 66.4464 2.22949C67.1269 2.22949 67.6731 2.78464 67.6731 3.45619Z" fill="#DCEEFF"/>
<path d="M79.4027 90.0592C79.358 88.8952 79.0446 88.0088 78.9819 87.8386C78.8118 87.3909 78.7133 87.1223 78.4984 86.7373C78.2118 86.218 78.0865 86.021 77.7104 85.5106C77.4955 85.2241 77.1821 84.8659 76.9314 84.6152C76.8061 84.4898 76.6628 84.3555 76.5106 84.2212C79.7072 87.2477 78.964 91.2591 74.3527 93.8289C69.034 96.7926 60.5814 96.712 55.4866 93.6408C51.1976 91.0621 50.6335 87.185 53.7316 84.257C53.5973 84.3824 53.463 84.4988 53.3556 84.6152C53.1407 84.8301 52.8631 85.1345 52.6751 85.3763C52.3617 85.7792 52.1915 86.0031 51.8781 86.5314C51.5916 87.0238 51.3678 87.5969 51.3588 87.5969C51.2782 87.8118 51.126 88.2057 51.0454 88.5729C51.0007 88.7788 50.8753 89.325 50.8484 89.8264C50.8037 90.6144 50.8305 91.3307 51.1081 92.2888C51.5737 93.8468 52.8273 95.3421 54.8598 96.5598C60.3039 99.837 69.3026 99.9265 74.9795 96.7658C77.2627 95.4943 78.6595 93.8826 79.152 92.2082C79.2774 91.7426 79.4385 90.9815 79.4027 90.0592ZM76.1614 83.9347C76.2688 84.0332 76.3852 84.1317 76.5016 84.2302C76.3942 84.1317 76.2778 84.0242 76.1614 83.9347C76.1614 83.9257 76.1614 83.9347 76.1614 83.9347ZM54.0271 83.9884C53.9197 84.078 53.8212 84.1675 53.7227 84.266C53.8212 84.1765 53.9286 84.0869 54.0271 83.9884C54.0271 83.9974 54.0271 83.9884 54.0271 83.9884ZM54.3136 83.7556C54.2151 83.8362 54.1256 83.9078 54.0361 83.9884V83.9974C54.1256 83.9078 54.2241 83.8272 54.3136 83.7556Z" fill="#C8E2FF"/>
<path d="M54.8507 96.5688C53.812 95.942 52.9793 95.2526 52.3525 94.5184C52.3615 94.5273 52.3704 94.5363 52.3794 94.5452C52.5853 94.6974 54.0986 95.1362 53.7852 93.5513C53.6688 92.9514 53.4091 92.4052 53.2211 91.8322C53.8031 92.4858 54.5552 93.1036 55.4775 93.6588C57.134 94.6527 59.1307 95.3332 61.2707 95.7003C58.8621 97.0881 61.0916 98.5924 62.1303 98.8789C62.1751 98.8969 62.2467 98.9058 62.2915 98.9237C62.3273 98.9327 62.381 98.9416 62.4168 98.9506C59.6232 98.6372 56.9638 97.8403 54.8507 96.5688Z" fill="#A5CBFA"/>
<path d="M72.4365 96.1122C72.4365 96.1212 71.9798 97.0076 69.7145 97.4822C68.246 97.7866 67.0731 97.4643 66.9746 97.2494C66.9477 97.1957 66.9477 97.1061 66.9656 97.0524C67.1357 96.5957 71.9709 95.1542 72.4186 95.9152C72.4455 95.969 72.4455 96.0585 72.4365 96.1122Z" fill="#DCEEFF"/>
<path d="M50.0872 110.457C49.5321 110.116 48.8158 109.633 48.3054 109.239C47.5085 108.621 46.9265 108.048 46.7922 107.887C46.6221 107.699 46.3892 107.466 46.2281 107.269C45.9863 106.973 45.655 106.57 45.4401 106.248C45.1178 105.756 44.7775 105.254 44.3567 104.216C44.3567 104.207 44.0343 103.401 43.909 102.693C43.8463 102.362 43.7926 101.923 43.7568 101.583C43.7389 101.368 43.7299 101.073 43.7389 100.858C43.7478 100.643 43.7568 100.347 43.7836 100.133C43.8284 99.7923 43.8911 99.3357 43.9717 99.0044C44.0254 98.7716 44.106 98.4671 44.1866 98.2343C44.303 97.8941 44.491 97.4464 44.6343 97.1151C42.6912 101.18 44.3925 105.702 49.7918 108.952C57.9399 113.85 71.4157 113.993 79.9041 109.257C85.7779 105.98 87.7209 101.234 85.6615 96.9987C85.8137 97.3389 86.0017 97.7956 86.1271 98.1448C86.2077 98.3776 86.2972 98.691 86.3509 98.9327C86.4763 99.5326 86.6196 100.204 86.5658 101.341C86.4763 103.392 85.5719 105.039 85.2944 105.496C84.8019 106.311 83.9334 107.708 81.7396 109.364C80.7457 110.116 79.5907 110.752 79.5817 110.761C79.2325 110.949 78.7759 111.2 78.4177 111.37C77.8357 111.638 77.0567 111.97 76.4568 112.211C69.607 114.808 60.7246 114.817 53.8927 112.274C53.1674 111.979 52.2004 111.567 51.493 111.227C51.0543 111.021 50.4991 110.707 50.0872 110.457Z" fill="#C8E2FF"/>
<path d="M84.3723 95.0288C84.1842 94.796 83.9246 94.4826 83.7276 94.2498C83.6291 94.1334 83.5037 93.9812 83.4052 93.8648C83.2172 93.632 82.9575 93.3186 82.7605 93.0858C82.5725 92.853 82.3128 92.5396 82.1158 92.3068C82.0173 92.1904 81.892 92.0382 81.7935 91.9218C81.6055 91.689 81.3458 91.3756 81.1488 91.1428C80.9608 90.91 80.7011 90.5966 80.5041 90.3638C80.4056 90.2474 80.2803 90.0951 80.1818 89.9787C79.9937 89.7459 79.7341 89.4326 79.5371 89.1997C79.4476 89.0923 79.3401 88.958 79.2327 88.8326C79.3043 89.1729 79.358 89.5937 79.3759 90.0504C79.4028 90.901 79.2774 91.5994 79.1521 92.074C79.1521 92.074 79.1521 92.074 79.1521 92.0829C79.1431 92.1277 79.1252 92.1725 79.1163 92.2083V92.2172C79.1073 92.2441 79.0983 92.271 79.0894 92.2978C79.0804 92.3247 79.0715 92.3516 79.0625 92.3695C79.0536 92.3963 79.0446 92.4232 79.0357 92.4501C79.0267 92.4769 79.0178 92.5038 79.0088 92.5217C78.9999 92.5485 78.9909 92.5754 78.9819 92.6023C78.973 92.6291 78.964 92.656 78.9551 92.6739C78.9461 92.7008 78.9372 92.7276 78.9193 92.7545C78.9103 92.7813 78.9014 92.8082 78.8835 92.8351C78.8745 92.8619 78.8566 92.8888 78.8476 92.9157C78.8387 92.9425 78.8208 92.9694 78.8118 92.9962C78.8029 93.0231 78.785 93.05 78.776 93.0768C78.7671 93.1037 78.7491 93.1306 78.7402 93.1485C78.7312 93.1753 78.7133 93.2022 78.6954 93.229C78.6865 93.2559 78.6686 93.2828 78.6596 93.3007C78.6417 93.3275 78.6327 93.3544 78.6148 93.3813C78.5969 93.4081 78.588 93.426 78.5701 93.4529C78.5522 93.4798 78.5432 93.5066 78.5253 93.5335C78.5074 93.5603 78.4984 93.5872 78.4805 93.6051C78.4626 93.632 78.4447 93.6588 78.4358 93.6767C78.4178 93.7036 78.3999 93.7305 78.391 93.7484C78.3731 93.7752 78.3552 93.8021 78.3373 93.82C78.3194 93.8469 78.3014 93.8648 78.2835 93.8916C78.2656 93.9185 78.2477 93.9454 78.2209 93.9722C78.2029 93.9901 78.185 94.017 78.1761 94.0349C78.1582 94.0618 78.1403 94.0886 78.1134 94.1155C78.0955 94.1424 78.0776 94.1603 78.0597 94.1871C78.0418 94.214 78.0149 94.2408 77.997 94.2677C77.9791 94.2946 77.9612 94.3125 77.9433 94.3393C77.9254 94.3662 77.8985 94.3931 77.8806 94.4199C77.8627 94.4468 77.8448 94.4647 77.8269 94.4916C77.809 94.5184 77.7821 94.5453 77.7552 94.5721C77.7373 94.599 77.7194 94.6169 77.6926 94.6438C77.6657 94.6706 77.6478 94.6975 77.6209 94.7244C77.603 94.7423 77.5762 94.7691 77.5583 94.787C77.5314 94.8139 77.5135 94.8408 77.4866 94.8587C77.4687 94.8766 77.4419 94.9034 77.424 94.9214C77.3971 94.9482 77.3702 94.9751 77.3523 94.993C77.3255 95.0109 77.3075 95.0378 77.2807 95.0557C77.2538 95.0825 77.227 95.1094 77.2001 95.1273C77.1732 95.1452 77.1553 95.1721 77.1285 95.19C77.1016 95.2168 77.0747 95.2437 77.0479 95.2616C77.021 95.2795 77.0031 95.3064 76.9762 95.3243C76.9494 95.3511 76.9136 95.378 76.8867 95.3959C76.8598 95.4138 76.8419 95.4407 76.8151 95.4586C76.7882 95.4855 76.7524 95.5123 76.7255 95.5392C76.6987 95.5571 76.6808 95.575 76.6539 95.6019C76.6181 95.6287 76.5912 95.6556 76.5554 95.6824C76.5286 95.7004 76.5106 95.7183 76.4838 95.7362C76.448 95.763 76.4211 95.7809 76.3853 95.8078C76.3584 95.8257 76.3316 95.8436 76.3047 95.8705C76.2778 95.8884 76.242 95.9152 76.2152 95.9331C76.1883 95.9511 76.1525 95.9779 76.1256 95.9958C76.0898 96.0227 76.054 96.0406 76.0271 96.0675C76.0003 96.0854 75.9734 96.1033 75.9465 96.1212C75.9107 96.1481 75.8749 96.166 75.8391 96.1928C75.8122 96.2107 75.7854 96.2286 75.7585 96.2465C75.7227 96.2644 75.6958 96.2913 75.66 96.3092C75.6242 96.3271 75.5973 96.354 75.5615 96.3719C75.5347 96.3898 75.5078 96.4077 75.472 96.4256C75.4362 96.4525 75.3914 96.4704 75.3556 96.4973C75.2213 96.5778 75.078 96.6584 74.9437 96.739C69.2758 99.8998 60.2681 99.8102 54.8241 96.5331C54.7614 96.4973 54.6987 96.4525 54.636 96.4167C54.6181 96.4077 54.5913 96.3898 54.5734 96.3719C54.5286 96.345 54.4928 96.3182 54.448 96.2913C54.4301 96.2734 54.4032 96.2644 54.3853 96.2465C54.3495 96.2197 54.3047 96.1928 54.2689 96.166C54.2421 96.1481 54.2152 96.1301 54.1973 96.1122C54.1615 96.0854 54.1257 96.0675 54.0988 96.0406C54.0719 96.0227 54.0451 96.0048 54.0182 95.9869C53.9824 95.96 53.9555 95.9421 53.9197 95.9152C53.8928 95.8973 53.866 95.8794 53.8481 95.8615C53.8212 95.8347 53.7854 95.8167 53.7585 95.7899C53.7317 95.772 53.7048 95.7541 53.678 95.7272C53.6511 95.7004 53.6242 95.6824 53.5884 95.6556C53.5616 95.6377 53.5436 95.6198 53.5168 95.5929C53.4899 95.566 53.4631 95.5481 53.4272 95.5213C53.4004 95.5034 53.3825 95.4855 53.3556 95.4586C53.3287 95.4317 53.3019 95.4138 53.275 95.387C53.2482 95.3691 53.2303 95.3422 53.2034 95.3243C53.1765 95.2974 53.1497 95.2795 53.1228 95.2526C53.0959 95.2347 53.078 95.2079 53.0512 95.19C53.0243 95.1631 52.9974 95.1452 52.9706 95.1183C52.9527 95.1004 52.9258 95.0736 52.9079 95.0557C52.881 95.0288 52.8631 95.0109 52.8363 94.984C52.8184 94.9661 52.7915 94.9393 52.7736 94.9214C52.7467 94.8945 52.7288 94.8766 52.702 94.8497C52.6841 94.8318 52.6572 94.805 52.6393 94.787C52.6124 94.7602 52.5945 94.7423 52.5677 94.7154C52.5497 94.6975 52.5318 94.6706 52.505 94.6527C52.4871 94.6259 52.4602 94.608 52.4423 94.5811C52.4244 94.5632 52.4065 94.5363 52.3886 94.5184C52.3707 94.4916 52.3438 94.4736 52.3259 94.4468C52.308 94.4289 52.2901 94.402 52.2722 94.3841C52.2543 94.3573 52.2274 94.3304 52.2095 94.3125C52.1916 94.2946 52.1737 94.2677 52.1558 94.2498C52.1379 94.2229 52.12 94.205 52.102 94.1782C52.0841 94.1513 52.0662 94.1334 52.0483 94.1155C52.0304 94.0886 52.0125 94.0618 51.9946 94.0439C51.9767 94.026 51.9588 93.9991 51.9498 93.9812C51.9319 93.9543 51.914 93.9275 51.8961 93.9095C51.8782 93.8827 51.8692 93.8648 51.8513 93.8379C51.8334 93.8111 51.8155 93.7842 51.7976 93.7663C51.7797 93.7394 51.7708 93.7215 51.7528 93.7036C51.7349 93.6768 51.717 93.6499 51.7081 93.623C51.6902 93.6051 51.6812 93.5782 51.6633 93.5603C51.6454 93.5335 51.6364 93.5066 51.6185 93.4798C51.6096 93.4619 51.5917 93.435 51.5827 93.4171C51.5648 93.3902 51.5559 93.3634 51.5379 93.3365C51.529 93.3186 51.5111 93.2917 51.5021 93.2738C51.4842 93.247 51.4753 93.2201 51.4574 93.1932C51.4484 93.1753 51.4395 93.1485 51.4215 93.1306C51.4036 93.1037 51.3947 93.0768 51.3768 93.041C51.3678 93.0231 51.3589 93.0052 51.3499 92.9783C51.332 92.9515 51.3231 92.9157 51.3051 92.8888C51.2962 92.8709 51.2872 92.853 51.2783 92.8351C51.2604 92.7993 51.2514 92.7634 51.2335 92.7366C51.2246 92.7187 51.2246 92.7097 51.2156 92.6918C51.1977 92.647 51.1798 92.5933 51.1619 92.5485V92.5396C51.144 92.4948 51.1261 92.4501 51.1171 92.4053C51.1082 92.3874 51.1082 92.3695 51.0992 92.3516C51.0902 92.3247 51.0813 92.2889 51.0723 92.262C51.0365 92.1546 51.0097 92.0382 50.9828 91.9307C50.7948 91.1338 50.7769 90.4981 50.8127 89.8086C50.8306 89.4863 50.8843 89.146 50.938 88.8864L45.8611 95.1094C42.19 99.6132 43.4525 105.138 49.7471 108.925C57.8953 113.823 71.371 113.966 79.8594 109.23C86.6913 105.469 88.2225 99.6938 84.3723 95.0288ZM78.4447 87.9283C78.4447 87.9104 78.4447 87.8835 78.4447 87.8656C78.4447 87.8835 78.4447 87.9104 78.4447 87.9283ZM51.7708 87.9999C51.7708 87.991 51.7708 87.973 51.7708 87.9551C51.7797 87.973 51.7708 87.991 51.7708 87.9999ZM51.7797 87.9193C51.7797 87.9193 51.7797 87.9283 51.7797 87.9193C51.7797 87.9283 51.7797 87.9193 51.7797 87.9193Z" fill="#C8E2FF"/>
<path d="M45.8879 95.1362L52.2541 87.3373C50.5708 89.3967 50.4365 91.7874 51.8781 93.9006L45.3327 104.959C43.1748 101.798 43.3718 98.2253 45.8879 95.1362Z" fill="#A5CBFA"/>
<path d="M47.3564 107.206L53.2392 95.4048C53.6242 95.745 54.063 96.0763 54.5555 96.3808L49.3174 108.675C48.5921 108.209 47.9385 107.717 47.3564 107.206Z" fill="#A5CBFA"/>
<path d="M49.3174 108.675L54.5465 96.3809C54.645 96.4435 54.7435 96.5062 54.851 96.5689C55.7822 97.124 56.8119 97.5986 57.9132 97.9657L54.3585 111.048C52.7109 110.492 51.1619 109.794 49.7651 108.952C49.6218 108.863 49.4696 108.764 49.3174 108.675Z" fill="#A5CBFA"/>
<path d="M54.3672 111.047L57.9219 97.9657C58.7188 98.2343 59.5605 98.4582 60.4201 98.6283L58.11 112.041C56.8116 111.782 55.5581 111.45 54.3672 111.047Z" fill="#A5CBFA"/>
<path d="M71.89 98.082C71.505 98.2074 71.111 98.3148 70.7081 98.4133C70.1351 98.5566 69.5441 98.673 68.9531 98.7715L70.8872 112.256C71.7826 112.113 72.6601 111.934 73.5197 111.719C74.1196 111.567 74.7105 111.406 75.2836 111.218L71.89 98.082Z" fill="#DCEEFF"/>
<path d="M73.7529 115.292C72.9829 115.166 70.6011 115.793 69.9833 116.151C69.7863 116.268 68.5954 117.208 69.1416 117.978C70.1803 119.437 75.0065 118.247 75.2214 116.483C75.2482 116.259 75.2214 115.525 73.7529 115.292Z" fill="#DCEEFF"/>
<path d="M58.7279 120.154C58.6294 120.064 58.4951 119.948 58.3966 119.867C56.6058 117.772 58.3698 115.39 58.522 115.372C55.5403 114.79 52.7556 113.787 50.4186 112.391C49.4605 111.817 48.6278 111.2 47.9115 110.546C48.0816 110.77 48.6726 114.826 46.4609 114.701C46.4699 114.71 46.4609 114.701 46.4699 114.71L46.4788 117.27C47.0429 117.799 47.6787 118.3 48.395 118.784C48.6905 118.981 48.9949 119.178 49.3173 119.375C51.126 120.467 53.1943 121.327 55.406 121.953C56.4894 122.258 57.5997 122.518 58.7369 122.715L58.7279 120.154Z" fill="#A5CBFA"/>
<defs>
<radialGradient id="paint0_radial" cx="0" cy="0" r="1" gradientUnits="userSpaceOnUse" gradientTransform="translate(65.1479 87) rotate(90) scale(57)">
<stop offset="0.328125" stop-color="#FFF961"/>
<stop offset="1" stop-color="#20263B" stop-opacity="0"/>
</radialGradient>
<linearGradient id="paint1_linear" x1="54.1118" y1="143.52" x2="32.048" y2="181.736" gradientUnits="userSpaceOnUse">
<stop offset="0.033147" stop-color="#FFF961"/>
<stop offset="0.244792" stop-color="#FFF961" stop-opacity="0.55"/>
<stop offset="0.71875" stop-color="#2F3C5B" stop-opacity="0"/>
</linearGradient>
<linearGradient id="paint2_linear" x1="76.4839" y1="143.52" x2="98.5477" y2="181.736" gradientUnits="userSpaceOnUse">
<stop offset="0.033147" stop-color="#FFF961"/>
<stop offset="0.244792" stop-color="#FFF961" stop-opacity="0.55"/>
<stop offset="0.71875" stop-color="#2F3C5B" stop-opacity="0"/>
</linearGradient>
</defs>
</svg>
