<svg width="3" height="13" viewBox="0 0 3 13" fill="none" xmlns="http://www.w3.org/2000/svg">
<path d="M1.4953 13C1.2913 13 1.1293 12.946 1.0093 12.838C0.901305 12.718 0.847305 12.556 0.847305 12.352V4.75601C0.847305 4.55201 0.901305 4.39601 1.0093 4.28801C1.1293 4.16801 1.2913 4.10801 1.4953 4.10801C1.6993 4.10801 1.8553 4.16801 1.9633 4.28801C2.0833 4.39601 2.1433 4.55201 2.1433 4.75601V12.352C2.1433 12.556 2.0833 12.718 1.9633 12.838C1.8553 12.946 1.6993 13 1.4953 13ZM1.2613 2.57801C1.0093 2.57801 0.817305 2.51201 0.685305 2.38001C0.553305 2.23601 0.487305 2.04401 0.487305 1.80401V1.30001C0.487305 0.808012 0.745305 0.562012 1.2613 0.562012H1.7293C1.9693 0.562012 2.1493 0.628012 2.2693 0.760012C2.4013 0.880012 2.4673 1.06001 2.4673 1.30001V1.80401C2.4673 2.04401 2.4013 2.23601 2.2693 2.38001C2.1373 2.51201 1.9573 2.57801 1.7293 2.57801H1.2613Z" fill="#4FFFCA"/>
</svg>
