<svg width="118" height="187" viewBox="0 0 118 187" fill="none" xmlns="http://www.w3.org/2000/svg">
<circle cx="60.292" cy="87" r="57" fill="url(#paint0_radial)"/>
<path d="M15.6806 99.4509C22.1795 123.705 47.1098 138.099 71.364 131.6C95.6183 125.101 110.012 100.171 103.513 75.9163C97.014 51.6621 72.0837 37.2685 47.8294 43.7674C23.5752 50.2663 9.18165 75.1967 15.6806 99.4509Z" stroke="white" stroke-miterlimit="10"/>
<path d="M61.7728 133.45C62.0251 134.391 62.9931 134.95 63.9347 134.698C64.8764 134.445 65.4353 133.478 65.1829 132.536C64.9306 131.594 63.9627 131.035 63.021 131.288C62.0793 131.54 61.5205 132.508 61.7728 133.45Z" fill="white"/>
<path d="M15.7855 104.865C16.0378 105.806 17.0057 106.365 17.9474 106.113C18.8891 105.86 19.448 104.892 19.1956 103.951C18.9433 103.009 17.9754 102.45 17.0337 102.703C16.092 102.955 15.5332 103.923 15.7855 104.865Z" fill="white"/>
<path d="M19.4372 64.3164C19.6516 65.1166 20.4741 65.5915 21.2743 65.3771C22.0745 65.1627 22.5494 64.3402 22.335 63.54C22.1206 62.7397 21.2981 62.2649 20.4979 62.4793C19.6977 62.6937 19.2228 63.5162 19.4372 64.3164Z" fill="white"/>
<path d="M36.7454 47.7731C36.8884 48.3066 37.4367 48.6232 37.9702 48.4802C38.5036 48.3373 38.8202 47.7889 38.6773 47.2555C38.5343 46.722 37.986 46.4054 37.4525 46.5484C36.9191 46.6913 36.6025 47.2396 36.7454 47.7731Z" fill="white"/>
<path d="M31.2903 124.007C31.4011 124.421 31.8261 124.666 32.2395 124.556C32.6529 124.445 32.8983 124.02 32.7875 123.606C32.6767 123.193 32.2518 122.948 31.8383 123.058C31.4249 123.169 31.1796 123.594 31.2903 124.007Z" fill="white"/>
<path d="M23.1022 58.6755C23.3881 59.7424 24.4847 60.3756 25.5517 60.0897C26.6186 59.8038 27.2518 58.7072 26.9659 57.6402C26.68 56.5733 25.5833 55.9401 24.5164 56.226C23.4495 56.5119 22.8163 57.6086 23.1022 58.6755Z" fill="white"/>
<circle cx="25.034" cy="58.1579" r="3.75" transform="rotate(-105 25.034 58.1579)" stroke="white" stroke-width="0.5"/>
<path d="M76.3698 130.306C76.6556 131.373 77.7523 132.007 78.8192 131.721C79.8862 131.435 80.5193 130.338 80.2335 129.271C79.9476 128.204 78.8509 127.571 77.784 127.857C76.717 128.143 76.0839 129.24 76.3698 130.306Z" fill="white"/>
<circle cx="78.3016" cy="129.789" r="3.75" transform="rotate(-105 78.3016 129.789)" stroke="white" stroke-width="0.5"/>
<path d="M12.7301 96.3653C13.016 97.4323 14.1127 98.0654 15.1796 97.7795C16.2465 97.4937 16.8797 96.397 16.5938 95.33C16.3079 94.2631 15.2113 93.6299 14.1443 93.9158C13.0774 94.2017 12.4442 95.2984 12.7301 96.3653Z" fill="white"/>
<circle cx="14.6619" cy="95.8477" r="3.75" transform="rotate(-105 14.6619 95.8477)" stroke="white" stroke-width="0.5"/>
<path d="M20.4399 128.079L58.6546 150.028V186.185L20.4399 164.285V128.079Z" fill="url(#paint1_linear)"/>
<path d="M96.7397 128.079L58.5251 150.028V186.185L96.7397 164.285V128.079Z" fill="url(#paint2_linear)"/>
<path d="M8.29344 112.857L58.293 141.714V150.552L8.29344 121.695V112.857Z" fill="#A5CBFA"/>
<path d="M58.2925 141.714L108.292 112.857V121.695C108.292 121.695 58.2925 151.577 58.2925 150.552C58.2925 149.575 58.2925 141.714 58.2925 141.714Z" fill="#C8E2FF"/>
<path d="M108.291 112.857L58.2915 84L8.29196 112.857L58.2915 141.714L108.291 112.857Z" fill="#DCEEFF"/>
<path d="M79.9126 96.0361C79.9403 96.1192 79.968 96.1931 79.9865 96.2855C79.968 96.2023 79.9311 96.1192 79.9126 96.0361Z" fill="#AEB1B3"/>
<path d="M79.9889 96.2938C80.2185 97.1233 80.3648 98.1366 80.2544 99.4157C80.1251 100.912 79.8112 102.103 79.5064 103.045C80.1528 104.966 80.2452 106.332 80.2544 107.311L80.2636 109.943C80.2729 113.286 78.0197 116.628 73.5226 119.131C65.7105 123.489 53.8168 123.803 45.3952 120.22V120.267C44.3979 119.842 43.4375 119.362 42.551 118.826C42.0616 118.54 41.6091 118.235 41.1844 117.921C41.0366 117.82 40.9166 117.709 40.778 117.607C40.5103 117.395 40.2425 117.182 39.9931 116.961C39.8454 116.832 39.7161 116.693 39.5776 116.564C39.3652 116.361 39.1528 116.157 38.9681 115.954C38.8389 115.807 38.7188 115.668 38.5988 115.52L38.5986 115.52C38.4324 115.317 38.2663 115.114 38.1186 114.911C38.0078 114.763 37.9154 114.615 37.8139 114.458C37.6846 114.246 37.5553 114.043 37.4445 113.83C37.3614 113.683 37.2875 113.526 37.2136 113.369C37.1121 113.156 37.0289 112.935 36.9458 112.722C36.8812 112.565 36.8258 112.408 36.7796 112.251C36.7057 112.02 36.6596 111.799 36.6134 111.577C36.5765 111.429 36.5395 111.273 36.5211 111.125C36.5118 111.079 36.5026 111.023 36.4934 110.977V110.765C36.4749 110.534 36.438 110.303 36.438 110.072L36.4287 107.44C36.438 107.052 36.4657 106.545 36.4934 106.157C36.5118 105.944 36.5488 105.667 36.5857 105.455C36.6503 105.039 36.7796 104.282 37.1398 103.193V103.183L37.0474 102.934C37.0012 102.777 36.9274 102.565 36.8812 102.408L36.7612 101.955V101.946C36.7242 101.807 36.6965 101.669 36.6596 101.53C36.6503 101.512 36.6411 101.484 36.6411 101.466L36.5488 101.013C36.5211 100.893 36.4934 100.736 36.4749 100.607C36.438 100.358 36.4103 100.118 36.3826 99.8775L36.3825 99.8771C36.3733 99.7664 36.3641 99.6557 36.3549 99.5635L36.3271 99.0279V98.991V98.7417V98.4277L36.3641 97.7536L36.401 97.4396L36.3733 97.8275V97.9198C36.4195 97.3935 36.4934 96.9225 36.5857 96.5162C36.6042 96.4608 36.6226 96.3962 36.6319 96.3408C36.6503 96.2669 36.678 96.193 36.6965 96.1191C36.6873 96.1561 36.678 96.2022 36.6688 96.2392C36.6812 96.1957 36.6937 96.1564 36.7061 96.1185C36.706 96.1187 36.7059 96.1189 36.7057 96.1191C36.7519 95.9252 36.8073 95.7405 36.8627 95.5835L36.8628 95.5832C36.909 95.4541 36.9551 95.3249 37.0012 95.2049C37.0844 94.9926 37.1582 94.8079 37.2229 94.6694C37.1952 94.734 37.1767 94.8079 37.149 94.8817C37.8877 93.2381 39.1713 91.659 41.0551 90.2646L45.2936 87.1065C45.3028 87.0973 45.3028 87.0788 45.3121 87.0603C45.3305 87.0235 45.3489 86.9774 45.3674 86.9313L45.3675 86.9311C45.3767 86.9126 45.3767 86.9034 45.3859 86.8849C45.3859 86.8849 45.3952 86.8757 45.3952 86.8664C45.3931 86.8664 45.3915 86.8669 45.3902 86.8676C45.3888 86.8701 45.3874 86.8728 45.3859 86.8757C45.3859 86.8757 45.3859 86.8701 45.3902 86.8676C45.398 86.8541 45.4058 86.8451 45.4136 86.8295L45.5244 86.5986C45.6445 86.3955 45.8015 86.1185 45.9215 85.9245L46.0508 85.7306C46.0508 85.7399 46.0416 85.7399 46.0416 85.7491L46.2355 85.4721C46.2817 85.4167 46.3371 85.352 46.3832 85.2966C46.4848 85.1673 46.5771 85.0473 46.6787 84.9365C46.7249 84.8811 46.7711 84.8164 46.8172 84.7703L46.928 84.6502C47.0019 84.5763 47.0666 84.5025 47.1404 84.4286L47.2512 84.3178L47.4175 84.1608L47.4359 84.1423L47.5098 84.0777C47.5467 84.0315 47.5929 83.9946 47.6391 83.9576L47.6483 83.9484C47.7689 83.8365 47.8974 83.7245 48.0266 83.6201C48.0357 83.6123 48.045 83.6047 48.0546 83.5975C48.0453 83.605 48.0359 83.6125 48.0266 83.6201C47.966 83.6721 47.9157 83.7352 47.8515 83.7914C48.0454 83.6252 48.2762 83.4775 48.4886 83.3205C49.6244 78.4263 50.4648 73.8646 51.0096 69.4968L51.2774 67.0682L51.4436 64.8797L51.5359 62.6081V61.4076C51.5267 60.8167 51.5175 60.2349 51.4898 59.6808L51.4344 58.8405L51.3512 57.954C51.2681 57.3261 51.1758 56.5966 51.065 56.0241L50.8526 55.1007C50.5571 54.9991 50.2431 54.9252 49.9569 54.8052V54.8144C49.1997 54.5097 48.4702 54.1588 47.8053 53.7525C45.3767 52.2935 44.0562 50.4466 43.8346 48.5628C43.7607 47.9626 43.6961 47.3531 43.6222 46.7529C43.6289 46.7732 43.6406 46.7983 43.6464 46.8212C43.6028 46.5157 43.5857 46.2186 43.6037 45.9126C43.1697 45.6171 42.7634 45.3124 42.394 44.9984C42.3202 44.943 42.2463 44.8876 42.1816 44.8322C41.6368 44.3613 41.1751 43.8626 40.778 43.3547L40.5841 43.1054C40.2148 42.6068 39.91 42.0896 39.6792 41.5633L39.5684 41.2863C39.356 40.7507 39.199 40.2151 39.1251 39.6703C39.1251 39.6518 39.1067 39.6241 39.1067 39.5964V39.4117C39.0882 39.2178 39.0605 39.0146 39.0605 38.8115L39.0513 36.698C39.0525 36.8336 39.0762 36.9617 39.0865 37.0968C38.9036 34.3532 40.4463 31.5929 43.733 29.4018C44.2871 28.6354 45.035 27.9151 45.9585 27.241L45.8938 27.1579C45.8199 27.0655 45.7184 26.927 45.6353 26.8347L45.4506 26.6223C45.2012 26.3545 44.9704 26.0959 44.6749 25.8097C44.481 25.625 44.2317 25.3757 44.0377 25.191C43.8623 25.0155 43.6222 24.7847 43.4467 24.6092L42.9019 24.0644C42.7542 23.9074 42.551 23.7043 42.4033 23.5473L41.9416 23.0579C41.8123 22.9194 41.6461 22.7347 41.5168 22.5962L41.1197 22.1622C41.1012 22.1345 41.0735 22.116 41.0551 22.0883C41.0366 22.0606 41.0181 22.0421 40.9997 22.0236C40.9166 21.9221 40.8242 21.8205 40.7503 21.7374L40.4087 21.3403C40.3163 21.2295 40.1871 21.0725 40.0947 20.9617L39.7992 20.5923C39.7161 20.4815 39.6053 20.343 39.5222 20.2322L39.2636 19.8721C39.1898 19.7613 39.0882 19.6135 39.0143 19.5027L38.7742 19.1241C38.7096 19.0041 38.608 18.8378 38.5434 18.7178L38.3217 18.293C38.2571 18.1453 38.1648 17.9513 38.1001 17.8036L37.9339 17.3788C37.897 17.2865 37.8693 17.1757 37.8323 17.0649C37.8231 17.0372 37.8139 17.0002 37.8046 16.9725C37.7923 16.9479 37.7841 16.9233 37.7773 16.8986C37.7718 16.8863 37.7677 16.874 37.7677 16.8617C37.7708 16.874 37.7738 16.8863 37.7773 16.8986C37.78 16.9048 37.7831 16.911 37.7862 16.9171C36.7242 13.1773 38.7465 9.20653 43.8253 6.37162C46.7526 4.73716 50.2985 3.73063 54.0015 3.29662C54.5832 1.39437 56.3285 0 58.4247 0C60.5485 0 62.3215 1.43131 62.8756 3.3705C66.56 3.87838 70.0598 4.95878 72.867 6.66712C75.5265 8.27387 77.2348 10.1946 78.0382 12.2169C78.0289 12.18 78.0289 12.1523 78.0197 12.1153C78.0474 12.1707 78.0566 12.2354 78.0751 12.3C78.5368 13.5004 78.6753 14.7194 78.4907 15.9383C78.4168 16.7047 78.269 17.4619 77.992 18.1822C77.3548 19.8167 76.1913 21.1741 74.8431 22.2822C73.9474 23.298 72.8485 24.443 71.5188 25.745C71.4173 25.8558 71.2697 26.0034 71.1589 26.1142L71.1587 26.1144C71.0017 26.2899 70.7893 26.53 70.6323 26.7054L70.4107 26.9824C70.3645 27.0471 70.3091 27.1209 70.263 27.1856C71.2048 27.8597 71.9436 28.58 72.4976 29.3464C75.6834 31.4518 77.2625 34.0836 77.2163 36.7061C77.2163 36.6691 77.2256 36.623 77.2256 36.586L77.2348 38.7099C77.244 41.2586 75.7389 43.8164 72.7285 45.8757C72.747 46.1989 72.7193 46.5128 72.6731 46.836C72.6823 46.7806 72.7008 46.7345 72.71 46.6883C72.6454 47.2977 72.5715 47.898 72.5069 48.5074C72.2853 50.5113 70.8078 52.4781 68.1114 53.9833C67.308 54.4358 66.4307 54.7959 65.5166 55.1191C65.4427 55.3869 65.3965 55.5993 65.3134 56.0241L65.0641 57.677C65.0087 58.4158 64.9256 59.3854 64.8979 60.1241L64.8886 62.3126C64.9163 63.0883 64.9533 64.1133 64.9994 64.889L65.2026 67.3176C65.2949 68.0932 65.4058 69.1182 65.5073 69.8939L65.8675 72.3317C65.9875 73.0612 66.1537 74.0401 66.283 74.7696L66.717 77.0412C66.8555 77.6876 67.031 78.5464 67.1695 79.1928L67.6035 81.132C67.7328 81.6491 67.8898 82.3324 68.019 82.8495L68.1483 83.339C68.2961 83.4498 68.4346 83.5513 68.5731 83.6622C68.5531 83.6422 68.538 83.6222 68.5207 83.6057C68.5134 83.5998 68.5062 83.594 68.4992 83.5883C68.507 83.5934 68.514 83.5993 68.5207 83.6057C68.6662 83.7241 68.8572 83.8807 68.9979 84.0038C69.013 84.0265 69.0344 84.0492 69.0568 84.0669C69.0475 84.0578 69.0411 84.0471 69.0348 84.0408L69.0717 84.0777L69.1271 84.1331L69.1549 84.1608L69.3395 84.3363C69.3765 84.3732 69.4226 84.4101 69.4503 84.4378C69.4596 84.4378 69.4688 84.4563 69.4688 84.4563L69.4873 84.4748L69.7366 84.7333C69.7828 84.7887 69.8105 84.8164 69.8474 84.8626C69.8844 84.9088 69.9213 84.9457 69.9675 85.0011C70.1614 85.232 70.2907 85.3797 70.4384 85.5921C70.4476 85.6106 70.4569 85.6198 70.4661 85.629C70.4846 85.6475 70.5123 85.6937 70.5307 85.7214C70.5677 85.7768 70.5954 85.823 70.6416 85.8876L70.7154 85.9984C70.7524 86.0446 70.7708 86.0908 70.8078 86.1462L70.9186 86.3308C70.9555 86.3955 71.0017 86.4786 71.0386 86.5617C71.0479 86.5802 71.0663 86.6079 71.0756 86.6263C71.1033 86.6817 71.131 86.7279 71.1587 86.7833C71.1771 86.8203 71.1864 86.8572 71.2048 86.8941L71.2603 87.0049L71.2787 87.0603C72.7008 88.1038 74.1136 89.1473 75.5357 90.1908C77.4287 91.5851 78.7215 93.1549 79.4603 94.7894C79.4428 94.7428 79.4327 94.6999 79.4183 94.656C79.4072 94.6286 79.3965 94.6022 79.3864 94.577C79.4 94.6043 79.4099 94.6303 79.4183 94.656C79.4684 94.7791 79.5274 94.9212 79.5803 95.0572C79.7003 95.3527 79.8019 95.6482 79.885 95.9437C79.8924 95.9733 79.8998 95.9969 79.9072 96.0242C79.9066 96.0217 79.9061 96.0193 79.9055 96.0168C79.9043 96.0138 79.9035 96.0111 79.9035 96.0083C79.9042 96.0112 79.9048 96.014 79.9055 96.0168C79.9082 96.0239 79.9127 96.0323 79.9127 96.0453C79.9109 96.0379 79.9091 96.0309 79.9072 96.0242C79.9333 96.1332 79.9663 96.2351 79.9923 96.3441C79.9898 96.3267 79.993 96.312 79.9889 96.2938C79.9882 96.291 79.9874 96.2882 79.9866 96.2853C79.9876 96.2883 79.9883 96.2911 79.9889 96.2938Z" fill="#A5CBFA"/>
<path d="M36.4102 107.44C36.4194 107.053 36.4471 106.545 36.4748 106.157C36.4933 105.944 36.5302 105.658 36.5671 105.455C36.6318 105.039 36.7611 104.282 37.1212 103.193C37.5829 101.807 38.3216 100.33 39.1527 99.1572C36.1424 103.414 37.5183 108.484 43.3728 112.002C51.2865 116.767 64.3899 116.896 72.6361 112.298C78.9707 108.77 80.596 103.479 77.4379 99.0557C78.6014 100.699 79.2108 102.26 79.4786 103.045C80.125 104.975 80.2174 106.341 80.2266 107.32C80.2358 110.663 77.9827 114.006 73.4856 116.508C64.7593 121.375 50.8894 121.236 42.514 116.194C38.4417 113.747 36.4194 110.598 36.4102 107.44Z" fill="#C8E2FF"/>
<path d="M74.7415 96.3593C74.2798 96.0084 73.7719 95.6667 73.2363 95.3435C72.2205 94.7341 71.1217 94.1985 69.9581 93.7368C68.416 93.1273 66.7631 92.6564 65.0455 92.3147C63.0694 91.9268 61.0009 91.7145 58.9325 91.6775C53.5766 91.5944 48.1561 92.7118 43.973 95.0388C38.8757 97.8829 36.8257 101.863 37.8692 105.612C38.0446 106.258 38.3217 106.905 38.6818 107.533C39.0512 108.17 39.5221 108.798 40.0946 109.407C40.9627 110.331 42.0523 111.199 43.3636 111.993C43.6221 112.15 43.8807 112.298 44.1392 112.436C45.432 113.138 46.8541 113.729 48.35 114.2C51.5266 115.206 55.0726 115.687 58.6093 115.65C63.6604 115.594 68.6931 114.477 72.6268 112.288C74.1043 111.466 75.3232 110.543 76.2836 109.564C77.8626 107.957 78.7491 106.194 78.9523 104.393C79.2663 101.586 77.8719 98.714 74.7415 96.3593Z" fill="#A5CBFA"/>
<path d="M40.9995 90.2831C43.2342 88.621 45.4596 86.9681 47.6943 85.3059C43.659 88.307 43.9268 92.6379 48.5993 95.4451C53.7243 98.5293 62.2013 98.6124 67.5387 95.639C72.5529 92.841 73.0146 88.344 68.8038 85.2505C71.0477 86.8942 73.2824 88.5471 75.5263 90.1908C82.4058 95.2419 81.6486 102.611 73.4486 107.182C64.7222 112.048 50.8524 111.91 42.477 106.868C34.8403 102.269 34.4063 95.1865 40.9995 90.2831Z" fill="#C8E2FF"/>
<path d="M36.4101 110.072L36.4009 107.44C36.4101 110.589 38.4324 113.747 42.4955 116.194C50.8709 121.236 64.7407 121.375 73.4671 116.508C77.9642 114.006 80.2173 110.663 80.2081 107.32L80.2173 109.952C80.2265 113.295 77.9734 116.638 73.4763 119.14C64.75 124.007 50.8802 123.868 42.5047 118.826C38.4509 116.379 36.4193 113.23 36.4101 110.072Z" fill="#A5CBFA"/>
<path d="M45.9584 93.1458C45.7553 92.8595 45.5059 92.5086 45.2658 91.9731C45.0165 91.419 44.9242 91.0312 44.8411 90.6895C44.7118 90.1354 44.6656 89.2028 44.8503 88.344C45.0812 87.2636 45.5244 86.4418 45.8661 85.9431C46.6417 84.7888 47.3251 84.1978 48.0084 83.6346C44.4625 86.4602 44.8041 90.4309 49.1165 93.0258C53.9553 95.9438 61.9706 96.0177 67.0217 93.2105C71.6573 90.6249 72.1744 86.4972 68.4807 83.5884C68.7762 83.8377 69.1733 84.1609 69.4411 84.4379C69.6719 84.678 70.1059 85.1213 70.4568 85.6291C70.5861 85.8231 70.9001 86.2663 71.1494 86.7927C71.3618 87.2544 71.5372 87.7438 71.6203 88.1039C71.7681 88.7595 71.7958 89.092 71.7958 89.5537C71.7958 90.0893 71.7127 90.4863 71.6388 90.8742C71.5372 91.3821 71.2694 91.9361 71.1679 92.1485C71.1309 92.2224 70.9462 92.601 70.5861 93.0996C69.9028 94.0323 68.887 94.9003 67.5388 95.6483C62.2014 98.6217 53.7244 98.5386 48.5994 95.4544C47.4543 94.7526 46.5771 93.9769 45.9584 93.1458Z" fill="#C8E2FF"/>
<path d="M45.9586 93.1458C43.7701 90.0708 44.5365 86.5156 48.0086 83.6346C44.4627 86.4602 44.8043 90.4309 49.1167 93.0258C53.9554 95.9438 61.9708 96.0177 67.0219 93.2105C71.6575 90.6249 72.1746 86.4972 68.4809 83.5884C73.4397 87.7253 71.6298 91.576 70.614 93.0442C69.8937 94.0231 68.878 94.8911 67.539 95.639C62.2016 98.6125 53.7246 98.5294 48.5996 95.4451C47.4545 94.7526 46.5773 93.9769 45.9586 93.1458Z" fill="#C8E2FF"/>
<path d="M69.7368 84.7334C70.1985 85.269 70.2816 85.3613 70.6418 85.8784L70.9188 86.3309C71.0204 86.5341 71.1681 86.8019 71.2605 87.005L71.4359 87.4482C71.5006 87.6422 71.5744 87.8915 71.6298 88.0854L71.7222 88.5194C71.7499 88.6949 71.7776 88.935 71.796 89.1196L71.8053 89.5352C71.796 89.7014 71.7868 89.923 71.7776 90.0892L71.7222 90.4771C71.6945 90.6341 71.6483 90.8372 71.6114 90.985L71.5006 91.3451C71.4451 91.4836 71.3805 91.6683 71.3251 91.8068L71.1774 92.13C71.1127 92.25 71.0204 92.4163 70.9557 92.5363L70.7988 92.7856C70.7341 92.8687 70.6602 92.9888 70.5956 93.0719C69.9123 94.0046 68.8965 94.8726 67.5483 95.6205C62.2109 98.594 53.7339 98.5109 48.6089 95.4266C47.4638 94.7433 46.5866 93.9584 45.9679 93.1365C45.9125 93.0627 45.8479 92.9703 45.8017 92.8964C45.7463 92.8041 45.6632 92.6841 45.6078 92.601L45.4323 92.287C45.3677 92.1577 45.2846 91.9915 45.2292 91.8714L45.0906 91.5298C45.0445 91.3913 44.9798 91.1973 44.9429 91.0588L44.8506 90.6802C44.8229 90.5232 44.7859 90.3201 44.7674 90.1631L44.7397 89.7568C44.7397 89.5906 44.7397 89.3597 44.749 89.1935L44.7951 88.7687C44.8229 88.5841 44.869 88.344 44.906 88.1593L45.026 87.716C45.0906 87.5221 45.183 87.2636 45.2661 87.0696L45.4785 86.6172C45.5893 86.414 45.7463 86.137 45.8756 85.9431L46.1988 85.4906C46.365 85.2782 46.5958 85.0012 46.7805 84.7888L47.2145 84.3455C47.4546 84.1239 47.7778 83.8377 48.0271 83.6345C44.4812 86.4602 44.8229 90.4309 49.1352 93.0257C52.2564 94.9095 56.7073 95.6021 60.8165 95.1127C60.5949 95.1865 60.2994 95.2789 60.0778 95.3527C58.9882 95.7775 57.4922 96.35 58.3879 96.821C60.7242 98.0399 67.8253 95.7498 67.7053 94.4016C67.6591 93.9214 66.6618 94.0138 64.8427 94.18C65.6183 93.903 66.3479 93.5798 67.0312 93.2012C71.6668 90.6156 72.1839 86.4879 68.4902 83.5791C68.9519 83.9669 69.3213 84.2809 69.7368 84.7334Z" fill="#C8E2FF"/>
<path d="M69.7368 84.7334C70.1985 85.269 70.2816 85.3614 70.6418 85.8785L70.9188 86.3309C71.0204 86.5341 71.1681 86.8019 71.2605 87.005L71.4359 87.4483C71.5006 87.6422 71.5744 87.8915 71.6298 88.0855L71.7222 88.5195C71.7499 88.6949 71.7776 88.935 71.796 89.1197L71.8053 89.5352C71.796 89.7014 71.7868 89.9231 71.7776 90.0893L71.7222 90.4771C71.6945 90.6341 71.6483 90.8373 71.6114 90.985L71.5006 91.3451C71.4451 91.4836 71.3805 91.6683 71.3251 91.8068L71.1774 92.13C71.1127 92.2501 71.0204 92.4163 70.9557 92.5363L70.7988 92.7857C70.7341 92.8688 70.6602 92.9888 70.5956 93.0719C69.9123 94.0046 68.8965 94.8726 67.5483 95.6206C62.2109 98.594 53.7339 98.5109 48.6089 95.4267C47.4638 94.7433 46.5866 93.9584 45.9679 93.1366C45.9125 93.0627 45.8479 92.9704 45.8017 92.8965C45.7463 92.8041 45.6632 92.6841 45.6078 92.601L45.4323 92.287C45.3677 92.1577 45.2846 91.9915 45.2292 91.8715L45.0906 91.5298C45.0445 91.3913 44.9798 91.1974 44.9429 91.0589L44.8506 90.6803C44.8229 90.5233 44.7859 90.3201 44.7674 90.1632L44.7397 89.7568C44.7397 89.5906 44.7397 89.3598 44.749 89.1936L44.7951 88.7688C44.8229 88.5841 44.869 88.344 44.906 88.1593L45.026 87.7161C45.0906 87.5222 45.183 87.2636 45.2661 87.0697L45.4785 86.6172C45.5893 86.4141 45.7463 86.137 45.8756 85.9431L46.1988 85.4906C46.365 85.2782 46.5958 85.0012 46.7805 84.7888L47.2145 84.3456L47.3807 84.1886L47.3992 84.1701L47.5192 84.0686C44.5274 86.8573 45.0352 90.5602 49.1352 93.0258C51.9147 94.6972 55.7377 95.4359 59.4406 95.2327C59.2744 95.2974 59.062 95.3805 58.8958 95.4451C56.578 96.3963 57.5292 96.8118 57.8431 96.9595C61.269 98.474 69.2474 95.3343 69.1643 93.7368C69.1366 93.1827 68.1393 93.3028 66.4771 93.5059C66.6618 93.4136 66.8465 93.312 67.0312 93.2105C71.6668 90.6249 72.1839 86.4972 68.4902 83.5884C68.6379 83.7177 68.8411 83.8839 68.9888 84.0039C69.2105 84.2071 69.5244 84.4933 69.7368 84.7334Z" fill="#C8E2FF"/>
<path d="M69.7368 84.7334C70.1985 85.269 70.2816 85.3613 70.6418 85.8784L70.9188 86.3309C71.0204 86.5341 71.1681 86.8019 71.2605 87.005L71.4359 87.4482C71.5006 87.6422 71.5744 87.8915 71.6298 88.0854L71.7222 88.5194C71.7499 88.6949 71.7776 88.935 71.796 89.1196L71.8053 89.5352C71.796 89.7014 71.7868 89.923 71.7776 90.0892L71.7222 90.4771C71.6945 90.6341 71.6483 90.8372 71.6114 90.985L71.5006 91.3451C71.4451 91.4836 71.3805 91.6683 71.3251 91.8068L71.1774 92.13C71.1127 92.25 71.0204 92.4163 70.9557 92.5363L70.7988 92.7856C70.7341 92.8687 70.6602 92.9888 70.5956 93.0719C69.9123 94.0046 68.8965 94.8726 67.5483 95.6205C62.2109 98.594 53.7339 98.5109 48.6089 95.4266C47.4638 94.7433 46.5866 93.9584 45.9679 93.1365C45.9125 93.0627 45.8479 92.9703 45.8017 92.8964C45.7463 92.8041 45.6632 92.6841 45.6078 92.601L45.4323 92.287C45.3677 92.1577 45.2846 91.9915 45.2292 91.8714L45.0906 91.5298C45.0445 91.3913 44.9798 91.1973 44.9429 91.0588L44.8506 90.6802C44.8229 90.5232 44.7859 90.3201 44.7674 90.1631L44.7397 89.7568C44.7397 89.5906 44.7397 89.3597 44.749 89.1935L44.7951 88.7687C44.8229 88.5841 44.869 88.344 44.906 88.1593L45.026 87.716C45.0906 87.5221 45.183 87.2636 45.2661 87.0696L45.4785 86.6172C45.5893 86.414 45.7463 86.137 45.8756 85.9431C45.9125 85.8877 45.9679 85.8046 46.0048 85.7491C46.0048 85.7584 45.9956 85.7584 45.9956 85.7676L46.1618 85.7861C44.8506 88.2516 45.8294 91.0404 49.126 93.0257C51.5731 94.5032 54.842 95.2512 58.1202 95.2696C57.9909 95.325 57.8247 95.4082 57.6954 95.4636C57.1413 95.7406 55.4607 96.5717 57.3168 97.1811C62.9312 99.0003 71.6391 94.0138 70.2909 92.3147C70.1154 92.0931 69.746 92.1485 68.3517 92.3424C71.7222 89.766 71.7868 86.1924 68.481 83.5791C68.6287 83.7084 68.8319 83.8746 68.9796 83.9946C69.2105 84.207 69.5244 84.4933 69.7368 84.7334Z" fill="#C8E2FF"/>
<path d="M69.7368 84.7334C70.1985 85.269 70.2816 85.3613 70.6418 85.8785L70.9188 86.3309C71.0204 86.5341 71.1681 86.8019 71.2605 87.005L71.4359 87.4483C71.5006 87.6422 71.5744 87.8915 71.6298 88.0854L71.7222 88.5194C71.7499 88.6949 71.7776 88.935 71.796 89.1197L71.8053 89.5352C71.796 89.7014 71.7868 89.9231 71.7776 90.0893L71.7222 90.4771C71.6945 90.6341 71.6483 90.8372 71.6114 90.985L71.5006 91.3451C71.4451 91.4836 71.3805 91.6683 71.3251 91.8068L71.1774 92.13C71.1127 92.2501 71.0204 92.4163 70.9557 92.5363L70.7988 92.7857C70.7341 92.8688 70.6602 92.9888 70.5956 93.0719C69.9123 94.0046 68.8965 94.8726 67.5483 95.6206C62.2109 98.594 53.7339 98.5109 48.6089 95.4267C47.4638 94.7433 46.5866 93.9584 45.9679 93.1366C45.9125 93.0627 45.8479 92.9704 45.8017 92.8965C45.7463 92.8041 45.6632 92.6841 45.6078 92.601L45.4323 92.287C45.3677 92.1577 45.2846 91.9915 45.2292 91.8715L45.0906 91.5298C45.0445 91.3913 44.9798 91.1974 44.9429 91.0589L44.8506 90.6803C44.8229 90.5233 44.7859 90.3201 44.7674 90.1631L44.7397 89.7568C44.7397 89.5906 44.7397 89.3598 44.749 89.1936L44.7951 88.7688C44.8229 88.5841 44.869 88.344 44.906 88.1593L45.026 87.7161C45.0906 87.5222 45.183 87.2636 45.2661 87.0697C45.2938 87.0143 45.3307 86.9312 45.3492 86.8758C45.34 86.9035 45.3215 86.9404 45.3123 86.9773C45.303 87.1436 45.303 87.2821 45.6078 87.7068C45.497 89.6091 46.6697 91.539 49.126 93.0165C51.1945 94.2631 53.8539 94.9927 56.6057 95.1958C56.5873 95.205 56.5503 95.2235 56.5319 95.2327C55.9316 95.519 54.1494 96.5255 56.2825 97.2827C62.2663 99.4158 72.0823 93.9769 71.1312 91.262C70.9742 90.8188 70.5125 90.828 69.8569 90.8465C71.6483 88.4918 71.2051 85.703 68.4902 83.5607C68.6379 83.6899 68.8411 83.8562 68.9888 83.9762C69.2105 84.2071 69.5244 84.4933 69.7368 84.7334Z" fill="#C8E2FF"/>
<path d="M48.5996 95.4359C47.4546 94.7526 46.5773 93.9676 45.9586 93.1458C45.9032 93.0719 45.8386 92.9796 45.7924 92.9057C45.737 92.8134 45.6539 92.6933 45.5985 92.6102L45.423 92.2962C45.3584 92.167 45.2753 92.0008 45.2199 91.8807L45.0814 91.539C45.0352 91.4005 44.9706 91.2066 44.9336 91.0681L44.8413 90.6895C44.8136 90.5325 44.7766 90.3294 44.7582 90.1724L44.7305 89.7661C44.7305 89.5998 44.7305 89.369 44.7397 89.2028L44.7859 88.778C44.8136 88.5933 44.8597 88.3532 44.8967 88.1685C44.9244 88.0762 44.9521 87.9654 44.9706 87.873C44.9613 87.9285 44.9429 87.9931 44.9336 88.0485C44.9151 88.5102 45.2014 88.9165 45.7924 89.2674C46.2172 90.6341 47.3253 91.9453 49.1167 93.0258C50.6865 93.9676 52.5888 94.614 54.6111 94.9649C54.528 95.0296 54.4172 95.1035 54.3341 95.1681C51.9239 97.3843 56.6888 97.726 57.6676 97.7814C58.4248 97.8183 59.0158 97.7999 59.3298 97.7906C55.4699 97.9661 51.4992 97.1812 48.5996 95.4359Z" fill="#C8E2FF"/>
<path d="M48.5996 95.4358C47.4546 94.7524 46.5773 93.9675 45.9586 93.1457C45.9032 93.0718 45.8386 92.9795 45.7924 92.9056C45.737 92.8132 45.6539 92.6932 45.5985 92.6101L45.423 92.2961C45.3584 92.1669 45.2753 92.0006 45.2199 91.8806L45.0814 91.5389C45.0352 91.4004 44.9706 91.2065 44.9336 91.068L44.8413 90.6894C44.8136 90.5324 44.7766 90.3292 44.7582 90.1723L44.7305 89.766C44.7305 89.5997 44.7305 89.3689 44.7397 89.2027C44.7489 89.0919 44.7674 88.9533 44.7766 88.8425C44.7766 88.8518 44.7766 88.8702 44.7766 88.8795C44.7397 89.9691 45.617 90.3385 46.3649 90.4678C46.9467 91.3912 47.8701 92.2684 49.126 93.0256C50.0863 93.6074 51.176 94.0691 52.3395 94.4292C52.2841 94.4939 52.2102 94.5678 52.164 94.6324C51.1021 96.2207 52.3579 97.2457 55.9131 97.6982C53.2167 97.4211 50.6404 96.6639 48.5996 95.4358Z" fill="#C8E2FF"/>
<path d="M69.7364 84.7333C70.1981 85.2689 70.2812 85.3613 70.6414 85.8784L70.9184 86.3309C71.02 86.534 71.1677 86.8018 71.2601 87.005L71.4355 87.4482C71.5001 87.6421 71.574 87.8914 71.6294 88.0854L71.7218 88.5194C71.7495 88.6948 71.7772 88.9349 71.7956 89.1196L71.8049 89.5351C71.7956 89.7014 71.7864 89.923 71.7772 90.0892L71.7218 90.477C71.6941 90.634 71.6479 90.8372 71.611 90.9849L71.5001 91.345C71.4447 91.4836 71.3801 91.6682 71.3247 91.8068L71.177 92.13C71.1123 92.25 71.02 92.4162 70.9553 92.5363L70.7983 92.7856C70.7337 92.8687 70.6598 92.9887 70.5952 93.0719C70.3089 93.4597 69.958 93.8475 69.561 94.2077C69.5794 94.1892 69.6071 94.1707 69.6256 94.1523C71.0846 92.7487 72.7191 89.8953 70.6598 89.4243C71.3893 87.4297 70.6783 85.2874 68.499 83.5698C68.6468 83.6991 68.8499 83.8653 68.9977 83.9854C69.2101 84.207 69.524 84.4932 69.7364 84.7333Z" fill="#C8E2FF"/>
<path d="M48.5997 95.4359C47.4546 94.7525 46.5774 93.9676 45.9587 93.1458C45.9033 93.0719 45.8386 92.9795 45.7925 92.9057C45.737 92.8133 45.6539 92.6933 45.5985 92.6102L45.4231 92.2962C45.3584 92.1669 45.2753 92.0007 45.2199 91.8807L45.0814 91.539C45.0352 91.4005 44.9706 91.2066 44.9337 91.0681L44.8413 90.6895C44.8136 90.5325 44.7767 90.3293 44.7582 90.1723C44.749 90.0985 44.7397 89.9969 44.7397 89.9323C44.749 89.9969 44.7582 90.0708 44.7582 90.1354C44.9521 91.1235 44.9521 91.1235 48.2118 92.4255C48.3226 92.5086 48.4334 92.5917 48.5443 92.6656C48.8859 92.9611 49.5231 93.5151 49.6062 94.6417C49.6339 95.0203 49.7262 96.1838 52.5057 97.0703C52.5796 97.0888 52.672 97.1165 52.7366 97.135C51.2406 96.7379 49.8186 96.1746 48.5997 95.4359Z" fill="#C8E2FF"/>
<path d="M69.7364 84.7334C70.1981 85.269 70.2812 85.3614 70.6414 85.8785L70.9184 86.3309C71.02 86.5341 71.1677 86.8019 71.2601 87.005L71.4355 87.4483C71.5001 87.6422 71.574 87.8915 71.6294 88.0855L71.7218 88.5195C71.7495 88.6949 71.7772 88.935 71.7956 89.1197L71.8049 89.5352C71.7956 89.7014 71.7864 89.9231 71.7772 90.0893C71.7772 90.1262 71.7679 90.1724 71.7679 90.2093C71.7772 90.1632 71.7772 90.0985 71.7864 90.0523C71.8695 88.7503 71.5463 88.2978 70.9369 87.9562C70.9553 86.4233 70.1427 84.8812 68.499 83.5884C68.6468 83.7177 68.8499 83.8839 68.9977 84.0039C69.2101 84.2071 69.524 84.4933 69.7364 84.7334Z" fill="#C8E2FF"/>
<path d="M69.7365 84.7333C70.1982 85.2689 70.2813 85.3613 70.6414 85.8784L70.9185 86.3309C71.02 86.534 71.1678 86.8018 71.2601 87.005L71.4356 87.4482L71.454 87.5128L71.4356 87.4574C71.2047 86.8664 71.0016 86.5802 70.3275 85.666C70.0597 85.1766 69.6995 84.7056 69.2471 84.2532C69.1824 84.1885 69.0993 84.1054 69.0347 84.0408L69.4964 84.4748L69.7365 84.7333Z" fill="#C8E2FF"/>
<path d="M66.6618 94.9372C66.1169 96.3778 58.9696 97.7998 58.785 96.507C58.6557 95.6298 65.7291 93.9214 66.5879 94.6232C66.6618 94.6879 66.6987 94.8449 66.6618 94.9372Z" fill="#C8E2FF"/>
<path d="M65.84 95.2974C65.1012 96.4332 59.5699 97.4582 59.4129 96.4793C59.2929 95.7498 65.1751 94.3462 65.8307 94.9464C65.8677 94.9834 65.9046 95.048 65.9138 95.0942C65.9138 95.1681 65.8677 95.2512 65.84 95.2974Z" fill="#C8E2FF"/>
<path d="M65.1101 95.5744C64.3159 96.4424 60.1698 97.1534 60.0128 96.4516C59.8743 95.8237 64.5376 94.7064 65.1655 95.2142C65.2024 95.2512 65.2486 95.3158 65.2486 95.362C65.2394 95.4359 65.1655 95.519 65.1101 95.5744Z" fill="#C8E2FF"/>
<path d="M64.2976 95.8329C63.4481 96.4793 60.8348 96.784 60.724 96.3777C60.5578 95.7959 64.0668 95.2326 64.4177 95.4543C64.4638 95.482 64.5193 95.5466 64.5193 95.602C64.51 95.6944 64.3715 95.7775 64.2976 95.8329Z" fill="#C8E2FF"/>
<path d="M62.9585 96.1746C62.4783 96.3501 62.3582 96.3408 61.5918 96.267C61.8319 96.073 62.229 95.8699 62.5337 95.8052C62.7922 95.7498 63.1339 95.7221 63.4017 95.7314C63.4848 95.7314 63.5864 95.8052 63.6695 95.8422C63.4571 95.9438 63.1801 96.0915 62.9585 96.1746Z" fill="#C8E2FF"/>
<path d="M49.1164 82.868L50.3907 83.3298C48.3961 84.5394 47.3804 86.0908 47.3619 87.6514L45.5981 87.8915C45.6258 86.0816 46.7986 84.2716 49.1164 82.868Z" fill="#A5CBFA"/>
<path d="M45.5982 87.8915L47.362 87.6514C47.3435 89.0734 48.1469 90.5047 49.7906 91.6683L48.4147 92.564C46.5124 91.2065 45.5705 89.5444 45.5982 87.8915Z" fill="#A5CBFA"/>
<path d="M48.4146 92.5639L49.7905 91.6682C49.9844 91.8067 50.1875 91.936 50.3999 92.0653C52.4499 93.3027 55.1648 93.9398 57.9073 93.986L57.8519 95.2603C54.6661 95.2049 51.508 94.457 49.1256 93.0257C48.8763 92.8687 48.6362 92.7209 48.4146 92.5639Z" fill="#A5CBFA"/>
<path d="M57.8428 95.2603L57.8982 93.986C60.7239 94.0322 63.5865 93.4504 65.7934 92.213C69.5056 90.1446 70.152 86.9218 67.6588 84.4655L69.1824 84.1885C72.0727 87.0419 71.3248 90.7817 67.0124 93.1918C64.4637 94.6324 61.1394 95.3157 57.8428 95.2603Z" fill="#A5CBFA"/>
<path d="M69.1917 84.207L67.6681 84.484C67.2433 84.0685 66.7262 83.6714 66.126 83.302L67.4003 82.8403C68.1021 83.2559 68.7023 83.7176 69.1917 84.207Z" fill="#A5CBFA"/>
<path d="M43.0866 110.054C40.1686 108.29 38.2571 106.157 37.2414 103.516C35.3945 98.7048 36.7335 95.6852 37.1767 94.6879C35.1821 98.8618 36.9274 103.516 42.4772 106.859C50.8526 111.901 64.7225 112.039 73.4488 107.173C79.488 103.802 81.4826 98.9264 79.3772 94.5679C79.8019 95.5744 80.4483 97.0888 80.2452 99.4158C79.9774 102.519 78.9432 104.365 78.4445 105.261C77.6042 106.766 75.3603 109.61 69.7551 111.799C62.8017 114.44 53.7983 114.44 46.8727 111.864C45.3121 111.226 44.4533 110.876 43.0866 110.054Z" fill="#C8E2FF"/>
<path d="M69.0069 86.6263C68.97 86.5063 68.9238 86.3401 68.8869 86.2108L68.6653 85.4166C68.5729 85.075 68.4529 84.6225 68.3605 84.2808L68.0004 82.8403C67.8711 82.3232 67.7142 81.6398 67.5849 81.1227L67.1509 79.1928C67.0124 78.5464 66.8369 77.6876 66.6984 77.0412L66.2644 74.7696C66.1351 74.0401 65.9689 73.0612 65.8488 72.3317L65.4887 69.8939C65.3871 69.1182 65.2763 68.0932 65.184 67.3175L64.9808 64.8889C64.9347 64.1133 64.8977 63.0883 64.87 62.3126L64.8792 60.1241C64.9069 59.3853 64.9901 58.4157 65.0455 57.677L65.2948 56.0241C65.461 55.2022 65.4702 55.1561 65.8396 54.0387L66.1628 53.3277C66.1536 53.3 66.1628 53.2538 66.1443 53.2446C65.9874 53.1799 65.8119 53.4477 65.6826 53.5401C65.5995 53.5955 65.4795 53.6786 65.3871 53.734C65.0639 53.9094 64.7315 54.0757 64.3806 54.2326C60.6869 55.8302 55.6265 55.8302 51.9513 54.2696C51.7666 54.1865 51.5265 54.0757 51.3419 53.9833L50.8524 53.7063C50.363 53.4108 50.363 53.4108 50.1506 53.3185L50.1691 53.3646C50.4277 53.8633 50.4554 53.9279 50.8155 55.0637L51.0464 56.061C51.1756 56.7351 51.2865 57.6401 51.3696 58.3234L51.4896 60.1518C51.5173 60.8998 51.5081 61.8971 51.5081 62.645L51.4157 64.9166L51.2495 67.1052L50.9817 69.5338C50.2892 75.0928 49.1349 80.9473 47.4727 87.4205C47.445 87.5313 47.4081 87.6698 47.3804 87.7806C47.4173 89.3227 48.4238 90.8648 50.4092 92.0653C50.8432 92.3331 51.3142 92.5639 51.8036 92.7763C55.6358 94.4108 60.9178 94.4016 64.7592 92.7394C65.1193 92.5824 65.4702 92.407 65.8119 92.2223C68.4991 90.7171 69.5702 88.6117 69.0069 86.6263Z" fill="#C8E2FF"/>
<path d="M42.505 116.194C38.8298 113.987 36.826 111.199 36.4658 108.355C36.4751 108.391 36.4935 108.428 36.512 108.465C36.6874 108.881 37.066 108.798 37.8048 108.632C38.1649 108.558 38.4973 108.401 38.8575 108.345C38.996 108.327 39.0883 108.484 39.2361 108.419C39.2453 108.419 39.2453 108.401 39.2453 108.391C40.1964 109.693 41.5723 110.922 43.3638 111.993C43.8163 112.27 44.2964 112.528 44.7859 112.768C44.7582 112.759 44.712 112.75 44.6843 112.75C44.6935 112.824 44.7212 112.99 44.6658 113.553C44.4627 115.446 44.6658 116.324 45.1091 117.284C45.1829 117.386 45.2753 117.515 45.3399 117.616C44.3426 117.201 43.3915 116.721 42.505 116.194Z" fill="#A5CBFA"/>
<path d="M37.8418 102.648L45.7648 92.8595C46.3835 93.7922 47.3346 94.6694 48.5997 95.4359C49.6339 96.0545 50.8067 96.5624 52.0625 96.941L48.1472 109.315C46.0972 108.696 44.1765 107.874 42.4866 106.859C40.3997 105.612 38.8576 104.171 37.8418 102.648Z" fill="#A5CBFA"/>
<path d="M66.5601 96.1284C65.8676 96.4424 65.1381 96.7194 64.3716 96.9503C63.5682 97.1904 62.7279 97.3843 61.8691 97.5228L64.1869 110.266C65.5905 110.035 66.9664 109.721 68.2777 109.333C69.5243 108.964 70.7248 108.512 71.8513 107.994L66.5601 96.1284Z" fill="#DCEEFF"/>
<path d="M36.4751 110.986L36.4658 108.354C36.826 111.199 38.8298 113.987 42.505 116.204C43.4007 116.739 44.3519 117.219 45.3491 117.644L45.3584 120.276C44.3519 119.851 43.4007 119.371 42.5142 118.835C38.839 116.619 36.8352 113.83 36.4751 110.986Z" fill="#A5CBFA"/>
<path d="M48.5996 95.4358C47.4546 94.7524 46.5773 93.9675 45.9586 93.1457C45.9032 93.0718 45.8386 92.9795 45.7924 92.9056C45.737 92.8132 45.6539 92.6932 45.5985 92.6101L45.423 92.2961C45.3584 92.1669 45.2753 92.0006 45.2199 91.8806L45.0814 91.5389C45.0352 91.4004 44.9706 91.2065 44.9336 91.068L44.8413 90.6894C44.8136 90.5324 44.7766 90.3292 44.7582 90.1723L44.7305 89.766C44.7305 89.5997 44.7305 89.3689 44.7397 89.2027C44.7489 89.0919 44.7674 88.9533 44.7766 88.8425C44.7766 88.8518 44.7766 88.8702 44.7766 88.8795C44.7397 89.9691 45.617 90.3385 46.3649 90.4678C46.9467 91.3912 47.8701 92.2684 49.126 93.0256C50.0863 93.6074 51.176 94.0691 52.3395 94.4292C52.2841 94.4939 52.2102 94.5678 52.164 94.6324C51.1021 96.2207 52.3579 97.2457 55.9131 97.6982C53.2167 97.4211 50.6404 96.6639 48.5996 95.4358Z" fill="#A5CBFA"/>
<path d="M64.2976 95.8329C63.4481 96.4793 60.8348 96.784 60.724 96.3777C60.5578 95.7959 64.0668 95.2326 64.4177 95.4543C64.4638 95.482 64.5193 95.5466 64.5193 95.602C64.51 95.6944 64.3715 95.7775 64.2976 95.8329Z" fill="#DCEEFF"/>
<path d="M72.8764 110.358C72.3593 110.645 71.5005 111.116 69.7645 111.799C62.8111 114.44 53.8077 114.44 46.882 111.864C46.4757 111.697 45.9309 111.476 45.5154 111.31C44.7766 110.959 43.7978 110.451 43.0868 110.054L42.0064 109.352C40.3996 108.133 39.9841 107.773 38.7928 106.314L38.3404 105.667C38.1464 105.353 37.8971 104.929 37.7309 104.605L37.4816 104.07C37.3985 103.876 37.2877 103.608 37.2138 103.414L37.0476 102.943C37.0014 102.786 36.9275 102.574 36.8814 102.417L36.7613 101.964C36.7244 101.817 36.6782 101.623 36.6413 101.475L36.5489 101.023C36.5212 100.875 36.4843 100.69 36.4658 100.542L36.4012 100.071C36.3827 99.9237 36.3642 99.7206 36.3458 99.5636L36.3181 99.028C36.3181 98.8525 36.3088 98.6125 36.3181 98.4278L36.355 97.7537L36.3919 97.4397L36.3642 97.8275C36.3642 98.317 36.3642 98.6679 36.5212 99.3974C37.0014 102.112 38.996 104.744 42.505 106.859C44.0471 107.791 45.7832 108.548 47.63 109.149C52.044 113.424 52.2194 113.59 57.3906 113.729C65.8676 113.941 71.3251 111.374 73.8183 109.823C73.5228 109.98 73.1627 110.201 72.8764 110.358Z" fill="#A5CBFA"/>
<path d="M54.2232 64.2979C53.9924 73.8 52.2656 83.1543 51.416 92.6009C51.0651 92.4347 50.7234 92.2592 50.4002 92.0653C48.9874 91.2157 48.0732 90.2 47.6484 89.1196C47.6761 89.0087 47.7131 88.8702 47.7408 88.7594C50.6403 76.2378 51.85 66.6342 51.4529 59.3853L51.296 57.6031L51.0466 56.0518L50.8158 55.0545C50.4556 53.9187 50.4372 53.854 50.1694 53.3554L50.1509 53.3092C50.3633 53.4015 50.3633 53.4015 50.8527 53.697L51.3421 53.9741C51.5268 54.0572 51.7669 54.1772 51.9516 54.2603C53.586 54.9437 54.177 59.0344 54.2232 64.2979Z" fill="#A5CBFA"/>
<path d="M58.6924 93.9861C58.6924 93.9861 58.8217 63.6793 60.216 61.0291C61.6012 58.3696 62.8386 58.8221 63.6419 69.0444C64.4453 79.2759 67.0863 91.3728 67.0863 91.3728C67.0863 91.3728 65.0455 93.5428 58.6924 93.9861Z" fill="#DCEEFF"/>
<path d="M69.5337 113.766C69.5337 113.766 66.7819 114.837 65.0828 115.123C63.3929 115.409 60.0224 115.779 60.0224 115.779C60.0224 115.779 59.5053 116.222 59.7177 116.961C59.9301 117.7 61.6199 119.14 65.406 118.401C69.192 117.672 70.0139 115.594 70.1247 114.855C70.2355 114.126 69.5337 113.766 69.5337 113.766Z" fill="#DCEEFF"/>
<path d="M73.0702 107.366C73.0702 107.366 71.4634 109.352 66.3569 110.534C61.2504 111.716 57.9814 110.931 57.9814 110.931C57.9814 110.931 67.1141 111.051 73.0702 107.366Z" fill="#DCEEFF"/>
<path d="M71.8972 28.9401L68.8038 29.725C63.134 26.3176 53.7612 26.216 47.8513 29.5126C41.9414 32.8093 41.7475 38.239 47.4173 41.6464C53.0871 45.0539 62.4599 45.1554 68.3698 41.8588C74.2704 38.5622 74.4736 33.1325 68.8038 29.725L71.8972 28.9401C79.2015 33.3356 78.9522 40.3444 71.334 44.5921C63.7157 48.8399 51.6281 48.7198 44.3238 44.3151C37.0195 39.9196 37.2689 32.9108 44.8871 28.6631C52.5054 24.4246 64.593 24.5446 71.8972 28.9401Z" fill="#C8E2FF"/>
<path d="M43.7978 48.5813C43.724 47.9811 43.6593 47.3716 43.5854 46.7714C43.8071 48.6829 45.146 50.5482 47.6116 52.0349C53.189 55.387 62.4233 55.4793 68.2409 52.2381C70.9834 50.7144 72.4701 48.7106 72.701 46.6791C72.6364 47.2793 72.5625 47.8888 72.4978 48.489C72.2762 50.4928 70.808 52.4597 68.1023 53.9649C62.3679 57.1599 53.2722 57.0676 47.7686 53.7617C45.34 52.3027 44.0195 50.4651 43.7978 48.5813Z" fill="#1F1F1F"/>
<path d="M69.3764 26.3361L66.5415 26.096C62.0629 23.3996 54.6571 23.3257 49.9938 25.9298C45.3305 28.5338 45.1735 32.8278 49.6521 35.5149C54.1307 38.2113 61.5366 38.2852 66.1999 35.6811C70.8632 33.0771 71.0201 28.7832 66.5415 26.096L69.3764 26.3361C75.351 29.9282 75.1478 35.6627 68.9147 39.1347C62.6816 42.6068 52.7918 42.5052 46.8172 38.9131C40.8427 35.321 41.0458 29.5865 47.2789 26.1145C53.512 22.6424 63.4019 22.744 69.3764 26.3361Z" fill="#DCEEFF"/>
<path d="M43.5021 37.1771C43.2343 36.2629 42.9665 35.358 42.6987 34.4438C43.2066 36.1614 44.5825 37.8143 46.8264 39.1717C52.801 42.7638 62.7001 42.8654 68.924 39.3933C71.4449 37.9897 72.9778 36.2075 73.5134 34.3514C73.2456 35.2656 72.987 36.1798 72.7192 37.0848C72.2113 38.8393 70.7523 40.5291 68.3607 41.8589C62.4508 45.1555 53.078 45.0539 47.4082 41.6465C45.2936 40.3722 43.9915 38.8023 43.5021 37.1771Z" fill="#A5CBFA"/>
<path d="M46.4572 31.8119C46.3002 30.9531 46.134 30.0851 45.9771 29.2263C46.2541 30.7223 47.3622 32.1813 49.3014 33.3448C53.9554 36.152 61.666 36.2259 66.5232 33.5203C68.684 32.3106 69.9214 30.7592 70.2077 29.1525L69.746 31.7381C69.4689 33.2802 68.287 34.7761 66.2093 35.9304C61.546 38.5344 54.1309 38.4606 49.6615 35.7642C47.787 34.6468 46.725 33.2432 46.4572 31.8119Z" fill="#C8E2FF"/>
<path d="M44.167 15.5966C44.8596 16.4923 45.8292 17.3327 47.0665 18.0806C52.8841 21.5804 62.5154 21.682 68.5823 18.3023C70.0506 17.4896 71.1679 16.5385 71.9436 15.532C70.9647 16.8063 69.9767 18.0899 68.9978 19.3642C68.3884 20.1583 67.5019 20.9063 66.3476 21.5435C61.5735 24.2029 53.9922 24.1291 49.412 21.368C48.4332 20.777 47.676 20.1214 47.1312 19.4196C46.1431 18.1453 45.1551 16.8709 44.167 15.5966Z" fill="#1F1F1F"/>
<path d="M72.8855 6.40857C65.0272 1.68065 52.0161 1.55137 43.8254 6.11308C35.6346 10.684 35.3668 18.2192 43.2251 22.9471C51.0835 27.675 64.0945 27.8043 72.2853 23.2426C80.476 18.6809 80.7438 11.1365 72.8855 6.40857Z" fill="#DCEEFF"/>
<path d="M69.9303 17.4435C69.9211 17.4527 69.9026 17.462 69.8934 17.4712C69.4871 17.7575 69.0531 18.0345 68.5821 18.3023C64.6576 20.4908 59.2371 21.2203 54.3245 20.5185C53.7612 20.4446 53.2071 20.3431 52.6623 20.2138C50.6031 19.7798 48.6824 19.0687 47.0664 18.0899C46.7616 17.9052 46.4661 17.7113 46.1983 17.5174C41.295 13.9991 41.7751 8.82797 47.5188 5.62369C53.5857 2.23472 63.217 2.3363 69.0346 5.83608C74.372 9.05882 74.6306 14.0361 69.9303 17.4435Z" fill="#C8E2FF"/>
<path d="M72.9134 10.0469C72.6917 9.46511 72.3686 8.88336 71.9345 8.3293C71.242 7.43358 70.2724 6.58403 69.0258 5.83606L66.6987 11.7367C67.6776 12.3277 68.444 12.9926 68.9888 13.6944C69.3305 14.1284 69.5798 14.5809 69.7553 15.0426C69.9215 15.4766 70.0138 15.9198 70.0231 16.3631L73.2458 11.7183C73.2366 11.155 73.1165 10.6009 72.9134 10.0469Z" fill="#A5CBFA"/>
<path d="M49.6984 4.35861C49.4029 4.46942 49.1167 4.58946 48.8396 4.71874C48.4887 4.87572 48.1471 5.04194 47.8146 5.21739C47.7131 5.27279 47.6115 5.3282 47.5099 5.38361C47.1128 5.60523 46.7435 5.83608 46.3926 6.07617L48.8858 11.8753C49.1628 11.6906 49.4491 11.5059 49.7631 11.3305C49.8462 11.2843 49.9201 11.2473 50.0032 11.2012C50.2617 11.0627 50.5295 10.9334 50.8065 10.8133C51.0282 10.7118 51.259 10.6194 51.4899 10.5363C51.7023 10.4532 51.9146 10.3793 52.1363 10.3055L50.511 4.06311C50.234 4.15545 49.9662 4.2478 49.6984 4.35861Z" fill="#DCEEFF"/>
<path d="M69.9304 17.4435C69.5149 17.739 69.0716 18.0253 68.5822 18.2931C62.5153 21.6728 52.884 21.5804 47.0665 18.0807C46.7617 17.896 46.4662 17.7021 46.1984 17.5082C46.0045 16.6771 46.0692 15.8275 46.4016 15.0057C47.0018 13.5559 47.8329 12.1985 48.8856 10.9888C50.3261 9.32662 51.8129 8.4309 52.3854 8.12617C52.7547 7.92302 53.2626 7.67369 53.6505 7.51671C54.3892 7.21198 54.9802 7.055 54.9802 7.055C55.5989 6.89802 55.9221 6.82414 56.6239 6.72257C57.3903 6.62099 58.1752 6.63022 58.1845 6.63022C59.662 6.65793 60.5854 6.88878 61.398 7.11964C61.9428 7.27662 62.8108 7.59058 63.8543 8.18157C63.9374 8.22775 64.0205 8.27392 64.1036 8.32009C64.3068 8.44937 64.5746 8.61558 64.7685 8.7541C65.0455 8.95725 65.4149 9.22504 65.6827 9.44666C66.5415 10.1669 67.0678 10.7672 67.2156 10.9334C67.6865 11.4874 68.1205 12.023 68.6653 12.8818C69.2286 13.7868 69.5703 14.5532 69.7273 14.9318C70.0505 15.7629 70.1151 16.6124 69.9304 17.4435Z" fill="#C8E2FF"/>
<path d="M72.2763 23.492C71.1866 24.1014 70.0139 24.6186 68.7857 25.0618L68.758 25.071C60.6965 27.9429 50.031 27.2965 43.2161 23.1965C40.5844 21.6174 38.8668 19.7152 38.0542 17.7206C38.4236 18.6348 38.9592 19.5305 39.7718 20.5832C41.2308 22.4762 43.5301 24.7294 44.6382 25.8005C44.9152 26.0776 45.1738 26.3454 45.4139 26.6131L45.5986 26.8255C45.6817 26.9179 45.7833 27.0564 45.8571 27.1487L46.0233 27.3888C46.0326 27.4073 46.0418 27.4258 46.0603 27.4442C46.0141 27.6381 45.9679 27.8413 45.931 28.0722C45.9218 28.1922 45.9125 28.3584 45.9033 28.4877C45.9125 29.7251 46.4851 30.9717 47.6209 32.0706C47.9995 32.4307 48.4335 32.7816 48.9321 33.1048C49.0522 33.1879 49.1722 33.2618 49.3015 33.3357C49.5324 33.4742 49.7724 33.6035 50.0125 33.7235C50.2342 33.8436 50.4742 33.9451 50.7051 34.0467C50.8159 34.0929 50.9267 34.1483 51.0468 34.1945C51.4715 34.3699 51.9148 34.5269 52.3673 34.6654C52.3765 34.6654 52.395 34.6746 52.4042 34.6746C53.4754 34.9978 54.602 35.2287 55.7655 35.3487C55.9501 35.3672 56.1348 35.3949 56.3195 35.4041C56.2549 35.3949 56.1902 35.3857 56.1256 35.3764C57.2245 35.478 58.3418 35.4872 59.4499 35.4134C59.533 35.4041 59.6161 35.4041 59.7085 35.3949C60.004 35.3672 60.2995 35.3395 60.595 35.3026C60.7427 35.2841 60.8905 35.2656 61.0382 35.2472C61.1952 35.2195 61.3614 35.201 61.5184 35.1733C61.7769 35.1271 62.0447 35.0809 62.3033 35.0255C62.4233 34.9978 62.5342 34.9701 62.645 34.9424C62.8851 34.887 63.1159 34.8224 63.356 34.7577C63.4299 34.7393 63.5037 34.7208 63.5776 34.6931C63.8731 34.61 64.1594 34.5084 64.4456 34.4068C64.5195 34.3791 64.5934 34.3514 64.6673 34.3237C64.9535 34.2129 65.2398 34.1021 65.5168 33.9728C65.5722 33.9451 65.6276 33.9267 65.6738 33.899C65.9601 33.7604 66.2463 33.6219 66.5233 33.4742C66.865 33.2803 67.179 33.0771 67.4837 32.874C67.576 32.8093 67.6684 32.7447 67.7607 32.68C68.047 32.4676 68.3056 32.246 68.5456 32.0152C68.5549 32.0059 68.5733 31.9875 68.5826 31.9782C70.0324 30.5562 70.5402 28.9125 70.1339 27.3242L70.1893 27.2411C70.254 27.1487 70.3463 27.0287 70.411 26.9363L70.6326 26.6593C70.7896 26.4839 71.0019 26.2438 71.1589 26.0683C71.2697 25.9575 71.4175 25.8098 71.5191 25.699C73.7168 23.5474 75.3513 21.7744 76.367 20.4354C76.5794 20.1492 77.152 19.4012 77.6414 18.4778C77.8722 18.0438 78.02 17.6836 78.0754 17.5451C78.1123 17.4528 78.1492 17.3512 78.1769 17.2496C77.3736 19.5674 75.4067 21.7467 72.2763 23.492Z" fill="#C8E2FF"/>
<path d="M38.0538 17.7205C37.9337 17.4343 37.8414 17.1388 37.7583 16.8433C37.8414 17.148 37.9337 17.4343 38.0538 17.7205Z" fill="#1F1F1F"/>
<path d="M78.186 17.2865C78.223 17.1849 78.2599 17.0741 78.2876 16.9725C78.2507 17.0649 78.223 17.1757 78.186 17.2865Z" fill="#1F1F1F"/>
<path d="M78.2876 16.9633C78.3153 16.8802 78.3338 16.8063 78.3615 16.7324C78.3338 16.8155 78.3061 16.8894 78.2876 16.9633Z" fill="#1F1F1F"/>
<path d="M44.1946 43.7057C44.5547 43.0223 44.9149 42.339 45.275 41.6557C43.8991 44.269 46.7248 42.6807 50.2153 44.7861C55.3588 47.8795 61.2872 48.2489 66.6522 45.257C70.4475 43.1424 72.4421 44.3059 70.9831 41.5818C71.3525 42.2651 71.7126 42.9485 72.082 43.6318C73.661 46.5867 72.3682 49.948 68.2498 52.2381C62.4322 55.4793 53.198 55.387 47.6205 52.0257C43.8252 49.7449 42.6986 46.5406 44.1946 43.7057Z" fill="#C8E2FF"/>
<path d="M39.0141 38.8115L39.0049 36.6876C39.0141 39.4394 40.7779 42.182 44.3238 44.3151C51.6281 48.7106 63.7249 48.8306 71.3339 44.5921C75.2492 42.4036 77.2161 39.4948 77.2161 36.5768L77.2254 38.7007C77.2346 41.6187 75.2677 44.5275 71.3432 46.716C63.7249 50.9637 51.6373 50.8437 44.333 46.4389C40.7871 44.3058 39.0233 41.554 39.0141 38.8115Z" fill="#A5CBFA"/>
<path d="M43.6409 45.0077C43.5301 44.7492 43.4193 44.4998 43.3085 44.2413C43.1977 43.9827 43.0869 43.7334 42.9761 43.4748C43.6132 44.9523 44.906 46.3559 46.8545 47.5287C52.829 51.1208 62.7096 51.2224 68.9335 47.7503C71.1497 46.5129 72.5995 44.9985 73.2828 43.3917C73.0612 43.8996 72.8488 44.4167 72.6272 44.9246C71.9716 46.4667 70.5864 47.9165 68.4626 49.0985C62.5065 52.4136 53.0506 52.3212 47.3439 48.8861C45.4878 47.7595 44.2504 46.4206 43.6409 45.0077Z" fill="#A5CBFA"/>
<path d="M43.7978 48.5813C43.724 47.9811 43.6593 47.3716 43.5854 46.7714C43.8071 48.6829 45.146 50.5482 47.6116 52.0349C53.189 55.387 62.4233 55.4793 68.2409 52.2381C70.9834 50.7144 72.4701 48.7106 72.701 46.6791C72.6364 47.2793 72.5625 47.8888 72.4978 48.489C72.2762 50.4928 70.808 52.4597 68.1023 53.9649C62.3679 57.1599 53.2722 57.0676 47.7686 53.7617C45.34 52.3027 44.0195 50.4651 43.7978 48.5813Z" fill="#A5CBFA"/>
<path d="M44.3608 48.9692L45.432 46.5037C46.0507 47.5287 47.048 48.4983 48.4331 49.3293C48.7656 49.5233 49.1072 49.7079 49.4581 49.8834L48.7286 52.6352C48.3408 52.4505 47.9714 52.2474 47.6205 52.035C46.1153 51.13 45.0257 50.0773 44.3608 48.9692Z" fill="#A5CBFA"/>
<path d="M64.5468 50.7513C64.3068 50.8252 64.0759 50.8991 63.8266 50.9637C62.977 51.1946 62.0905 51.37 61.1948 51.4993L61.4626 54.3896C62.4414 54.2604 63.4018 54.0664 64.3252 53.8079C64.5838 53.734 64.8423 53.6601 65.1009 53.577L64.5468 50.7513Z" fill="#DCEEFF"/>
<path d="M43.7978 48.5814L43.5854 46.7715C43.8071 48.683 45.146 50.5483 47.6116 52.035C48.2857 52.4413 49.0244 52.8014 49.8001 53.1154L49.9201 54.8422C49.1537 54.5375 48.4334 54.1773 47.7686 53.7803C45.34 52.3028 44.0195 50.4652 43.7978 48.5814Z" fill="#A5CBFA"/>
<path d="M43.5021 37.1771L42.6987 34.4437C43.2066 36.1613 44.5825 37.8142 46.8264 39.1717C47.7314 39.7165 48.7194 40.1782 49.7814 40.566L50.2246 42.9854C49.2181 42.6253 48.2762 42.182 47.4267 41.6649C45.2935 40.3721 43.9915 38.8023 43.5021 37.1771Z" fill="#A5CBFA"/>
<path d="M46.4572 31.812L45.9771 29.2264C46.2541 30.7224 47.3622 32.1814 49.3014 33.3449C49.9201 33.7143 50.5849 34.0375 51.296 34.3145L51.573 36.6969C50.8897 36.4291 50.2525 36.1244 49.6615 35.7643C47.787 34.6469 46.725 33.2433 46.4572 31.812Z" fill="#A5CBFA"/>
<path d="M39.0605 39.5964L39.0513 37.4725C39.3652 39.9565 41.1105 42.3851 44.324 44.3151C45.0997 44.7861 45.9308 45.2016 46.808 45.571L46.8173 47.6948C45.94 47.3255 45.1089 46.9007 44.3332 46.439C41.129 44.509 39.3745 42.0804 39.0605 39.5964Z" fill="#A5CBFA"/>
<path d="M52.8012 30.1683C52.792 30.2329 51.4161 35.9212 47.7317 31.9228C48.0271 31.4149 48.5535 29.605 44.6382 25.8097C45.2384 26.3914 45.9494 26.9363 46.7898 27.4349C48.5258 28.4784 50.5943 29.2264 52.8012 29.6788C52.8012 29.7989 52.8012 29.9559 52.8012 30.0759C52.8105 30.1036 52.8105 30.1405 52.8012 30.1683Z" fill="#A5CBFA"/>
<path d="M65.2302 33.6219C64.1867 34.3421 60.336 35.3856 58.6831 34.8223C59.348 34.5084 64.63 33.1694 65.5626 33.2987C65.4703 33.4003 65.3502 33.548 65.2302 33.6219Z" fill="#DCEEFF"/>
<path d="M52.8013 29.6881C50.5943 29.2357 48.5258 28.4877 46.7898 27.4442C45.9495 26.9363 45.2292 26.3915 44.6382 25.819C44.4443 25.6343 44.195 25.385 44.001 25.2003C43.8256 25.0248 43.5855 24.794 43.4101 24.6185L42.8652 24.0737C42.7175 23.9167 42.5143 23.7136 42.3666 23.5566L41.9049 23.0672C41.7756 22.9287 41.6001 22.744 41.4801 22.6055L41.083 22.1715C40.9722 22.0514 40.8245 21.8852 40.7229 21.7559L40.3812 21.3589C40.2889 21.248 40.1596 21.0911 40.0673 20.9802L39.7718 20.6109C39.6887 20.5001 39.5778 20.3616 39.4947 20.2507L39.2362 19.8906C39.1623 19.7798 39.0607 19.632 38.9869 19.5212L38.7468 19.1426C38.6729 19.0226 38.5805 18.8656 38.5159 18.7363L38.2943 18.3116C38.2296 18.1638 38.1373 17.9699 38.0727 17.8221L37.9064 17.3974C37.8603 17.2404 37.7864 17.0372 37.7402 16.8802C38.3774 19.1888 40.1965 21.4143 43.2069 23.2242C44.3519 23.9167 45.6078 24.5077 46.9375 24.9971C47.0114 25.0248 47.113 25.071 47.1869 25.0987C48.7382 25.6897 51.0652 26.6316 52.8013 29.6881Z" fill="#A5CBFA"/>
<path d="M69.9308 17.4435C69.9308 17.4712 69.9215 17.4989 69.9123 17.5174C69.9123 17.4989 69.9031 17.4804 69.8939 17.462C69.8939 17.4435 69.8846 17.4343 69.8846 17.425C67.1697 10.6009 59.0252 9.5667 55.3038 17.6744C54.9806 18.3762 54.6112 19.3827 54.3249 20.5C53.7616 20.4262 53.2076 20.3246 52.6628 20.1953C50.6035 19.7613 48.6828 19.0503 47.0668 18.0714C46.7621 17.8867 46.4666 17.6928 46.1988 17.4989C46.1896 17.4804 46.1896 17.462 46.1896 17.4343C46.1711 17.3696 46.1619 17.3142 46.1526 17.2588C46.1434 17.2219 46.1434 17.1757 46.1342 17.1295C46.1342 17.0926 46.1249 17.0649 46.1249 17.0372C46.0695 16.6124 46.088 16.1876 46.1711 15.7629C46.1711 15.7536 46.1803 15.7444 46.1896 15.7352C47.1499 14.387 47.8425 13.4081 53.0321 11.8568C57.5846 10.4994 59.4684 9.93607 60.0871 7.91377C61.7954 7.42436 63.1159 7.71985 64.104 8.31084C64.5657 8.60634 64.9351 8.82796 65.683 9.43742L66.2925 9.97301C66.5695 10.25 66.9389 10.6286 67.2067 10.9241L67.7053 11.5151C67.8808 11.746 68.1209 12.0599 68.2871 12.3L68.6565 12.8633C68.7673 13.0572 68.9243 13.2973 69.0258 13.4913L69.2752 13.9622C69.3398 14.1007 69.4321 14.2762 69.4968 14.4147L69.6261 14.7102C69.6538 14.7748 69.6907 14.8579 69.7184 14.9226C70.0508 15.7629 70.1155 16.6124 69.9308 17.4435Z" fill="#C8E2FF"/>
<path d="M54.2691 15.8737C53.4472 17.7575 52.9578 19.1796 52.6623 20.2138C50.6031 19.7798 48.6824 19.0687 47.0664 18.0899C46.7616 17.9052 46.4661 17.7113 46.1983 17.5174C46.1891 17.4989 46.1891 17.4805 46.1799 17.4528C46.1614 17.3881 46.1522 17.3327 46.1429 17.2773C46.1337 17.2404 46.1337 17.1942 46.1245 17.148C46.1245 17.1111 46.1152 17.0834 46.1152 17.0557C46.1245 17.0557 46.1429 17.0464 46.1522 17.0372C48.4053 14.8395 48.9409 14.3131 50.8801 13.5467C52.8193 12.7802 54.8693 12.7895 54.9524 13.5559C55.017 14.1469 54.8416 14.5532 54.2691 15.8737Z" fill="#A5CBFA"/>
<path d="M54.3893 8.80032C54.7125 8.16315 55.0264 7.52599 55.3496 6.88883C55.0449 7.50752 55.2942 8.19086 56.1068 8.68951C57.3258 9.42824 59.3481 9.44671 60.6224 8.73568C61.5089 8.23703 61.8044 7.51676 61.4719 6.87036C61.7951 7.50752 62.1183 8.14469 62.4415 8.78185C62.8755 9.62216 62.4969 10.5733 61.3242 11.2289C59.6528 12.1616 56.9933 12.1339 55.3866 11.1643C54.3154 10.5179 53.983 9.61293 54.3893 8.80032Z" fill="#A5CBFA"/>
<path d="M63.0694 4.64485C63.0694 7.21197 60.9917 9.28967 58.4246 9.28967C55.8575 9.28967 53.7798 7.21197 53.7798 4.64485C53.7798 2.07773 55.8575 3.05269e-05 58.4246 3.05269e-05C60.9917 -0.00920371 63.0694 2.07773 63.0694 4.64485Z" fill="#A5CBFA"/>
<path d="M62.7647 4.16463C62.7647 6.29774 61.0379 8.02454 58.9048 8.02454C56.7717 8.02454 55.0449 6.29774 55.0449 4.16463C55.0449 2.03153 56.7717 0.304724 58.9048 0.304724C61.0379 0.29549 62.7647 2.03153 62.7647 4.16463Z" fill="#C8E2FF"/>
<path d="M61.0932 3.24121C61.0932 3.93378 60.53 4.49706 59.8374 4.49706C59.1448 4.49706 58.5815 3.93378 58.5815 3.24121C58.5815 2.54864 59.1448 1.98535 59.8374 1.98535C60.53 1.98535 61.0932 2.54864 61.0932 3.24121Z" fill="#DCEEFF"/>
<path d="M64.2607 17.0002C64.2607 17.0002 62.7648 15.4951 60.918 15.9937C59.0711 16.4924 58.4247 18.4038 58.0646 19.1426C57.7044 19.8906 65.0549 18.9117 65.2119 18.0529C65.0087 17.6466 64.2607 17.0002 64.2607 17.0002Z" fill="#DCEEFF"/>
<path d="M78.0384 11.8568C78.7957 13.7591 78.7587 15.9753 78.0107 17.9237C77.2443 19.8814 75.7391 21.4696 74.0493 22.6701C72.3409 23.8705 70.4017 24.6832 68.4441 25.3296C66.4772 25.9483 64.4734 26.4469 62.4234 26.7332C58.3418 27.278 54.1125 27.1395 50.1418 25.9852C46.1896 24.8494 42.4128 22.8825 39.5225 19.9737C42.6252 22.6332 46.402 24.3969 50.2988 25.3942C54.2141 26.3823 58.3234 26.5392 62.3125 25.939C66.274 25.3203 70.3186 24.3138 73.6984 22.1437C75.3605 21.0541 76.838 19.6043 77.6414 17.7667C78.4725 15.9568 78.611 13.8145 78.0384 11.8568Z" fill="#DCEEFF"/>
<defs>
<radialGradient id="paint0_radial" cx="0" cy="0" r="1" gradientUnits="userSpaceOnUse" gradientTransform="translate(60.292 87) rotate(90) scale(57)">
<stop offset="0.328125" stop-color="white"/>
<stop offset="1" stop-color="#20263B" stop-opacity="0"/>
</radialGradient>
<linearGradient id="paint1_linear" x1="47.4038" y1="143.52" x2="25.34" y2="181.736" gradientUnits="userSpaceOnUse">
<stop offset="0.033147" stop-color="white"/>
<stop offset="0.244792" stop-color="white" stop-opacity="0.55"/>
<stop offset="0.71875" stop-color="#2F3C5B" stop-opacity="0"/>
</linearGradient>
<linearGradient id="paint2_linear" x1="69.7759" y1="143.52" x2="91.8397" y2="181.736" gradientUnits="userSpaceOnUse">
<stop offset="0.033147" stop-color="white"/>
<stop offset="0.244792" stop-color="white" stop-opacity="0.55"/>
<stop offset="0.71875" stop-color="#2F3C5B" stop-opacity="0"/>
</linearGradient>
</defs>
</svg>
