<svg width="114" height="165" viewBox="0 0 114 165" fill="none" xmlns="http://www.w3.org/2000/svg">
<circle cx="57" cy="65" r="57" fill="url(#paint0_radial)"/>
<path d="M57.5351 20C32.4253 20 12.0697 40.3556 12.0697 65.4654C12.0697 90.5752 32.4253 110.931 57.5351 110.931C82.645 110.931 103 90.5752 103 65.4654C103 40.3556 82.645 20 57.5351 20Z" stroke="#61AAFF" stroke-miterlimit="10"/>
<path d="M12.7651 55.722C11.7901 55.722 10.9998 56.5123 10.9998 57.4872C10.9998 58.4621 11.7901 59.2524 12.7651 59.2524C13.74 59.2524 14.5303 58.4621 14.5303 57.4872C14.5303 56.5123 13.74 55.722 12.7651 55.722Z" fill="#61AAFF"/>
<path d="M90.5 32.722C89.6716 32.722 89 33.3936 89 34.222C89 35.0505 89.6716 35.722 90.5 35.722C91.3284 35.722 92 35.0505 92 34.222C92 33.3936 91.3284 32.722 90.5 32.722Z" fill="#61AAFF"/>
<path d="M102 53.722C101.448 53.722 101 54.1698 101 54.722C101 55.2743 101.448 55.722 102 55.722C102.552 55.722 103 55.2743 103 54.722C103 54.1698 102.552 53.722 102 53.722Z" fill="#61AAFF"/>
<path d="M29.7749 28.722C29.3468 28.722 28.9999 29.069 28.9999 29.497C28.9999 29.925 29.3468 30.272 29.7749 30.272C30.2029 30.272 30.5498 29.925 30.5498 29.497C30.5498 29.069 30.2029 28.722 29.7749 28.722Z" fill="#61AAFF"/>
<path d="M95 37.722C93.8954 37.722 93 38.6175 93 39.722C93 40.8266 93.8954 41.722 95 41.722C96.1046 41.722 97 40.8266 97 39.722C97 38.6175 96.1046 37.722 95 37.722Z" fill="#61AAFF"/>
<circle cx="95" cy="39.722" r="3.75" stroke="#61AAFF" stroke-width="0.5"/>
<path d="M18.9146 106.079L57.1292 128.028V164.185L18.9146 142.285V106.079Z" fill="url(#paint1_linear)"/>
<path d="M95.2144 106.079L56.9997 128.028V164.185L95.2144 142.285V106.079Z" fill="url(#paint2_linear)"/>
<path d="M7.00145 90.8571L57.001 119.714V128.552L7.00145 99.6949V90.8571Z" fill="#A5CBFA"/>
<path d="M57.0005 119.714L107 90.8571V99.6949C107 99.6949 57.0005 129.577 57.0005 128.552C57.0005 127.575 57.0005 119.714 57.0005 119.714Z" fill="#C8E2FF"/>
<path d="M106.999 90.8571L56.9995 62L6.99997 90.8571L56.9995 119.714L106.999 90.8571Z" fill="#DCEEFF"/>
<path d="M78.9987 86.1252C78.9987 85.9286 78.9987 85.5353 78.9987 85.3387C78.9987 85.142 78.9987 84.7488 78.8023 84.3555L78.6059 83.7656C78.6059 83.569 78.4095 83.1757 78.4095 82.9791L78.213 82.3892C78.213 82.1925 78.0166 81.9959 78.0166 81.7993L77.8202 81.6026L78.0166 81.2094C78.0166 81.0127 78.213 80.6195 78.213 80.4228V79.8329C78.213 79.6363 78.213 79.243 78.213 79.0464V78.4565C78.213 78.2599 78.213 77.8666 78.213 77.67L78.0166 77.0801C78.0166 76.8834 77.8202 76.4902 77.8202 76.2935L77.6238 75.7036C77.6238 75.7036 77.6238 75.507 77.4273 75.507V75.7036C77.2309 75.3104 77.0345 74.7205 76.8381 74.3272C75.6595 72.1643 74.2846 70.0013 73.106 67.8383V67.4451C73.106 67.2484 73.106 67.0518 72.9096 66.8552L73.106 66.4619C73.106 66.2653 72.9096 66.0686 72.9096 65.872L72.7132 65.2821C72.5168 65.0855 72.5168 64.6922 72.3203 64.4956L71.9275 63.9057C71.7311 63.709 71.5346 63.3158 71.3382 63.1191L70.749 62.5292C70.749 62.5292 70.749 62.5292 70.5525 62.3326C70.5525 62.136 70.5525 62.136 70.5525 61.9393C70.5525 61.7427 70.3561 61.5461 70.3561 61.3495C70.3561 61.1528 70.1597 60.9562 70.1597 60.5629V60.3663C69.7668 58.9899 69.5704 57.8101 69.374 57.2202C69.1776 57.0235 69.1776 56.237 68.9812 55.8437L68.5883 54.2707C68.5883 54.074 68.5883 54.074 68.5883 53.8774C68.5883 53.2875 68.3919 52.8942 68.3919 52.3043L67.999 50.5346C67.999 50.1414 67.8026 49.7481 67.8026 49.3548C67.8026 49.1582 67.8026 48.9616 67.8026 48.9616C67.8026 48.7649 67.8026 48.7649 67.8026 48.5683L67.4098 46.602C67.4098 46.0121 67.2133 45.2256 67.2133 44.439C67.2133 44.439 67.2133 44.439 67.2133 44.2424L67.0169 42.0794C67.0169 41.4895 66.8205 40.5064 66.8205 39.9165L66.6241 37.7535C66.6241 37.5569 66.6241 37.1636 66.6241 36.967C66.6241 36.967 66.6241 36.967 66.8205 36.967C67.0169 36.967 67.0169 36.7703 67.2133 36.7703H67.0169C67.4098 36.5737 67.8026 36.3771 67.999 36.1804C68.3919 35.7872 68.9812 35.3939 69.1776 35.1973C69.5704 34.804 69.9633 34.4108 70.3561 33.6242C71.1418 32.2478 71.3382 31.2646 71.3382 30.6747C71.3382 30.6747 71.3382 30.2815 71.3382 30.0848C72.3203 29.2983 73.3025 28.5118 74.0881 27.7252H73.8917C74.8738 26.5454 75.4631 25.3656 75.6595 23.9892L77.4273 13.1744C77.4273 13.1744 77.4273 12.8835 77.4273 13.0802C77.677 11.0111 77.2309 8.84848 75.4631 6.88215L70.749 9.63501L70.5525 11.798C70.5525 11.798 70.5525 11.798 70.3561 11.798C69.5704 11.4047 68.7847 11.0114 67.999 10.6182C66.4277 9.83164 65.4455 9.63501 65.2491 9.63501L65.8384 1.1798C60.1421 -0.393266 53.4637 -0.393266 47.7675 1.1798L48.3568 9.43838C48.3568 9.43838 45.0176 10.2249 43.4462 11.4047L43.0533 9.43838C42.8569 9.83164 42.6605 10.4215 42.4641 10.8148C42.6605 10.4215 42.6605 9.83164 43.0533 9.43838L38.3392 6.68552C36.5714 8.65185 35.9821 11.0114 36.375 13.1744C36.9642 16.7138 37.5535 20.2532 38.1428 23.9892C38.3392 25.169 38.9285 26.3488 39.7142 27.5286C40.4998 28.3151 41.2855 29.1017 42.4641 29.8882C42.4641 30.0848 42.4641 30.0848 42.4641 30.2815C42.4641 31.4613 42.8569 32.2478 43.0533 32.8377C43.2498 33.231 43.4462 33.6242 43.6426 34.0175C43.839 34.4107 44.0355 34.4108 44.2319 34.804C44.2319 34.804 44.4283 35.0006 44.6247 35.1973C44.8211 35.3939 44.8211 35.3939 45.0176 35.3939C45.214 35.3939 45.214 35.5905 45.4104 35.5905C45.6068 35.5905 45.6068 35.7872 45.8033 35.7872C45.8033 35.7872 45.9997 35.7872 45.9997 35.9838C46.1961 36.1804 46.5889 36.3771 46.7854 36.5737L47.5711 36.967C47.5711 37.1636 47.5711 37.5569 47.5711 37.7535C47.5711 38.7367 47.3746 40.1131 47.1782 42.2761C46.7854 45.8155 46.3925 48.5683 45.9997 50.5346C45.6068 52.501 45.0176 55.8437 44.6247 57.4168C44.2319 59.1865 43.839 60.5629 43.4462 62.5292C43.4462 62.5292 43.4462 62.7259 43.2498 62.7259C42.2676 63.709 40.8927 65.4787 40.4998 68.035V68.4282C40.4998 68.2316 40.4998 68.2316 40.4998 68.035C39.3213 70.1979 38.1428 72.3609 36.7678 74.5239C36.5714 74.9171 36.375 75.507 36.1785 75.9003C36.1785 75.9003 36.1785 75.9003 36.1785 75.7036V75.9003C35.7857 76.8834 35.7857 77.67 35.5893 78.6531C35.5893 78.8498 35.5893 79.243 35.5893 79.4397C35.5893 79.6363 35.5893 80.0296 35.5893 80.2262L35.7857 80.8161C35.7857 81.0127 35.9821 81.2094 35.9821 81.406C35.5893 82.3892 35 83.9622 35 85.7319V85.9286C35 86.7151 35 87.6982 35 88.4848C35 90.8444 36.1785 93.0073 38.3392 95.1703C38.9285 95.5636 39.3213 96.1535 39.9106 96.5467C39.9106 96.5467 40.107 96.5467 40.107 96.7434C40.3034 96.94 40.6963 97.1366 41.0891 97.3333C42.0712 97.9232 43.0533 98.5131 44.2319 98.9063C44.6247 99.103 45.0176 99.103 45.4104 99.2996C45.9997 99.4962 46.5889 99.6929 47.1782 99.8895C47.3746 99.8895 47.5711 99.8895 47.7675 100.086C48.1603 100.283 48.7496 100.283 49.1424 100.479C49.5353 100.676 50.1246 100.676 50.5174 100.873C57.7851 102.249 66.0348 101.266 72.1239 97.9232C76.6416 95.3669 78.8023 92.0242 78.8023 88.6814L78.9987 86.1252Z" fill="#A5CBFA"/>
<path d="M35.1963 86.1252C35.1963 89.2713 37.1605 92.4175 41.2854 94.7771C49.7316 99.8895 63.4812 99.8895 72.1238 95.1703C76.6415 92.6141 78.8022 89.2713 78.8022 85.9286V88.4848C78.8022 91.8276 76.6415 95.1703 72.1238 97.7266C63.4812 102.642 49.5352 102.446 41.2854 97.3333C37.1605 94.9737 35.1963 91.8276 35.1963 88.6814C35.1963 88.0915 35.1963 86.9117 35.1963 86.1252Z" fill="#C8E2FF"/>
<path d="M78.9999 85.3387C78.9999 85.1421 78.9999 84.7488 78.8035 84.3556L78.6071 83.7657C78.6071 83.569 78.4106 83.1758 78.4106 82.9791L78.2142 82.3892C78.2142 82.1926 78.0178 81.996 78.0178 81.7993L77.8214 81.2094C77.8214 81.0128 77.6249 80.8162 77.6249 80.6195L77.4285 80.2263C77.4285 80.0296 77.2321 79.833 77.2321 79.833L77.0357 79.4398C77.0357 79.2431 76.8393 79.2431 76.8393 79.0465L76.6428 78.6532C76.6428 78.4566 76.4464 78.4566 76.4464 78.26L76.25 78.0633L76.0536 77.8667L75.8571 77.6701L75.6607 77.4734L75.0715 76.8835C75.0715 76.8835 75.0715 76.8835 74.875 76.6869C76.4464 78.4566 77.2321 80.2263 77.2321 81.996C77.2321 85.1421 75.0715 88.0916 70.9466 90.4512C62.8932 94.9737 50.1258 94.7771 42.2688 90.2546C38.5368 87.895 36.5726 85.1421 36.5726 82.1926C36.5726 80.4229 37.3583 78.4566 38.7332 76.8835C38.7332 76.8835 38.7332 76.8835 38.5368 77.0802C38.5368 77.0802 38.5368 77.2768 38.3404 77.2768L38.144 77.4734L37.9475 77.6701L37.7511 77.8667C37.7511 77.8667 37.5547 78.0633 37.5547 78.26L37.7511 78.6532C37.7511 78.8499 37.5547 78.8499 37.5547 79.0465L37.3583 79.4398C37.3583 79.6364 37.1619 79.833 37.1619 79.833L36.9654 80.2263C36.9654 80.4229 36.769 80.6195 36.769 80.8162C36.769 80.8162 36.5726 81.0128 36.5726 81.2094C36.1797 81.996 35.5905 83.9623 35.394 86.1253V86.3219C35.394 89.468 37.3583 92.6142 41.4832 94.9737C49.9293 100.086 63.6789 100.086 72.3215 95.367C76.8393 92.8108 78.9999 89.468 78.9999 86.1253C78.9999 85.9286 78.9999 85.5354 78.9999 85.3387Z" fill="#C8E2FF"/>
<path d="M50.3213 97.9231C48.5535 96.1534 50.1249 93.5972 50.3213 93.4006C47.3749 92.8107 44.625 91.8275 42.2679 90.4511C41.2858 89.8612 40.5001 89.2713 39.7144 88.6814C39.9109 88.878 40.3037 93.0073 38.1431 93.0073C38.9288 93.7939 39.9109 94.3838 40.893 95.1703C43.6429 96.7434 46.7857 97.9231 50.3213 98.513C50.5177 98.1198 50.5177 98.1198 50.3213 97.9231Z" fill="#A5CBFA"/>
<path d="M38.5361 92.8107V95.3669C39.1254 95.9568 39.7147 96.3501 40.5004 96.94V94.3837C39.7147 93.7938 39.1254 93.4006 38.5361 92.8107Z" fill="#A5CBFA"/>
<path d="M40.4995 94.3838V96.94C40.6959 97.1366 41.0888 97.3333 41.4816 97.5299C43.2494 98.7097 45.4101 99.4962 47.5707 100.086V97.5299C45.4101 96.94 43.2494 95.9568 41.4816 94.9737C41.0888 94.7771 40.6959 94.5804 40.4995 94.3838Z" fill="#A5CBFA"/>
<path d="M47.375 97.5299V100.086C48.3571 100.479 49.5357 100.676 50.7142 100.873V98.3164C49.5357 98.1198 48.5535 97.9232 47.375 97.5299Z" fill="#A5CBFA"/>
<path d="M67.8029 93.4007C67.0172 93.204 64.6601 93.9906 63.8744 94.1872C63.678 94.3838 62.4995 95.367 63.0888 96.1535C64.0709 97.7266 69.1779 96.3502 69.3743 94.5805C69.3743 94.3838 69.1779 93.5973 67.8029 93.4007Z" fill="#DCEEFF"/>
<path d="M77.0352 80.2262C76.446 78.0632 74.6782 75.9003 71.7318 74.1306C65.6427 70.5912 56.6073 69.608 49.1432 71.5744C46.9825 72.1643 44.8219 72.9508 43.0541 73.9339C41.6791 74.7205 40.697 75.507 39.7149 76.2935C37.7507 78.2599 36.7686 80.4228 36.7686 82.7824C36.965 85.142 38.1435 87.5016 40.697 89.4679C41.0899 89.8612 41.6791 90.0578 42.072 90.4511C42.072 90.4511 42.2684 90.4511 42.2684 90.6477C44.6255 92.0242 47.3754 93.0073 50.5182 93.5972C52.8752 93.9905 55.2323 94.1871 57.5894 94.1871C62.3035 93.9905 67.2141 93.0073 70.9461 90.8444C72.3211 90.0578 73.4996 89.2713 74.2853 88.2881C75.6603 87.1083 76.446 85.7319 76.8388 84.3555C77.4281 82.9791 77.4281 81.6026 77.0352 80.2262ZM72.9104 86.7151C72.1247 87.5016 71.1426 88.2881 69.7676 88.878C66.4284 90.8444 62.1071 91.8275 57.7858 91.8275C55.6252 91.8275 53.4645 91.6309 51.3039 91.2376C48.5539 90.6477 46.0004 89.8612 43.8398 88.4848C43.8398 88.4848 43.6434 88.4848 43.6434 88.2881C43.2505 88.0915 42.6612 87.6982 42.2684 87.305C39.9113 85.5353 38.7328 83.3723 38.7328 81.406C38.5364 79.4397 39.5185 77.2767 41.2863 75.507C42.072 74.7205 43.0541 73.9339 44.2326 73.344C45.804 72.3609 47.7682 71.771 49.7325 71.1811C56.6073 69.4114 64.6606 70.1979 70.1604 73.5407C72.7139 75.1137 74.2853 77.0801 75.071 79.0464C75.4639 80.2262 75.4639 81.6026 75.071 82.7824C74.6782 84.3555 73.8925 85.5353 72.9104 86.7151Z" fill="#A5CBFA"/>
<path d="M73.5751 68.7294L73.4994 68.4282C73.4994 68.2316 73.4994 68.035 73.4994 68.035V67.6417C73.4994 67.4451 73.4994 67.2484 73.303 67.0518L73.1065 66.4619C73.1065 66.2653 72.9101 66.0686 72.9101 65.872L72.7137 65.2821C72.5173 65.0855 72.5173 64.6922 72.3208 64.4956L71.928 63.9057C71.7316 63.709 71.5352 63.3158 71.3387 63.1191L70.7495 62.5292C70.553 62.3326 70.553 62.3326 70.3566 62.136C72.3208 64.1023 72.9101 66.2653 72.3208 68.2316C71.7316 70.0013 70.3566 71.771 67.8031 73.1474C61.714 76.6868 51.8929 76.4902 46.0002 72.9508C43.8395 71.5744 42.4646 70.0013 41.8753 68.2316C41.286 66.0686 41.4203 64.4358 43.3845 62.6661C42.4024 63.6493 41.0896 64.8888 40.6968 67.8383V68.2316V68.6249V69.0181C40.6968 69.2148 40.6968 69.2148 40.6968 69.4114V69.8047C40.6968 70.0013 40.6968 70.0013 40.6968 70.1979V70.3946V70.5912V70.7878V70.9845C41.286 72.7541 42.661 74.5238 45.0181 75.9003C51.3036 79.6363 61.8035 80.3459 68.2854 76.6099C70.8389 75.2335 72.9303 73.2686 73.3232 71.3023L73.3951 71.0324L73.4994 70.8705L73.5211 70.6366L73.5751 70.3946V70.0428C73.5751 69.8462 73.5751 69.8796 73.5751 69.683V69.3951C73.737 69.2692 73.5751 68.7294 73.5751 68.7294Z" fill="#C8E2FF"/>
<path d="M53.8413 78.8977C52.0735 78.5045 50.5021 76.9314 52.0734 75.9483L52.2699 75.7516C52.4663 75.7516 52.5097 75.4291 52.7061 75.4291C50.1526 75.0358 47.992 74.2493 46.0278 73.0695C45.0457 72.4796 44.0635 71.693 43.4743 70.9065C43.4743 71.1031 43.7443 71.4463 43.8521 71.6981C44.4414 73.0746 44.2165 73.392 44.0201 73.7853C43.8237 74.1786 43.038 74.1786 42.6452 73.9819C42.4487 73.9819 42.4487 73.9819 42.4487 73.7853C43.2344 74.5718 44.2165 75.3584 45.3951 76.1449C47.5557 77.718 50.6985 78.5045 53.8413 78.8977Z" fill="#A5CBFA"/>
<path d="M40.8924 70.7878C40.8924 70.7878 40.696 70.7878 40.8924 70.7878C40.696 70.7878 40.8924 70.7878 40.8924 70.7878ZM40.696 70.5912C40.696 70.3946 40.696 70.3946 40.696 70.5912C40.696 70.3946 40.696 70.3946 40.696 70.5912ZM40.696 70.3946C40.696 70.1979 40.696 70.1979 40.696 70.3946C40.696 70.1979 40.696 70.1979 40.696 70.3946ZM40.696 70.1979V70.0013C40.696 70.0013 40.696 70.0013 40.696 70.1979ZM77.2307 74.5239C75.6593 71.771 74.2843 69.2148 72.7129 66.4619C74.6772 69.8047 73.3022 73.7373 68.5881 76.2936C62.1061 80.0296 51.6957 79.8329 45.4102 76.0969C43.0531 74.7205 41.6781 72.9508 41.0889 71.1811C41.0889 71.1811 41.0889 71.1811 41.0889 70.9845C41.0889 70.9845 41.0889 70.9845 41.0889 70.7878C41.0889 70.3946 40.8924 70.1979 40.8924 70.0013C40.8924 69.4114 40.8924 69.2148 40.8924 68.4282C40.8924 68.2316 40.8924 68.2316 40.8924 68.035C39.7139 70.1979 38.5354 72.3609 37.1604 74.5239C34.8033 78.6532 36.3747 83.3723 42.071 86.9117C50.1243 91.8275 63.4811 91.8276 71.9273 87.305C77.8199 83.7656 79.5877 78.8498 77.2307 74.5239ZM40.696 69.608C40.696 69.4114 40.696 69.4114 40.696 69.608C40.696 69.4114 40.696 69.4114 40.696 69.608ZM40.696 69.4114C40.696 69.4114 40.696 69.2148 40.696 69.4114C40.696 69.2148 40.696 69.4114 40.696 69.4114ZM40.696 68.8215C40.696 68.6249 40.696 68.6249 40.696 68.8215C40.696 68.6249 40.696 68.6249 40.696 68.8215ZM40.696 68.6249C40.696 68.6249 40.696 68.4282 40.696 68.6249C40.696 68.4282 40.696 68.6249 40.696 68.6249ZM40.696 68.4282C40.696 68.4282 40.8925 68.4282 40.696 68.4282C40.8925 68.4282 40.696 68.4282 40.696 68.4282ZM40.8924 68.035C40.8924 67.8383 40.8924 67.8383 40.8924 68.035C40.8924 67.8383 40.8924 67.8383 40.8924 68.035ZM40.8924 67.8383C40.8924 67.8383 40.8924 67.6417 40.8924 67.8383C40.8924 67.6417 40.8924 67.8383 40.8924 67.8383ZM41.0889 67.4451C41.0889 67.2484 41.0889 67.2484 41.0889 67.4451C41.0889 67.2484 41.0889 67.2484 41.0889 67.4451ZM41.0889 67.2484C41.2853 67.0518 41.2853 67.0518 41.0889 67.2484C41.2853 67.0518 41.2853 67.0518 41.0889 67.2484Z" fill="#C8E2FF"/>
<path d="M78.3425 78.4451C78.3425 78.2484 78.2886 77.8861 78.2886 77.6894L78.2135 77.08C78.2135 76.8438 78.0906 76.5019 78.017 76.2935L77.8388 75.9082C77.8388 75.9082 77.6465 75.5664 77.6242 75.507C79.1956 79.6362 77.2313 83.9622 71.7315 87.1083C70.7494 87.6982 69.5709 88.0915 68.3923 88.6814C61.5175 91.2376 52.6785 91.2376 45.8037 88.6814C44.4287 88.0915 43.0538 87.5016 41.8752 86.715C36.9647 83.7655 35.0004 79.6362 36.3754 75.7036V75.9002C35.9826 76.8834 35.9826 77.6699 35.7861 78.6531C35.7861 78.8497 35.7861 79.243 35.7861 79.4396C35.7861 79.6362 35.7861 80.0295 35.7861 80.2261L35.9826 80.816C35.9826 81.0127 36.179 81.4059 36.179 81.6026L36.3754 82.1925C36.5718 82.3891 36.5718 82.7824 36.7682 82.979L37.1611 83.5689C37.3575 83.7655 37.5539 84.1588 37.7504 84.3554L38.1432 84.9453C38.3396 85.3386 38.7325 85.7319 39.1253 85.9285L39.911 86.5184C40.8931 87.3049 41.0895 87.5016 42.2681 88.2881L43.4466 88.878C43.8395 89.0746 44.4287 89.4679 45.018 89.6645L46.1965 90.2544H46.393C46.393 90.2544 46.1965 90.2544 46.1965 90.0578L46.393 90.2544C53.0713 92.614 61.7139 92.614 68.3923 90.2544C68.7852 90.0578 69.178 89.8612 69.5709 89.6645C70.1601 89.4679 70.9458 89.0746 71.5351 88.6814L72.5172 88.0915C73.4993 87.3049 74.285 86.9117 75.2671 85.9285L75.8564 85.3386C76.0528 84.9453 76.4456 84.5521 76.6421 84.3554L77.0349 83.7655C77.2313 83.5689 77.4278 83.1756 77.4278 82.979L77.6242 82.3891C77.6242 82.1925 77.8206 81.7992 77.8206 81.6026L78.017 81.0127C78.017 80.816 78.2135 80.4228 78.2135 80.2261V79.6362C78.2135 79.4396 78.3425 79.1095 78.3425 78.9129V78.4451Z" fill="#A5CBFA"/>
<path d="M43.9239 74.9366L39.9297 85.5201C40.519 85.9134 41.1082 86.5033 41.8939 86.8965L45.2989 75.9198C44.7096 75.5265 44.3168 75.3299 43.9239 74.9366Z" fill="#A5CBFA"/>
<path d="M45.2627 75.8824L41.8755 86.9117C43.2504 87.6982 44.6254 88.2881 46.1968 88.878L48.6019 77.4555C47.4234 77.0622 46.2449 76.4723 45.2627 75.8824Z" fill="#A5CBFA"/>
<path d="M48.5868 77.4607L46.1963 88.8781C47.3748 89.2713 48.5534 89.6646 49.7319 89.8612L51.3368 78.2472C50.5511 78.0506 49.569 77.854 48.5868 77.4607Z" fill="#A5CBFA"/>
<path d="M65.2493 75.507C64.66 75.3104 59.553 76.2935 59.1602 76.8834V77.0801C59.7494 78.0632 65.0528 76.8834 65.4457 75.7037V75.507H65.2493Z" fill="#DCEEFF"/>
<path d="M59.9458 78.8497L60.9279 90.4511C60.9279 90.4511 64.4635 91.041 68.1956 89.0746L65.6421 77.6699C65.6421 77.6699 63.4814 78.6531 59.9458 78.8497Z" fill="#DCEEFF"/>
<path d="M68.1959 60.5629C62.3032 57.0235 52.4821 56.8269 46.393 60.3663C40.3039 63.9056 40.1075 69.4114 46.0001 73.1474C51.8928 76.6868 61.714 76.8834 67.8031 73.344C73.8922 69.8046 74.0886 64.2989 68.1959 60.5629Z" fill="#A5CBFA"/>
<path d="M49.5352 36.9669C49.5352 36.9669 50.1244 37.3602 50.7137 37.5568C51.1066 37.7535 51.303 37.7535 52.0887 37.9501C52.2851 37.9501 52.6779 38.1467 52.8744 38.1467C53.0708 38.1467 53.4636 38.3434 53.6601 38.3434C53.8565 38.3434 54.2493 38.3434 54.4457 38.54C54.8386 38.54 55.8207 38.7366 56.8028 38.7366C57.5885 38.7366 58.3742 38.7366 59.3563 38.54C60.5349 38.3434 61.3205 38.1467 61.7134 38.1467C62.6955 37.9501 63.4812 37.5568 63.6776 37.3602C64.4633 36.9669 64.4633 36.9669 64.8562 36.7703C65.249 36.5737 65.4454 36.377 65.6418 36.1804C65.6418 36.1804 65.8383 35.9838 66.2311 35.5905C66.4275 35.3939 66.4275 35.1972 66.624 35.0006C66.624 35.0006 66.624 35.1972 66.624 35.5905C66.624 36.1804 66.624 37.1636 66.8204 37.9501C66.8204 39.1299 67.0168 40.5063 67.2132 42.4727C67.4097 44.6356 67.6061 45.8154 67.8025 46.7986C67.9989 48.175 67.9989 48.7649 68.3918 50.7312C68.7846 52.8942 69.3739 56.237 69.7667 57.6134C70.1596 59.1864 70.7488 62.3326 71.731 65.2821C72.5166 67.8383 71.1417 70.7878 67.6061 72.7541C61.9098 75.9002 52.6779 75.9002 47.1781 72.5575C43.8389 70.5912 42.6604 67.8383 43.4461 65.4787C43.6425 64.8888 43.8389 63.9056 44.0353 63.709C44.6246 61.3494 45.0175 59.973 45.4103 57.81C45.8031 56.0403 46.3924 52.8942 46.7853 50.9279C47.1781 48.7649 47.571 46.2087 47.9638 42.6693C48.1602 40.5063 48.3566 39.1299 48.3566 38.1467C48.3566 37.5568 48.5531 36.5737 48.5531 35.7871C48.5531 35.3939 48.5531 35.3939 48.5531 35.1972C48.7495 35.5905 49.1423 36.1804 49.3388 36.377C48.5531 36.1804 48.9459 36.5737 49.5352 36.9669Z" fill="#C8E2FF"/>
<path d="M46.7864 36.5737C47.9649 37.3602 49.5363 37.9501 50.322 38.1467C51.1077 38.3434 51.697 38.54 52.2862 38.7366C52.6791 38.7366 53.0719 38.9333 53.2683 38.9333C54.6433 39.1299 54.6433 39.1299 55.429 39.1299C56.0182 39.1299 56.0182 39.1299 57.5896 39.1299C57.9825 39.1299 58.3753 39.1299 58.5717 39.1299C59.161 39.1299 59.7503 38.9333 60.7324 38.9333C60.7324 38.9333 61.7145 38.7366 62.6966 38.54C63.2859 38.3434 64.0716 38.1467 64.6609 37.9501C65.8394 37.5568 67.0179 36.7703 67.6072 36.377C68 35.9838 68.5893 35.5905 68.7857 35.3939C69.1786 35.0006 69.5714 34.6073 69.9643 33.8208C70.75 32.4444 70.9464 31.4612 70.9464 30.8713C70.9464 30.6747 71.1428 29.2982 70.75 27.5286C70.75 27.7252 66.8215 29.8881 63.4823 31.6578C57.9825 34.804 55.2326 33.6242 49.9291 30.478C50.1256 24.9723 42.8579 27.3319 42.4651 27.5286C41.6794 28.3151 42.5569 29.4949 42.5569 30.478C42.5569 31.6578 42.9497 32.4444 43.1461 33.0343C43.3425 33.4275 43.539 33.8208 43.7354 34.2141C44.1282 34.6073 44.1282 34.804 44.7175 35.3939C45.1104 35.7871 45.6996 36.1804 46.0925 36.377C46.6817 35.9838 46.5899 36.377 46.7864 36.5737Z" fill="#C8E2FF"/>
<path d="M38.3396 17.1071L39.911 27.332C38.9288 26.1522 38.536 24.9724 38.3396 23.7926C37.7503 20.2532 37.161 16.7138 36.5718 12.9778C36.5718 14.5508 37.161 15.9273 38.3396 17.1071Z" fill="#A5CBFA"/>
<path d="M65.4999 22.5H65.9999L65.3999 32.838C64.7999 33.0547 64.4 33.0547 63.8 33.2715C63.2 33.4883 62.6 33.4883 62 33.705C61.4 33.705 61 33.705 60.6 33.705C60 33.705 59.4 33.9218 58.8 33.9218C55.6 34.1385 52.4 33.9218 49.4 33.0547C49.2 33.0547 48.8 32.838 48.6 32.838L47.9673 22.6096C48.0781 22.5819 48.6046 22.2494 48.66 22.2494C51.86 23.1165 55.4 23.5173 59 23.3006C60 23.3006 60.8 23.0838 61.8 23.0838C62 23.0838 62.2 23.0838 62.6 22.867C62.8 22.867 63 22.867 63.2 22.6503C63.4 22.6503 63.6 22.6503 63.8 22.4335C64 22.4335 64.2 22.4335 64.4 22.2168C64.6 22.2168 64.7999 22.2168 64.9999 22C65.1999 22 65.2999 22.5 65.4999 22.5Z" fill="#C8E2FF"/>
<path d="M69.5708 21.433C69.7672 21.433 69.9636 21.2363 70.1601 21.2363C70.1601 21.2363 69.9636 21.2363 69.9636 21.433C69.7672 21.2363 69.7672 21.2363 69.5708 21.433Z" fill="#1F1F1F"/>
<path d="M77.4286 12.9778L75.6608 23.7926C75.268 25.5623 74.2859 27.332 72.5181 28.905L75.4282 17.0744C76.4103 15.698 77.2322 14.5508 77.4286 12.9778Z" fill="#DCEEFF"/>
<path d="M65.6424 22.8094H65.8388L65.2495 32.6411C64.6603 32.8377 64.2674 32.8377 63.6781 33.0343C63.0889 33.231 62.4996 33.231 61.9103 33.4276C61.3211 33.4276 60.9282 33.4276 60.5354 33.4276C59.9461 33.4276 59.3568 33.6242 58.7676 33.6242L58.964 23.7926C59.9461 23.7926 60.7318 23.596 61.7139 23.596C61.9103 23.596 62.1068 23.596 62.4996 23.3993C62.696 23.3993 62.8925 23.3993 63.0889 23.2027C63.2853 23.2027 63.4817 23.2027 63.6781 23.0061C63.8746 23.0061 64.071 23.0061 64.2674 22.8094C64.4638 22.8094 64.6603 22.8094 64.8567 22.6128C65.0531 22.8094 65.446 22.8094 65.6424 22.8094Z" fill="#DCEEFF"/>
<path d="M46.7857 36.5737C47.9642 37.3602 49.5356 37.9501 50.3213 38.1467C51.107 38.3433 51.6962 38.54 52.2855 38.7366C52.6783 38.7366 53.0712 38.9332 53.2676 38.9332C54.6426 39.1299 54.6426 39.1299 55.4283 39.1299C56.0175 39.1299 56.0175 39.1299 57.5889 39.1299C57.9818 39.1299 58.3746 39.1299 58.571 39.1299C59.1603 39.1299 59.7496 38.9332 60.7317 38.9332C60.7317 38.9332 61.7138 38.7366 62.6959 38.54C63.2852 38.3433 64.0709 38.1467 64.6601 37.9501C65.8387 37.5568 67.0172 36.7703 67.6065 36.377C67.9993 35.9838 68.5886 35.5905 68.785 35.3939C69.1779 35.0006 69.5707 34.6073 69.9636 33.8208C70.7492 32.4444 70.9457 31.4612 70.9457 30.8713C70.9457 30.6747 71.1421 29.2982 70.7492 27.5285C70.7492 27.7252 71.1421 30.0848 70.3564 30.6747C70.7492 33.0343 69.3743 35.5905 66.2315 37.3602C60.9281 39.7198 52.2855 39.7198 46.7857 36.5737C43.8393 34.804 42.6608 32.4444 43.0536 30.2814C42.2679 29.8881 42.6608 27.3319 42.6608 27.3319C42.4644 28.3151 42.4644 29.4949 42.4644 30.478C42.4644 31.6578 42.8572 32.4444 43.0536 33.0343C43.25 33.4275 43.4465 33.8208 43.6429 34.2141C44.0357 34.6073 44.0357 34.804 44.625 35.3939C45.0178 35.7871 45.6071 36.1804 46 36.377C46.3928 36.1804 46.5892 36.377 46.7857 36.5737Z" fill="#A5CBFA"/>
<path d="M41.8755 27.7252C42.4648 29.1016 43.8397 30.2814 45.6075 31.4612C51.5002 35.0006 61.3214 35.1973 67.6069 31.6579C69.5711 30.4781 71.1425 29.1016 71.7318 27.7252L70.3568 30.2814C69.7675 31.6579 68.3926 32.8377 66.6248 34.0175C60.9285 37.1636 51.8931 37.1636 46.5896 33.8208C45.0183 32.8377 43.8397 31.6579 43.2504 30.4781C42.8576 29.2983 42.4648 28.5118 41.8755 27.7252Z" fill="#A5CBFA"/>
<path d="M43.0539 9.43841L38.3398 6.68555C35.5899 10.0283 35.5899 13.7643 38.3398 17.1071L43.0539 14.3542C42.2682 12.7812 42.2682 11.2081 43.0539 9.43841Z" fill="#DCEEFF"/>
<path d="M65.8385 1.1798C60.3386 -0.393266 53.4638 -0.393266 47.7676 1.1798L52.4817 3.93266C55.2316 3.34276 58.178 3.34276 61.1243 3.93266L65.8385 1.1798Z" fill="#DCEEFF"/>
<path d="M52.679 19.8599L47.9648 22.6127C53.6611 24.1858 60.3395 24.1858 66.0357 22.6127L61.3216 19.8599C58.3753 20.4498 55.4289 20.4498 52.679 19.8599Z" fill="#DCEEFF"/>
<path d="M43.0543 9.43835L44.0364 15.7306C42.2686 13.9609 42.0722 11.6013 43.0543 9.43835Z" fill="#A5CBFA"/>
<path d="M62.6957 15.9273L67.6063 17.5003C67.4099 17.6969 67.2134 17.8936 66.8206 17.8936C65.0528 18.8767 63.0886 19.4666 61.1243 19.8599C57.3923 20.4498 53.4638 20.2532 49.9282 19.27C49.1425 19.0734 48.3568 18.6801 47.7676 18.4835L51.8925 14.7475L52.4817 3.93265H52.6781C52.8746 3.93265 53.2674 3.93265 53.4638 3.73602C53.6603 3.73602 53.8567 3.73602 54.0531 3.73602L54.5001 3.49996C56.6608 3.30332 57.0001 2.99999 61.5001 3.99996L61.9702 14.7355L62.6957 15.9273Z" fill="#C8E2FF"/>
<path d="M66.035 16.4269C61.1244 13.4774 53.2675 13.4774 48.1605 16.2303C47.3748 16.6236 46.7856 17.2135 46.1963 17.6067L46.3927 17.8034C51.8926 21.1461 61.1244 21.1461 66.8207 18C67.2135 18 67.41 17.8034 67.6064 17.6067C67.2135 17.2135 66.6243 16.8202 66.035 16.4269Z" fill="#A5CBFA"/>
<path d="M52.0886 4.12927H52.2851C52.0886 4.12927 51.8922 4.12927 51.6958 4.32591C51.6958 4.12927 51.8922 4.12927 52.0886 4.12927Z" fill="#7F7F7F"/>
<path d="M54.8386 14.1576C54.0529 14.1576 53.4636 14.3542 52.6779 14.5508C52.4815 14.5508 52.4815 14.5508 52.2851 14.5508C52.0887 14.5508 51.8922 14.5508 51.6958 14.7475L52.4815 3.93266C52.2851 3.93266 52.2851 3.93266 52.0886 3.93266C52.0886 3.93266 52.2851 3.93266 52.4815 3.93266L52.6499 3.85029C52.8464 3.85029 52.9018 3.72434 53.3516 3.61639C53.5481 3.61639 53.8033 3.5 53.9997 3.5H54.4997L54.8386 14.1576Z" fill="#C8E2FF"/>
<path d="M54.4468 38.7366C49.1433 37.9501 49.7326 35.1972 49.7326 35.1972H49.929C48.7505 34.804 47.7684 34.4107 46.7863 33.8208L46.9827 34.0174C46.9827 34.0174 47.1791 34.0174 47.1791 34.2141C47.1791 34.2141 46.3934 36.1804 45.0185 35.1972C44.822 35.0006 44.6256 35.0006 44.4292 34.804L44.9315 35.5702C45.7172 36.1601 45.9136 36.3567 46.6993 36.9466L47.485 37.3399C47.6814 37.5365 48.1612 37.5568 48.5541 37.5568L49.5362 37.9501C49.7326 37.9501 50.1255 38.1467 50.5183 38.3434L51.5004 38.54C53.9455 39.0786 60.1692 39.4527 54.4468 38.7366Z" fill="#A5CBFA"/>
<path d="M58.5708 74.7205C58.5708 74.7205 58.9636 46.4054 60.3386 44.0458C61.7136 41.4895 64.0706 64.4956 64.6599 68.035C65.4456 71.771 65.642 73.1474 65.642 73.1474C65.642 73.1474 63.4814 74.5239 58.5708 74.7205Z" fill="#DCEEFF"/>
<path d="M64.857 34.6074C65.0534 34.6074 65.2498 35.0007 65.0534 35.1973C64.6606 35.5906 64.0713 36.1805 62.8928 36.3771C60.5357 36.967 59.75 36.5737 59.75 35.9838C59.75 35.7872 60.9285 35.0007 64.857 34.6074Z" fill="#DCEEFF"/>
<path d="M43.0535 14.3541L44.0356 15.9272L46.1963 24.7757L39.9107 27.3319L38.3394 17.107L43.0535 14.3541Z" fill="#A5CBFA"/>
<path d="M47.7676 1.17981L48.5533 12.7812L51.696 14.7475L52.4817 3.93267L47.7676 1.17981Z" fill="#A5CBFA"/>
<path d="M61.125 3.93267L61.9107 14.7475L65.0535 12.7812L65.8391 1.17981L61.125 3.93267Z" fill="#C8E2FF"/>
<path d="M39.3218 24.5791C39.3218 24.5791 41.0896 27.5286 48.3572 29.8882L49.4296 33.1233C49.4296 33.1233 43.8161 32.0437 39.7146 27.5286C39.3218 24.9724 39.3218 24.5791 39.3218 24.5791Z" fill="#C8E2FF"/>
<path d="M65.2495 9.63501L61.7139 11.6013L69.9636 17.3037L70.7493 14.3542C70.7493 14.3542 71.3386 13.5677 71.3386 12.1912C68.1958 10.2249 65.2495 9.63501 65.2495 9.63501Z" fill="#DCEEFF"/>
<path d="M70.7491 9.43835L69.9634 17.3037L71.9276 14.7474L72.5169 10.4215L70.7491 9.43835Z" fill="#A5CBFA"/>
<path d="M75.4641 6.68555L70.75 9.43841C71.5357 11.0115 71.5357 12.7812 70.75 14.3542L75.4641 17.1071C78.2141 13.961 78.2141 10.0283 75.4641 6.68555Z" fill="#DCEEFF"/>
<path d="M70.7143 14.3036L67.8032 26.1521L72.5174 28.9049L75.4637 17.1069L70.7143 14.3036Z" fill="#C8E2FF"/>
<path d="M69.1779 20.4498C69.1779 20.4498 69.1779 16.9104 61.9103 14.7474C61.7139 11.6013 61.7139 11.6013 61.7139 11.6013C61.7139 11.6013 70.1601 14.5508 69.9636 17.3037L69.1779 20.4498Z" fill="#C8E2FF"/>
<path d="M44.6254 17.697C45.0182 19.27 45.0182 19.27 45.0182 19.27C45.0182 19.27 46.786 16.1839 51.893 14.8075V11.5509C51.893 11.5509 44.429 13.961 44.6254 17.697Z" fill="#A5CBFA"/>
<path d="M51.9126 11.5328L48.2962 9.37378C48.2962 9.37378 44.9918 10.1911 43.4204 11.3709C43.6168 12.7473 44.6249 17.6969 44.6249 17.6969C44.6249 17.6969 43.8593 14.2857 51.9126 11.5328Z" fill="#DCEEFF"/>
<path d="M39.3218 24.5791L45.2145 21.2363C45.2145 21.2363 45.3483 22.8022 48.0982 23.7854C48.0982 24.1787 48.3572 29.8882 48.3572 29.8882C48.3572 29.8882 40.8932 27.7252 39.3218 24.5791Z" fill="#DCEEFF"/>
<path d="M73.6965 24.1858C73.6965 24.1858 71.3394 28.1184 65.4468 29.6915C59.5541 31.4612 65.2503 32.4444 65.2503 32.4444C65.2503 32.4444 68.786 31.8545 72.518 28.7083C74.0894 26.3488 73.6965 24.1858 73.6965 24.1858Z" fill="#DCEEFF"/>
<path d="M73.6964 24.1858L68.9823 21.433L66.0359 22.6128L65.6431 29.6916C65.4467 29.8882 73.6964 27.1353 73.6964 24.1858Z" fill="#DCEEFF"/>
<path d="M78.2134 79.0464C78.2134 80.2262 77.8205 81.406 77.2312 82.5858C76.642 83.5689 75.6599 84.5521 74.8742 85.3386C72.91 86.9117 70.7493 88.0915 68.3922 89.0747C66.0351 89.8612 63.6781 90.4511 61.1246 90.6477C58.5711 90.8444 56.214 90.6477 53.8569 90.2545C58.7675 90.6477 63.6781 90.0578 68.1958 88.2881C70.5529 87.5016 72.5171 86.3218 74.4813 84.9454C76.2491 83.3723 77.8205 81.406 78.2134 79.0464Z" fill="#DCEEFF"/>
<path d="M45 71.9838C45.1964 71.7872 51.0891 41.5057 47.5535 36C50.0356 38.4848 52.9544 39.1461 56.3925 39.1461C57.637 39.1461 62.5332 38.5818 59.3389 39.1461C54.0354 40.1293 54.0354 40.1293 53.839 40.9158C53.6426 41.1125 51.6784 74.3434 51.6784 74.54V74.7367C49.7141 74.3434 47.7499 73.7535 46.1785 72.7703C45.7857 72.5737 45.3928 72.3771 45 71.9838Z" fill="#A5CBFA"/>
<defs>
<radialGradient id="paint0_radial" cx="0" cy="0" r="1" gradientUnits="userSpaceOnUse" gradientTransform="translate(57 65) rotate(90) scale(57)">
<stop offset="0.328125" stop-color="#61AAFF"/>
<stop offset="1" stop-color="#20263B" stop-opacity="0"/>
</radialGradient>
<linearGradient id="paint1_linear" x1="45.8784" y1="121.52" x2="23.8146" y2="159.736" gradientUnits="userSpaceOnUse">
<stop offset="0.033147" stop-color="#61AAFF"/>
<stop offset="0.244792" stop-color="#50ABFF" stop-opacity="0.55"/>
<stop offset="0.75" stop-color="#2F3C5B" stop-opacity="0"/>
</linearGradient>
<linearGradient id="paint2_linear" x1="68.2505" y1="121.52" x2="90.3143" y2="159.736" gradientUnits="userSpaceOnUse">
<stop offset="0.033147" stop-color="#61AAFF"/>
<stop offset="0.244792" stop-color="#50ABFF" stop-opacity="0.55"/>
<stop offset="0.75" stop-color="#2F3C5B" stop-opacity="0"/>
</linearGradient>
</defs>
</svg>
