<svg width="131" height="163" viewBox="0 0 131 163" fill="none" xmlns="http://www.w3.org/2000/svg">
<circle cx="65.4556" cy="66" r="57" fill="url(#paint0_radial)"/>
<path d="M37.1481 100.438C56.8618 115.99 85.4506 112.617 101.003 92.9032C116.555 73.1895 113.182 44.6008 93.4678 29.0485C73.7541 13.4963 45.1654 16.8698 29.6131 36.5835C14.0609 56.2973 17.4344 84.886 37.1481 100.438Z" stroke="#00FFDA" stroke-miterlimit="10"/>
<path d="M96.3872 98.4751C97.1526 99.0789 98.2626 98.9479 98.8664 98.1825C99.4702 97.4171 99.3393 96.3071 98.5739 95.7033C97.8085 95.0995 96.6985 95.2305 96.0947 95.9959C95.4908 96.7613 95.6218 97.8712 96.3872 98.4751Z" fill="#00FFDA"/>
<path d="M37.5053 101.653C37.8414 101.918 38.3287 101.86 38.5938 101.524C38.8589 101.188 38.8014 100.701 38.4653 100.436C38.1293 100.171 37.642 100.228 37.3769 100.564C37.1118 100.9 37.1693 101.388 37.5053 101.653Z" fill="#00FFDA"/>
<path d="M104.003 43.7765C104.656 44.292 105.604 44.1802 106.119 43.5268C106.635 42.8734 106.523 41.9258 105.87 41.4104C105.216 40.8949 104.269 41.0067 103.753 41.6601C103.238 42.3135 103.35 43.2611 104.003 43.7765Z" fill="#00FFDA"/>
<path d="M100.321 37.2522C100.769 37.6057 101.419 37.529 101.773 37.081C102.126 36.633 102.049 35.9832 101.601 35.6297C101.153 35.2763 100.504 35.353 100.15 35.801C99.7966 36.249 99.8733 36.8988 100.321 37.2522Z" fill="#00FFDA"/>
<path d="M105.128 103.108L66.3701 125.816V162.487L105.128 139.829V103.108Z" fill="url(#paint1_linear)"/>
<path d="M28.4062 103.952L66.3695 125.816V162.487L28.4062 140.673V103.952Z" fill="url(#paint2_linear)"/>
<path d="M15.457 88.8571L65.4565 117.714V126.552L15.457 97.6949V88.8571Z" fill="#A5CBFA"/>
<path d="M65.456 117.714L115.456 88.8571V97.6949C115.456 97.6949 65.456 127.577 65.456 126.552C65.456 125.575 65.456 117.714 65.456 117.714Z" fill="#C8E2FF"/>
<path d="M115.455 88.8571L65.4551 60L15.4555 88.8571L65.4551 117.714L115.455 88.8571Z" fill="#DCEEFF"/>
<path d="M50.7497 74.5765C52.297 73.6924 54.2863 72.8082 58.0439 71.9241C60.4753 71.482 63.3488 71.0399 66.0012 71.0399C69.7588 71.0399 72.8533 71.703 73.9585 71.9241C74.4006 72.1451 75.0637 72.1451 75.5058 72.3661C75.9479 72.5872 76.6109 72.8082 77.053 72.8082C77.4951 73.0292 77.9372 73.2503 78.3792 73.4713C78.3792 73.4713 79.7055 73.9134 81.0317 74.7976C80.1475 74.1344 77.7161 75.4606 77.4951 75.4606C71.0851 71.703 60.6963 71.482 54.0653 75.2396C47.4342 78.9972 47.2132 84.9652 53.6232 88.7228C60.0332 92.4804 70.4219 92.7015 77.053 88.9438C83.6841 85.1862 83.9051 79.2182 77.4951 75.4606C77.7161 75.4606 79.9265 74.1344 81.0317 74.7976C81.4738 75.0186 81.9158 75.2396 82.1369 75.4606C82.8 75.9027 83.4631 76.5658 83.9051 77.0079C84.3472 77.45 85.2314 78.3341 85.4524 78.9972C85.6734 79.2183 85.8944 79.6603 86.1155 80.1024C86.3365 80.7655 86.7786 81.4286 86.9996 82.0917C87.2206 82.5338 87.2207 82.9759 87.2207 83.1969C87.2207 83.639 87.2207 84.0811 87.2207 84.5231C87.2207 87.8387 85.0103 91.1542 80.5896 93.8066C71.9692 98.6694 58.0439 98.4484 49.6445 93.5856C45.6659 91.1542 43.4556 88.0597 43.4556 84.7442C43.4556 84.5231 43.4556 84.0811 43.4556 83.639C43.4556 83.1969 43.6766 82.5338 43.6766 82.0917C43.8976 81.4286 44.1187 80.7655 44.5607 80.1024C44.7818 79.6603 45.0028 79.2183 45.2238 78.9972C45.4449 78.7762 45.887 78.3341 46.108 77.892C46.5501 77.45 47.4342 76.7869 47.8763 76.1238C48.3184 76.1238 49.4235 75.2396 50.7497 74.5765Z" fill="#C8E2FF"/>
<path d="M81.1698 75.1997C81.8329 75.6418 82.496 76.0838 83.1591 76.5259L84.0432 77.4101C84.2643 77.6311 84.7063 78.0732 84.9274 78.2942L85.5905 79.1783C85.8116 79.3994 86.0326 79.8414 86.2536 80.2835L86.6957 81.1677C86.9167 81.6097 86.9167 82.0518 87.1377 82.2728L87.3588 83.157C87.3588 83.5991 87.3588 84.0411 87.3588 84.4832C87.3588 85.3674 87.1378 86.2515 86.9168 86.9146C87.1378 86.0304 87.1378 85.8094 86.9168 85.8094C86.6957 85.5884 86.2536 86.2515 86.0326 86.4725C83.1591 90.0091 78.9594 92.4405 73.8756 93.7667C68.3497 95.314 64.15 95.314 59.2872 95.314C58.6241 95.314 58.182 95.535 58.182 95.535L57.961 95.756C57.961 95.9771 58.1821 95.9771 59.0662 96.4191C55.5296 95.756 52.4351 94.6509 49.7827 93.1036C48.6775 92.4405 47.7934 91.7774 46.9092 90.8932H47.1302C47.3513 90.8932 47.7934 91.3353 48.0144 91.1143C48.2354 90.8933 47.5723 90.4512 47.3513 90.2301C40.7202 81.8308 47.1303 76.5259 50.2248 74.5366C50.6668 74.3156 51.551 73.8735 51.993 73.6524C52.4351 73.4314 53.0982 73.2104 53.5403 72.9893L54.8665 72.5472C55.3086 72.3262 55.9717 72.1052 56.4138 72.1052L57.961 71.6631C58.4031 71.6631 59.0662 71.4421 59.5083 71.4421L61.0555 71.221C61.4976 71.221 62.1607 71 62.6028 71H64.15C64.5921 71 65.2552 71 65.6973 71H67.2445C67.6866 71 68.3497 71 68.7918 71.221L70.3391 71.4421C70.7811 71.4421 71.4442 71.6631 71.8863 71.6631L73.4335 72.1052C73.8756 72.3262 74.5387 72.3262 74.9808 72.5472L76.528 72.9893C76.9701 73.2104 77.6332 73.4314 78.0753 73.6524L79.4015 74.3155C80.0646 74.7576 80.7277 74.9787 81.1698 75.1997C80.2857 74.5366 77.8543 75.8628 77.6332 75.8628C71.2232 72.1052 60.8345 71.8842 54.2034 75.6418C47.5723 79.3994 47.1836 84.1447 53.5937 87.9023C60.0037 91.6599 70.4626 92.1599 77.0937 88.4023C83.7248 84.6447 84.0433 79.6204 77.6332 75.8628C77.8543 75.8628 80.0646 74.5366 81.1698 75.1997Z" fill="#A5CBFA"/>
<path d="M81.0315 33.9057C81.0315 33.2426 80.5894 32.5795 80.5894 32.1374C80.3683 31.6953 79.9263 30.8112 79.9263 30.5901C79.2632 29.2639 78.158 27.9377 76.3897 26.8325C75.9476 26.6115 75.5055 26.3905 75.0635 26.1694C69.3165 23.517 60.6961 23.517 55.1702 26.6115C53.1809 27.7167 51.8547 29.0429 51.1916 30.5901C50.9706 31.0322 50.7495 31.6953 50.5285 32.3584C50.3075 33.2426 50.0864 33.9057 50.0864 34.1267C50.0864 35.0109 50.0864 35.2319 50.0864 36.116C50.3075 37.0002 50.5285 37.8843 50.5285 37.8843C50.7495 38.3264 50.9705 38.9895 51.4126 39.4316C51.6337 39.6526 51.8547 40.0947 52.0757 40.3157C52.5178 40.7578 52.9599 41.1999 53.402 41.6419C53.623 41.863 54.2861 42.3051 55.6123 42.9682C55.6123 42.9682 56.4965 43.4102 57.6016 43.8523C59.812 44.7365 61.8013 44.9575 61.8013 44.9575C62.9065 45.1785 63.3486 45.1785 64.0117 45.1785C65.5589 45.1785 65.78 45.1785 67.3272 45.1785C68.2113 45.1785 69.9796 44.9575 71.7479 44.5154C72.19 44.5154 72.8531 44.0733 73.7372 43.8523C75.0634 43.4102 75.7266 42.9682 75.7266 42.9682C76.8318 42.3051 76.8318 42.3051 77.4949 41.863C78.379 41.1999 78.8211 40.7578 79.0422 40.5368C79.9263 39.6526 80.3683 38.5475 80.8104 37.6633C80.8104 37.4423 81.0315 37.2212 81.0315 36.7792C81.0315 36.5581 81.0315 36.1161 81.2525 35.895C81.2525 35.0109 81.0315 34.3478 81.0315 33.9057Z" fill="#A5CBFA"/>
<path d="M75.2847 32.8006C75.2847 32.8006 76.832 29.9272 74.1795 27.0537C71.5271 23.9592 77.4951 28.1589 77.4951 28.1589C77.4951 28.1589 79.7054 29.7061 79.4844 32.3586C79.2634 35.011 78.8213 35.232 78.8213 35.232L75.2847 32.8006Z" fill="#A5CBFA"/>
<path d="M81.0315 35.674C81.0315 35.8951 81.0315 36.3371 80.8104 36.5582L79.0422 36.3371L78.379 34.1268C78.379 34.1268 79.7053 30.1481 75.7266 27.9378C75.0635 27.4957 74.6214 27.0536 74.4004 26.3905C74.8425 26.6115 75.2845 26.8326 75.7266 27.0536C77.4949 28.1588 78.6 29.485 79.2631 30.8112C79.4842 31.0323 79.7053 31.9164 79.9263 32.3585C80.1473 32.8006 80.3683 33.4637 80.3683 34.1268C81.0314 34.3478 81.2525 35.0109 81.0315 35.674Z" fill="#C8E2FF"/>
<path d="M83.6989 72.6459C82.8165 71.6736 81.7135 70.4583 80.8311 69.4861C80.8311 70.4583 80.6105 71.1875 80.3899 72.1598C79.9487 73.6181 79.2869 74.5904 78.8457 75.3196C78.8457 75.3196 78.8457 75.3195 78.6251 75.5626C77.9632 76.5348 76.8603 77.264 75.7573 78.2363C70.0216 81.8821 60.7563 81.6391 55.2412 77.9932C51.7116 75.8056 50.6086 72.6459 51.491 69.7292C51.491 69.4861 51.2704 69.2431 51.2704 69C51.2704 69 51.2704 69 51.0498 69.2431L50.8292 69.4861C50.6086 69.7292 50.388 69.9723 50.388 69.9723C50.1674 70.2153 49.9468 70.4584 49.9468 70.4584L49.7262 70.7014C49.5056 70.9445 49.285 71.1876 49.285 71.1876C49.0644 71.4306 48.8438 71.6737 48.8438 71.6737L48.6232 71.9167C48.4026 72.1598 48.182 72.4028 48.182 72.4028C43.7699 77.264 44.6523 83.8266 51.2704 87.9586C59.2121 93.3059 72.2276 93.3059 80.6105 88.2017C87.0079 84.5558 88.3316 77.7501 83.6989 72.6459Z" fill="#C8E2FF"/>
<path d="M73.2956 78.7762C72.8535 78.9973 72.4114 78.9973 72.1904 79.2183C71.0852 79.6604 69.98 79.8814 68.6538 79.8814L69.98 90.4912C71.7483 90.2701 73.2956 89.8281 75.0638 89.386C75.7269 89.1649 76.1691 88.9439 76.8322 88.7229L73.2956 78.7762Z" fill="#DCEEFF"/>
<path d="M43.6768 86.0945V83.221C43.6768 86.3156 45.6661 89.4101 49.8658 92.0625C58.2651 97.1463 72.1904 97.1463 80.8108 92.2835C85.2315 89.8521 87.6629 86.5366 87.4419 83V85.8735C87.4419 89.189 85.2315 92.5045 80.8108 95.157C72.1904 100.02 58.2651 99.7988 49.8658 94.936C45.6661 92.5046 43.6768 89.189 43.6768 86.0945Z" fill="#C8E2FF"/>
<path d="M51.9635 89.2468C51.5296 88.8052 50.6619 88.3636 50.228 88.1429C49.3603 87.4805 48.9265 87.0389 48.7095 86.8182C48.4926 86.5974 48.2757 86.3766 48.0587 86.1559C47.8418 85.9351 47.408 85.4935 47.191 85.052C46.9741 84.6104 46.5402 83.948 46.1064 83.0649C46.1064 83.0649 45.8894 82.1818 45.6725 81.5195C45.6725 81.2987 45.4556 80.8571 45.4556 80.4156C45.4556 80.1948 45.4556 79.974 45.4556 79.7532C45.4556 79.3117 45.4556 78.6493 45.6725 77.987C45.6725 77.7662 45.8894 77.5455 45.8894 77.3247C46.1064 76.8831 46.1063 76.4416 46.3233 76.2208C44.5878 80.1948 46.1064 84.6104 51.3127 87.7013C59.1222 92.5584 71.9212 92.5584 80.1646 87.9221C85.8048 84.8312 87.5402 80.1948 85.5879 76C85.8048 76.4416 86.0218 76.8831 86.0218 77.1039C86.0218 77.3247 86.2386 77.7662 86.2386 77.987C86.4556 78.6493 86.4556 79.3117 86.4556 80.4156C86.4556 81.7403 86.0217 83.2857 85.154 84.6104C84.0693 86.3766 82.9847 87.4805 81.6831 88.3636C80.8154 89.026 79.7307 89.6883 79.5138 89.6883C79.0799 89.9091 78.6461 90.1299 78.4292 90.3506C77.9953 90.5714 77.1275 90.7922 76.6937 91.013C70.1857 93.6623 61.5085 93.6623 55.0005 91.013C54.3497 90.7922 53.482 90.3507 52.8312 89.9091C52.8312 89.6883 52.1804 89.4675 51.9635 89.2468Z" fill="#A5CBFA"/>
<path d="M50.4707 68.9502C50.6768 67.524 51.1861 65.8139 52.2575 64.7546C52.8554 64.1635 53.1985 63.8698 53.9707 63.488C51.0015 67.5008 50.9174 71.488 55.161 73.8082C60.7447 77.1206 69.902 77.1206 75.7091 74.0291C79.9707 71.488 80.9707 66.488 77.4958 62.988C77.9425 63.2089 78.3893 63.6505 78.8359 64.0921C79.2826 64.7546 79.506 64.9754 80.1761 65.6379C80.3994 65.8587 81.4393 68.574 81.4393 69.8989C81.6626 71.4447 80.6227 72.8701 80.6227 73.3117C80.3994 73.7534 79.9527 75.0783 78.836 76.4033C78.1659 77.2865 77.0492 77.949 75.9325 78.6115C70.1254 81.9238 60.7447 81.7029 55.161 78.3906C50.9254 75.878 50.4707 71.276 50.4707 68.9502Z" fill="#C8E2FF"/>
<path d="M75.9555 62L74.6215 63.7457C79.4843 66.6192 63.3487 61.3143 66.8853 61.5353L67.1063 60.2091C62.9066 59.9881 58.7069 60.6512 55.6124 62.4195C54.0652 63.3036 52.96 64.1878 52.2969 65.2929C50.3076 68.1664 51.1917 71.703 55.1703 74.1344C60.6962 77.4499 69.7587 77.4499 75.5057 74.3554C81.2526 71.2609 81.4813 65.3155 75.9555 62Z" fill="#A5CBFA"/>
<path d="M73.2955 22.4119L65.3382 24.1802L73.2955 22.4119C77.4952 24.8433 77.2742 29.043 73.0745 31.4744C68.6538 33.9058 61.8016 33.9058 57.602 31.2533C53.4023 28.8219 53.6233 24.6223 57.823 22.1909C62.2437 19.7595 69.0958 19.7595 73.2955 22.4119Z" fill="#D6D6D6"/>
<path d="M76.3901 95.1328C75.948 95.3538 72.1904 96.901 67.9907 96.459C67.9907 96.459 68.2117 96.2379 68.4328 96.2379H68.6538C69.0959 96.2379 69.759 96.0169 70.2011 96.0169C70.2011 96.0169 74.4007 95.1328 75.948 94.6907C77.2742 94.2486 77.2742 94.2486 77.4952 94.4696C77.2742 94.6907 76.6111 94.9117 76.3901 95.1328Z" fill="#DCEEFF"/>
<path d="M59.2712 94.6631C58.166 94.442 57.0608 94.221 55.9556 94C53.7453 93.3369 51.756 92.4527 49.9877 91.3475C49.7666 91.1265 49.1767 90.721 48.9556 90.5C48.2925 90.0579 47.7773 89.8003 47.1142 89.1372L46.9922 92.8735C47.6553 93.3156 48.0974 93.9787 48.9815 94.4208C49.2026 94.6418 49.6446 94.8628 49.8657 95.0839C51.6339 96.189 53.6233 97.0732 55.8336 97.7363C56.9388 97.9573 58.044 98.3994 59.1492 98.3994L59.2712 94.6631Z" fill="#A5CBFA"/>
<path d="M47.8765 85.1861L53.1813 76.1237C53.6234 76.5657 54.0655 76.7868 54.5075 77.2288L49.8658 86.7334C48.9816 86.0703 48.3185 85.6282 47.8765 85.1861Z" fill="#A5CBFA"/>
<path d="M49.4556 86.9821L54.3017 77C54.5325 77.2321 54.7633 77.2321 54.994 77.4643C55.9171 78.1607 57.3017 78.625 58.4556 79.0893L55.2248 90C53.3786 89.3036 51.7633 88.6071 50.3787 87.6786C50.1479 87.4464 49.6863 87.2143 49.4556 86.9821Z" fill="#A5CBFA"/>
<path d="M54.9556 90L58.265 78.9972C59.1491 79.2182 60.0333 79.4393 60.9174 79.6603L58.7132 90.8842C57.387 90.6631 56.2818 90.4421 54.9556 90Z" fill="#A5CBFA"/>
<path d="M54.9496 77.8414C54.0655 77.3993 53.1813 76.3448 52.7393 75.6817C52.9603 75.9028 54.9496 75.4607 54.9496 75.2397C54.9496 75.0186 54.7807 74.7163 53.6755 72.948C54.1176 73.169 54.6191 73.723 55.0612 73.944C56.1664 74.6071 57.3292 75.1258 58.6555 75.5679C57.7713 76.01 57.16 76.1238 57.602 76.7869C58.7072 78.1131 60.2545 78.9973 61.1386 79.2183C62.0228 79.6604 62.9069 79.8814 63.57 79.8814H63.7911C60.4755 79.8814 57.602 79.1676 54.9496 77.8414Z" fill="#A5CBFA"/>
<path d="M52.4556 69.0078C52.6817 68.3772 56.7512 55.3447 56.7512 40C56.7512 41.2612 57.6556 42.3122 59.2382 43.153C62.6295 45.0448 68.0556 45.0448 71.4469 43.3632C73.2556 42.5224 74.1599 41.2612 74.1599 40C74.1599 55.3447 78.2295 68.3772 78.4556 69.0078C78.4556 70.8996 77.0991 72.5812 74.386 74.0526C69.186 76.7852 61.0469 76.575 56.0729 73.8424C53.8121 72.371 52.4556 70.6894 52.4556 69.0078Z" fill="#C8E2FF"/>
<path d="M65.7788 76.001C65.7788 76.001 66.4433 60.8722 66.6644 55.7884C67.1064 50.7045 69.0958 42.5262 69.9799 48.9362C70.8641 55.1252 72.8534 70.3767 74.1796 74.1343C74.4006 74.1343 70.4206 76.001 65.7788 76.001Z" fill="#DCEEFF"/>
<path d="M62.9067 44.9575C62.4646 63.5245 61.3594 75.0184 61.1384 75.4605V75.6815C59.3701 75.2395 57.5131 75.0014 56.1869 74.1173C55.7448 73.8962 55.3914 73.4711 55.1704 73.2501C55.1704 73.0291 58.2649 59.1038 58.0439 40.9789C58.2649 41.1999 58.707 41.642 59.1491 41.863C60.2542 42.5261 61.3594 42.9682 62.6857 43.1892C62.9067 43.6313 62.9067 44.2944 62.9067 44.9575Z" fill="#A5CBFA"/>
<path d="M53.4021 41.8632C52.96 41.4211 52.5179 40.979 52.0759 40.537C50.3979 38.859 49.7995 36.4231 50.0866 34.1269C50.3076 32.5797 50.9707 31.4745 51.1917 30.5903C50.5286 32.1376 50.5286 33.9059 51.1917 35.4531C51.8548 36.7794 52.96 37.8845 54.7283 38.9897C60.4752 42.5263 69.9798 42.5263 76.1688 39.2107C78.1581 38.1056 79.4844 36.7794 80.1475 35.4531C81.0316 33.9059 80.6717 32.1223 79.7876 30.5751C80.6471 31.8644 81.0966 32.6189 81.4736 34.1269C81.7138 35.8084 81.3451 37.4786 80.5895 38.9897C80.0624 40.0439 78.8544 40.9542 77.9371 41.6421C76.7275 42.4486 75.5352 43.0892 74.1795 43.6315C72.2628 44.5898 69.6533 44.9577 67.5484 44.9577C66.4432 44.9577 65.338 44.9577 64.2328 44.9577C60.8208 44.9577 55.8645 44.3256 53.4021 41.8632Z" fill="#A5CBFA"/>
<path d="M50.9707 35.4531C50.0866 33.9058 50.0866 32.1375 50.9707 30.5903C51.8549 28.601 54.5073 29.9272 55.6125 29.7061C55.6125 29.9272 55.3914 29.9272 55.3914 30.1482C54.9494 31.4744 55.3915 32.5796 55.6125 33.0217C54.5073 33.6848 51.8549 33.0217 50.9707 35.4531Z" fill="#A5CBFA"/>
<path d="M50.2324 32.8918C50.4535 32.4498 51.2691 29.8246 51.7264 29.2759C52.0583 28.7781 52.4504 28.1622 52.874 27.7387C54.0505 26.7092 54.6724 26.4185 56.0544 25.7275C56.6475 25.1344 58.0612 24.6223 58.9279 24.6223C60.036 24.4007 61.1353 24.1809 62.2434 23.9592C63.3486 23.9592 64.4538 23.9592 65.5589 23.9592H66.6641C66.8852 23.9592 67.3272 23.9592 67.7693 23.9592L68.8745 24.1803C69.0955 24.1803 69.5376 24.4013 69.9797 24.4013L71.0848 24.6223C71.3059 24.6223 71.7479 24.8434 72.19 24.8434L73.0742 25.0644C73.2952 25.2854 73.7372 25.2855 73.9583 25.5065L74.8424 25.9486C75.0635 26.1696 75.5056 26.3906 75.7266 26.3906C74.8425 25.7275 73.0741 27.4958 72.6321 27.0537C72.411 27.0537 72.19 26.8327 71.969 26.8327C71.7479 26.8327 71.5269 26.6117 71.3059 26.6117L70.6427 26.3906C70.4217 26.3906 70.2007 26.1696 69.9797 26.1696L69.3165 25.9486C69.0955 25.9486 68.8745 25.7275 68.6534 25.7275L67.9904 25.5065C67.7693 25.5065 67.5482 25.5065 67.3272 25.5065C66.4431 25.5065 65.5589 25.5065 64.6748 25.5065C63.938 25.5065 63.2012 25.5065 62.4644 25.5065C61.1382 25.7275 56.7175 26.6117 55.1702 29.7062C54.065 29.7062 51.1166 30.9025 50.2324 32.8918Z" fill="#A5CBFA"/>
<path d="M50.9707 35.453C50.0866 33.9058 50.0866 32.1375 50.9707 30.5902C51.1918 30.1481 51.6338 29.7061 52.0759 29.7061C52.0759 29.9271 51.1203 30.3395 51.1203 32.1773C50.9707 35.1436 52.553 35.969 53.4371 37.9584C52.774 37.9584 51.4249 36.2479 50.9707 35.453Z" fill="#C8E2FF"/>
<path d="M54.9492 40.5368C54.5072 41.421 52.7389 41.421 51.8547 40.5368L51.1916 39.8737C50.9706 39.6527 50.7495 39.4317 50.7495 39.2106L50.3075 38.5475C50.0864 38.3265 50.0864 37.8844 49.8654 37.6634L49.6444 37.0003C49.6444 36.7792 49.4233 36.3372 49.4233 35.8951V35.232C49.4233 34.7899 49.4233 34.3478 49.6444 33.9058L49.8654 33.2427C50.4554 32 50.4554 31 51.4554 30C51.4554 31.5 50.0864 34.1268 50.7495 35.674C51.4126 37.0003 52.5178 38.1054 54.2861 39.2106C54.9038 39.8283 55.3237 39.569 54.9492 40.5368Z" fill="#C8E2FF"/>
<path d="M81.1733 36.053C81.1366 36.8214 80.6537 38.1316 80.6537 38.1316C80.6537 38.1316 79.6546 39.672 78.9648 40.3618C78.2311 41.0955 77.2198 41.6829 76.3899 42.3053C67.9905 47.3891 56.2756 44.9577 56.7177 40.758C56.7177 40.537 56.9387 40.316 56.9387 40.0949C62.6857 42.3053 70.4219 41.8632 75.5058 38.9898C77.4951 37.8846 78.8213 36.5584 79.4844 35.2321C79.9265 34.348 80.1475 33.4639 80.1475 32.5797C80.1475 33.5344 81.2413 34.631 81.1733 36.053Z" fill="#C8E2FF"/>
<path d="M79.9266 35.2321C79.2635 36.5583 77.9373 37.8845 75.9479 38.9897C70.8641 41.8631 63.1249 41.9658 57.3779 39.7555C57.599 39.7555 57.8543 39.3224 58.742 39.2107C58.742 39.2107 58.9282 39.2107 60.2544 39.2107C64.6751 39.4317 73.9587 39.6528 79.0425 33.6848C79.0425 34.1269 79.4845 34.569 79.9266 35.2321Z" fill="#C8E2FF"/>
<path d="M70.643 35.674C68.8747 36.5582 67.5485 36.5581 66.4434 36.3371C66.8854 36.1161 69.3168 35.2319 71.0851 35.2319C70.8641 35.453 70.643 35.674 70.643 35.674Z" fill="#DCEEFF"/>
<path d="M58.265 31.9165C57.3808 31.2534 54.5074 29.7061 52.7391 25.7275C52.518 25.2854 52.297 24.6223 52.076 23.9592C51.8549 23.5171 51.8549 22.854 51.6339 22.4119C51.6339 22.1909 51.4128 21.7488 51.4128 21.3067C51.1918 20.4226 51.1918 18.8753 51.4128 17.5491C51.4128 16.886 51.6339 15.5598 52.518 13.7915C53.4022 12.0232 54.5074 10.697 54.7284 10.476C55.1705 10.0339 56.2756 8.92874 58.0439 7.82356C59.3701 7.16045 60.6964 6.49733 62.0226 6.27629C64.454 5.83422 66.4433 6.05526 67.1064 6.05526C67.5485 6.05526 67.9905 6.27629 68.4326 6.27629C68.8747 6.27629 69.0957 6.49734 69.7588 6.71838C70.2009 6.93941 71.0851 7.16045 72.1903 7.82356C70.422 6.71838 70.422 6.71838 72.1903 7.82356C72.6323 8.04459 73.2954 8.48666 73.7375 8.92874C74.1795 9.14977 74.6216 9.59184 75.2847 10.476C76.611 12.0232 77.2741 13.3494 77.4951 13.7915C77.7161 14.2336 77.9371 14.8967 78.1582 15.3388C78.6003 16.886 78.6003 16.886 78.8213 17.9912C79.0424 18.8754 79.0424 20.4226 78.8213 21.9698C78.8213 22.633 78.6003 23.9592 77.7161 25.7275C76.832 27.4958 75.7268 28.822 75.5058 29.043C75.0637 29.4851 73.9585 30.5903 72.1903 31.6954C70.864 32.3585 69.5378 33.0217 68.2116 33.2427C65.7802 33.6848 63.7909 33.4637 63.1278 33.4637C62.6857 33.4637 62.2436 33.2427 61.8015 33.2427C61.3595 33.2427 61.1384 33.0216 60.4753 32.8006C59.3702 32.5796 58.486 31.9165 58.265 31.9165Z" fill="#C8E2FF"/>
<path d="M77.4557 27.5C76.7926 28.6052 76.8399 28.6159 75.9557 29.5C75.4557 30 74.9557 30.5 74.4557 31C72.146 32.1549 70.0698 33.6848 67.3276 33.6848C66.0014 33.6848 64.6752 33.6848 63.349 33.6848C62.6464 33.6848 62.0227 33.563 61.232 33.4114C59.8367 32.9463 58.5471 32.2999 57.2914 31.4628C56.4071 30.7996 55.9923 30.039 55.2561 29.043C54.814 28.601 54.2865 27.9379 54.0654 27.4958C53.6666 26.6981 53.3579 25.8597 52.9603 25.0644C52.4805 23.865 52.0275 22.8266 51.8551 21.3068C51.6197 19.2323 51.6313 17.8813 52.2032 15.8733C52.8685 13.5372 53.6795 12.2649 55.2561 10.417C57.6856 7.56945 60.6239 6.0553 63.791 6.0553C49.9946 9.26945 54.6968 24.2653 62.0227 29.043C67.7697 32.8007 76.0243 31.5152 78.4557 24L78.1423 25.4435C77.9257 26.2879 77.6768 26.8369 77.4557 27.5Z" fill="#A5CBFA"/>
<path d="M72.19 16.6648C72.6321 19.3172 69.7586 21.7486 67.1062 19.9803C66.001 19.3172 65.3379 17.77 65.3379 16.8858C65.3379 15.1175 66.6641 14.0124 67.3272 13.7913C68.8745 13.1282 71.969 14.2334 72.19 16.6648Z" fill="#DCEEFF"/>
<path d="M71.9692 41.2C71.9692 40.979 71.7482 40.7579 71.7482 40.7579C71.5271 40.7579 71.5272 40.7579 71.3061 40.7579C70.643 40.7579 69.9799 40.979 69.3167 41.2C69.0957 41.2 68.8747 41.421 68.6537 41.421C68.6537 41.6421 68.4326 41.8631 68.4326 42.0842C68.4326 42.0842 69.0957 42.5262 69.3167 42.5262C69.5378 42.5262 71.0851 42.0842 71.3061 42.0842C71.7482 41.8631 72.1902 41.6421 71.9692 41.2C72.1902 41.2 72.1902 41.2 71.9692 41.2Z" fill="#DCEEFF"/>
<defs>
<radialGradient id="paint0_radial" cx="0" cy="0" r="1" gradientUnits="userSpaceOnUse" gradientTransform="translate(65.4556 66) rotate(90) scale(57)">
<stop offset="0.328125" stop-color="#00FFDA"/>
<stop offset="1" stop-color="#20263B" stop-opacity="0"/>
</radialGradient>
<linearGradient id="paint1_linear" x1="77.7251" y1="118.938" x2="100.208" y2="157.879" gradientUnits="userSpaceOnUse">
<stop offset="0.033147" stop-color="#4FFFCA"/>
<stop offset="0.229167" stop-color="#4FFFCA" stop-opacity="0.54"/>
<stop offset="0.75" stop-color="#2F3C5B" stop-opacity="0"/>
</linearGradient>
<linearGradient id="paint2_linear" x1="55.3506" y1="119.43" x2="32.9979" y2="158.146" gradientUnits="userSpaceOnUse">
<stop offset="0.033147" stop-color="#4FFFCA"/>
<stop offset="0.223958" stop-color="#4FFFCA" stop-opacity="0.49"/>
<stop offset="0.723958" stop-color="#2F3C5B" stop-opacity="0"/>
</linearGradient>
</defs>
</svg>
