<svg width="136" height="208" viewBox="0 0 136 208" fill="none" xmlns="http://www.w3.org/2000/svg">
<circle cx="66" cy="108" r="57" fill="url(#paint0_radial)"/>
<path d="M28.1479 149.079L66.3626 171.028V207.185L28.1479 185.285V149.079Z" fill="url(#paint1_linear)"/>
<path d="M104.448 149.079L66.2331 171.028V207.185L104.448 185.285V149.079Z" fill="url(#paint2_linear)"/>
<path d="M97.4466 139.308C115.202 121.552 115.202 92.7654 97.4466 75.0101C79.6913 57.2547 50.9042 57.2547 33.1489 75.0101C15.3935 92.7654 15.3935 121.552 33.1489 139.308C50.9042 157.063 79.6913 157.063 97.4466 139.308Z" stroke="#B946FF" stroke-miterlimit="10"/>
<path d="M103.844 82.3915C104.534 81.7022 104.534 80.5845 103.844 79.8951C103.155 79.2058 102.037 79.2057 101.348 79.8951C100.658 80.5845 100.658 81.7021 101.348 82.3915C102.037 83.0809 103.155 83.0809 103.844 82.3915Z" fill="#B946FF"/>
<path d="M102.082 136.51C102.772 135.821 102.772 134.703 102.082 134.014C101.393 133.325 100.275 133.325 99.5861 134.014C98.8967 134.703 98.8967 135.821 99.5861 136.51C100.275 137.2 101.393 137.2 102.082 136.51Z" fill="#B946FF"/>
<path d="M65.141 153.622C65.7268 153.036 65.7267 152.086 65.141 151.5C64.5552 150.915 63.6054 150.915 63.0196 151.5C62.4339 152.086 62.4339 153.036 63.0196 153.622C63.6054 154.207 64.5552 154.207 65.141 153.622Z" fill="#B946FF"/>
<path d="M42.1599 146.904C42.5504 146.514 42.5504 145.881 42.1599 145.49C41.7694 145.1 41.1362 145.1 40.7457 145.49C40.3552 145.881 40.3552 146.514 40.7457 146.904C41.1362 147.295 41.7694 147.295 42.1599 146.904Z" fill="#B946FF"/>
<path d="M110.908 113.511C111.211 113.209 111.211 112.718 110.908 112.415C110.605 112.113 110.115 112.113 109.812 112.415C109.509 112.718 109.51 113.208 109.812 113.511C110.115 113.814 110.605 113.814 110.908 113.511Z" fill="#B946FF"/>
<path d="M58.4233 153.268C59.2044 152.487 59.2044 151.221 58.4233 150.44C57.6423 149.659 56.3759 149.659 55.5949 150.44C54.8138 151.221 54.8138 152.487 55.5949 153.268C56.3759 154.049 57.6423 154.049 58.4233 153.268Z" fill="#B946FF"/>
<circle cx="57.0092" cy="151.854" r="3.75" transform="rotate(135 57.0092 151.854)" stroke="#B946FF" stroke-width="0.5"/>
<path d="M93.8237 71.3217C94.6047 70.5406 94.6047 69.2743 93.8237 68.4933C93.0426 67.7122 91.7763 67.7122 90.9953 68.4933C90.2142 69.2743 90.2142 70.5406 90.9953 71.3217C91.7763 72.1027 93.0426 72.1027 93.8237 71.3217Z" fill="#B946FF"/>
<circle cx="92.4096" cy="69.9075" r="3.75" transform="rotate(135 92.4096 69.9075)" stroke="#B946FF" stroke-width="0.5"/>
<path d="M96.2495 143.406C97.0305 142.625 97.0305 141.358 96.2495 140.577C95.4684 139.796 94.2021 139.796 93.421 140.577C92.64 141.358 92.64 142.625 93.421 143.406C94.2021 144.187 95.4684 144.187 96.2495 143.406Z" fill="#B946FF"/>
<circle cx="94.8353" cy="141.992" r="3.75" transform="rotate(135 94.8353 141.992)" stroke="#B946FF" stroke-width="0.5"/>
<path d="M16.0014 133.857L66.001 162.714V171.552L16.0014 142.695V133.857Z" fill="#A5CBFA"/>
<path d="M66.0005 162.714L116 133.857V142.695C116 142.695 66.0005 172.578 66.0005 171.552C66.0005 170.576 66.0005 162.714 66.0005 162.714Z" fill="#C8E2FF"/>
<path d="M115.999 133.857L65.9995 105L16 133.857L65.9995 162.715L115.999 133.857Z" fill="#DCEEFF"/>
<path d="M80.9697 115.726L79.587 115.488C72.4016 111.17 60.5128 111.045 53.0213 115.216C45.5299 119.387 45.2919 126.277 52.466 130.607C59.6514 134.925 71.5402 135.05 79.0316 130.879C86.523 126.708 86.761 119.817 79.587 115.488L80.9697 115.726C88.8804 120.486 88.6084 128.079 80.3576 132.681C72.1069 137.282 59.0054 137.146 51.0833 132.386C43.1726 127.626 43.4446 120.033 51.6953 115.431C59.9461 110.83 73.0476 110.966 80.9697 115.726Z" fill="#A5CBFA"/>
<path d="M44.1245 129.213C44.1472 128.329 44.1472 128.238 44.2492 127.331C44.2719 127.116 44.3739 126.447 44.5325 125.733C44.7252 124.838 44.9972 123.886 45.3259 122.889C45.3825 122.707 45.5865 122.095 45.8132 121.506C44.3625 125.291 46.1079 129.405 51.0833 132.409C58.994 137.169 72.1068 137.305 80.3576 132.703C85.7863 129.677 87.7583 125.348 86.217 121.393C86.4663 122.039 87.101 123.75 87.509 125.597C87.8943 127.309 87.9397 128.419 87.951 129.099C87.9623 132.443 85.707 135.786 81.2076 138.291C72.4695 143.164 58.5973 143.017 50.2219 137.974C46.1532 135.514 44.1358 132.363 44.1245 129.213Z" fill="#C8E2FF"/>
<path d="M76.6178 135.197C75.8244 135.072 73.3764 135.707 72.7417 136.081C72.5377 136.206 71.3137 137.169 71.8804 137.962C72.9457 139.458 77.9098 138.234 78.1251 136.421C78.1478 136.194 78.1251 135.435 76.6178 135.197Z" fill="#DCEEFF"/>
<path d="M46.2102 114.332C46.4029 114.094 46.6635 113.777 46.8675 113.527C46.9695 113.403 47.0942 113.244 47.1962 113.131C47.3889 112.893 47.6495 112.575 47.8535 112.326C48.0462 112.088 48.3069 111.771 48.5109 111.521C48.6129 111.397 48.7376 111.238 48.8396 111.125C49.0322 110.887 49.2929 110.569 49.4969 110.32C49.6896 110.082 49.9502 109.765 50.1542 109.515C50.2562 109.391 50.3809 109.232 50.4829 109.119C50.6756 108.881 50.9362 108.563 51.1402 108.314C51.3329 108.076 51.5936 107.759 51.7976 107.509C51.8996 107.385 52.0243 107.226 52.1263 107.113C52.3189 106.875 52.5796 106.557 52.7836 106.308C50.2562 109.402 51.1289 113.199 55.4583 115.805C61.057 119.171 70.3278 119.273 76.1645 116.009C80.8453 113.403 81.8993 109.436 79.2472 106.229C79.4399 106.467 79.7119 106.784 79.9046 107.022C80.0066 107.147 80.1312 107.305 80.2332 107.419C80.4259 107.657 80.6979 107.974 80.8906 108.212C81.0833 108.45 81.3553 108.767 81.5479 109.005C81.6499 109.13 81.7746 109.289 81.8766 109.402C82.0693 109.64 82.3413 109.957 82.5339 110.195C83.0779 110.864 83.6333 111.521 84.1773 112.19C84.37 112.428 84.642 112.745 84.8346 112.983C84.9366 113.108 85.0613 113.267 85.1633 113.38C85.356 113.618 85.628 113.935 85.8206 114.173C89.7873 118.979 88.212 124.906 81.2079 128.816C72.4698 133.689 58.5977 133.542 50.2222 128.499C43.7168 124.645 42.4248 118.956 46.2102 114.332Z" fill="#C8E2FF"/>
<path d="M44.1359 131.842L44.1245 129.201C44.1358 132.352 46.1532 135.503 50.2219 137.951C58.5973 142.994 72.4695 143.13 81.2076 138.268C85.707 135.764 87.9623 132.42 87.951 129.077L87.9623 131.717C87.9737 135.061 85.7183 138.404 81.2189 140.909C72.4808 145.782 58.6087 145.635 50.2333 140.592C46.1645 138.155 44.1359 135.004 44.1359 131.842Z" fill="#A5CBFA"/>
<path d="M50.7547 130.414C50.1881 130.063 49.4401 129.564 48.9074 129.156C48.3294 128.703 47.6834 128.125 47.332 127.751C46.6407 127.003 46.3914 126.731 45.7454 125.767C45.6207 125.575 45.1787 124.895 44.782 123.954C44.0793 122.277 44 120.883 44 120.203C44.0113 119.285 44.1133 118.729 44.1587 118.537C44.2153 118.31 44.272 118.004 44.34 117.777C44.4873 117.347 44.7027 116.791 44.8727 116.372C42.878 120.554 44.6233 125.212 50.1767 128.555C58.5522 133.599 72.4243 133.735 81.1624 128.873C87.2032 125.507 89.2092 120.622 87.0898 116.259C87.1918 116.497 87.3392 116.791 87.4298 117.041C87.5545 117.392 87.7245 117.879 87.7925 118.242C87.8605 118.593 87.9512 119.058 87.9738 119.421C87.9965 119.795 88.0192 120.203 87.9738 120.928C87.9285 121.449 87.8152 122.277 87.4638 123.274C87.0672 124.407 86.6025 125.178 86.3758 125.541C85.1405 127.547 83.3611 128.929 83.0098 129.19C82.7378 129.394 82.3751 129.666 82.0918 129.847C81.6611 130.131 81.0831 130.493 80.6298 130.743C80.2671 130.935 79.7797 131.207 79.3944 131.377C78.7711 131.661 77.9324 132.024 77.2864 132.273C70.4183 134.823 61.6009 134.823 54.7668 132.341C54.3701 132.182 53.8261 131.978 53.4294 131.808C53.0328 131.638 52.5228 131.389 52.1261 131.207C51.7181 130.981 51.1627 130.663 50.7547 130.414Z" fill="#C8E2FF"/>
<path d="M76.1529 102.012C70.7695 98.7711 61.8387 98.6804 56.2286 101.808C50.6072 104.936 50.4259 110.105 55.8206 113.346C61.204 116.587 70.1348 116.678 75.7448 113.55C81.3549 110.433 81.5363 105.265 76.1529 102.012Z" fill="#A5CBFA"/>
<path d="M52.9535 113.822C52.5795 113.38 51.8655 112.553 51.4348 111.215C51.0154 109.935 51.1061 108.813 51.1741 108.393C51.2988 107.543 51.4574 107.147 51.6614 106.603C51.7635 106.342 51.9335 106.025 52.0695 105.787C52.1601 105.628 52.2961 105.412 52.3981 105.254C52.7155 104.744 53.2255 104.188 53.5315 103.86C53.8148 103.554 54.2341 103.202 54.5515 102.942C50.6414 106.081 51.0268 110.479 55.8208 113.369C61.2042 116.61 70.135 116.701 75.7451 113.573C80.8904 110.705 81.4798 106.127 77.3998 102.885C77.7398 103.168 78.1931 103.542 78.4878 103.86C78.7484 104.143 79.0771 104.528 79.3151 104.823C79.4398 104.97 79.5758 105.186 79.6778 105.344C80.1424 106.093 80.6071 106.965 80.8111 108.314C80.9585 109.277 80.8111 110.377 80.6071 111C80.4824 111.374 80.3351 111.827 79.9951 112.428C79.8931 112.621 79.6098 113.119 79.0431 113.754C78.3178 114.581 77.3431 115.352 76.1304 116.032C70.2937 119.285 61.0229 119.194 55.4242 115.828C54.4042 115.205 53.5881 114.536 52.9535 113.822Z" fill="#C8E2FF"/>
<path d="M74.4078 115.692C74.4078 115.703 73.9431 116.621 71.6084 117.097C70.1011 117.415 68.8997 117.075 68.7864 116.859C68.7637 116.803 68.7524 116.712 68.775 116.655C68.945 116.179 73.9204 114.706 74.3851 115.488C74.4304 115.545 74.4305 115.635 74.4078 115.692Z" fill="#DCEEFF"/>
<path d="M55.4126 67.9894C55.0386 66.8447 54.3813 65.4847 53.9053 64.884C54.0526 65.0314 55.39 66.4027 58.7673 67.4227C59.232 67.5587 60.4787 67.9101 62.02 68.1367C63.8787 68.4087 65.5107 68.4087 65.5221 68.4087C66.8368 68.4087 67.7321 68.3747 69.0468 68.2047C70.8035 67.9894 72.0388 67.6494 72.3788 67.5474C72.6735 67.4567 73.0815 67.3547 73.3762 67.2414C74.6682 66.7767 74.7702 66.7314 75.2008 66.516C76.1755 66.0287 76.2322 65.9947 76.5949 65.7567C76.8555 65.5867 77.1955 65.3487 77.4449 65.156C77.4449 65.156 77.7169 64.9294 77.8302 64.8047C77.4449 65.326 77.1729 65.8927 77.0029 66.244C76.8442 66.5614 76.5382 67.2981 76.3342 67.9101C75.9489 69.1341 74.9062 70.3127 73.2402 71.2421C69.0014 73.5995 62.2807 73.5315 58.212 71.0948C56.7046 70.2221 55.7866 69.1341 55.4126 67.9894Z" fill="#C8E2FF"/>
<path d="M76.3229 65.9494C75.0195 66.6748 72.6055 68.0348 66.6441 68.7261C64.7741 68.9415 64.2754 69.1228 63.9241 69.2588C63.6861 69.3495 63.074 69.5761 62.7227 70.2335C62.326 70.9815 62.4054 71.8428 62.1447 72.6248C60.694 72.3188 59.334 71.8088 58.1893 71.1288C56.7046 70.2335 55.7753 69.1455 55.4126 68.0121C55.4126 68.0008 55.4013 67.9781 55.4013 67.9668C55.39 67.9328 55.3786 67.8875 55.3673 67.8535L55.3106 67.7061C55.288 67.6381 55.2539 67.5588 55.2313 67.5021L55.1406 67.2641C55.1066 67.1735 55.0613 67.0601 55.0273 66.9808L54.9026 66.6974C54.8573 66.5954 54.8006 66.4708 54.7553 66.3688L54.6079 66.0741C54.5513 65.9721 54.4946 65.8474 54.4379 65.7454L54.2906 65.4961C54.2453 65.4168 54.1773 65.3034 54.1206 65.2241L54.0186 65.0768C53.9846 65.0314 53.9393 64.9634 53.9053 64.9181L53.9393 64.9521L54.0526 65.0654L54.3813 65.3374C54.8913 65.7114 54.9139 65.7341 55.288 65.9494L55.9906 66.3348C56.2513 66.4594 56.6026 66.6294 56.8633 66.7541L57.7587 67.1168C58.0647 67.2188 58.4613 67.3548 58.7673 67.4568L59.7987 67.7401C60.1273 67.8081 60.5693 67.9215 60.898 67.9781L62.02 68.1708C62.3714 68.2161 62.8247 68.2728 63.176 68.3181L64.3434 68.4088C64.6947 68.4201 65.1707 68.4428 65.5221 68.4428L66.7008 68.4315C67.0521 68.4088 67.5281 68.3975 67.8794 68.3635L69.0354 68.2501C69.3754 68.1935 69.8401 68.1368 70.1801 68.0801L71.2795 67.8648C71.6081 67.7855 72.0388 67.6835 72.3675 67.5928L73.3648 67.2868C73.6595 67.1735 74.0562 67.0374 74.3508 66.9241L75.1782 66.5614C75.4388 66.4254 75.7789 66.2668 76.0395 66.1194L76.5722 65.8021L76.9009 65.5868L76.3229 65.9494Z" fill="#A5CBFA"/>
<path d="M54.0869 65.496C53.7015 65.258 52.6702 64.612 51.8202 63.8074C51.5142 63.5127 51.1062 63.1047 50.8342 62.776C50.5622 62.4473 50.2108 61.9827 49.9841 61.6087C49.7008 61.1327 49.2815 60.4186 48.9528 59.1946C48.8168 58.6733 48.7488 58.22 48.6921 57.88C48.6695 57.744 48.6355 57.4606 48.6241 57.3246C48.6128 57.1999 48.6015 57.0866 48.5788 56.9619C48.5675 56.8826 48.5561 56.7806 48.5448 56.7013C48.5221 56.4859 48.4881 56.2026 48.4655 55.9759C48.4541 55.8173 48.4088 55.0013 48.6808 53.9472C48.7828 53.5732 48.9641 53.0859 49.1115 52.7346C49.2248 52.4739 49.4061 52.1339 49.5308 51.8846C49.9048 51.1819 50.5961 50.2752 50.7435 50.0825C51.0495 49.7085 51.7522 48.8359 52.7722 47.8498C49.2928 51.1819 49.9501 55.5793 54.8235 58.5033C60.6376 62.0053 70.271 62.1073 76.3458 58.7186C81.5932 55.7946 82.4545 51.2159 78.8165 47.7705C80.4258 49.3119 81.3098 50.5925 81.4118 50.7285C81.6952 51.1479 82.0238 51.6352 82.3412 52.2699C82.7945 53.1766 82.9418 53.8339 82.9418 53.8339C83.0325 54.2646 83.1798 54.8539 83.1685 55.2959C83.1685 55.5113 83.1798 55.8059 83.1572 56.0213C83.1458 56.1913 83.1118 56.4066 83.1005 56.5766C83.1005 56.6106 83.0892 56.6559 83.0892 56.7013C83.0779 56.8033 83.0665 56.9279 83.0552 57.0299C82.9985 57.5513 82.9645 57.7893 82.9079 58.186C82.7832 58.9793 82.4885 60.1806 81.7632 61.416C81.3325 62.1527 80.8678 62.6853 80.6525 62.946C80.3352 63.3087 79.9271 63.7167 79.4285 64.136C78.3631 65.054 77.0144 65.8247 76.1191 66.244C75.0651 66.7314 71.8464 68.2274 66.735 68.4087C64.899 68.4767 63.539 68.3407 63.097 68.2954C62.3829 68.2274 61.4423 68.0687 60.7283 67.9554C60.3769 67.8987 59.9123 67.7741 59.5609 67.6947C59.2096 67.6154 58.7336 67.4907 58.3936 67.3774C57.7476 67.1621 56.8976 66.8674 56.2742 66.6067C55.3335 66.2327 54.0982 65.5074 54.0869 65.496Z" fill="#C8E2FF"/>
<path d="M50.6299 51.8619C50.7206 51.0572 50.7999 50.2525 50.8906 49.4479C50.6413 51.7826 52.0126 54.1626 55.0273 55.9759C60.7394 59.4213 70.2142 59.512 76.1642 56.1913C79.4849 54.3439 81.0149 51.8279 80.7316 49.3685L81.0036 51.7826C81.2869 54.2873 79.7229 56.8486 76.3569 58.73C70.2935 62.1073 60.66 62.0167 54.8346 58.5146C51.7746 56.6673 50.3806 54.2419 50.6299 51.8619Z" fill="#A5CBFA"/>
<path d="M82.783 31.2463C82.0123 30.4757 81.0716 29.7503 79.961 29.0816C79.7343 28.9456 79.5076 28.821 79.281 28.685C79.2016 28.6396 79.1223 28.6056 79.043 28.5603C78.8843 28.481 78.7256 28.3903 78.5669 28.311C78.4649 28.2656 78.3743 28.2203 78.2836 28.175C78.1363 28.107 77.9889 28.0276 77.8416 27.9596C77.7396 27.9143 77.6376 27.869 77.5243 27.8236C77.4336 27.7783 77.3429 27.7443 77.2523 27.7103C77.1956 27.6876 77.1389 27.665 77.0823 27.6423C76.9576 27.5856 76.8216 27.5403 76.6856 27.4836C76.5496 27.427 76.4136 27.3816 76.2663 27.325C76.1303 27.2796 75.9943 27.2343 75.8696 27.1776C75.7223 27.1323 75.5862 27.0756 75.4502 27.0303C75.3142 26.985 75.1782 26.9396 75.0309 26.9056C74.8836 26.8603 74.7476 26.815 74.6002 26.781C74.4642 26.7356 74.3169 26.7016 74.1809 26.6676C74.0336 26.6223 73.8862 26.5883 73.7389 26.5543C73.5916 26.5203 73.4555 26.4863 73.3082 26.4523C73.1609 26.4183 73.0136 26.3843 72.8662 26.3503C72.7189 26.3163 72.5715 26.2823 72.4242 26.2596C72.2769 26.2256 72.1182 26.2029 71.9709 26.1689C71.8235 26.1349 71.6762 26.1123 71.5289 26.0896C71.3702 26.0556 71.2229 26.0329 71.0755 26.0103C70.9282 25.9876 70.7695 25.9649 70.6222 25.9423C70.5429 25.9309 70.4635 25.9196 70.3842 25.9083C70.3275 25.8969 70.2709 25.8969 70.2029 25.8856C69.9422 25.8516 69.6815 25.8176 69.4095 25.7949C69.3075 25.7836 69.2055 25.7723 69.1035 25.7609C68.7408 25.7269 68.3782 25.6929 68.0155 25.6703C67.9588 25.6703 67.9022 25.6703 67.8342 25.6589C67.5282 25.6363 67.2222 25.6249 66.9162 25.6136C66.8028 25.6136 66.6781 25.6136 66.5535 25.6023C66.2928 25.6023 66.0435 25.5909 65.7828 25.5909C65.6581 25.5909 65.5448 25.5909 65.4201 25.5909C65.1141 25.5909 64.8195 25.6023 64.5135 25.6136C64.4455 25.6136 64.3888 25.6136 64.3208 25.6249C63.9581 25.6363 63.5955 25.6589 63.2328 25.6929C63.1308 25.7043 63.0288 25.7043 62.9381 25.7269C62.6661 25.7496 62.4054 25.7723 62.1334 25.8063C62.0201 25.8176 61.8954 25.8289 61.7708 25.8516C61.5101 25.8856 61.2494 25.9196 61.0001 25.9536C60.9321 25.9649 60.8527 25.9649 60.7734 25.9876C60.7394 25.9876 60.7168 25.9989 60.6828 25.9989C60.3201 26.0556 59.9687 26.1123 59.6174 26.1803C59.5834 26.1916 59.5494 26.1916 59.5041 26.2029C59.1867 26.2596 58.8807 26.3276 58.5747 26.407C58.4614 26.4296 58.3594 26.4523 58.2461 26.4863C58.0081 26.543 57.7587 26.611 57.5207 26.6676C57.4074 26.7016 57.294 26.7243 57.1807 26.7583C56.92 26.8263 56.6594 26.917 56.3987 26.9963C56.3307 27.019 56.2514 27.0416 56.172 27.0643C55.8434 27.1663 55.526 27.2796 55.1974 27.4043C55.118 27.4383 55.0387 27.461 54.9594 27.495C54.7214 27.5856 54.4833 27.6763 54.2453 27.7783C54.1433 27.8236 54.0413 27.869 53.9393 27.9143C53.724 28.0163 53.5087 28.107 53.2933 28.209C53.2027 28.2543 53.112 28.2996 53.0213 28.345C52.7267 28.4923 52.432 28.6396 52.1487 28.7983C51.8426 28.9683 51.548 29.1383 51.276 29.3197C51.1966 29.3763 51.1173 29.4217 51.038 29.4783C50.8226 29.6257 50.6073 29.7617 50.4033 29.9203C50.3466 29.9657 50.29 30.011 50.2333 30.045C49.984 30.2263 49.746 30.419 49.5193 30.6117C49.4626 30.657 49.4173 30.7023 49.372 30.7363C49.1906 30.895 49.0206 31.0537 48.8619 31.2123C48.8279 31.2463 48.7939 31.2803 48.7599 31.3143C48.7373 31.337 48.7146 31.3597 48.6919 31.3823C48.4993 31.575 48.3179 31.7677 48.1479 31.9717C48.1479 31.983 48.1366 31.983 48.1253 31.9943C47.9553 32.1983 47.7853 32.4137 47.6379 32.629C47.5926 32.6857 47.5586 32.7537 47.5133 32.8104C47.3999 32.9804 47.2866 33.139 47.1959 33.309C47.1619 33.3657 47.1279 33.411 47.0939 33.4677C46.9693 33.683 46.8673 33.8984 46.7653 34.1137C46.7426 34.159 46.7313 34.2044 46.7086 34.2384C46.6293 34.4197 46.5613 34.601 46.4933 34.7824C46.4706 34.8504 46.4479 34.907 46.4253 34.975C46.3686 35.1677 46.3119 35.3604 46.2666 35.5531C46.2552 35.5871 46.2553 35.6211 46.2439 35.6551C46.1986 35.8817 46.1646 36.0971 46.1419 36.3237C46.1419 36.3804 46.1306 36.4484 46.1306 36.5051C46.1193 36.6751 46.1079 36.8564 46.1079 37.0377C46.1079 37.0717 46.1079 37.1171 46.1079 37.1511C46.1079 37.1737 46.1079 37.1964 46.1079 37.2191C46.1192 37.4457 46.1306 37.6724 46.1646 37.9104C46.1646 37.9444 46.1759 37.9784 46.1759 38.0124C46.2099 38.2164 46.2439 38.4091 46.2893 38.6018C46.3006 38.6584 46.3232 38.7264 46.3346 38.7944C46.3912 38.9984 46.4479 39.1911 46.5273 39.3838C46.5386 39.4178 46.5386 39.4404 46.5499 39.4744C46.6406 39.7011 46.7313 39.9164 46.8446 40.1431C46.8559 40.1658 46.8673 40.1884 46.8786 40.2111C46.9013 40.2678 46.9353 40.3131 46.9693 40.3698C47.0259 40.4718 47.0826 40.5851 47.1393 40.6871C47.1846 40.7664 47.2413 40.8458 47.2866 40.9251C47.3546 41.0271 47.4113 41.1291 47.4906 41.2311C47.5473 41.3105 47.6039 41.3898 47.6606 41.4691C47.7286 41.5711 47.8079 41.6731 47.8873 41.7751C47.9439 41.8545 48.0119 41.9338 48.0686 42.0018C48.1593 42.1038 48.2386 42.2058 48.3293 42.2965C48.3746 42.3418 48.4199 42.3985 48.4539 42.4438C48.4766 42.4665 48.4993 42.4891 48.5219 42.5118C48.7033 42.7045 48.8959 42.8971 49.0999 43.0898L49.1113 43.1011C49.3153 43.2938 49.542 43.4751 49.7686 43.6678C49.8366 43.7245 49.9046 43.7698 49.984 43.8265C50.154 43.9625 50.3353 44.0985 50.528 44.2232L50.7546 44.3818C51.004 44.5518 51.2533 44.7218 51.5253 44.8805C51.5366 44.8805 51.548 44.8918 51.5593 44.9032C51.5593 44.9032 51.5706 44.9032 51.5706 44.9145C59.0847 49.4365 71.5289 49.5612 79.3603 45.1978C86.0584 41.4578 87.237 35.6777 82.783 31.2463ZM69.1375 33.9097C67.4148 34.873 64.7968 34.9524 62.9268 34.1817C62.6888 34.0797 62.4621 33.9664 62.2468 33.8417C62.2468 33.8417 62.2354 33.8417 62.2354 33.8304C62.0994 33.751 61.9748 33.6604 61.8614 33.5697C61.8274 33.5357 61.7934 33.513 61.7594 33.479C61.6801 33.411 61.6008 33.343 61.5328 33.2637C61.4988 33.2297 61.4761 33.207 61.4421 33.173C61.3968 33.1277 61.3514 33.071 61.3174 33.0144C61.2834 32.9804 61.2607 32.9464 61.2381 32.901C61.1927 32.8444 61.1701 32.7877 61.1361 32.7424C61.1134 32.7084 61.0908 32.6744 61.0794 32.6404C61.0228 32.527 60.9887 32.425 60.9547 32.3117C60.9434 32.2777 60.9434 32.255 60.9434 32.2323C60.9207 32.1417 60.9094 32.051 60.9094 31.9603C60.9094 31.9263 60.9094 31.9037 60.9094 31.8697C60.9094 31.7563 60.9207 31.643 60.9321 31.5297C60.9321 31.5183 60.9434 31.5183 60.9434 31.507C60.9661 31.405 61.0001 31.303 61.0454 31.201C61.0568 31.167 61.0794 31.133 61.0908 31.1103C61.1361 31.0197 61.1814 30.9403 61.2381 30.8497C61.2494 30.827 61.2721 30.8043 61.2834 30.7817C61.3514 30.6797 61.4421 30.5777 61.5441 30.4757C61.5668 30.453 61.5894 30.4303 61.6121 30.4077C61.6914 30.3283 61.7821 30.249 61.8841 30.181C61.9181 30.147 61.9521 30.1243 61.9861 30.1017C62.1108 30.011 62.2581 29.9203 62.4054 29.841C62.5528 29.7617 62.7001 29.6937 62.8474 29.6257C62.8928 29.603 62.9494 29.5803 62.9948 29.569C63.1081 29.5237 63.2214 29.4783 63.3348 29.4443C63.3914 29.433 63.4481 29.4103 63.4934 29.3877C63.6181 29.3536 63.7428 29.3196 63.8788 29.2856C63.9241 29.2743 63.9581 29.263 64.0034 29.2517C64.1734 29.2177 64.3434 29.1837 64.5248 29.1497C64.5701 29.1383 64.6041 29.1383 64.6381 29.1383C64.7741 29.1156 64.9215 29.1043 65.0575 29.093C65.1141 29.093 65.1708 29.0816 65.2388 29.0816C65.3635 29.0703 65.4995 29.0703 65.6241 29.0703C65.6808 29.0703 65.7375 29.0703 65.7941 29.0703C65.9528 29.0703 66.1228 29.0703 66.2815 29.0816C66.2928 29.0816 66.3155 29.0816 66.3381 29.0816C66.5195 29.093 66.7008 29.1156 66.8708 29.1383C66.9388 29.1496 67.0182 29.161 67.0975 29.1723C67.1655 29.1836 67.2448 29.195 67.3128 29.2063C67.3808 29.2177 67.4602 29.2403 67.5395 29.2517C67.6075 29.263 67.6868 29.2857 67.7548 29.297C67.8228 29.3197 67.9022 29.3423 67.9702 29.3537C68.0382 29.3763 68.1062 29.399 68.1742 29.4103C68.2422 29.433 68.3215 29.467 68.3895 29.4897C68.4575 29.5123 68.5142 29.535 68.5822 29.5577C68.6728 29.5917 68.7522 29.6257 68.8315 29.671C68.8655 29.6823 68.9108 29.705 68.9448 29.7277C69.0695 29.7843 69.1828 29.8523 69.2962 29.9203C70.0102 30.351 70.4408 30.8837 70.5882 31.4277C70.8149 32.3117 70.3389 33.2524 69.1375 33.9097Z" fill="#C8E2FF"/>
<path d="M82.7833 31.2463C78.3972 30.011 74.6118 30.3057 70.5885 31.4277C68.2424 32.085 65.8171 33.0144 63.1424 34.091C63.0744 34.125 62.995 34.1477 62.927 34.1817C55.617 37.2077 50.5509 44.2232 50.5509 44.2232C50.3696 44.0872 50.1882 43.9511 50.0069 43.8265C49.9389 43.7698 49.8596 43.7131 49.7916 43.6678C49.5649 43.4865 49.3382 43.2938 49.1342 43.1011L49.1229 43.0898C48.9189 42.9085 48.7262 42.7158 48.5449 42.5118C48.5222 42.4891 48.4995 42.4665 48.4769 42.4438C48.4315 42.3985 48.3862 42.3418 48.3522 42.2965C48.2615 42.1945 48.1822 42.1038 48.0915 42.0018C48.0235 41.9225 47.9669 41.8431 47.9102 41.7751C47.8309 41.6731 47.7515 41.5711 47.6835 41.4691C47.6269 41.3898 47.5702 41.3105 47.5135 41.2311C47.4455 41.1291 47.3775 41.0271 47.3095 40.9251C47.2642 40.8458 47.2075 40.7664 47.1622 40.6871C47.1055 40.5851 47.0489 40.4831 46.9922 40.3698C46.9582 40.3244 46.9355 40.2678 46.9015 40.2111C46.8902 40.1884 46.8789 40.1658 46.8675 40.1431C46.7655 39.9278 46.6635 39.7011 46.5729 39.4744C46.5615 39.4404 46.5502 39.4178 46.5502 39.3838C46.4822 39.1911 46.4142 38.9871 46.3575 38.7944C46.3462 38.7264 46.3235 38.6698 46.3122 38.6018C46.2669 38.3978 46.2215 38.2051 46.1989 38.0124C46.1989 37.9784 46.1875 37.9444 46.1875 37.9104C46.1535 37.6837 46.1422 37.4571 46.1309 37.2191C46.1309 37.1964 46.1309 37.1737 46.1309 37.1511C46.1309 37.1171 46.1309 37.0717 46.1309 37.0377C46.1309 36.8677 46.1422 36.6864 46.1535 36.5051C46.1535 36.4484 46.1649 36.3917 46.1649 36.3237C46.1875 36.0971 46.2215 35.8817 46.2669 35.6551C46.2782 35.6211 46.2782 35.5871 46.2895 35.5531C46.3349 35.3604 46.3802 35.1677 46.4482 34.975C46.4709 34.907 46.4935 34.8504 46.5162 34.7824C46.5729 34.601 46.6409 34.4197 46.7315 34.2384C46.7429 34.193 46.7655 34.1477 46.7882 34.1137C46.8902 33.8984 46.9922 33.683 47.1169 33.4677C47.1509 33.411 47.1849 33.3544 47.2189 33.309C47.3209 33.139 47.4229 32.969 47.5362 32.8104C47.5815 32.7537 47.6155 32.697 47.6609 32.629C47.8082 32.4137 47.9782 32.2097 48.1482 31.9943C48.1595 31.983 48.1595 31.983 48.1709 31.9717C48.3409 31.7677 48.5222 31.575 48.7149 31.3823C48.7375 31.3597 48.7602 31.337 48.7829 31.3143C48.8169 31.2803 48.8509 31.2463 48.8849 31.2123C49.0549 31.0537 49.2249 30.895 49.3949 30.7363C49.4516 30.691 49.4969 30.6457 49.5422 30.6117C49.7689 30.419 50.0069 30.2263 50.2562 30.045C50.3129 29.9997 50.3696 29.9543 50.4262 29.9203C50.6302 29.773 50.8456 29.6257 51.0609 29.4783C51.1402 29.4217 51.2196 29.3763 51.2989 29.3197C51.5823 29.1383 51.8656 28.9683 52.1716 28.7983C52.4549 28.6396 52.7496 28.481 53.0443 28.345C53.1349 28.2996 53.2256 28.2543 53.3163 28.209C53.5316 28.107 53.7469 28.005 53.9623 27.9143C54.0643 27.869 54.1663 27.8236 54.2683 27.7783C54.5063 27.6763 54.7443 27.5856 54.9823 27.495C55.0616 27.461 55.141 27.427 55.2203 27.4043C55.5376 27.291 55.8663 27.1776 56.195 27.0643C56.263 27.0416 56.3423 27.019 56.4216 26.9963C56.6823 26.917 56.943 26.8376 57.2036 26.7583C57.317 26.7243 57.4303 26.7016 57.5436 26.6676C57.7817 26.611 58.0197 26.543 58.269 26.4863C58.3823 26.4523 58.4843 26.4296 58.5977 26.407C58.9037 26.339 59.2097 26.2709 59.527 26.2029C59.5723 26.1916 59.6063 26.1916 59.6403 26.1803C59.9917 26.1123 60.343 26.0556 60.7057 25.9989C60.7397 25.9989 60.7624 25.9876 60.7964 25.9876C60.8644 25.9763 60.9437 25.9649 61.023 25.9536C61.2837 25.9083 61.5444 25.8856 61.7937 25.8516C61.9184 25.8403 62.0317 25.8176 62.1564 25.8063C62.4284 25.7723 62.689 25.7496 62.9611 25.7269C63.063 25.7156 63.165 25.7043 63.2557 25.6929C63.6184 25.6589 63.9811 25.6476 64.3437 25.6249C64.4117 25.6249 64.4684 25.6249 64.5364 25.6136C64.8424 25.6023 65.1371 25.6023 65.4431 25.5909C65.5564 25.5909 65.6811 25.5909 65.8057 25.5909C66.0664 25.5909 66.3271 25.5909 66.5764 25.6023C66.7011 25.6023 66.8144 25.6023 66.9391 25.6136C67.2451 25.6249 67.5511 25.6363 67.8571 25.6589C67.9138 25.6589 67.9818 25.6589 68.0384 25.6703C68.4011 25.6929 68.7638 25.7269 69.1265 25.7609C69.2285 25.7723 69.3305 25.7836 69.4325 25.7949C69.6931 25.8289 69.9651 25.8516 70.2258 25.8856C70.2825 25.8969 70.3505 25.8969 70.4071 25.9083C70.4865 25.9196 70.5658 25.9309 70.6451 25.9423C70.7925 25.9649 70.9511 25.9876 71.0985 26.0103C71.2571 26.0329 71.4045 26.0556 71.5518 26.0896C71.6991 26.1123 71.8465 26.1463 71.9938 26.1689C72.1525 26.2029 72.2998 26.2256 72.4472 26.2596C72.5945 26.2936 72.7418 26.3163 72.8892 26.3503C73.0365 26.3843 73.1952 26.4183 73.3312 26.4523C73.4785 26.4863 73.6145 26.5203 73.7618 26.5543C73.9092 26.5883 74.0565 26.6336 74.2038 26.6676C74.3512 26.7016 74.4872 26.747 74.6232 26.781C74.7705 26.8263 74.9065 26.8716 75.0538 26.9056C75.2012 26.951 75.3372 26.9963 75.4732 27.0303C75.6092 27.0756 75.7565 27.121 75.8925 27.1776C76.0285 27.223 76.1645 27.2683 76.2892 27.325C76.4365 27.3816 76.5612 27.427 76.7085 27.4836C76.8445 27.529 76.9692 27.5856 77.1052 27.6423C77.1619 27.665 77.2185 27.6876 77.2752 27.7103C77.3659 27.7443 77.4565 27.7896 77.5472 27.8236C77.6492 27.869 77.7512 27.9143 77.8645 27.9596C78.0119 28.0276 78.1706 28.0956 78.3066 28.175C78.4086 28.2203 78.4992 28.2656 78.5899 28.311C78.7486 28.3903 78.9072 28.481 79.0659 28.5603C79.1452 28.6056 79.2246 28.6396 79.3039 28.685C79.5306 28.8096 79.7572 28.9456 79.9839 29.0816C81.0719 29.7503 82.0013 30.4757 82.7833 31.2463Z" fill="#A5CBFA"/>
<path d="M51.8879 28.7644C54.6192 27.257 57.0333 26.6337 58.6313 26.271C60.932 25.7497 63.618 25.4777 66.1907 25.5003C68.7974 25.523 71.3134 25.8403 73.6935 26.4297C74.6795 26.6677 74.6795 26.6677 76.4815 27.2797C76.8895 27.4157 77.4108 27.6424 77.7962 27.801C77.8075 27.801 78.9749 28.2884 80.2555 29.059C80.1762 29.0137 80.0855 29.025 79.9609 29.093C72.4468 24.571 60.0026 24.4463 52.1712 28.8097C44.3398 33.1731 44.0791 40.3812 51.5932 44.9032C59.1073 49.4253 71.5514 49.5499 79.3829 45.1866C87.2143 40.8232 87.475 33.6151 79.9609 29.093C80.0855 29.025 80.1875 29.0137 80.2555 29.059C80.9015 29.4784 81.7856 30.0337 82.3522 30.5664C82.6129 30.8157 82.9869 31.1217 83.2249 31.3937C83.6782 31.9037 84.2676 32.5951 84.6303 33.1618C85.5823 34.6238 86.1036 36.4031 86.0809 38.0578C86.0809 38.3638 86.0696 38.7831 86.0129 39.0778C85.9109 39.7238 85.7296 40.5738 85.5709 41.2085C85.5709 41.2198 85.3103 42.2285 84.5623 44.0079C83.5649 46.3992 81.7742 49.7879 79.8929 52.848C79.1335 54.072 77.8982 55.228 76.1642 56.1913C70.2028 59.5121 60.7393 59.4214 55.0273 55.976C53.5312 55.0693 52.4319 54.0267 51.7519 52.9273C49.8025 49.7879 48.0458 46.4899 47.0258 44.1099C46.2438 42.2852 45.9832 41.2425 45.8472 40.7438C45.5072 39.4405 45.4731 38.5111 45.4731 38.1711C45.4731 37.5705 45.5865 36.7545 45.6885 36.1651C45.7338 35.8591 45.8925 35.4738 45.9718 35.1791C46.1532 34.5671 46.5385 33.8078 46.8898 33.2751C47.2752 32.7197 47.8305 32.0171 48.2725 31.4957C48.5105 31.2237 48.8732 30.9064 49.1339 30.6684C49.9385 29.9657 51.0945 29.2064 51.8879 28.7644Z" fill="#C8E2FF"/>
<path d="M77.7966 109.153C77.8192 109.085 77.8532 109.017 77.8759 108.949C77.8986 108.892 77.9099 108.835 77.9326 108.79C77.9552 108.722 77.9779 108.654 77.9892 108.586C78.0006 108.529 78.0119 108.473 78.0233 108.427C78.0346 108.359 78.0459 108.291 78.0572 108.212C78.0686 108.155 78.0799 108.11 78.0799 108.053C78.0913 107.985 78.0912 107.906 78.1026 107.838C78.1026 107.781 78.1139 107.736 78.1139 107.679C78.1139 107.6 78.1139 107.532 78.1139 107.453C78.1139 107.407 78.1139 107.351 78.1139 107.305C78.1139 107.226 78.1026 107.135 78.0912 107.056C78.0912 107.011 78.0799 106.977 78.0799 106.931C78.0573 106.807 78.0346 106.682 78.0119 106.557C77.9779 106.421 77.9326 106.24 77.8986 106.104L77.6946 105.231C77.6039 104.857 77.5019 104.359 77.4112 103.996L77.0712 102.432C76.9579 101.877 76.7992 101.129 76.6859 100.573L76.2666 98.4765C76.1306 97.7851 75.9606 96.8558 75.8359 96.1531L75.4166 93.6938C75.2919 92.9117 75.1332 91.8691 75.0085 91.0871L74.6459 88.4464C74.5439 87.6304 74.4192 86.531 74.3285 85.715L74.0792 83.0743C74.0112 82.2696 73.9545 81.1929 73.9092 80.3769L73.8412 77.9629C73.8412 77.2149 73.8752 76.2062 73.8979 75.4582L74.0565 73.5542C74.1472 72.9195 74.2945 72.0922 74.4192 71.4688L74.7139 70.5055C74.7139 70.4602 74.7139 70.4035 74.7139 70.3582C74.6005 70.4035 74.4532 70.4828 74.3399 70.5508C74.2719 70.5962 74.1699 70.6642 74.1019 70.7208C73.8299 70.9135 73.5352 71.0948 73.2179 71.2762C70.3278 72.8855 66.2704 73.3729 62.6891 72.7269C62.6097 72.7155 62.5417 72.6928 62.4624 72.6815C62.2357 72.6362 62.0204 72.5908 61.8051 72.5342C61.7144 72.5115 61.6351 72.4888 61.5444 72.4775C61.2951 72.4095 61.0457 72.3415 60.7964 72.2622C60.7624 72.2508 60.7284 72.2395 60.6944 72.2282C60.4224 72.1375 60.1504 72.0468 59.8897 71.9448C59.8217 71.9108 59.7424 71.8882 59.6744 71.8542C59.4817 71.7748 59.289 71.6842 59.0964 71.6048C59.0284 71.5708 58.949 71.5368 58.881 71.5028C58.6317 71.3782 58.3937 71.2535 58.167 71.1175C57.9744 71.0042 57.793 70.8795 57.623 70.7662C57.8724 70.9475 58.099 71.2082 58.303 71.5368L57.623 70.7662C57.3284 70.5622 57.3283 70.5622 56.9883 70.4602L57.011 70.5508C57.181 71.0835 57.3623 71.7975 57.487 72.3415L57.6797 73.5995C57.759 74.2909 57.8157 75.2202 57.8724 75.9116L57.9177 77.9969C57.9177 78.7789 57.8837 79.8216 57.861 80.6036L57.7137 83.1083C57.657 83.9016 57.555 84.967 57.487 85.7603L57.1923 88.401C56.4897 94.1471 55.379 100.448 53.8943 107.135C53.8716 107.249 53.8376 107.407 53.8036 107.521C53.781 109.13 54.6877 110.739 56.5577 112.043C56.637 111.544 56.7163 111.034 56.807 110.501C56.6823 111.306 56.5917 111.85 56.5577 112.043C56.7503 112.179 56.9657 112.315 57.181 112.451C57.4417 112.609 57.7137 112.745 57.9857 112.893C58.0424 112.915 58.0877 112.949 58.1444 112.972C58.1784 112.995 58.2124 113.006 58.2464 113.017C58.2804 113.04 58.3257 113.051 58.3597 113.074V113.063C58.3937 113.085 58.439 113.097 58.473 113.108C58.6997 113.21 58.9264 113.312 59.1644 113.403C59.3004 113.459 59.4477 113.505 59.595 113.55C59.8104 113.629 60.037 113.709 60.2637 113.777C60.4224 113.822 60.581 113.867 60.7284 113.913C60.955 113.969 61.1704 114.026 61.3971 114.083C61.5671 114.117 61.7257 114.151 61.8957 114.185C62.1224 114.23 62.3491 114.275 62.5757 114.309C62.7457 114.332 62.9157 114.366 63.0857 114.389C63.3237 114.423 63.5504 114.445 63.7884 114.468C63.9584 114.491 64.1284 114.502 64.2984 114.513C64.5478 114.536 64.7858 114.547 65.0351 114.559C65.2051 114.57 65.3638 114.57 65.5338 114.581C65.7944 114.581 66.0664 114.581 66.3271 114.581C66.4518 114.581 66.5651 114.581 66.6898 114.581C69.3532 114.479 71.9712 113.879 74.0905 112.757V112.768C74.1812 112.723 74.2605 112.677 74.3512 112.632C74.7139 112.428 75.0539 112.213 75.3599 111.997C76.3686 111.283 77.0939 110.479 77.5472 109.629C77.5699 109.595 77.5812 109.561 77.5926 109.527C77.6266 109.459 77.6606 109.391 77.6946 109.323C77.7512 109.266 77.7739 109.209 77.7966 109.153Z" fill="#C8E2FF"/>
<path d="M67.3582 72.9535C63.3235 73.4521 62.9948 73.4975 62.7228 75.0048C61.5215 81.8842 62.1901 88.8543 61.7368 95.7677C61.3401 101.774 60.6375 107.759 60.2295 113.777C59.1301 113.437 58.1101 112.995 57.2034 112.451C56.9881 112.315 56.7727 112.179 56.5801 112.043C56.6027 111.884 56.6368 111.669 56.6708 111.51C59.2548 95.3257 61.5215 75.1068 57.6454 70.7548C57.8154 70.8794 57.9968 70.9928 58.1894 71.1061C60.7961 72.6701 64.4795 73.2595 67.9135 72.8628C67.7549 72.8968 67.5282 72.9308 67.3582 72.9535Z" fill="#A5CBFA"/>
<path d="M66.7236 114.581C66.7236 114.581 67.0183 96.5611 67.5623 88.7411C68.1063 80.921 68.8657 74.3022 70.3163 85.137C71.767 95.9718 74.1244 112.768 74.1244 112.768C74.1244 112.768 71.7104 114.479 66.7236 114.581Z" fill="#DCEEFF"/>
<path d="M50.2219 137.962C46.5499 135.752 44.5438 132.964 44.1812 130.119C44.1925 130.153 44.2152 130.187 44.2265 130.21C44.2492 130.233 44.2832 130.289 44.3172 130.301C44.6345 130.391 46.0738 127.377 46.0852 127.343C46.9692 129.179 48.6352 130.924 51.0832 132.386C51.6386 132.726 52.2279 133.032 52.8399 133.327C52.7833 133.418 52.0692 137.09 52.8286 139.05C52.8966 139.152 52.9873 139.288 53.0553 139.39C52.0579 138.971 51.1059 138.495 50.2219 137.962Z" fill="#A5CBFA"/>
<path d="M46.1421 125.133L52.7042 113.539C53.3615 114.355 54.2682 115.137 55.4129 115.817C55.7075 115.987 56.0022 116.157 56.3195 116.315L51.5481 129.292C51.0835 129.054 50.6301 128.805 50.1995 128.544C48.4881 127.513 47.1394 126.357 46.1421 125.133Z" fill="#A5CBFA"/>
<path d="M73.8409 117.075C73.5462 117.177 73.2628 117.279 72.9568 117.381C72.5488 117.505 72.1408 117.619 71.7328 117.732C71.1435 117.879 70.5541 118.004 69.9421 118.095C69.5568 118.163 69.1715 118.208 68.7861 118.253L70.2028 132.194C70.7808 132.126 71.3702 132.046 71.9368 131.956C72.8435 131.808 73.7388 131.627 74.6115 131.412C75.2349 131.253 75.8469 131.083 76.4475 130.89C76.8896 130.754 77.3316 130.596 77.7622 130.437L73.8409 117.075Z" fill="#DCEEFF"/>
<path d="M44.1925 132.749L44.1812 130.108C44.5438 132.953 46.5499 135.741 50.2219 137.951C51.1172 138.484 52.0692 138.971 53.0666 139.39L53.0779 142.031C52.0692 141.6 51.1172 141.124 50.2332 140.592C46.5612 138.382 44.5438 135.594 44.1925 132.749Z" fill="#A5CBFA"/>
<path d="M55.4128 115.817C54.4041 115.205 53.5768 114.536 52.9421 113.822C52.8741 113.743 52.7947 113.652 52.7267 113.573C52.6587 113.482 52.5567 113.357 52.4887 113.267L52.2621 112.938C52.1827 112.802 52.0694 112.632 51.9901 112.496L51.7974 112.133C51.7294 111.986 51.6387 111.782 51.5707 111.623L51.4234 111.215C51.3781 111.045 51.3101 110.819 51.2647 110.649L51.1741 110.207C51.1514 110.014 51.1174 109.765 51.1061 109.572L51.0947 109.096C51.1061 108.903 51.1174 108.642 51.1401 108.45L51.1287 108.654C51.1514 108.994 51.1967 109.901 52.7154 110.501C53.3614 111.544 54.3928 112.519 55.7981 113.357C56.8635 114.003 58.0761 114.525 59.3682 114.91C57.3848 116.825 61.1248 118.083 64.4115 118.355C61.1135 118.163 57.9061 117.313 55.4128 115.817Z" fill="#A5CBFA"/>
<path d="M67.9362 68.3521C67.5622 68.3861 66.6895 68.4428 65.5108 68.4314L64.2981 68.3974C63.9355 68.3748 63.4481 68.3408 63.0855 68.3068L61.8955 68.1594C61.5328 68.1028 61.0568 68.0234 60.7054 67.9554L59.5608 67.7061C59.2094 67.6154 58.7334 67.4908 58.3934 67.3888L57.3167 67.0374C56.9767 66.9014 56.5121 66.7314 56.1721 66.5841L55.1974 66.1308C54.8687 65.9494 54.4154 65.7114 54.098 65.5187L53.2707 64.9861C52.3527 64.3061 52.16 64.1587 51.3553 63.3767L50.834 62.7987C50.5733 62.4587 50.2333 61.994 49.984 61.6314L49.6666 61.076C49.542 60.8154 49.3833 60.4754 49.27 60.2147L49.0886 59.716C49.032 59.5234 48.9526 59.274 48.9073 59.0813L48.8166 58.6733C48.794 58.5373 48.76 58.356 48.7373 58.22L48.692 57.9027C48.6806 57.8007 48.658 57.676 48.6466 57.574L48.624 57.3473C48.6126 57.2793 48.6013 57.1887 48.6013 57.1093L48.59 56.9847C48.5786 56.9053 48.5673 56.8033 48.556 56.724C48.5446 56.656 48.5333 56.5653 48.522 56.4973C48.556 56.6333 48.59 56.8147 48.6126 56.962C48.8733 57.744 49.1907 58.4013 50.256 58.526C50.7547 58.5827 51.4573 58.0273 51.718 57.812C51.7747 57.7667 51.7747 57.7667 53.1347 57.506C53.0327 57.336 52.8854 57.1207 52.7607 56.9733C53.3387 57.5287 54.03 58.05 54.8347 58.5373C54.9367 58.594 55.0274 58.6507 55.1294 58.7073C55.0274 58.662 54.88 58.6053 54.778 58.56C54.71 58.5373 54.6307 58.5033 54.574 58.4807C54.7214 59.7387 54.336 61.008 54.574 62.266C54.7214 63.0481 54.7214 63.0481 54.7554 63.1047C54.9367 63.5127 55.4354 63.6147 55.6394 64.0001C55.8321 64.3741 55.7414 64.7934 55.8661 65.1787C55.9454 65.4281 56.2061 65.8474 57.0221 66.4028C57.4074 66.6748 61.0681 69.0095 68.8429 68.2841C68.5709 68.2841 68.2082 68.3294 67.9362 68.3521Z" fill="#A5CBFA"/>
<path d="M73.4669 63.9548C73.2855 64.1701 70.8148 64.7708 70.7922 64.7708C70.5315 64.8048 70.1802 64.8274 69.9308 64.7594C69.7948 64.7141 69.6135 64.5668 69.6022 64.4194C69.5908 64.2948 70.4408 63.3428 70.5995 63.2974L73.3309 63.2634C73.4442 63.3201 73.6142 63.4334 73.6369 63.5581C73.6595 63.6941 73.5462 63.8528 73.4669 63.9548Z" fill="#DCEEFF"/>
<path d="M50.7437 53.6186L51.0043 51.1705C51.4123 52.9159 52.761 54.6159 55.0277 55.9759C55.5604 56.2933 56.1271 56.5879 56.7277 56.8486L56.5691 59.3986C55.9684 59.1266 55.3904 58.832 54.8464 58.5033C52.523 57.1206 51.163 55.3979 50.7437 53.6186Z" fill="#A5CBFA"/>
<path d="M55.0274 55.976C53.5314 55.0693 52.4321 54.0266 51.7521 52.9273C51.7181 52.8706 51.6727 52.7913 51.6387 52.746C51.5821 52.644 51.5027 52.5193 51.4347 52.4173L51.1514 51.9526C51.0494 51.7826 50.9134 51.5446 50.8114 51.3746L50.4147 50.6946C50.2787 50.4679 50.1087 50.1619 49.9727 49.9239L49.4967 49.0739C49.3494 48.8019 49.1454 48.4392 49.0094 48.1672L48.5107 47.2039C48.3634 46.9092 48.1594 46.5012 48.012 46.2065L47.5247 45.1752C47.3773 44.8579 47.1847 44.4272 47.0487 44.0985L46.6067 43.0218C46.482 42.6705 46.3007 42.2058 46.1873 41.8432L45.87 40.7325C45.768 40.2678 45.6433 39.6445 45.564 39.1798C45.5413 38.9758 45.5187 38.7151 45.5073 38.5225C45.5187 38.6471 45.5413 38.8058 45.5527 38.9191C45.768 39.9618 46.5273 41.0952 46.8447 41.5372C48.828 44.2799 52.2394 45.3905 54.2794 48.0652C55.6281 49.8333 56.6708 52.2359 57.8948 55.0126C58.9715 57.4833 59.0395 57.574 59.1528 57.71C57.6341 57.2907 56.2401 56.7013 55.0274 55.976Z" fill="#A5CBFA"/>
<path d="M75.8695 47.8273C73.8861 48.6659 71.9934 48.9153 70.8601 49.0626C68.9447 49.3119 68.8087 49.1419 68.5254 48.8019C70.3387 48.5299 73.0814 48.1106 75.7901 47.3172C76.0395 47.2492 76.3681 46.9999 76.6175 47.0679C76.7308 47.1019 76.8895 47.2266 76.8668 47.3399C76.8101 47.6686 76.1755 47.7026 75.8695 47.8273Z" fill="#DCEEFF"/>
<path d="M74.6572 26.2936L74.6119 26.2029C74.5325 26.0556 74.4192 25.8629 74.3285 25.7269L74.0112 25.2963C73.8979 25.1603 73.7392 24.9903 73.6259 24.8656L73.1952 24.4689C72.7985 24.1402 72.5152 23.9589 72.1865 23.7549C72.1525 23.7322 72.1185 23.7209 72.0845 23.7096C72.1185 23.7209 72.1412 23.7322 72.1752 23.7549C67.8231 21.3409 62.7344 21.9529 59.6177 23.6189C59.0964 23.9022 57.793 24.6956 57.0223 26.0329C56.8977 26.2596 56.705 26.6449 56.5803 27.1323C56.5803 27.1209 56.5803 27.1096 56.5803 27.0983C56.5463 27.2343 56.5123 27.393 56.4897 27.5176L56.4443 28.0163C56.4443 28.1863 56.4557 28.413 56.467 28.5943L56.4897 28.7303C56.501 28.8436 56.5237 28.9456 56.5463 29.059L56.5577 29.1043C56.5577 29.127 56.569 29.1496 56.5803 29.1723C56.6143 29.331 56.671 29.4896 56.7277 29.6483C56.7277 29.6596 56.739 29.671 56.739 29.6936L56.7503 29.7163C56.807 29.8523 56.8637 29.9883 56.9317 30.1243L56.9543 30.181C56.9657 30.1923 56.977 30.215 56.9883 30.2376C57.0563 30.3623 57.1243 30.487 57.215 30.6117C57.249 30.6683 57.283 30.725 57.3057 30.7703L57.657 31.235C57.8043 31.405 58.0083 31.6203 58.167 31.7903L58.6204 32.1983C58.8017 32.3457 59.0624 32.5383 59.255 32.6743C60.2184 33.377 61.6804 34.057 63.4031 34.397L63.4371 34.4084C63.4484 34.4084 63.4598 34.4084 63.4598 34.4084C63.6298 34.4424 63.7884 34.465 63.9584 34.499C63.9697 34.499 63.9924 34.499 64.0037 34.5104H64.0378C64.2078 34.533 64.3778 34.5557 64.5478 34.567H64.5591H64.5818C65.2504 34.635 65.9531 34.6464 66.6671 34.5897H66.7351C66.7351 34.5897 66.7691 34.5897 66.7918 34.5897C66.9278 34.5784 67.0638 34.567 67.1998 34.5444C67.2338 34.5444 67.2678 34.533 67.3018 34.533L67.4605 34.5104C67.5738 34.499 67.6871 34.4764 67.8118 34.4537L67.8571 34.4424C68.0385 34.4084 68.2765 34.363 68.4578 34.329C68.6051 34.295 68.7751 34.2497 68.9451 34.2044L69.0245 34.1817C69.0585 34.1704 69.1038 34.159 69.1491 34.1477C70.3505 33.8077 71.8805 33.173 73.1159 32.0283C73.1725 31.983 73.2292 31.9263 73.2745 31.8923L73.6939 31.4617C73.8412 31.303 74.0112 31.0763 74.1472 30.9063L74.4645 30.4303C74.5665 30.2603 74.6685 30.0223 74.7592 29.8523L74.9405 29.3536C74.9405 29.331 74.9519 29.3196 74.9519 29.297C74.9519 29.297 74.9519 29.2856 74.9632 29.2856C75.0765 28.821 75.3485 27.665 74.6572 26.2936ZM72.0505 23.6869C72.0278 23.6756 72.0052 23.6756 71.9938 23.6756C71.9598 23.6642 71.9258 23.6529 71.8918 23.6529C71.8692 23.6529 71.8465 23.6416 71.8238 23.6416C71.7898 23.6416 71.7445 23.6302 71.7105 23.6302C71.6878 23.6302 71.6538 23.6302 71.6198 23.6302C71.5745 23.6302 71.5405 23.6302 71.4952 23.6302C71.4612 23.6302 71.4272 23.6302 71.3932 23.6416C71.3478 23.6416 71.3025 23.6529 71.2458 23.6529C71.2118 23.6529 71.1778 23.6642 71.1325 23.6642C71.1098 23.6642 71.0985 23.6642 71.0758 23.6756C71.5178 23.5849 71.8352 23.5962 72.0505 23.6869ZM71.0758 23.6642C71.0418 23.6756 71.0078 23.6756 70.9738 23.6869C70.9285 23.6982 70.8945 23.6982 70.8492 23.7096C70.7925 23.7209 70.7245 23.7436 70.6565 23.7549C70.6112 23.7662 70.5772 23.7776 70.5318 23.7889C70.5205 23.7889 70.5092 23.8002 70.4978 23.8002C69.5685 24.0609 68.2651 24.6276 66.4631 25.6023C68.6731 24.4122 70.1465 23.8342 71.0758 23.6642Z" fill="#C8E2FF"/>
<path d="M56.7163 27.2229L56.7277 27.2456C56.7843 27.3816 56.841 27.5176 56.909 27.6536L56.9317 27.7103C56.943 27.7216 56.9543 27.7443 56.9657 27.767C57.0337 27.8916 57.1017 28.0163 57.1923 28.141C57.2263 28.1976 57.2603 28.2543 57.283 28.2996L57.6343 28.7643C57.7817 28.9343 57.9857 29.1496 58.1443 29.3196L58.5977 29.7276C58.779 29.875 59.0397 30.0676 59.2324 30.2036C60.1957 30.9063 61.6577 31.5863 63.3804 31.9263L63.4144 31.9377C63.4257 31.9377 63.4371 31.9377 63.4371 31.9377C63.6071 31.9717 63.7657 31.9943 63.9357 32.0283C63.9471 32.0283 63.9697 32.0283 63.9811 32.0397H64.0151C64.1851 32.0623 64.3551 32.085 64.5251 32.0963H64.5364C64.5478 32.0963 64.5591 32.0963 64.5591 32.0963C65.2391 32.1643 65.9304 32.1757 66.6558 32.119H66.7238C66.7351 32.119 66.7578 32.119 66.7804 32.119C66.9164 32.1077 67.0524 32.0963 67.1884 32.0737C67.2224 32.0737 67.2564 32.0623 67.2904 32.0623L67.4491 32.0397C67.5625 32.0283 67.6758 32.0057 67.8005 31.983L67.8458 31.9717C68.0271 31.9377 68.2651 31.8923 68.4465 31.8583C68.5938 31.8243 68.7638 31.779 68.9338 31.7337L69.0131 31.711C69.0471 31.6997 69.0925 31.6883 69.1378 31.677C70.3392 31.337 71.8692 30.7023 73.1045 29.5576C73.1612 29.5123 73.2179 29.4556 73.2632 29.4216L73.6825 28.991C73.8299 28.8323 73.9999 28.6056 74.1359 28.4356L74.4419 27.9596C74.5439 27.7896 74.6459 27.5516 74.7365 27.3816L74.9179 26.8829C74.9179 26.8829 74.9179 26.8829 74.9179 26.8716C74.8499 26.6789 74.7819 26.4863 74.6799 26.2823L74.6345 26.1916C74.5552 26.0443 74.4419 25.8516 74.3512 25.7156L74.0339 25.2849C73.9205 25.1489 73.7619 24.9789 73.6485 24.8543L73.2179 24.4576C72.8212 24.1289 72.5378 23.9476 72.2092 23.7436C72.1752 23.7209 72.1412 23.7096 72.1072 23.6982C72.1412 23.7096 72.1638 23.7209 72.1978 23.7436C70.8832 23.0182 69.4891 22.5649 68.1178 22.3269C68.0498 22.3609 67.9705 22.3949 67.9025 22.4289C67.9705 22.3949 68.0498 22.3609 68.1178 22.3269C64.9444 21.7942 61.8164 22.4402 59.6404 23.6076C59.119 23.8909 57.8157 24.6843 57.045 26.0216C56.9317 26.2143 56.7843 26.5316 56.6597 26.9396C56.6823 27.0189 56.705 27.1096 56.739 27.1889C56.705 27.1889 56.7163 27.2003 56.7163 27.2229ZM67.1884 25.2169C67.2678 25.1716 67.3358 25.1376 67.4151 25.1036C67.3471 25.1376 67.2678 25.1716 67.1884 25.2169ZM67.8685 24.8769C67.9478 24.8316 68.0385 24.7976 68.1178 24.7523C68.0385 24.7976 67.9478 24.8316 67.8685 24.8769ZM68.4918 24.5822C68.5711 24.5482 68.6505 24.5142 68.7298 24.4802C68.6505 24.5029 68.5711 24.5482 68.4918 24.5822ZM69.0811 24.3216C69.1491 24.2989 69.2171 24.2649 69.2738 24.2422C69.2171 24.2649 69.1491 24.2876 69.0811 24.3216ZM70.6338 23.7662C70.6792 23.7549 70.7245 23.7436 70.7698 23.7322C70.7358 23.7436 70.6905 23.7549 70.6565 23.7662C70.6565 23.7662 70.6452 23.7662 70.6338 23.7662ZM69.7385 24.0496C69.8178 24.0156 69.8858 23.9929 69.9651 23.9702C69.8858 24.0042 69.8178 24.0269 69.7385 24.0496ZM70.1805 23.9022C70.2598 23.8796 70.3278 23.8569 70.4071 23.8342C70.3278 23.8569 70.2598 23.8796 70.1805 23.9022ZM71.8238 23.6302C71.8012 23.6302 71.7898 23.6302 71.7672 23.6189C71.8238 23.6189 71.8692 23.6302 71.9258 23.6416C71.9145 23.6416 71.9032 23.6302 71.8918 23.6302C71.8692 23.6416 71.8465 23.6302 71.8238 23.6302ZM71.6992 23.6189C71.6765 23.6189 71.6538 23.6189 71.6198 23.6189C71.5972 23.6189 71.5745 23.6189 71.5518 23.6189C71.5972 23.6189 71.6425 23.6189 71.6992 23.6189ZM71.3932 23.6302C71.3592 23.6302 71.3252 23.6416 71.2912 23.6416C71.3478 23.6302 71.3932 23.6302 71.4498 23.6302C71.4272 23.6189 71.4158 23.6189 71.3932 23.6302ZM67.4151 22.6556C67.3358 22.6896 67.2678 22.7349 67.1884 22.7689C67.2678 22.7349 67.3471 22.6896 67.4151 22.6556Z" fill="#DCEEFF"/>
<path d="M56.5688 27.0643C56.5688 27.0643 56.5688 27.0756 56.5688 27.0643C56.5802 27.0416 56.5802 27.0076 56.5915 26.9736L56.5688 27.0643Z" fill="#212121"/>
<path d="M66.7007 34.5671C65.9754 34.6124 65.9754 34.6124 65.6127 34.6011L65.0687 34.5784C64.8987 34.5671 64.6834 34.5557 64.5247 34.5331L63.9807 34.4651C63.8107 34.4311 63.584 34.3971 63.4027 34.3631L62.8474 34.2384C62.666 34.193 62.4167 34.125 62.2353 34.0684L61.6687 33.8757C61.4647 33.7964 61.204 33.6944 61.0113 33.615L60.4447 33.3544C60.2406 33.241 59.9573 33.0937 59.7533 32.9804L59.2206 32.629C59.028 32.4817 58.7786 32.3004 58.586 32.153L58.1326 31.745C57.974 31.5864 57.77 31.371 57.6226 31.1897L57.2713 30.725C57.1693 30.555 57.0219 30.317 56.9199 30.1357L56.7046 29.637C56.6479 29.4557 56.5686 29.229 56.5233 29.0477L56.4439 28.5377L56.4326 28.4243L56.4553 28.583C56.5799 28.9797 56.6366 29.1497 57.0899 29.5803C57.1126 29.603 57.1466 29.6257 57.1693 29.6483C57.804 30.1923 58.5633 30.5663 59.198 31.099C59.3906 31.2577 59.64 31.5184 59.7533 31.7564C60.048 32.4024 60.626 32.935 61.4533 33.3657C63.448 34.4084 65.4994 34.7484 67.6981 34.4197L67.1427 34.4991L66.7007 34.5671Z" fill="#A5CBFA"/>
<path d="M70.3617 32.5157C68.7071 33.3657 67.3471 33.1504 67.3471 33.139C67.2791 33.0483 67.3584 32.8557 67.4377 32.7763C67.5171 32.697 70.1351 32.1303 70.2371 32.1757C70.3391 32.221 70.4411 32.3797 70.4071 32.4817C70.4071 32.5043 70.3844 32.5043 70.3617 32.5157Z" fill="#DCEEFF"/>
<path d="M76.4816 13.7248V13.6795C76.4929 13.5888 76.4929 13.5094 76.4929 13.4414C76.4929 13.4188 76.4929 13.4074 76.4929 13.3848C76.5042 12.8068 76.3456 12.3081 75.9942 11.7528C75.9489 11.6734 75.8922 11.5941 75.8582 11.5261L75.8242 11.4808C75.8242 11.4694 75.8129 11.4694 75.8129 11.4581L75.6882 11.2881C75.6656 11.2541 75.6429 11.2314 75.6089 11.1974C75.5976 11.1748 75.5749 11.1634 75.5636 11.1408C75.5069 11.0614 75.4389 10.9821 75.3822 10.9254C75.3256 10.8688 75.2576 10.7894 75.2009 10.7214C75.2009 10.7214 75.2009 10.7214 75.2009 10.7101C75.1896 10.6988 75.1896 10.6874 75.1782 10.6874C75.1669 10.6761 75.1669 10.6761 75.1556 10.6648C75.1102 10.6081 75.0536 10.5514 74.9856 10.4947C74.9742 10.4834 74.9629 10.4721 74.9516 10.4607C74.9176 10.4381 74.8836 10.4041 74.8609 10.3814C74.8496 10.3701 74.8382 10.3587 74.8269 10.3474C74.7929 10.3134 74.7589 10.2907 74.7249 10.2567C74.7022 10.2454 74.6909 10.2227 74.6682 10.2114C74.6569 10.2001 74.6569 10.2001 74.6456 10.1887C74.6229 10.1774 74.6116 10.1661 74.6002 10.1547C74.5436 10.1094 74.4756 10.0641 74.4076 10.0187C74.3962 10.0074 74.3849 10.0074 74.3735 9.99608C74.3622 9.98474 74.3509 9.97341 74.3396 9.97341L74.3282 9.96208C74.3055 9.95074 74.2829 9.92808 74.2602 9.91674C74.1922 9.87141 74.1242 9.82607 74.0562 9.78074C74.0449 9.76941 74.0222 9.75807 74.0109 9.74674C73.9995 9.74674 73.9995 9.73541 73.9882 9.73541C73.9769 9.72407 73.9542 9.71274 73.9429 9.71274C73.8409 9.64474 73.7275 9.57674 73.6255 9.52007L73.1269 9.2254C73.0589 9.1914 72.9909 9.14607 72.9229 9.11207C72.8889 9.0894 72.8662 9.07807 72.8322 9.06673C72.8095 9.0554 72.7869 9.04406 72.7642 9.03273C72.9682 8.44339 73.1949 7.86539 73.4555 7.31005C73.4442 7.33271 73.4329 7.34405 73.4102 7.36671C73.4555 7.32138 73.4669 7.26471 73.4555 7.19671H73.4669C73.4669 7.18538 73.4555 7.16271 73.4555 7.15138C73.4555 7.14004 73.4442 7.11738 73.4329 7.10604C73.4215 7.07204 73.3989 7.02671 73.3649 6.99271C73.3535 6.98138 73.3422 6.95871 73.3309 6.94738C73.2855 6.89071 73.2402 6.82271 73.1722 6.76604C73.1609 6.75471 73.1495 6.74337 73.1382 6.74337C73.0815 6.68671 73.0249 6.63004 72.9569 6.57337C72.9342 6.5507 72.9002 6.52804 72.8775 6.50537C72.8209 6.46004 72.7642 6.40337 72.6962 6.35804C72.6622 6.33537 72.6282 6.30137 72.5942 6.2787C72.5262 6.23337 72.4469 6.1767 72.3789 6.13137C72.3449 6.1087 72.3109 6.08603 72.2769 6.06337C72.1635 5.98403 72.0389 5.91603 71.9142 5.8367L71.4155 5.55336C70.6335 5.10002 69.8288 4.79402 69.3415 4.73735C69.3302 4.73735 69.3188 4.73735 69.3075 4.73735H69.2962C69.2055 4.72602 69.1148 4.72602 69.0355 4.71468L68.7635 4.70335C68.6728 4.70335 68.5595 4.70335 68.4802 4.69202H68.2195C68.1402 4.69202 68.0268 4.70335 67.9475 4.70335L67.6868 4.72602C67.6075 4.73735 67.4941 4.74868 67.4148 4.76002L67.3015 4.77135C67.2901 4.77135 67.2675 4.77135 67.2561 4.78268L67.1541 4.79402C67.0861 4.80535 67.0181 4.81668 66.9388 4.82802L66.8708 4.83935L66.6101 4.89602C66.5308 4.91869 66.4288 4.94135 66.3495 4.95269L66.1795 4.99802C66.1568 4.99802 66.1455 5.00935 66.1228 5.00935L66.0888 5.02069C66.0095 5.04335 65.8961 5.07735 65.8168 5.10002L65.7601 5.12269C65.7148 5.13402 65.6695 5.15669 65.6355 5.16802L65.5561 5.20202C65.5108 5.21336 65.4541 5.23602 65.3975 5.25869C65.3635 5.27002 65.3181 5.28136 65.2841 5.30402L65.0121 5.41736H65.0008C64.9668 5.42869 64.9328 5.45136 64.8988 5.46269C64.8421 5.48536 64.7854 5.50803 64.7401 5.53069L64.6721 5.56469C64.6494 5.57603 64.6268 5.58736 64.6041 5.59869L64.4681 5.66669C64.4454 5.67803 64.4228 5.68936 64.4001 5.70069L64.4454 5.67803L64.4341 5.68936C64.4001 5.71203 64.3774 5.72336 64.3434 5.73469C64.3321 5.73469 64.3321 5.74603 64.3208 5.74603C64.3094 5.75736 64.2981 5.75736 64.2868 5.7687C64.2528 5.78003 64.2301 5.8027 64.2074 5.81403C64.1848 5.82536 64.1734 5.8367 64.1508 5.84803C64.1054 5.8707 64.0488 5.9047 63.9808 5.9387C63.9694 5.95003 63.9468 5.95003 63.9354 5.96136C63.9014 5.98403 63.8674 5.99536 63.8334 6.01803C63.7994 6.0407 63.7768 6.05203 63.7428 6.0747C63.6634 6.12003 63.5501 6.18803 63.4708 6.23337L63.3914 6.29003C63.3348 6.32403 63.2781 6.35804 63.2328 6.39204L63.2101 6.40337C63.1308 6.46004 63.0288 6.52804 62.9494 6.5847L62.9268 6.60737C62.8928 6.63004 62.8588 6.65271 62.8248 6.67537L62.6888 6.77737C62.6094 6.83404 62.5074 6.91337 62.4281 6.97004L62.1787 7.17404C62.2014 7.15138 62.2354 7.12871 62.2581 7.10604C62.2354 7.12871 62.2014 7.15138 62.1674 7.17404C62.1561 7.18538 62.1561 7.18538 62.1447 7.18538C62.1447 7.18538 62.1334 7.18538 62.1334 7.19671C62.0541 7.25338 61.9747 7.33271 61.9067 7.38938L61.6687 7.59338L61.6574 7.60472L61.6461 7.61605C61.5667 7.68405 61.4647 7.77472 61.3854 7.84272L61.3287 7.89939C61.2834 7.93339 61.2494 7.96739 61.2154 8.01272L61.1361 8.09205C60.9207 8.28472 60.6487 8.55673 60.3201 8.89673C60.2634 8.9534 60.2181 9.01007 60.1614 9.06673L60.1161 9.11207C60.0821 9.14607 60.0367 9.1914 60.0027 9.23673C59.9687 9.27073 59.9347 9.30474 59.9007 9.33874C59.8894 9.35007 59.8781 9.37274 59.8667 9.38407L59.7194 9.55407C59.6967 9.57674 59.674 9.59941 59.6514 9.62207L59.6174 9.65607C59.5494 9.73541 59.4474 9.84874 59.3794 9.93941L59.2207 10.1321C59.2434 10.1094 59.2547 10.0867 59.2887 10.0527C59.2434 10.1094 59.1867 10.1661 59.1527 10.2114C59.0847 10.2907 58.9827 10.4154 58.9147 10.4947C58.8467 10.5854 58.756 10.6988 58.6767 10.7781C58.6654 10.7894 58.6654 10.8121 58.6654 10.8348C58.6654 10.8348 58.6654 10.8234 58.6767 10.8234C58.6767 10.9028 58.7674 11.0274 58.9374 11.1861C58.926 11.1748 58.9034 11.1521 58.8807 11.1408C59.9007 12.1608 60.3201 14.2575 60.4561 14.9488C60.2181 15.0735 59.9801 15.1981 59.7534 15.3228C59.6741 15.3568 59.6061 15.4021 59.5267 15.4361C59.504 15.4475 59.4927 15.4588 59.4814 15.4588C59.164 15.6288 58.8467 15.7875 58.5294 15.9575C58.4727 15.9915 58.4047 16.0255 58.348 16.0481C58.1894 16.1275 58.0194 16.2181 57.8607 16.2975C57.838 16.3088 57.8267 16.3201 57.804 16.3315C57.7587 16.3541 57.702 16.3768 57.6567 16.4108C57.3507 16.5582 56.7387 16.8642 56.7274 16.8755C56.6707 17.0228 56.614 17.1475 56.5574 17.2722C56.546 17.2948 56.5347 17.3175 56.5347 17.3402L56.512 17.3855C56.2627 17.9862 56.1267 18.3715 56.0587 18.5642C56.0247 18.6775 55.9793 18.8135 55.9453 18.9268L55.9113 19.0515C55.9 19.0968 55.8887 19.1535 55.866 19.1988L55.8433 19.2668C55.8433 19.2782 55.832 19.3008 55.832 19.3122C55.7867 19.5162 55.7413 19.6975 55.7187 19.8789V19.9015C55.7187 19.9242 55.7187 19.9469 55.7073 19.9695C55.7073 20.0035 55.696 20.0375 55.696 20.0715C55.696 20.1169 55.6847 20.1509 55.6847 20.1849V20.2415C55.6847 20.3095 55.6733 20.3889 55.6733 20.4569C55.6733 20.5362 55.6847 20.6495 55.6847 20.7402L55.696 20.8422C55.696 20.8762 55.7073 20.9215 55.7073 20.9555V20.9895C55.7187 21.0689 55.7527 21.1822 55.764 21.2615L55.7753 21.3069C55.7753 21.3182 55.7867 21.3295 55.7867 21.3522L55.832 21.4995C55.8547 21.5675 55.8887 21.6469 55.9227 21.7149C55.934 21.7375 55.9453 21.7715 55.9567 21.7942L56.0813 22.0209C56.0927 22.0322 56.104 22.0549 56.1153 22.0662V22.0775C56.172 22.1682 56.24 22.2702 56.2853 22.3495L56.3194 22.3949L56.3307 22.4062L56.4554 22.5762C56.478 22.6102 56.5007 22.6442 56.5347 22.6669C56.546 22.6896 56.5687 22.7009 56.58 22.7236C56.6367 22.8029 56.7047 22.8822 56.7613 22.9389C56.8293 23.0069 56.9087 23.1089 56.9767 23.1769C57.294 23.5169 57.8607 23.9589 58.552 24.3556L59.0507 24.6389C59.1414 24.6956 59.2321 24.7409 59.3227 24.7862C59.1301 25.3869 58.9261 25.9763 58.6994 26.5429C58.586 26.8149 59.2434 27.4609 60.2521 28.0503L60.7507 28.3336C60.8641 28.4016 60.9661 28.4583 61.0681 28.515C61.0794 28.5263 61.0907 28.5263 61.1021 28.5376C61.1021 28.5376 61.1134 28.5376 61.1134 28.549H61.1247C61.1361 28.549 61.1361 28.5603 61.1361 28.5603C61.1587 28.5716 61.1814 28.583 61.2041 28.5943C61.2607 28.6283 61.3174 28.651 61.3741 28.685C61.3967 28.6963 61.4194 28.7076 61.4421 28.719C61.4534 28.719 61.4534 28.7303 61.4647 28.7303C61.4647 28.7303 61.4761 28.7303 61.4761 28.7416H61.4874H61.4987C61.5101 28.7416 61.5214 28.753 61.5214 28.753C61.5327 28.7643 61.5441 28.7643 61.5554 28.7643C61.6007 28.787 61.6347 28.7983 61.6801 28.821C61.7141 28.8323 61.7367 28.8436 61.7707 28.855C61.7821 28.855 61.7934 28.8663 61.8047 28.8663C61.8161 28.8663 61.8161 28.8663 61.8274 28.8776C61.8274 28.8776 61.8387 28.8776 61.8387 28.889H61.8501H61.8614C61.8727 28.889 61.8841 28.9003 61.8954 28.9003C61.9181 28.9116 61.9521 28.923 61.9747 28.923C61.9861 28.923 61.9861 28.923 61.9974 28.9343C62.0314 28.9456 62.0541 28.957 62.0881 28.9683C62.0994 28.9683 62.1107 28.9796 62.1221 28.9796C62.1334 28.9796 62.1334 28.9796 62.1334 28.9796C62.1447 28.9796 62.1448 28.9796 62.1561 28.991C62.1674 28.991 62.1674 28.991 62.1787 29.0023C62.1901 29.0023 62.1901 29.0023 62.2014 29.0136C62.2127 29.0136 62.2354 29.025 62.2467 29.025C62.2694 29.0363 62.2921 29.0363 62.3034 29.0476C62.3147 29.0476 62.3374 29.059 62.3488 29.059H62.3601C62.3714 29.059 62.3828 29.0703 62.3941 29.0703C62.4054 29.0703 62.4281 29.0816 62.4394 29.0816C62.4508 29.0816 62.4621 29.0816 62.4621 29.093C62.4734 29.093 62.4734 29.093 62.4734 29.093C62.4847 29.093 62.4961 29.093 62.5074 29.1043C62.5188 29.1043 62.5301 29.1043 62.5414 29.1156C62.5527 29.1156 62.5754 29.127 62.5868 29.127H62.5981C62.6094 29.127 62.6321 29.127 62.6434 29.1383C62.6548 29.1383 62.6774 29.1496 62.6888 29.1496C62.7001 29.1496 62.7114 29.1496 62.7228 29.1496C62.7341 29.1496 62.7341 29.1496 62.7454 29.1496H62.7568H62.7681C62.7794 29.1496 62.7908 29.1496 62.8021 29.1496H62.7908C62.8701 29.161 62.9834 29.161 63.1308 29.1723H63.1421H63.1534C63.1988 29.1723 63.2668 29.1723 63.3234 29.1723H63.4254C63.5161 29.1723 63.6408 29.1723 63.7314 29.1723L64.0034 29.161C64.0261 29.161 64.0374 29.161 64.0601 29.161C64.0828 29.161 64.1054 29.161 64.1168 29.161C64.1734 29.161 64.2414 29.1496 64.2868 29.1496L64.4001 29.1383C64.4454 29.1383 64.4908 29.127 64.5361 29.127H64.5701C64.6494 29.1156 64.7628 29.093 64.8534 29.0816H64.8761C64.9215 29.0703 64.9781 29.059 65.0234 29.0476L65.1254 29.025C65.1708 29.0136 65.2161 29.0023 65.2614 28.991L65.3408 28.9683L65.3634 28.957C65.3748 28.957 65.3861 28.9456 65.3975 28.9456L65.4995 28.9116L65.6014 28.889C65.5901 28.889 65.5788 28.889 65.5675 28.9003L65.6581 28.8776C65.7374 28.855 65.8508 28.821 65.9301 28.7983L66.1001 28.7416C66.1115 28.7416 66.1115 28.7416 66.1228 28.7303L66.2021 28.7076C66.2815 28.685 66.3948 28.6396 66.4741 28.6056L66.7235 28.515C66.7915 28.4923 66.8595 28.4583 66.9275 28.4356C66.9615 28.4243 66.9841 28.413 67.0181 28.4016L67.1541 28.345C67.1768 28.3336 67.1995 28.3223 67.2221 28.3109L67.2788 28.2883C67.3015 28.277 67.3128 28.2656 67.3355 28.2656C67.4601 28.2089 67.5848 28.1409 67.7095 28.0843L67.8001 28.0389C67.8568 28.0049 67.9248 27.9709 67.9928 27.9369C68.1288 27.8689 68.2535 27.7896 68.3895 27.7103C68.4008 27.7103 68.4008 27.6989 68.4122 27.6989H68.4008C68.4915 27.6423 68.5935 27.5856 68.6955 27.5176C69.0808 27.2796 69.4548 27.0189 69.8402 26.7356L69.8628 26.7243C69.8968 26.6903 69.9422 26.6676 69.9875 26.6336C70.1122 26.5429 70.2368 26.4409 70.3615 26.3389C70.3728 26.3276 70.3728 26.3276 70.3842 26.3276L70.3955 26.3163C70.4068 26.3163 70.4068 26.3049 70.4182 26.2936C70.5882 26.1576 70.7468 26.0216 70.8942 25.8856C70.9055 25.8743 70.9168 25.8629 70.9282 25.8629C71.0075 25.7949 71.1095 25.7043 71.1888 25.6249L71.4495 25.3756C71.5289 25.2962 71.6309 25.1942 71.7102 25.1262L71.8122 25.0242C71.8349 25.0016 71.8462 24.9902 71.8689 24.9676L71.9709 24.8656C71.9822 24.8542 72.0049 24.8316 72.0275 24.8089C72.0502 24.7862 72.0615 24.7749 72.0842 24.7522C72.1182 24.7182 72.1522 24.6842 72.1862 24.6389C72.1975 24.6276 72.1975 24.6276 72.2089 24.6162C72.1975 24.6276 72.1975 24.6276 72.1862 24.6389C72.1975 24.6162 72.2202 24.6049 72.2315 24.5822L72.2882 24.5256C72.3335 24.4689 72.3902 24.4236 72.4355 24.3669L72.4922 24.2989C72.5375 24.2536 72.5829 24.1969 72.6282 24.1516C72.6395 24.1402 72.6509 24.1176 72.6735 24.1062C72.6962 24.0722 72.7302 24.0496 72.7529 24.0156L73.0135 23.7209C73.0929 23.6302 73.1949 23.5056 73.2742 23.4149L73.4329 23.2109C73.4669 23.1769 73.4895 23.1429 73.5235 23.0976H73.5122L73.5235 23.0862V23.0749V23.0636C73.5235 23.0522 73.5235 23.0522 73.5235 23.0409C73.5235 23.0296 73.5235 23.0182 73.5122 23.0182C73.5122 23.0069 73.5122 23.0069 73.5009 22.9956V23.0069V22.9956V22.9842C73.4895 22.9616 73.4782 22.9389 73.4555 22.9162C73.4442 22.9049 73.4442 22.8936 73.4329 22.8822C73.1722 22.5422 72.9455 22.1569 72.7415 21.7149C72.3902 20.9669 72.0955 20.0489 71.8349 18.9042C72.0615 18.7795 72.2882 18.6662 72.5262 18.5415C73.0249 18.2808 73.4669 18.0542 73.8749 17.8388C74.0562 17.7482 74.2376 17.6575 74.4189 17.5668C74.4756 17.5328 74.5322 17.5102 74.5889 17.4762C74.8836 17.3288 75.1669 17.1815 75.4616 17.0455V17.0342C75.5636 16.8075 75.7676 16.3315 75.9716 15.7988C75.9829 15.7761 75.9829 15.7535 75.9942 15.7421L76.0056 15.7081C76.0396 15.6175 76.0736 15.5268 76.1076 15.4361L76.1302 15.3681C76.1302 15.3568 76.1302 15.3568 76.1416 15.3455C76.1529 15.3001 76.1642 15.2548 76.1869 15.2208C76.2096 15.1528 76.2322 15.0735 76.2549 15.0168C76.2889 14.9035 76.3116 14.8015 76.3342 14.7108L76.3456 14.6768C76.3569 14.6201 76.3796 14.5521 76.3909 14.4841C76.3909 14.4728 76.4022 14.4501 76.4022 14.4388C76.4136 14.4161 76.4136 14.3821 76.4249 14.3595L76.4362 14.2801C76.4476 14.2348 76.4476 14.2008 76.4589 14.1555L76.4702 14.0648C76.4816 14.0081 76.4816 13.9515 76.4929 13.8948C76.4929 13.8721 76.4929 13.8608 76.4929 13.8381C76.4702 13.7701 76.4702 13.7475 76.4816 13.7248ZM63.1308 29.0703C63.1308 29.0703 63.1194 29.0703 63.1308 29.0703V29.0703ZM71.7669 18.8815C71.7782 18.8815 71.7782 18.8815 71.7895 18.8815C71.7782 18.8815 71.7782 18.8815 71.7669 18.8815ZM75.4389 17.0002V17.0115V17.0002ZM73.4555 23.1089C73.4669 23.1089 73.4669 23.1089 73.4555 23.1089C73.4669 23.1089 73.4669 23.1089 73.4555 23.1089ZM75.4389 17.0115C75.4389 17.0115 75.4389 17.0228 75.4389 17.0115C75.4389 17.0228 75.4389 17.0228 75.4389 17.0115C75.4389 17.0228 75.4389 17.0228 75.4389 17.0115ZM73.4782 23.0976C73.4782 23.0976 73.4669 23.0976 73.4782 23.0976C73.4669 23.0976 73.4782 23.0976 73.4782 23.0976ZM75.4389 17.0342C75.4389 17.0228 75.4389 17.0228 75.4389 17.0342V17.0342Z" fill="#A5CBFA"/>
<path d="M73.4332 7.14003C73.4332 7.12869 73.4218 7.10602 73.4105 7.09469C73.3992 7.06069 73.3765 7.01536 73.3425 6.98136C73.3312 6.97002 73.3198 6.94736 73.3085 6.93602C73.2632 6.87936 73.2179 6.81135 73.1499 6.75469C73.1385 6.74335 73.1272 6.73202 73.1158 6.73202C73.0592 6.67535 73.0025 6.61869 72.9345 6.56202C72.9118 6.53935 72.8778 6.51668 72.8552 6.49402C72.7985 6.44868 72.7418 6.39202 72.6738 6.34668C72.6398 6.32402 72.6058 6.29002 72.5718 6.26735C72.5038 6.22201 72.4245 6.16535 72.3565 6.12001C72.3225 6.09735 72.2885 6.07468 72.2545 6.05201C72.1412 5.97268 72.0165 5.90468 71.8918 5.82534L71.3932 5.54201C70.6112 5.08867 69.8065 4.78267 69.3191 4.726C69.2285 4.71466 69.1038 4.70333 69.0131 4.70333L68.7411 4.692C68.6505 4.692 68.5371 4.692 68.4578 4.68066H68.1971C68.1178 4.68066 68.0045 4.692 67.9251 4.692L67.6645 4.71466C67.5851 4.726 67.4718 4.73733 67.3924 4.74867L67.1318 4.78267C67.0524 4.794 66.9391 4.81667 66.8598 4.828L66.5991 4.88467C66.5198 4.90733 66.4064 4.93 66.3271 4.95267L66.0664 5.02067C65.9871 5.04333 65.8738 5.07734 65.7944 5.1L65.5224 5.19067C65.4431 5.22467 65.3298 5.25867 65.2504 5.29267L64.9784 5.40601C64.8991 5.44001 64.7858 5.48534 64.7064 5.53067L64.4344 5.65534C64.3551 5.70068 64.2417 5.75734 64.1624 5.79134C64.0831 5.83668 63.9811 5.89334 63.9017 5.93868H63.8904H63.8791H63.8677C63.7884 5.98401 63.6751 6.05201 63.5957 6.09735L63.3351 6.26735C63.2557 6.32402 63.1537 6.39202 63.0744 6.44868L62.8137 6.64135C62.7344 6.69802 62.6324 6.77735 62.5531 6.83402L62.2924 7.03802C62.2131 7.10602 62.1111 7.18536 62.0317 7.25336L61.7711 7.48003C61.6917 7.54803 61.5897 7.6387 61.5104 7.7067L61.2497 7.9447C61.1704 8.0127 61.0684 8.1147 60.989 8.19404L60.7284 8.44337C60.649 8.52271 60.547 8.62471 60.479 8.70404L60.2297 8.96471C60.1504 9.04405 60.0597 9.15738 59.9804 9.23672L59.731 9.50872C59.663 9.58805 59.561 9.70139 59.493 9.79206L59.255 10.0754C59.187 10.1547 59.085 10.2794 59.017 10.3587C58.949 10.4494 58.8584 10.5627 58.779 10.6421C58.6544 10.8007 59.3004 11.3561 60.309 11.9454L60.8077 12.2287C60.8077 12.2287 60.819 12.2287 60.819 12.2401L60.8757 12.2741C61.8844 12.8521 62.8931 13.2601 63.2444 13.2261L63.3011 13.1694C63.2897 13.1921 63.2671 13.2148 63.2557 13.2261C63.2784 13.2261 63.2897 13.2148 63.3124 13.2148C64.8084 11.3561 66.5878 9.59939 68.3331 8.59071C68.3558 8.57937 68.4691 8.51137 68.5371 8.47737C70.2825 7.4687 71.9712 7.18535 73.4672 7.31002C73.5238 7.26469 73.5352 7.27602 73.5238 7.19669V7.14002C73.3425 7.20802 73.4445 7.16269 73.4332 7.14003Z" fill="#DCEEFF"/>
<path d="M75.4165 11.0728C75.4165 11.0614 75.4165 11.0614 75.4165 11.0501C75.4052 11.0048 75.3825 10.9594 75.3485 10.9028C75.3372 10.8914 75.3372 10.8801 75.3259 10.8688C75.3145 10.8574 75.3145 10.8461 75.3032 10.8234C75.2805 10.7894 75.2578 10.7554 75.2238 10.7214C75.2125 10.7101 75.2125 10.7101 75.2012 10.6988C75.1899 10.6874 75.1785 10.6761 75.1672 10.6648C75.1218 10.6081 75.0652 10.5514 74.9972 10.4948C74.9858 10.4834 74.9745 10.4721 74.9632 10.4608C74.9292 10.4381 74.8952 10.4041 74.8725 10.3814C74.8612 10.3701 74.8498 10.3588 74.8385 10.3474C74.8045 10.3134 74.7705 10.2908 74.7365 10.2568C74.7139 10.2454 74.7025 10.2228 74.6799 10.2114C74.6685 10.2001 74.6685 10.2001 74.6572 10.1888C74.6345 10.1774 74.6232 10.1661 74.6118 10.1548C74.5552 10.1094 74.4872 10.0641 74.4192 10.0188C74.4078 10.0074 74.3965 10.0074 74.3852 9.9961C74.3738 9.98476 74.3625 9.97343 74.3512 9.97343L74.3398 9.9621C74.3172 9.95076 74.2945 9.9281 74.2718 9.91676C74.2038 9.87143 74.1358 9.8261 74.0678 9.78076C74.0565 9.76943 74.0338 9.75809 74.0225 9.74676C74.0112 9.74676 74.0112 9.73543 73.9998 9.73543C73.9885 9.72409 73.9658 9.71276 73.9545 9.71276C73.8525 9.64476 73.7392 9.57676 73.6372 9.52009L73.1385 9.22542C72.1525 8.64742 71.2685 8.36408 71.0305 8.51141C69.9311 9.24809 68.8884 9.91676 67.3018 10.9028C67.6531 10.6761 68.6278 10.9141 69.6138 11.4921L70.1125 11.7755C70.2598 11.8661 70.4071 11.9568 70.5431 12.0475C70.5771 12.0701 70.5998 12.0928 70.6338 12.1155C70.6451 12.1268 70.6678 12.1381 70.6791 12.1495C70.7698 12.2061 70.8491 12.2741 70.9285 12.3421C70.9511 12.3648 70.9738 12.3761 70.9965 12.3988C71.0531 12.4555 71.1211 12.5008 71.1778 12.5575C71.2118 12.5915 71.2458 12.6255 71.2798 12.6708C71.3251 12.7161 71.3818 12.7728 71.4158 12.8181C71.6878 13.1355 71.8011 13.4301 71.6878 13.6115C73.2972 12.6141 74.4645 11.8548 75.4505 11.1974C75.4392 11.1521 75.4279 11.1181 75.4165 11.0728Z" fill="#DCEEFF"/>
<path d="M61.9976 15.8782C61.0229 15.3115 60.3543 14.9035 60.3883 14.8809C58.8129 15.7195 57.7702 16.2522 56.6709 16.7849C56.7616 16.7395 57.5096 17.1022 58.4843 17.6689L58.9829 17.9522C60.0823 18.5869 61.0456 19.2442 61.1476 19.4256C62.1336 18.9496 63.3123 18.3489 64.9103 17.4876C64.6723 17.3969 63.5956 16.7962 62.4963 16.1615L61.9976 15.8782Z" fill="#DCEEFF"/>
<path d="M68.336 8.58655C70.0814 7.57788 71.8721 7.26054 73.3681 7.39654C72.6201 8.99456 72.0081 11.1026 71.6341 13.6413C73.2434 12.6439 74.4108 11.8846 75.3968 11.2273C76.7795 12.7573 76.7795 13.9246 75.4081 17.0413C74.4561 17.506 73.3227 18.084 71.7361 18.9227C72.1894 20.974 72.7901 22.3567 73.4247 23.1501C71.7927 25.1901 69.934 26.7314 68.2794 27.6834C66.6247 28.6354 64.766 29.2475 63.1226 29.0888C63.746 27.5588 64.3466 25.4847 64.7886 22.9234C63.202 23.9207 62.0686 24.6461 61.1279 25.2807C59.7566 23.7507 59.7453 22.5834 61.1166 19.4667C62.1026 18.9907 63.2813 18.39 64.8793 17.5287C64.4826 15.432 63.8706 14.0493 63.1113 13.3126C64.6073 11.4539 66.3867 9.69723 68.132 8.68856C68.166 8.66589 68.1887 8.65455 68.2227 8.63189C68.268 8.62055 68.302 8.59789 68.336 8.58655Z" fill="#C8E2FF"/>
<path d="M64.6949 5.4741C64.5815 5.79144 64.7402 6.13144 65.1482 6.38078C65.8169 6.78878 66.9275 6.80012 67.6302 6.40345C68.0836 6.15411 68.2536 5.79144 68.1289 5.46277L68.4802 6.46011C68.6162 6.85678 68.4122 7.28746 67.8682 7.59346C67.0295 8.05813 65.6922 8.0468 64.8875 7.55946C64.3889 7.26479 64.2075 6.84545 64.3435 6.47145C64.3549 6.43745 64.3662 6.40345 64.3775 6.36945C64.3775 6.35811 64.3889 6.33544 64.4002 6.32411C64.4115 6.29011 64.4229 6.25611 64.4342 6.22211C64.4455 6.18811 64.4569 6.15411 64.4682 6.12011C64.4682 6.10878 64.4795 6.08611 64.4909 6.07478C64.5022 6.04077 64.5135 6.00677 64.5249 5.97277C64.5362 5.93877 64.5475 5.90477 64.5589 5.87077C64.5589 5.85944 64.5702 5.83677 64.5815 5.82544C64.5929 5.79144 64.6042 5.75744 64.6155 5.72344C64.6269 5.68944 64.6382 5.65544 64.6495 5.62144C64.6495 5.6101 64.6609 5.58744 64.6722 5.5761C64.6722 5.5421 64.6835 5.5081 64.6949 5.4741Z" fill="#A5CBFA"/>
<path d="M69.7721 3.36604C69.7721 5.22473 68.2648 6.73208 66.4061 6.73208C64.5474 6.73208 63.04 5.22473 63.04 3.36604C63.04 1.50735 64.5474 0 66.4061 0C68.2648 0 69.7721 1.50735 69.7721 3.36604Z" fill="#A5CBFA"/>
<path d="M69.5455 3.0147C69.5455 4.55605 68.2988 5.81406 66.7462 5.81406C65.2048 5.81406 63.9468 4.56738 63.9468 3.0147C63.9468 1.47335 65.1935 0.215332 66.7462 0.215332C68.2988 0.215332 69.5455 1.47335 69.5455 3.0147Z" fill="#C8E2FF"/>
<path d="M68.3329 2.5274C68.3329 3.02608 67.9249 3.43408 67.4262 3.43408C66.9275 3.43408 66.5195 3.02608 66.5195 2.5274C66.5195 2.02873 66.9275 1.62073 67.4262 1.62073C67.9362 1.62073 68.3329 2.02873 68.3329 2.5274Z" fill="#DCEEFF"/>
<path d="M79.6553 42.1832C79.9953 43.6679 77.2979 45.5719 73.6032 46.4219C69.9198 47.2832 66.6445 46.7732 66.3045 45.2885C65.9645 43.8039 65.7038 36.5618 69.3985 35.7004C73.0705 34.8504 79.3039 40.6985 79.6553 42.1832Z" fill="#DCEEFF"/>
<defs>
<radialGradient id="paint0_radial" cx="0" cy="0" r="1" gradientUnits="userSpaceOnUse" gradientTransform="translate(66 108) rotate(90) scale(57)">
<stop offset="0.328125" stop-color="#B946FF"/>
<stop offset="1" stop-color="#20263B" stop-opacity="0"/>
</radialGradient>
<linearGradient id="paint1_linear" x1="55.1118" y1="164.52" x2="33.048" y2="202.736" gradientUnits="userSpaceOnUse">
<stop offset="0.033147" stop-color="#B946FF"/>
<stop offset="0.244792" stop-color="#B946FF" stop-opacity="0.45"/>
<stop offset="0.71875" stop-color="#2F3C5B" stop-opacity="0"/>
</linearGradient>
<linearGradient id="paint2_linear" x1="77.4839" y1="164.52" x2="99.5477" y2="202.736" gradientUnits="userSpaceOnUse">
<stop offset="0.033147" stop-color="#B946FF"/>
<stop offset="0.244792" stop-color="#B946FF" stop-opacity="0.45"/>
<stop offset="0.71875" stop-color="#2F3C5B" stop-opacity="0"/>
</linearGradient>
</defs>
</svg>
