<svg width="16" height="16" viewBox="0 0 16 16" fill="none" xmlns="http://www.w3.org/2000/svg">
<path d="M14.64 6.968C15.048 6.968 15.36 7.076 15.576 7.292C15.792 7.508 15.9 7.82 15.9 8.228C15.9 8.636 15.792 8.948 15.576 9.164C15.36 9.38 15.048 9.488 14.64 9.488H9.564V14.708C9.564 15.116 9.456 15.428 9.24 15.644C9.024 15.86 8.712 15.968 8.304 15.968C7.896 15.968 7.584 15.86 7.368 15.644C7.152 15.428 7.044 15.116 7.044 14.708V9.488H1.284C0.9 9.488 0.588 9.38 0.348 9.164C0.132 8.924 0.0240002 8.612 0.0240002 8.228C0.0240002 7.82 0.132 7.508 0.348 7.292C0.588 7.076 0.9 6.968 1.284 6.968H7.044V1.352C7.044 0.943999 7.152 0.631999 7.368 0.415999C7.608 0.199999 7.92 0.0919988 8.304 0.0919988C8.712 0.0919988 9.024 0.199999 9.24 0.415999C9.456 0.631999 9.564 0.943999 9.564 1.352V6.968H14.64Z" fill="#20283B"/>
</svg>
