<svg width="33" height="41" viewBox="0 0 33 41" fill="none" xmlns="http://www.w3.org/2000/svg">
<path d="M32.5411 0.44516C33.1163 0.857563 33.0295 1.46532 32.921 2.02966C32.5303 4.06997 30.783 5.32888 28.7427 5.02501C26.2249 4.64516 23.707 4.25446 21.2001 3.84206C19.507 3.55989 18.1287 3.994 17.1411 5.44826C16.6419 6.18625 16.0993 6.90253 15.5132 7.72733C16.5551 7.71648 17.4884 7.73819 18.4109 7.87927C26.7024 9.15989 32.4001 15.6932 32.4869 24.0932C32.5411 28.8793 32.4977 33.6762 32.4977 38.4622C32.4977 38.5056 32.476 38.5599 32.476 38.6033C32.2807 38.6142 32.2264 38.4514 32.1287 38.3646C30.1644 36.4111 28.2218 34.4467 26.2574 32.5041C25.9861 32.2328 25.8884 31.9723 25.9101 31.6033C26.0295 29.6932 26.0946 27.7723 25.9101 25.8622C25.7148 23.8002 25.6388 21.7273 24.6621 19.8173C22.014 14.6622 15.4698 13.056 10.7597 16.4204C10.5101 16.594 10.3799 16.6374 10.1411 16.3878C8.69772 14.9227 7.24346 13.4576 5.76749 12.0142C5.49617 11.7428 5.59384 11.6452 5.8326 11.4498C8.13338 9.56144 10.7489 8.36764 13.69 7.91183C14.0698 7.85757 14.3086 7.71648 14.5148 7.40175C15.2093 6.34904 15.9365 5.30718 16.6311 4.25446C17.369 3.13663 18.4109 2.44206 19.6156 1.93198C21.8729 0.987796 24.2388 0.673067 26.6481 0.542834" fill="#4FFFCA"/>
<path d="M0.0259701 22.7041C0.0368228 22.3134 0.0693809 21.9878 0.112792 21.5103C0.622869 18.5584 1.83837 15.8126 3.7593 13.5119C3.99806 13.2188 4.1283 13.2405 4.36706 13.4902C5.78876 14.9336 7.22132 16.3661 8.66473 17.7878C8.91435 18.0266 8.90349 18.1677 8.69729 18.4498C4.55155 24.0607 7.53605 31.9181 14.3516 33.3506C17.5097 34.0126 20.7112 33.9909 23.9019 33.6871C24.3252 33.6437 24.6074 33.7305 24.9004 34.0343C26.8322 35.9878 28.7857 37.9305 30.7175 39.8731C30.8368 39.9925 31.043 40.0576 31.0105 40.2855C25.3345 40.2855 20.1686 40.2204 14.4926 40.2204C13.9826 40.1661 13.657 40.1444 13.4942 40.1119C6.60272 38.8855 1.38256 33.6762 0.123645 26.763C0.0910864 26.6002 0.0368228 25.6018 0.0151174 25.1568C0.00426464 23.5723 -0.0174408 23.5289 0.0259701 22.7041Z" fill="white"/>
<path d="M21.0586 23.2142C21.0586 24.0824 20.7547 24.332 19.7562 24.3103C18.1392 24.2778 16.8151 22.7692 16.9454 21.1522C16.9888 20.6204 17.2384 20.3925 17.7485 20.3165C19.5609 20.0669 21.0694 21.3801 21.0586 23.2142Z" fill="white"/>
</svg>
