<svg width="16" height="15" viewBox="0 0 16 15" fill="none" xmlns="http://www.w3.org/2000/svg">
<path d="M0.827356 10.2508C0.759565 10.3155 0.713957 10.3978 0.694614 10.4865L0.00943309 13.7555C-0.0225101 13.907 0.0278891 14.0633 0.142175 14.1733C0.234278 14.2612 0.358323 14.3082 0.485386 14.3082C0.516265 14.3082 0.548385 14.3055 0.580328 14.2991L4.00641 13.6455C4.10135 13.6269 4.1876 13.5836 4.2545 13.5187L11.9226 6.20428L8.49656 2.9364L0.827356 10.2508Z" fill="#20283B"/>
<path d="M14.2918 0.676055C13.3469 -0.225352 11.8098 -0.225352 10.8657 0.676055L9.52441 1.95546L12.9505 5.22355L14.2918 3.94397C14.7493 3.50859 15.0013 2.92796 15.0013 2.31044C15.0013 1.69291 14.7493 1.11229 14.2918 0.676055Z" fill="#20283B"/>
</svg>
