<svg width="32" height="36" viewBox="0 0 32 36" fill="none" xmlns="http://www.w3.org/2000/svg">
<path d="M22.9091 1C22.9091 0.447715 22.4614 0 21.9091 0H2C0.19177 0 0 0.19177 0 2V25.1818C0 25.7341 0.447715 26.1818 1 26.1818C1.55228 26.1818 2 25.7341 2 25.1818V2H21.9091C22.4614 2 22.9091 1.55228 22.9091 1Z" fill="#4FFFCA"/>
<path d="M29 6.54541H9C7.19185 6.54541 6.54541 7.19177 6.54541 9V33.5C6.54541 35.3082 7.19177 36 9 36H28.5C30.3082 36 31.0909 35.3082 31.0909 33.5V9C31.0908 7.19185 30.8082 6.54541 29 6.54541ZM28.5 33.5H9V9H28.5V33.5Z" fill="#4FFFCA"/>
</svg>
