<svg width="36" height="33" viewBox="0 0 36 33" fill="none" xmlns="http://www.w3.org/2000/svg">
<path d="M33.8048 0H2.19516C0.984726 0 0 0.984727 0 2.19516V23.7073C0 24.9177 0.984726 25.9025 2.19516 25.9025H12.8445L16.8902 32.2315C17.1326 32.6103 17.5509 32.8391 18.0001 32.8391C18.001 32.8391 18.0023 32.8391 18.0032 32.8391C18.4532 32.8382 18.872 32.6069 19.113 32.2262L23.1152 25.9025H33.8048C35.0152 25.9025 36 24.9178 36 23.7073V2.19516C36 0.984727 35.0153 0 33.8048 0ZM33.3659 23.2683H22.3902C21.9389 23.2683 21.5188 23.4992 21.2778 23.8811L17.9947 29.0678L14.6757 23.8759C14.4338 23.4971 14.015 23.2683 13.5658 23.2683H2.63412V2.63412H33.3658V23.2683H33.3659Z" fill="#4FFFCA"/>
<path d="M8.78056 9.13171C6.60213 9.13171 4.82935 10.9045 4.82935 13.0829C4.82935 15.2613 6.60213 17.0341 8.78056 17.0341C10.959 17.0341 12.7318 15.2613 12.7318 13.0829C12.7318 10.9045 10.959 9.13171 8.78056 9.13171ZM8.78056 14.4C8.05444 14.4 7.46346 13.8091 7.46346 13.0829C7.46346 12.3568 8.05437 11.7658 8.78056 11.7658C9.50674 11.7658 10.0977 12.3567 10.0977 13.0829C10.0977 13.8091 9.50667 14.4 8.78056 14.4Z" fill="#4FFFCA"/>
<path d="M18 9.13171C15.8216 9.13171 14.0488 10.9045 14.0488 13.0829C14.0488 15.2613 15.8216 17.0341 18 17.0341C20.179 17.0341 21.9513 15.2613 21.9513 13.0829C21.9513 10.9045 20.179 9.13171 18 9.13171ZM18 14.4C17.2739 14.4 16.6829 13.8091 16.6829 13.0829C16.6829 12.3568 17.2739 11.7658 18 11.7658C18.7262 11.7658 19.3171 12.3567 19.3171 13.0829C19.3171 13.8091 18.7262 14.4 18 14.4Z" fill="#4FFFCA"/>
<path d="M27.2195 9.13171C25.0407 9.13171 23.2683 10.9045 23.2683 13.0829C23.2683 15.2613 25.0407 17.0341 27.2195 17.0341C29.3984 17.0341 31.1707 15.2613 31.1707 13.0829C31.1707 10.9045 29.3984 9.13171 27.2195 9.13171ZM27.2195 14.4C26.4934 14.4 25.9024 13.8091 25.9024 13.0829C25.9024 12.3568 26.4933 11.7658 27.2195 11.7658C27.9457 11.7658 28.5366 12.3567 28.5366 13.0829C28.5366 13.8091 27.9456 14.4 27.2195 14.4Z" fill="#4FFFCA"/>
</svg>
