<svg width="36" height="36" viewBox="0 0 36 36" fill="none" xmlns="http://www.w3.org/2000/svg">
<path d="M0 6.75V1.40625C0 0.629517 0.629517 0 1.40625 0H6.75C7.52673 0 8.15625 0.629517 8.15625 1.40625C8.15625 2.18298 7.52673 2.8125 6.75 2.8125H2.8125V6.75C2.8125 7.52673 2.18298 8.15625 1.40625 8.15625C0.629517 8.15625 0 7.52673 0 6.75ZM34.5938 0H29.25C28.4733 0 27.8438 0.629517 27.8438 1.40625C27.8438 2.18298 28.4733 2.8125 29.25 2.8125H33.1875V6.75C33.1875 7.52673 33.817 8.15625 34.5938 8.15625C35.3705 8.15625 36 7.52673 36 6.75V1.40625C36 0.629517 35.3705 0 34.5938 0ZM6.75 33.1875H2.8125V29.25C2.8125 28.4733 2.18298 27.8438 1.40625 27.8438C0.629517 27.8438 0 28.4733 0 29.25V34.5938C0 35.3705 0.629517 36 1.40625 36H6.75C7.52673 36 8.15625 35.3705 8.15625 34.5938C8.15625 33.817 7.52673 33.1875 6.75 33.1875ZM34.5938 27.8438C33.817 27.8438 33.1875 28.4733 33.1875 29.25V33.1875H29.25C28.4733 33.1875 27.8438 33.817 27.8438 34.5938C27.8438 35.3705 28.4733 36 29.25 36H34.5938C35.3705 36 36 35.3705 36 34.5938V29.25C36 28.4733 35.3705 27.8438 34.5938 27.8438ZM16.7695 6.92578V15.3633C16.7695 16.14 16.14 16.7695 15.3633 16.7695H6.92578C6.14905 16.7695 5.51953 16.14 5.51953 15.3633V6.92578C5.51953 6.14905 6.14905 5.51953 6.92578 5.51953H15.3633C16.14 5.51953 16.7695 6.14905 16.7695 6.92578ZM13.957 8.33203H8.33203V13.957H13.957V8.33203ZM29.7773 16.7695H21.3398C20.5631 16.7695 19.9336 16.14 19.9336 15.3633V6.92578C19.9336 6.14905 20.5631 5.51953 21.3398 5.51953H29.7773C30.5541 5.51953 31.1836 6.14905 31.1836 6.92578V15.3633C31.1836 16.14 30.5541 16.7695 29.7773 16.7695ZM28.3711 8.33203H22.7461V13.957H28.3711V8.33203ZM16.7695 21.3398V29.7773C16.7695 30.5541 16.14 31.1836 15.3633 31.1836H6.92578C6.14905 31.1836 5.51953 30.5541 5.51953 29.7773V21.3398C5.51953 20.5631 6.14905 19.9336 6.92578 19.9336H15.3633C16.14 19.9336 16.7695 20.5631 16.7695 21.3398ZM13.957 22.7461H8.33203V28.3711H13.957V22.7461ZM27.9668 29.373H23.1504C22.3737 29.373 21.7441 28.7435 21.7441 27.9668V23.1504C21.7441 22.3737 22.3737 21.7441 23.1504 21.7441H27.9668C28.7435 21.7441 29.373 22.3737 29.373 23.1504V27.9668C29.373 28.7435 28.7435 29.373 27.9668 29.373ZM26.5605 24.5566H24.5566V26.5605H26.5605V24.5566Z" fill="#4FFFCA"/>
</svg>
