<svg width="36" height="36" viewBox="0 0 36 36" fill="none" xmlns="http://www.w3.org/2000/svg">
<path d="M28.2857 20.5714C25.7339 20.5714 23.4852 21.8311 22.0801 23.7457L15.0596 20.2346C15.277 19.5225 15.4286 18.7822 15.4286 18C15.4286 17.2178 15.277 16.4773 15.0596 15.7653L22.0801 12.2542C23.4852 14.1688 25.7339 15.4285 28.2857 15.4285C32.5396 15.4285 36 11.9681 36 7.71422C36 3.46033 32.5397 0 28.2857 0C24.0318 0 20.5714 3.46041 20.5714 7.71429C20.5714 8.49649 20.7232 9.23681 20.9406 9.94877L13.9198 13.46C12.5148 11.5454 10.266 10.2857 7.71422 10.2857C3.46033 10.2857 0 13.7461 0 18C0 22.254 3.46033 25.7143 7.71429 25.7143C10.2661 25.7143 12.5148 24.4547 13.9199 22.5401L20.9404 26.0513C20.723 26.7632 20.5714 27.5035 20.5714 28.2858C20.5714 32.5397 24.0318 36.0001 28.2857 36.0001C32.5397 36.0001 36 32.5397 36 28.2858C36 24.0319 32.5396 20.5714 28.2857 20.5714ZM28.2857 2.57146C31.1221 2.57146 33.4285 4.87924 33.4285 7.71429C33.4285 10.5494 31.122 12.8571 28.2857 12.8571C25.4493 12.8571 23.1429 10.5493 23.1429 7.71429C23.1429 4.87924 25.4494 2.57146 28.2857 2.57146ZM7.71429 23.1429C4.8779 23.1429 2.57146 20.8351 2.57146 18C2.57146 15.1649 4.87797 12.8572 7.71429 12.8572C10.5507 12.8572 12.8571 15.165 12.8571 18C12.8571 20.8351 10.5507 23.1429 7.71429 23.1429ZM28.2857 33.4285C25.4493 33.4285 23.1429 31.1208 23.1429 28.2857C23.1429 25.4507 25.4494 23.1429 28.2857 23.1429C31.1221 23.1429 33.4285 25.4507 33.4285 28.2857C33.4285 31.1208 31.1221 33.4285 28.2857 33.4285Z" fill="#4FFFCA"/>
</svg>
