<svg width="50" height="50" viewBox="0 0 50 50" fill="none" xmlns="http://www.w3.org/2000/svg">
<path d="M20.5361 18.75H30.3576C30.8506 18.75 31.2504 19.1498 31.2504 19.6429V29.4643H34.8219V15.1786H20.5361V18.75Z" fill="#C4C4C4"/>
<path d="M15.1787 20.5358H29.4644V34.8215H15.1787V20.5358Z" fill="#C4C4C4"/>
<path d="M25 0C11.193 0 0 11.193 0 25C0 38.807 11.193 50 25 50C38.807 50 50 38.807 50 25C49.9843 11.1995 38.8005 0.0156948 25 0ZM36.6071 30.3571C36.6071 30.8502 36.2074 31.25 35.7143 31.25H31.25V35.7143C31.25 36.2074 30.8502 36.6071 30.3571 36.6071H14.2857C13.7926 36.6071 13.3929 36.2074 13.3929 35.7143V19.6429C13.3929 19.1498 13.7926 18.75 14.2857 18.75H18.75V14.2857C18.75 13.7926 19.1498 13.3929 19.6429 13.3929H35.7143C36.2074 13.3929 36.6071 13.7926 36.6071 14.2857V30.3571Z" fill="#C4C4C4"/>
</svg>
