<svg width="50" height="41" viewBox="0 0 50 41" fill="none" xmlns="http://www.w3.org/2000/svg">
<path d="M50 4.81042C48.1604 5.62708 46.1833 6.17708 44.1083 6.425C46.2271 5.15625 47.8542 3.14583 48.6187 0.75C46.6375 1.925 44.4417 2.77917 42.1042 3.23958C40.2354 1.24583 37.5667 0 34.6167 0C27.9937 0 23.1271 6.17917 24.6229 12.5937C16.1 12.1667 8.54167 8.08333 3.48125 1.87708C0.79375 6.4875 2.0875 12.5187 6.65417 15.5729C4.975 15.5187 3.39167 15.0583 2.01042 14.2896C1.89792 19.0417 5.30417 23.4875 10.2375 24.4771C8.79375 24.8687 7.2125 24.9604 5.60417 24.6521C6.90833 28.7271 10.6958 31.6917 15.1875 31.775C10.875 35.1562 5.44167 36.6667 0 36.025C4.53958 38.9354 9.93333 40.6333 15.725 40.6333C34.7708 40.6333 45.5312 24.5479 44.8812 10.1208C46.8854 8.67292 48.625 6.86667 50 4.81042V4.81042Z" fill="#20283B"/>
</svg>
