<svg width="36" height="36" viewBox="0 0 36 36" fill="none" xmlns="http://www.w3.org/2000/svg">
<path d="M17.9171 0.647827H17.9084C8.2929 0.647827 0.473633 8.46927 0.473633 18.087C0.473633 21.9018 1.70309 25.4375 3.79361 28.3085L1.62026 34.7871L8.32342 32.6443C11.081 34.471 14.3704 35.5261 17.9171 35.5261C27.5326 35.5261 35.3519 27.7024 35.3519 18.087C35.3519 8.47146 27.5326 0.647827 17.9171 0.647827Z" fill="#20283B"/>
<path d="M28.2727 25.5405C27.8491 26.7424 26.168 27.7392 24.8271 28.0303C23.9098 28.2266 22.7115 28.3832 18.6777 26.7027C13.5181 24.5548 10.1954 19.2863 9.93647 18.9445C9.68848 18.6027 7.85156 16.1548 7.85156 13.6232C7.85156 11.0915 9.13104 9.85872 9.64678 9.32945C10.0703 8.89501 10.7704 8.69653 11.442 8.69653C11.6593 8.69653 11.8546 8.70756 12.0302 8.71638C12.5459 8.73843 12.8049 8.76931 13.145 9.58747C13.5686 10.6129 14.6001 13.1446 14.723 13.4048C14.8481 13.6651 14.9732 14.0179 14.7976 14.3597C14.633 14.7126 14.4882 14.8691 14.2292 15.1691C13.9702 15.469 13.7244 15.6983 13.4655 16.0203C13.2284 16.3004 12.9607 16.6003 13.2592 17.1185C13.5576 17.6258 14.5891 19.3172 16.1078 20.6757C18.0676 22.4289 19.6565 22.989 20.225 23.2272C20.6485 23.4036 21.1533 23.3617 21.4627 23.0309C21.8556 22.6053 22.3406 21.8996 22.8344 21.2049C23.1855 20.7065 23.6288 20.6448 24.0941 20.8212C24.5682 20.9866 27.0766 22.2326 27.5924 22.4906C28.1081 22.7509 28.4483 22.8743 28.5734 23.0927C28.6963 23.311 28.6963 24.3365 28.2727 25.5405Z" fill="#C4C4C4"/>
</svg>
