<svg width="36" height="37" viewBox="0 0 36 37" fill="none" xmlns="http://www.w3.org/2000/svg">
<path d="M9.22401 0C6.9591 0 5.11614 1.97834 5.11614 4.40083L4.9668 27.2183L7.20745 27.2356L7.35686 4.40974C7.35686 3.3166 8.19449 2.42737 9.22408 2.42737H31.7428V0H9.22401Z" fill="#BEC1C8"/>
<path d="M24.1241 33.5786H5.11621V36.006H24.1241V33.5786Z" fill="#BEC1C8"/>
<path d="M31.7427 0C29.3953 0 27.4854 2.0689 27.4854 4.61205V30.221C27.4854 32.0722 26.0947 33.5788 24.3859 33.5788C22.677 33.5788 21.2863 32.0722 21.2863 30.221V27.2676C21.2863 26.5972 20.7847 26.0539 20.1659 26.0539H1.12036C0.501539 26.0539 0 26.5972 0 27.2676V30.221C0 33.411 2.39562 36.0062 5.34023 36.0062V33.5788C3.63101 33.5788 2.24065 32.0722 2.24065 30.221V28.4813H19.0456V30.2209C19.0456 33.4109 21.4412 36.0061 24.3859 36.0061C27.3305 36.0061 29.7261 33.4109 29.7261 30.2209V11.2469H34.8796C35.4985 11.2469 36 10.7035 36 10.0331V4.61198C36 2.0689 34.0902 0 31.7427 0ZM33.7593 8.81948H29.7262V4.61198C29.7262 3.40717 30.631 2.42737 31.7427 2.42737C32.8544 2.42737 33.7593 3.40724 33.7593 4.61198V8.81948H33.7593Z" fill="#BEC1C8"/>
<path d="M16.6822 6.72974H10.8938C10.275 6.72974 9.77344 7.27307 9.77344 7.94346C9.77344 8.61385 10.275 9.15718 10.8938 9.15718H16.6822C17.301 9.15718 17.8026 8.61385 17.8026 7.94346C17.8026 7.27307 17.301 6.72974 16.6822 6.72974Z" fill="#BEC1C8"/>
<path d="M23.4041 11.5842H10.8938C10.275 11.5842 9.77344 12.1276 9.77344 12.798C9.77344 13.4683 10.275 14.0117 10.8938 14.0117H23.4041C24.023 14.0117 24.5245 13.4683 24.5245 12.798C24.5245 12.1276 24.023 11.5842 23.4041 11.5842Z" fill="#BEC1C8"/>
<path d="M23.3778 16.4656H10.8674C10.2486 16.4656 9.74707 17.0089 9.74707 17.6793C9.74707 18.3497 10.2486 18.893 10.8674 18.893H23.3778C23.9966 18.893 24.4981 18.3501 24.4981 17.6793C24.4981 17.0089 23.9966 16.4656 23.3778 16.4656Z" fill="#BEC1C8"/>
<path d="M23.3778 21.3206H10.8674C10.2486 21.3206 9.74707 21.8639 9.74707 22.5343C9.74707 23.2047 10.2486 23.748 10.8674 23.748H23.3778C23.9966 23.748 24.4981 23.2047 24.4981 22.5343C24.4981 21.8639 23.9966 21.3206 23.3778 21.3206Z" fill="#BEC1C8"/>
</svg>
