<svg width="36" height="28" viewBox="0 0 36 28" fill="none" xmlns="http://www.w3.org/2000/svg">
<path fill-rule="evenodd" clip-rule="evenodd" d="M16.6564 0.290653C17.5117 -0.0968837 18.4883 -0.0968848 19.3436 0.290652L34.0373 6.94786C36.6542 8.13349 36.6542 11.917 34.0373 13.1026L32.5438 13.7793V20.4219C32.5438 21.0067 32.0698 21.4807 31.485 21.4807C30.9002 21.4807 30.4262 21.0067 30.4262 20.4219V14.7387L28.6107 15.5612V20.6741C28.6107 21.9204 27.9349 23.0659 26.8522 23.6502L19.5185 27.6081C18.5743 28.1177 17.4467 28.131 16.4911 27.644L8.65426 23.6495C7.53378 23.0784 6.82744 21.912 6.82742 20.6376L6.82723 15.3066L1.96269 13.1026C-0.654222 11.917 -0.654235 8.1335 1.96268 6.94786L16.6564 0.290653ZM8.94492 16.266L8.94507 20.6375C8.94507 21.0987 9.20067 21.5189 9.60301 21.724L17.4399 25.7184C17.7827 25.8932 18.1871 25.8884 18.5259 25.7055L25.8597 21.7476C26.2485 21.5378 26.4931 21.1251 26.4931 20.6741V16.5207L19.3436 19.7598C18.4883 20.1473 17.5117 20.1474 16.6564 19.7598L8.94492 16.266ZM18.482 2.25813C18.1751 2.11909 17.8249 2.11909 17.518 2.25813L2.82437 8.91534C1.88208 9.34226 1.88207 10.7082 2.82437 11.1351L17.518 17.7923C17.8249 17.9314 18.1751 17.9314 18.482 17.7923L33.1756 11.1351C34.1179 10.7082 34.1179 9.34226 33.1756 8.91533L18.482 2.25813Z" fill="#4FFFCA"/>
</svg>
