<svg width="36" height="36" viewBox="0 0 36 36" fill="none" xmlns="http://www.w3.org/2000/svg">
<path d="M18 28.3711C18.9708 28.3711 19.7578 27.5841 19.7578 26.6133C19.7578 25.6425 18.9708 24.8555 18 24.8555C17.0292 24.8555 16.2422 25.6425 16.2422 26.6133C16.2422 27.5841 17.0292 28.3711 18 28.3711Z" fill="#C4C4C4"/>
<path d="M18 0C8.05191 0 0 8.05057 0 18C0 27.9481 8.05057 36 18 36C27.9481 36 36 27.9494 36 18C36 8.05191 27.9494 0 18 0ZM18 33.1875C9.60631 33.1875 2.8125 26.3948 2.8125 18C2.8125 9.60631 9.60518 2.8125 18 2.8125C26.3937 2.8125 33.1875 9.60518 33.1875 18C33.1875 26.3937 26.3948 33.1875 18 33.1875Z" fill="#C4C4C4"/>
<path d="M18 9.03516C14.8984 9.03516 12.375 11.5585 12.375 14.6602C12.375 15.4368 13.0046 16.0664 13.7812 16.0664C14.5579 16.0664 15.1875 15.4368 15.1875 14.6602C15.1875 13.1093 16.4492 11.8477 18 11.8477C19.5508 11.8477 20.8125 13.1093 20.8125 14.6602C20.8125 16.211 19.5508 17.4727 18 17.4727C17.2233 17.4727 16.5938 18.1022 16.5938 18.8789V22.3945C16.5938 23.1712 17.2233 23.8008 18 23.8008C18.7767 23.8008 19.4062 23.1712 19.4062 22.3945V20.1072C21.8296 19.4812 23.625 17.2764 23.625 14.6602C23.625 11.5585 21.1016 9.03516 18 9.03516Z" fill="#C4C4C4"/>
</svg>
