<svg width="36" height="36" viewBox="0 0 36 36" fill="none" xmlns="http://www.w3.org/2000/svg">
<path d="M30.728 5.27203C27.3282 1.87228 22.808 0 18 0C13.192 0 8.67178 1.87228 5.27203 5.27203C1.87235 8.67178 0 13.192 0 18C0 22.808 1.87235 27.3282 5.27203 30.728C8.67178 34.1277 13.192 36 18 36C22.808 36 27.3282 34.1277 30.728 30.728C34.1276 27.3282 36 22.808 36 18C36 13.192 34.1276 8.67178 30.728 5.27203ZM18 33.8906C9.23787 33.8906 2.10938 26.7621 2.10938 18C2.10938 9.23787 9.23787 2.10938 18 2.10938C26.7621 2.10938 33.8906 9.23787 33.8906 18C33.8906 26.7621 26.7621 33.8906 18 33.8906Z" fill="#C4C4C4"/>
<path d="M19.1296 16.9453H16.8702C15.583 16.9453 14.5358 15.8982 14.5358 14.611C14.5358 13.3238 15.5831 12.2766 16.8702 12.2766H21.389C21.9714 12.2766 22.4437 11.8044 22.4437 11.2219C22.4437 10.6395 21.9714 10.1673 21.389 10.1673H19.0546V7.83289C19.0546 7.25042 18.5824 6.7782 17.9999 6.7782C17.4174 6.7782 16.9452 7.25042 16.9452 7.83289V10.1673H16.8703C14.4199 10.1673 12.4265 12.1608 12.4265 14.611C12.4265 17.0613 14.42 19.0547 16.8703 19.0547H19.1297C20.4168 19.0547 21.464 20.1019 21.464 21.3891C21.464 22.6762 20.4168 23.7234 19.1297 23.7234H14.6109C14.0284 23.7234 13.5562 24.1957 13.5562 24.7781C13.5562 25.3606 14.0284 25.8328 14.6109 25.8328H16.9452V28.1673C16.9452 28.7497 17.4174 29.2219 17.9999 29.2219C18.5824 29.2219 19.0546 28.7497 19.0546 28.1673V25.8328H19.1296C21.5799 25.8328 23.5733 23.8393 23.5733 21.3891C23.5733 18.9388 21.5799 16.9453 19.1296 16.9453Z" fill="#C4C4C4"/>
</svg>
