<svg width="36" height="36" viewBox="0 0 36 36" fill="none" xmlns="http://www.w3.org/2000/svg">
<path d="M30.728 5.27203C27.3282 1.87228 22.808 0 18 0C13.192 0 8.67178 1.87228 5.27203 5.27203C1.87235 8.67178 0 13.192 0 18C0 22.808 1.87235 27.3282 5.27203 30.728C8.67178 34.1277 13.192 36 18 36C22.808 36 27.3282 34.1277 30.728 30.728C34.1276 27.3282 36 22.808 36 18C36 13.192 34.1276 8.67178 30.728 5.27203ZM18 33.8906C9.23787 33.8906 2.10938 26.7621 2.10938 18C2.10938 9.23787 9.23787 2.10938 18 2.10938C26.7621 2.10938 33.8906 9.23787 33.8906 18C33.8906 26.7621 26.7621 33.8906 18 33.8906Z" fill="#4FFFCA"/>
<path d="M19.1299 16.9453H16.8704C15.5832 16.9453 14.5361 15.8982 14.5361 14.611C14.5361 13.3238 15.5833 12.2766 16.8704 12.2766H21.3892C21.9717 12.2766 22.4439 11.8044 22.4439 11.2219C22.4439 10.6395 21.9717 10.1673 21.3892 10.1673H19.0548V7.83289C19.0548 7.25042 18.5826 6.7782 18.0001 6.7782C17.4177 6.7782 16.9455 7.25042 16.9455 7.83289V10.1673H16.8705C14.4202 10.1673 12.4268 12.1608 12.4268 14.611C12.4268 17.0613 14.4203 19.0547 16.8705 19.0547H19.1299C20.4171 19.0547 21.4642 20.1019 21.4642 21.3891C21.4642 22.6762 20.4171 23.7234 19.1299 23.7234H14.6112C14.0287 23.7234 13.5565 24.1957 13.5565 24.7781C13.5565 25.3606 14.0287 25.8328 14.6112 25.8328H16.9455V28.1673C16.9455 28.7497 17.4177 29.2219 18.0001 29.2219C18.5826 29.2219 19.0548 28.7497 19.0548 28.1673V25.8328H19.1299C21.5801 25.8328 23.5735 23.8393 23.5735 21.3891C23.5735 18.9388 21.5801 16.9453 19.1299 16.9453Z" fill="#4FFFCA"/>
</svg>
