<svg width="36" height="27" viewBox="0 0 36 27" fill="none" xmlns="http://www.w3.org/2000/svg">
<path d="M34.4078 12.4614H31.2924C30.7189 12.4614 30.2539 12.9264 30.2539 13.4999C30.2539 14.0734 30.7189 14.5383 31.2924 14.5383H34.4078C34.9813 14.5383 35.4462 14.0734 35.4462 13.4999C35.4462 12.9264 34.9813 12.4614 34.4078 12.4614Z" fill="#4FFFCA"/>
<path d="M33.0656 18.9965L30.9886 16.9196C30.5831 16.5141 29.9256 16.5141 29.52 16.9196C29.1144 17.3251 29.1144 17.9826 29.52 18.3882L31.597 20.4651C32.0024 20.8707 32.6601 20.8707 33.0656 20.4651C33.4711 20.0596 33.4711 19.4021 33.0656 18.9965Z" fill="#4FFFCA"/>
<path d="M33.0655 6.53507C32.66 6.12959 32.0025 6.12959 31.5969 6.53507L29.52 8.61199C29.1144 9.01755 29.1144 9.67503 29.52 10.0806C29.9255 10.4861 30.5831 10.4861 30.9886 10.0806L33.0655 8.00366C33.4711 7.59811 33.4711 6.94062 33.0655 6.53507Z" fill="#4FFFCA"/>
<path d="M24.0231 0C22.4632 0 21.1677 1.15235 20.9425 2.65043L19.9952 3.59772C18.3465 5.24645 15.9184 6.23077 13.5 6.23077H7.26923C5.91542 6.23077 4.76114 7.09899 4.33246 8.30769H4.15385C1.86342 8.30769 0 10.1711 0 12.4615C0 14.752 1.86342 16.6154 4.15385 16.6154H4.33246C4.64587 17.499 5.34711 18.2003 6.23077 18.5137V23.8846C6.23077 25.6024 7.6284 27 9.34622 27C11.064 27 12.4615 25.6024 12.4615 23.8846V18.6923H13.5C15.9184 18.6923 18.3464 19.6766 19.9952 21.3254L20.9425 22.2726C21.1677 23.7707 22.4633 24.9231 24.0231 24.9231C25.7409 24.9231 27.1385 23.5255 27.1385 21.8077V3.11538C27.1385 1.39756 25.7409 0 24.0231 0ZM4.15385 14.5385C3.00863 14.5385 2.07692 13.6068 2.07692 12.4615C2.07692 11.3163 3.00863 10.3846 4.15385 10.3846V14.5385ZM10.3846 23.8846C10.3846 24.4572 9.91876 24.9231 9.34615 24.9231C8.77355 24.9231 8.30769 24.4572 8.30769 23.8846V18.6923H10.3846V23.8846ZM12.4615 16.6154H7.26923C6.69662 16.6154 6.23077 16.1495 6.23077 15.5769V9.34615C6.23077 8.77355 6.69662 8.30769 7.26923 8.30769H12.4615V16.6154ZM20.9077 19.3393C19.1533 17.821 16.8977 16.8776 14.5315 16.6625L14.5316 8.26055C16.8977 8.04552 19.1533 7.10211 20.9077 5.58367V19.3393ZM25.0615 21.8077C25.0615 22.3803 24.5957 22.8462 24.0231 22.8462H24.0231C23.4505 22.8462 22.9846 22.3803 22.9846 21.8077V3.11538C22.9846 2.54278 23.4505 2.07692 24.0231 2.07692C24.5957 2.07692 25.0615 2.54278 25.0615 3.11538V21.8077Z" fill="#4FFFCA"/>
</svg>
