<svg width="36" height="36" viewBox="0 0 36 36" fill="none" xmlns="http://www.w3.org/2000/svg">
<path d="M36 18C36 8.05161 27.9495 0 18 0C8.05161 0 0 8.05051 0 18C0 27.8602 7.98322 36 18 36C27.9756 36 36 27.9055 36 18ZM18 2.10938C26.7621 2.10938 33.8906 9.23785 33.8906 18C33.8906 21.2053 32.9373 24.2861 31.1693 26.8956C24.0699 19.259 11.943 19.2453 4.83069 26.8956C3.06271 24.2861 2.10938 21.2053 2.10938 18C2.10938 9.23785 9.23785 2.10938 18 2.10938ZM6.1463 28.582C12.4585 21.5019 23.5432 21.5035 29.8534 28.582C23.5201 35.6677 12.4824 35.6699 6.1463 28.582Z" fill="#4FFFCA"/>
<path d="M18 19.0547C21.4893 19.0547 24.3281 16.2158 24.3281 12.7266V10.6172C24.3281 7.12793 21.4893 4.28906 18 4.28906C14.5107 4.28906 11.6719 7.12793 11.6719 10.6172V12.7266C11.6719 16.2158 14.5107 19.0547 18 19.0547ZM13.7812 10.6172C13.7812 8.29083 15.6736 6.39844 18 6.39844C20.3264 6.39844 22.2188 8.29083 22.2188 10.6172V12.7266C22.2188 15.0529 20.3264 16.9453 18 16.9453C15.6736 16.9453 13.7812 15.0529 13.7812 12.7266V10.6172Z" fill="#4FFFCA"/>
</svg>
