<svg width="36" height="32" viewBox="0 0 36 32" fill="none" xmlns="http://www.w3.org/2000/svg">
<path d="M34.9519 4.26694C34.9497 4.26694 34.9475 4.26667 34.9453 4.26667H25.3828V3.2C25.3828 1.43556 23.9634 0 22.2188 0H13.7812C12.0366 0 10.6172 1.43556 10.6172 3.2V4.26667H1.05469C0.467468 4.26667 0 4.75333 0 5.33333V28.8C0 30.5644 1.41943 32 3.16406 32H32.8359C34.5806 32 36 30.5644 36 28.8V5.35583C36 5.35444 36 5.35306 36 5.35167C35.9596 4.65111 35.5336 4.27083 34.9519 4.26694ZM12.7266 3.2C12.7266 2.61194 13.1998 2.13333 13.7812 2.13333H22.2188C22.8002 2.13333 23.2734 2.61194 23.2734 3.2V4.26667H12.7266V3.2ZM33.4819 6.4L30.2066 16.3372C30.063 16.7736 29.6609 17.0667 29.2063 17.0667H23.2734V16C23.2734 15.4108 22.8013 14.9333 22.2188 14.9333H13.7812C13.1987 14.9333 12.7266 15.4108 12.7266 16V17.0667H6.79367C6.33911 17.0667 5.93701 16.7736 5.79337 16.3372L2.51807 6.4H33.4819ZM21.1641 17.0667V19.2H14.8359V17.0667H21.1641ZM33.8906 28.8C33.8906 29.3881 33.4174 29.8667 32.8359 29.8667H3.16406C2.58261 29.8667 2.10938 29.3881 2.10938 28.8V11.9064L3.79221 17.0119C4.22342 18.3208 5.42972 19.2 6.79367 19.2H12.7266V20.2667C12.7266 20.8558 13.1987 21.3333 13.7812 21.3333H22.2188C22.8013 21.3333 23.2734 20.8558 23.2734 20.2667V19.2H29.2063C30.5703 19.2 31.7766 18.3208 32.2078 17.0119L33.8906 11.9064V28.8Z" fill="#C4C4C4"/>
</svg>
