<svg width="36" height="36" viewBox="0 0 36 36" fill="none" xmlns="http://www.w3.org/2000/svg">
<path d="M31.7812 25.5592V22.2188C31.7812 20.4741 30.3619 19.0547 28.6172 19.0547H25.3828V15.8906C25.3828 14.146 23.9634 12.7266 22.2188 12.7266H19.0547V10.4408C21.4588 9.95084 23.2734 7.82016 23.2734 5.27344C23.2734 2.36566 20.9078 0 18 0C15.0922 0 12.7266 2.36566 12.7266 5.27344C12.7266 7.82009 14.5412 9.95077 16.9453 10.4408V12.7266H13.7812C12.0366 12.7266 10.6172 14.146 10.6172 15.8906V19.0547H7.38281C5.63815 19.0547 4.21875 20.4741 4.21875 22.2188V25.5592C1.81462 26.0492 0 28.1799 0 30.7266C0 33.6343 2.36566 36 5.27344 36C8.18121 36 10.5469 33.6343 10.5469 30.7266C10.5469 28.1799 8.73225 26.0492 6.32812 25.5592V22.2188C6.32812 21.6372 6.80126 21.1641 7.38281 21.1641C7.69282 21.1641 16.6297 21.1641 16.9453 21.1641V25.5592C14.5412 26.0492 12.7266 28.1798 12.7266 30.7266C12.7266 33.6343 15.0922 36 18 36C20.9078 36 23.2734 33.6343 23.2734 30.7266C23.2734 28.1799 21.4588 26.0492 19.0547 25.5592V21.1641C19.3705 21.1641 28.3079 21.1641 28.6172 21.1641C29.1987 21.1641 29.6719 21.6372 29.6719 22.2188V25.5592C27.2677 26.0492 25.4531 28.1798 25.4531 30.7266C25.4531 33.6343 27.8188 36 30.7266 36C33.6343 36 36 33.6343 36 30.7266C36 28.1799 34.1854 26.0492 31.7812 25.5592ZM8.4375 30.7266C8.4375 32.4712 7.0181 33.8906 5.27344 33.8906C3.52877 33.8906 2.10938 32.4712 2.10938 30.7266C2.10938 28.9819 3.52877 27.5625 5.27344 27.5625C7.0181 27.5625 8.4375 28.9819 8.4375 30.7266ZM14.8359 5.27344C14.8359 3.52877 16.2553 2.10938 18 2.10938C19.7447 2.10938 21.1641 3.52877 21.1641 5.27344C21.1641 7.0181 19.7447 8.4375 18 8.4375C16.2553 8.4375 14.8359 7.0181 14.8359 5.27344ZM21.1641 30.7266C21.1641 32.4712 19.7447 33.8906 18 33.8906C16.2553 33.8906 14.8359 32.4712 14.8359 30.7266C14.8359 28.9819 16.2553 27.5625 18 27.5625C19.7447 27.5625 21.1641 28.9819 21.1641 30.7266ZM23.2734 19.0547H12.7266V15.8906C12.7266 15.3091 13.1997 14.8359 13.7812 14.8359H22.2188C22.8003 14.8359 23.2734 15.3091 23.2734 15.8906V19.0547ZM30.7266 33.8906C28.9819 33.8906 27.5625 32.4712 27.5625 30.7266C27.5625 28.9819 28.9819 27.5625 30.7266 27.5625C32.4712 27.5625 33.8906 28.9819 33.8906 30.7266C33.8906 32.4712 32.4712 33.8906 30.7266 33.8906Z" fill="#4FFFCA"/>
</svg>
