<svg width="493" height="561" viewBox="0 0 493 561" fill="none" xmlns="http://www.w3.org/2000/svg">
<path opacity="0.15" d="M177.084 335.733L94.164 383.638C92.9446 384.335 91.2026 384.683 89.6348 384.683C88.067 384.683 86.325 384.335 85.1056 383.638L2.18594 335.733C0.966533 335.036 0.26973 333.991 0.26973 333.12C0.26973 332.423 0.618131 331.726 1.31493 331.203C1.48914 331.029 1.83754 330.681 2.18594 330.507L85.1056 282.601C87.5444 281.208 91.7252 281.208 94.164 282.601L177.084 330.507C179.522 331.9 179.522 334.339 177.084 335.733Z" fill="#6B99D1"/>
<path opacity="0.15" d="M385.814 335.733L302.894 383.638C301.675 384.335 299.933 384.683 298.365 384.683C296.797 384.683 295.055 384.335 293.836 383.638L210.916 335.733C209.697 335.036 209 333.991 209 333.12C209 332.423 209.348 331.726 210.045 331.203C210.219 331.029 210.568 330.681 210.916 330.507L293.836 282.601C296.275 281.208 300.455 281.208 302.894 282.601L385.814 330.507C388.253 331.9 388.253 334.339 385.814 335.733Z" fill="#6B99D1"/>
<path opacity="0.15" d="M385.814 451.176L302.894 499.082C301.675 499.779 299.933 500.127 298.365 500.127C296.797 500.127 295.055 499.779 293.836 499.082L210.916 451.176C209.697 450.48 209 449.434 209 448.563C209 447.867 209.348 447.17 210.045 446.647C210.219 446.473 210.568 446.125 210.916 445.95L293.836 398.045C296.275 396.652 300.455 396.652 302.894 398.045L385.814 445.95C388.253 447.344 388.253 449.783 385.814 451.176Z" fill="#6B99D1"/>
<path opacity="0.15" d="M177.814 450.176L94.8943 498.082C93.6749 498.779 91.9329 499.127 90.3651 499.127C88.7973 499.127 87.0553 498.779 85.8358 498.082L2.91621 450.176C1.6968 449.48 1 448.434 1 447.563C1 446.867 1.3484 446.17 2.04521 445.647C2.21941 445.473 2.56781 445.125 2.91621 444.95L85.8358 397.045C88.2747 395.652 92.4555 395.652 94.8943 397.045L177.814 444.95C180.253 446.344 180.253 448.783 177.814 450.176Z" fill="#4BEDD3"/>
<path opacity="0.15" d="M281.814 393.176L198.894 441.082C197.675 441.779 195.933 442.127 194.365 442.127C192.797 442.127 191.055 441.779 189.836 441.082L106.916 393.176C105.697 392.48 105 391.434 105 390.563C105 389.867 105.348 389.17 106.045 388.647C106.219 388.473 106.568 388.125 106.916 387.95L189.836 340.045C192.275 338.652 196.455 338.652 198.894 340.045L281.814 387.95C284.253 389.344 284.253 391.783 281.814 393.176Z" fill="#6B99D1"/>
<path opacity="0.15" d="M281.814 511.176L198.894 559.082C197.675 559.779 195.933 560.127 194.365 560.127C192.797 560.127 191.055 559.779 189.836 559.082L106.916 511.176C105.697 510.48 105 509.434 105 508.563C105 507.867 105.348 507.17 106.045 506.647C106.219 506.473 106.568 506.125 106.916 505.95L189.836 458.045C192.275 456.652 196.455 456.652 198.894 458.045L281.814 505.95C284.253 507.344 284.253 509.783 281.814 511.176Z" fill="#6B99D1"/>
<path opacity="0.15" d="M490.814 279.176L407.894 327.082C406.675 327.779 404.933 328.127 403.365 328.127C401.797 328.127 400.055 327.779 398.836 327.082L315.916 279.176C314.697 278.48 314 277.434 314 276.563C314 275.867 314.348 275.17 315.045 274.647C315.219 274.473 315.568 274.125 315.916 273.95L398.836 226.045C401.275 224.652 405.455 224.652 407.894 226.045L490.814 273.95C493.253 275.344 493.253 277.783 490.814 279.176Z" fill="#6B99D1"/>
<path opacity="0.15" d="M490.544 509.176L407.625 557.082C406.405 557.779 404.663 558.127 403.095 558.127C401.528 558.127 399.786 557.779 398.566 557.082L315.646 509.176C314.427 508.48 313.73 507.434 313.73 506.563C313.73 505.867 314.079 505.17 314.775 504.647C314.95 504.473 315.298 504.125 315.646 503.95L398.566 456.045C401.005 454.652 405.186 454.652 407.625 456.045L490.544 503.95C492.983 505.344 492.983 507.783 490.544 509.176Z" fill="#4BEDD2"/>
<path opacity="0.15" d="M281.814 280.176L198.894 328.082C197.675 328.779 195.933 329.127 194.365 329.127C192.797 329.127 191.055 328.779 189.836 328.082L106.916 280.176C105.697 279.48 105 278.434 105 277.563C105 276.867 105.348 276.17 106.045 275.647C106.219 275.473 106.568 275.125 106.916 274.95L189.836 227.045C192.275 225.652 196.455 225.652 198.894 227.045L281.814 274.95C284.253 276.344 284.253 278.783 281.814 280.176Z" fill="#6B99D1"/>
<path opacity="0.15" d="M391.017 218.405L305.188 267.92C303.926 268.64 302.123 269 300.5 269C298.877 269 297.074 268.64 295.812 267.92L209.983 218.405C208.721 217.685 208 216.604 208 215.704C208 214.984 208.361 214.264 209.082 213.724C209.262 213.544 209.623 213.183 209.983 213.003L295.812 163.489C298.336 162.048 302.664 162.048 305.188 163.489L391.017 213.003C393.541 214.444 393.541 216.965 391.017 218.405Z" fill="#6B99D1"/>
<path d="M391.017 208.322L305.188 257.837C303.926 258.557 302.123 258.917 300.5 258.917C298.877 258.917 297.074 258.557 295.812 257.837L209.983 208.322C208.721 207.602 208 206.521 208 205.621C208 204.541 208.721 203.641 209.983 202.92L223.687 194.998L295.992 153.406C298.517 151.965 302.844 151.965 305.368 153.406L391.197 202.92C393.541 204.361 393.541 206.882 391.017 208.322Z" fill="#DCEEFF"/>
<path d="M300.5 239.291V258.737C298.877 258.737 297.074 258.377 295.812 257.657L209.983 208.322C208.721 207.602 208 206.521 208 205.621V188.696C208 187.976 208.361 187.256 209.082 186.716L223.687 195.178L300.5 239.291Z" fill="#A5CBFA"/>
<path d="M300.5 239.291V258.737C302.123 258.737 303.926 258.377 305.188 257.657L391.017 208.142C392.279 207.422 393 206.341 393 205.441V188.516C393 187.796 392.639 187.076 391.918 186.536L377.313 194.998L300.5 239.291Z" fill="#C8E2FF"/>
<path d="M391.017 191.397L305.188 240.912C303.926 241.632 302.123 241.992 300.5 241.992C298.877 241.992 297.074 241.632 295.812 240.912L209.983 191.397C208.721 190.677 208 189.776 208 188.696C208 187.976 208.361 187.256 209.082 186.716C209.262 186.535 209.623 186.175 209.983 185.995L295.812 136.481C298.336 135.04 302.664 135.04 305.188 136.481L391.017 185.995C393.541 187.436 393.541 189.957 391.017 191.397Z" fill="#DCEEFF"/>
<path d="M300.5 137.201C301.942 137.201 303.385 137.561 304.287 138.101L390.115 187.616C390.836 187.976 391.197 188.516 391.197 188.696C391.197 188.876 391.017 189.416 390.115 189.776L304.287 239.291C303.385 239.831 301.942 240.191 300.5 240.191C299.058 240.191 297.615 239.831 296.713 239.291L210.885 189.776C210.164 189.416 209.803 189.056 209.803 188.696C209.803 188.516 209.983 188.156 210.344 187.976C210.524 187.796 210.705 187.616 210.885 187.616L296.713 138.101C297.615 137.561 299.058 137.201 300.5 137.201ZM300.5 135.4C298.877 135.4 297.074 135.76 295.812 136.481L209.983 185.995C209.623 186.175 209.262 186.355 209.082 186.716C208.361 187.256 208 187.976 208 188.696C208 189.776 208.721 190.677 209.983 191.397L295.812 240.912C297.074 241.632 298.877 241.992 300.5 241.992C302.123 241.992 303.926 241.632 305.188 240.912L391.017 191.397C393.541 189.957 393.541 187.436 391.017 185.995L305.188 136.481C303.926 135.76 302.123 135.4 300.5 135.4Z" fill="white"/>
<path d="M297.435 148.184L230.359 186.896C228.556 187.976 228.556 189.416 230.359 190.497L297.435 229.208C299.238 230.289 301.942 230.289 303.746 229.208L370.822 190.497C372.625 189.416 372.625 187.976 370.822 186.896L303.565 148.184C301.942 147.284 299.057 147.284 297.435 148.184Z" fill="#344593"/>
<path d="M370.641 186.896L303.565 148.184C302.664 147.644 301.582 147.464 300.5 147.464V150.705L370.1 190.857L370.641 190.497C372.264 189.416 372.264 187.976 370.641 186.896Z" fill="#1E3779"/>
<path d="M300.5 147.464C299.418 147.464 298.156 147.644 297.435 148.184L230.359 186.896C228.556 187.976 228.556 189.416 230.359 190.497L230.9 190.857L300.5 150.705V147.464Z" fill="#031F60"/>
<path d="M263.897 129.639L315.105 99.9298L337.103 112.714L285.895 142.242L263.897 129.639Z" fill="#ABFFEF"/>
<path d="M263.897 188.156C263.897 193.198 267.323 199.139 271.65 201.66L277.961 205.261C282.288 207.782 289.321 207.782 293.648 205.261L329.17 184.735C333.497 182.214 336.923 176.273 336.923 171.231V112.714L285.895 142.242L263.897 129.639V188.156Z" fill="#6CFFE6"/>
<path d="M271.65 201.66L274.896 203.461L278.141 205.261C280.305 206.521 283.19 207.062 285.895 207.062V142.062L263.897 129.639V188.156C263.897 193.017 267.323 199.139 271.65 201.66Z" fill="#47EACE"/>
<path d="M311.86 148.904C316.728 146.023 320.695 148.364 320.695 153.946C320.695 159.527 316.728 166.369 311.86 169.25C306.991 172.131 303.024 169.791 303.024 164.209C303.024 158.627 306.991 151.785 311.86 148.904Z" fill="#344593"/>
<path d="M308.975 177.353C308.975 179.694 310.237 180.954 311.86 180.054C313.482 179.153 314.745 176.453 314.745 174.112V150.885L308.975 154.126V177.353Z" fill="#344593"/>
<path d="M280.666 126.578C277.781 128.198 277.781 130.899 280.666 132.519C283.551 134.14 288.239 134.14 290.943 132.519C293.828 130.899 293.828 128.198 290.943 126.578C288.239 124.957 283.551 124.957 280.666 126.578Z" fill="#344593"/>
<path d="M309.876 109.653C306.991 111.273 306.991 113.974 309.876 115.594C312.761 117.215 317.449 117.215 320.154 115.594C323.039 113.974 323.039 111.273 320.154 109.653C317.449 108.032 312.761 108.032 309.876 109.653Z" fill="#344593"/>
<path d="M278.502 100.65V129.639H293.107V101.01C293.107 100.29 293.468 99.7497 294.009 99.3896L306.45 92.1875C306.991 91.8274 307.893 92.1875 307.893 92.9077V112.534H322.498V83.1848C322.498 73.822 315.827 69.8608 307.712 74.5422L286.436 86.7859C282.108 89.4867 278.502 95.6085 278.502 100.65Z" fill="#344593"/>
<path opacity="0.3" d="M305.188 38.5315C303.746 39.4317 302.303 39.7918 300.5 39.6118V229.928C301.582 229.928 302.664 229.748 303.565 229.208L370.1 190.857C371.363 190.137 371.904 189.596 371.904 188.696V0L305.188 38.5315Z" fill="url(#paint0_linear)"/>
<path opacity="0.5" d="M300.5 39.6118C300.139 39.6118 299.779 39.6118 299.238 39.6118C298.877 39.6118 298.517 39.4317 298.156 39.4317C297.976 39.4317 297.615 39.2517 297.435 39.2517C297.254 39.2517 297.074 39.2517 297.074 39.0716C296.713 38.8916 296.353 38.7115 295.992 38.5315L229.096 0V188.696C229.096 189.416 229.637 189.957 230.359 190.497L297.435 229.208C298.517 229.748 299.418 229.928 300.5 229.928V39.6118Z" fill="url(#paint1_linear)"/>
<path d="M446.891 324.414C447.362 328.41 452.064 345.332 451.123 351.207C450.183 357.083 433.961 366.719 433.961 366.719L431.845 356.848L440.779 348.152L438.428 331.7L446.891 324.414Z" fill="#FFA8A7"/>
<path d="M434.431 305.142C436.782 304.202 441.014 303.967 443.365 307.962C445.716 311.958 448.302 325.354 448.302 327.705C448.302 327.705 445.011 332.405 440.074 331.465L434.431 305.142Z" fill="#E4F2F2"/>
<path d="M436.782 486.113C436.782 486.113 437.017 487.758 437.487 490.108C437.958 491.754 437.958 494.104 436.077 494.574C434.196 495.279 431.845 495.044 430.669 493.399C429.024 491.283 428.318 488.698 426.203 486.818C424.087 484.938 421.5 482.587 420.56 479.532C419.855 476.712 420.325 475.067 422.206 474.832C424.557 474.597 428.318 476.477 430.434 477.887C431.61 478.827 436.782 486.113 436.782 486.113Z" fill="#2D2979"/>
<path d="M414.683 494.104C414.683 494.104 414.918 496.219 414.918 498.099C415.153 499.979 415.623 502.565 415.153 503.975C414.683 505.385 411.626 506.325 408.335 506.325C406.219 506.325 401.752 507.97 400.341 509.381C398.225 511.261 393.288 511.966 390.232 511.026C387.411 510.086 384.119 508.675 383.649 507.5C383.179 506.09 384.59 505.385 391.878 502.095C398.931 498.804 404.338 496.454 407.159 492.694L414.683 494.104Z" fill="#2D2979"/>
<path d="M438.428 448.273C437.252 438.872 435.371 433.467 435.371 433.467C435.371 433.467 436.312 420.54 436.782 408.319C437.252 394.452 442.189 382.231 438.428 371.185L395.639 380.586C395.639 380.586 398.225 435.817 398.696 442.398C398.931 445.923 399.166 449.684 400.576 457.91C402.457 468.721 405.749 494.104 405.749 494.104C410.216 496.689 414.683 494.104 414.683 494.104C414.683 494.104 415.858 463.08 415.623 455.324C415.153 445.923 414.918 446.628 414.918 446.628L416.328 423.126L417.269 411.374C417.269 411.374 418.444 419.835 419.15 427.591C419.855 434.172 421.501 440.283 423.146 452.739C424.792 463.55 428.789 485.643 428.789 485.643C433.256 488.228 436.547 485.878 436.547 485.878C436.547 485.878 439.603 457.44 438.428 448.273Z" fill="#C4D9FF"/>
<path d="M417.269 411.609C417.269 411.609 418.444 420.07 419.15 427.826C419.385 431.117 420.09 434.172 420.795 437.932C420.795 437.932 420.09 423.596 420.325 417.015C420.56 410.199 421.265 402.913 421.265 402.913C430.199 399.153 432.08 393.747 432.08 393.747C425.497 399.388 418.444 401.268 418.444 401.268L417.269 411.609Z" fill="#9EBCE8"/>
<path d="M432.08 305.377C428.789 305.612 426.438 306.317 425.967 305.377C425.732 304.672 425.262 300.206 425.262 300.206C425.732 299.266 425.967 298.326 425.967 298.326C429.964 295.741 433.021 291.51 433.491 286.34C434.431 277.644 428.083 269.653 419.15 268.713C410.921 267.773 404.808 273.648 403.163 281.639C402.222 285.635 401.047 293.861 403.398 300.441C404.808 303.967 405.749 305.612 407.63 306.317C408.335 306.552 411.391 306.317 412.567 306.317C412.567 306.317 413.037 308.667 413.272 310.312C413.507 311.958 413.507 312.663 410.451 314.543C407.394 316.423 415.153 320.419 420.325 319.949C425.497 319.479 431.14 316.423 432.785 313.133C434.666 309.607 434.431 305.377 432.08 305.377Z" fill="#FFA8A7"/>
<path d="M410.451 314.778L410.216 315.013L414.683 316.658L427.848 314.543L430.905 306.552C430.905 306.552 430.905 306.082 430.669 305.612C428.083 305.847 426.438 306.317 425.967 305.612C425.732 305.142 425.497 302.322 425.262 301.147C422.911 301.617 420.09 302.087 419.385 302.087C418.209 302.087 413.977 295.976 413.977 295.976C413.977 295.976 413.507 301.147 412.802 302.557C412.332 303.967 408.335 306.317 406.924 306.082C407.159 306.317 407.394 306.317 407.63 306.317C408.335 306.552 411.391 306.317 412.567 306.317C412.567 306.317 413.037 308.667 413.272 310.313C413.742 311.958 413.507 312.663 410.451 314.778Z" fill="#F28F8F"/>
<path d="M433.726 276.469C433.256 274.588 432.08 272.003 421.736 269.183C411.861 266.363 404.103 265.187 402.222 266.598C400.341 267.773 399.871 277.644 409.04 282.109C409.51 282.814 409.746 283.755 409.746 284.695C409.746 286.105 409.51 287.28 409.746 288.925C409.981 291.275 412.567 291.51 412.567 291.51C412.567 291.51 412.567 290.1 412.567 287.28C413.507 285.4 416.799 284.93 417.974 287.515C419.15 290.1 418.444 292.451 417.739 294.096C416.563 296.211 414.918 296.211 414.212 295.506C414.212 297.856 414.683 301.382 417.269 304.202C420.795 305.142 424.087 303.732 425.732 302.322C426.203 301.382 427.378 299.501 428.789 296.916C430.67 293.861 432.785 291.98 433.726 287.045C434.666 283.049 434.431 280.229 433.726 276.469Z" fill="#3A2C6D"/>
<path d="M427.378 305.847C428.318 308.197 425.967 310.783 419.855 312.663C413.742 314.543 413.272 312.193 413.272 312.193C413.272 312.193 404.338 316.188 401.282 318.303C397.52 320.889 395.874 328.175 395.404 340.866C394.934 355.438 394.699 376.825 395.169 380.586C395.169 380.586 401.987 387.401 410.686 386.696C419.385 385.991 434.196 378.235 437.723 372.125C437.723 359.433 436.077 357.318 438.193 350.032C442.895 333.345 445.481 326.529 443.13 315.248C441.249 306.082 438.663 304.907 434.901 304.907C431.845 305.377 427.378 305.847 427.378 305.847Z" fill="#F5FBFB"/>
<path d="M425.967 304.672C424.792 306.317 420.325 309.842 413.507 309.842C412.096 309.607 411.391 312.193 410.686 313.368C410.686 313.368 413.742 315.953 420.56 314.073C427.378 312.428 429.729 307.257 429.259 305.377C429.259 305.612 426.908 303.262 425.967 304.672Z" fill="#E4F2F2"/>
<path d="M381.768 355.203C389.056 357.083 390.702 352.382 391.643 348.622C393.994 339.456 395.169 331.23 396.815 326.059C398.931 319.949 401.047 319.009 403.868 317.833C407.394 316.423 410.451 319.479 409.275 327.235C407.865 336.401 406.219 342.746 402.692 353.793C401.752 356.613 399.871 361.549 396.815 364.134C393.053 367.189 387.411 366.954 378.947 364.839C375.421 363.899 371.424 361.784 364.606 358.493C362.725 357.553 361.315 357.083 357.788 355.438C354.261 353.793 350.5 350.972 348.854 348.387C346.973 345.802 346.738 344.392 347.208 343.921C347.679 343.216 348.619 343.216 349.559 344.392C350.5 345.567 351.91 347.447 354.732 349.092C354.732 349.092 352.381 346.742 351.205 345.332C350.03 343.921 349.089 342.041 348.384 340.866C347.679 339.221 349.089 337.106 350.03 338.281C350.97 339.456 351.44 340.631 353.321 342.746C354.967 344.862 356.613 346.037 356.613 346.037C356.613 346.037 354.732 343.451 353.556 341.101C352.381 338.751 352.381 337.341 352.381 336.636C352.381 335.931 353.556 334.755 354.732 336.401C355.672 337.811 356.377 339.926 358.493 342.276C360.139 343.921 361.55 344.862 361.55 344.392C361.55 343.921 360.609 342.981 359.904 341.101C359.434 339.221 359.904 337.106 361.079 336.871C362.255 336.636 362.02 336.636 362.96 338.516C363.901 340.396 365.311 341.806 366.252 344.392C367.192 346.742 367.662 347.682 369.308 349.562C371.189 351.442 374.95 353.558 381.768 355.203Z" fill="#FFA8A7"/>
<path d="M406.689 316.893C401.987 316.188 398.461 318.304 396.345 325.589C394.229 332.875 392.818 338.751 392.818 338.751C392.818 338.751 395.169 342.746 400.812 344.157C406.454 345.567 408.57 342.746 408.57 342.746C408.57 342.746 410.216 335.226 411.156 329.82C412.096 324.884 412.567 317.599 406.689 316.893Z" fill="#E4F2F2"/>
<path d="M89.4194 430.476C89.4194 430.476 88.7431 431.603 84.9103 430.025C81.0774 428.448 80.1756 426.645 80.1756 426.645C80.1756 426.645 81.0774 418.981 83.332 420.784C85.5866 422.813 89.4194 430.476 89.4194 430.476Z" fill="#291D51"/>
<path d="M79.9501 403.88C79.9501 407.937 80.1756 410.867 78.5974 413.121C77.0192 415.15 77.0192 416.727 77.0192 416.727C77.0192 416.727 81.5283 417.404 83.7829 420.559C86.0375 423.714 86.0375 426.644 88.0667 427.321C90.0958 427.771 93.7032 425.292 93.7032 425.292C93.7032 425.292 91.4486 425.292 90.5467 422.362C89.6449 419.657 87.3903 413.572 87.3903 411.994C87.3903 410.417 87.3903 404.331 87.3903 404.331L79.9501 403.88Z" fill="#FFA8A7"/>
<path d="M79.7247 414.023C81.7538 414.248 84.6848 416.277 85.5866 418.531C86.4885 420.784 88.2921 423.94 89.4194 424.616C90.7722 425.292 93.0268 424.391 94.8305 424.165C96.8596 424.165 98.2124 425.067 98.2124 426.419C98.2124 426.419 92.125 429.349 90.3213 430.251C88.5176 431.152 86.9394 431.152 85.5866 427.321C84.2339 423.489 83.5575 421.235 82.4302 423.94C81.3029 426.645 80.852 432.505 80.852 432.505C80.852 432.505 79.2738 433.181 78.5974 431.603C78.5974 431.603 78.5974 428.898 78.3719 426.419C78.1465 424.165 75.8919 421.01 76.1173 418.305C76.1173 415.6 77.6955 413.797 79.7247 414.023Z" fill="#2D2979"/>
<path d="M119.18 445.802C119.18 445.802 118.504 447.155 114.445 445.352C110.613 443.774 109.485 441.745 109.485 441.745C109.485 441.745 110.613 433.857 112.867 435.885C115.347 437.914 119.18 445.802 119.18 445.802Z" fill="#291D51"/>
<path d="M109.26 418.305C109.26 422.362 109.485 425.517 107.907 427.771C106.329 430.025 106.103 431.378 106.103 431.378C106.103 431.378 110.838 432.054 113.093 435.209C115.347 438.365 115.347 441.52 117.602 442.196C119.856 442.647 123.464 440.168 123.464 440.168C123.464 440.168 121.209 440.168 120.307 437.238C119.406 434.308 117.151 428.222 116.926 426.419C116.926 424.841 116.475 418.305 116.475 418.305H109.26Z" fill="#FFA8A7"/>
<path d="M109.26 428.898C111.289 429.124 114.445 431.378 115.347 433.632C116.475 435.885 118.053 439.266 119.406 439.942C120.758 440.619 123.013 439.717 125.042 439.492C127.071 439.492 128.424 440.393 128.649 441.746C128.649 441.746 122.337 444.676 120.307 445.577C118.504 446.479 116.7 446.479 115.347 442.647C113.769 438.59 113.318 436.562 112.191 439.041C111.064 441.746 110.613 447.831 110.613 447.831C110.613 447.831 109.034 448.507 108.133 446.93C108.133 446.93 108.133 443.999 107.907 441.746C107.456 439.266 105.427 436.336 105.427 433.406C105.427 430.476 107.005 428.673 109.26 428.898Z" fill="#2D2979"/>
<path d="M77.921 240.699C74.3136 241.826 72.2845 245.658 69.1281 254.222C65.9716 262.787 62.5897 275.183 63.0407 278.564C63.9425 286.678 69.1281 293.44 77.6955 299.075L81.5283 292.088C81.5283 292.088 73.1863 285.326 72.2845 277.212C71.8336 272.704 77.6955 257.378 77.6955 256.927C77.6955 256.476 77.921 240.699 77.921 240.699Z" fill="#FFA8A7"/>
<path d="M75.2155 379.764C75.2155 372.326 76.7937 367.367 76.7937 367.367C76.7937 367.367 73.6373 352.266 72.51 340.546C70.9317 323.417 67.7753 319.134 70.4808 308.992C72.9609 299.525 77.0192 292.989 79.7247 286.453L107.682 288.707C107.682 288.707 110.162 296.595 113.318 312.598C116.475 328.375 117.827 347.082 117.602 372.1C117.602 378.637 117.376 384.271 117.151 400.274C116.926 411.093 116.7 425.518 116.7 425.518C112.416 427.997 108.809 425.067 108.809 425.067C108.809 425.067 102.271 393.062 101.143 385.849C100.016 378.186 102.045 373.678 102.045 373.678C102.045 373.678 100.016 363.761 98.4378 355.872C96.6341 346.181 91.8995 325.445 91.8995 325.445C91.8995 325.445 91.674 357.225 91.2231 363.536C90.7722 369.847 90.9977 375.031 89.8704 383.595C88.5176 394.414 87.1648 411.769 87.1648 411.769C82.6556 412.896 79.4992 410.417 79.4992 410.417C79.4992 410.417 75.2155 389.005 75.2155 379.764Z" fill="#7FA8E6"/>
<path d="M91.8995 325.67C91.8995 325.67 91.674 357.45 91.2231 363.761C91.2231 364.663 91.2231 365.339 90.9977 366.015C90.9977 366.24 90.9977 366.24 90.9977 366.466L87.8412 329.277C78.8228 326.572 75.8919 320.712 75.8919 320.712C81.9793 326.797 91.8995 325.67 91.8995 325.67Z" fill="#597BC6"/>
<path d="M79.4992 240.699C85.3612 240.248 86.0375 241.375 86.4885 239.121C86.7139 238.445 86.9394 233.036 86.9394 233.036C86.4885 232.585 85.3612 230.782 85.3612 230.782C81.5283 228.303 78.5974 224.246 78.1464 219.287C77.4701 211.173 83.5575 203.51 92.1249 202.608C100.016 201.707 105.878 207.342 107.456 215.005C108.358 218.836 109.26 226.5 106.78 232.585C105.427 236.191 104.3 238.445 101.143 238.445C100.467 238.445 99.3397 238.22 97.9869 237.994C97.7614 239.121 97.7614 240.924 97.7614 242.277C97.7614 243.854 97.536 244.531 100.467 246.334C103.398 248.137 95.9578 251.968 90.9976 251.518C86.0375 251.067 80.6265 248.137 79.0483 244.981C77.4701 241.601 76.7937 240.699 79.4992 240.699Z" fill="#FFA8A7"/>
<path d="M79.0483 245.207C77.4701 241.6 76.5682 240.699 79.4992 240.699C85.3612 240.248 86.0375 241.375 86.4884 239.121C86.7139 238.445 86.9394 233.036 86.9394 233.036C86.4885 232.585 85.3612 230.782 85.3612 230.782C83.1066 229.429 81.3029 227.626 80.1756 225.372C80.401 225.147 80.6265 225.147 80.6265 225.147L93.4777 231.683L95.7323 231.233L97.536 229.204C97.536 229.204 97.7614 232.81 98.4378 234.613C99.1142 236.191 102.947 238.22 102.947 238.22C102.271 238.445 101.594 238.67 100.918 238.67C100.241 238.67 99.1142 238.445 97.7614 238.22C97.536 239.347 97.536 241.15 97.536 242.502C97.536 244.08 97.3105 244.756 100.241 246.559C103.172 248.362 95.7323 252.194 90.7722 251.743C86.263 251.292 80.6265 248.362 79.0483 245.207Z" fill="#F28F8F"/>
<path d="M84.0084 231.458C80.1756 227.852 78.8228 224.471 78.3719 219.512C77.4701 211.173 83.5575 203.51 92.1249 202.608C97.536 201.932 102.045 204.411 104.751 208.694C104.751 208.694 104.074 209.821 103.398 210.722C103.398 210.722 104.074 212.751 102.947 214.103C102.045 215.005 101.82 216.582 102.045 217.935C102.271 219.287 102.496 221.09 102.271 222.668C102.045 224.922 100.016 225.823 100.016 225.823C100.016 225.823 99.7906 222.442 98.8887 220.639C97.9869 218.836 94.8305 218.386 93.7032 220.865C92.5759 223.344 93.0268 225.373 94.1541 227.626C95.2814 229.655 97.0851 229.655 97.9869 229.43C98.2124 230.331 97.9869 233.261 94.605 234.163C91.2231 235.064 88.0667 234.163 86.4884 233.261C85.1357 232.585 84.0084 231.458 84.0084 231.458Z" fill="#543354"/>
<path d="M100.918 204.862C102.947 204.411 108.809 205.764 108.809 211.849C108.809 216.808 105.427 220.414 101.143 221.541L100.918 204.862Z" fill="#543354"/>
<path d="M85.5866 240.473C84.4593 241.826 84.4593 243.629 88.5176 244.756C94.1541 246.108 97.7614 244.08 97.7614 244.08C97.7614 244.08 103.398 246.559 107.456 249.264C116.926 255.8 119.18 267.295 109.711 271.352C109.034 275.634 108.358 286.678 108.133 289.383C100.016 295.017 83.5575 293.214 79.7247 287.129C79.7247 285.1 79.2738 281.72 79.0483 281.043C75.4409 266.393 72.51 262.562 73.4118 251.743C74.0882 245.432 74.5391 242.502 77.921 240.699C79.9501 240.248 84.2339 240.473 85.5866 240.473Z" fill="#F5FBFB"/>
<path d="M99.7906 244.756C99.7906 244.756 98.8887 242.051 98.6633 241.375C98.4378 240.699 97.7614 240.699 97.7614 240.699C97.7614 240.699 96.6341 242.051 93.0268 241.6C89.4194 241.15 86.4885 239.572 86.7139 238.445V237.543C86.7139 237.543 85.8121 237.318 84.9102 238.22C84.2339 239.121 83.332 240.474 83.332 240.474C83.332 240.474 82.6556 243.404 87.6158 245.207C92.3504 247.01 96.6341 246.334 99.7906 244.756Z" fill="#E4F2F2"/>
<path d="M145.108 315.302C143.079 315.077 141.501 313.95 138.795 313.95C136.315 313.725 134.737 313.499 132.708 312.823C130.453 312.147 127.973 309.442 124.14 303.808C119.406 297.497 116.024 287.805 114.896 283.523C112.867 274.282 111.965 261.209 111.965 256.701C111.965 251.292 109.485 249.038 106.554 247.911C103.172 246.559 100.918 247.911 101.143 255.349C101.369 262.787 102.722 276.761 105.653 286.453C107.005 291.186 109.711 298.624 115.573 306.738C119.631 312.598 121.209 314.176 126.62 318.909C127.973 320.261 128.875 321.388 131.355 324.318C133.835 327.023 137.442 329.727 140.373 330.629C143.304 331.53 144.657 331.53 145.108 330.854C145.784 330.178 145.333 329.502 143.981 328.826C142.628 328.15 140.373 327.473 138.119 325.445C138.119 325.445 140.824 326.797 142.628 327.473C144.432 328.15 146.235 328.6 147.363 328.826C148.941 329.051 150.519 327.248 149.166 326.572C148.039 326.121 146.686 326.121 144.206 324.994C141.952 324.093 140.373 322.74 140.373 322.74C140.373 322.74 143.304 323.867 145.784 324.093C148.264 324.543 149.392 324.093 150.294 323.867C150.97 323.642 151.646 322.29 149.843 321.613C148.264 321.163 146.235 321.163 143.304 319.81C141.275 318.683 139.922 317.782 140.373 317.556C140.824 317.331 141.952 318.007 143.981 318.007C145.784 318.007 147.813 316.88 147.588 315.753C147.588 314.852 147.137 315.528 145.108 315.302Z" fill="#FFA8A7"/>
<defs>
<linearGradient id="paint0_linear" x1="377.342" y1="187.322" x2="311.901" y2="71.8872" gradientUnits="userSpaceOnUse">
<stop stop-color="#57F7E0"/>
<stop offset="1" stop-color="#57F7E0" stop-opacity="0"/>
</linearGradient>
<linearGradient id="paint1_linear" x1="223.748" y1="187.795" x2="276.236" y2="94.3122" gradientUnits="userSpaceOnUse">
<stop stop-color="#57F7E0"/>
<stop offset="1" stop-color="#57F7E0" stop-opacity="0"/>
</linearGradient>
</defs>
</svg>
