<svg width="26" height="23" viewBox="0 0 26 23" fill="none" xmlns="http://www.w3.org/2000/svg">
<path fill-rule="evenodd" clip-rule="evenodd" d="M2.66099 21.661C2.29462 21.2946 2.29096 20.7018 2.65278 20.3309L21.3309 1.18582C21.6991 0.80843 22.3047 0.804692 22.6775 1.17751C23.0439 1.54388 23.0475 2.13673 22.6857 2.50759L4.00759 21.6527C3.6394 22.0301 3.0338 22.0338 2.66099 21.661Z" fill="#C4C4C4"/>
<path d="M25.8348 10.78C25.6025 10.4623 20.0682 3 12.9999 3C5.93157 3 0.397009 10.4623 0.164989 10.7797C-0.0549962 11.0811 -0.0549962 11.49 0.164989 11.7914C0.397009 12.1092 5.93157 19.5714 12.9999 19.5714C20.0682 19.5714 25.6025 12.1091 25.8348 11.7917C26.055 11.4903 26.055 11.0811 25.8348 10.78ZM12.9999 17.8572C7.79331 17.8572 3.28388 12.9043 1.94899 11.2851C3.28215 9.66454 7.78214 4.71428 12.9999 4.71428C18.2062 4.71428 22.7153 9.66627 24.0508 11.2863C22.7176 12.9068 18.2176 17.8572 12.9999 17.8572Z" fill="#C4C4C4"/>
<path d="M12.9999 6.14282C10.1641 6.14282 7.85699 8.44997 7.85699 11.2857C7.85699 14.1214 10.1641 16.4286 12.9999 16.4286C15.8356 16.4286 18.1427 14.1214 18.1427 11.2857C18.1427 8.44997 15.8356 6.14282 12.9999 6.14282ZM12.9999 14.7143C11.1093 14.7143 9.57132 13.1762 9.57132 11.2857C9.57132 9.39516 11.1093 7.85715 12.9999 7.85715C14.8904 7.85715 16.4284 9.39516 16.4284 11.2857C16.4284 13.1762 14.8905 14.7143 12.9999 14.7143Z" fill="#C4C4C4"/>
</svg>
