<svg width="499" height="857" viewBox="0 0 499 857" fill="none" xmlns="http://www.w3.org/2000/svg">
<path d="M72.8146 323.456C71.2468 323.63 69.8532 323.107 67.7628 323.456C65.8466 323.804 64.6272 323.804 62.8851 323.63C61.1431 323.455 56.2655 319.797 52.4331 316.313C47.9039 312.307 43.723 306.035 42.5036 302.9C40.4132 297.5 37.2776 286.351 35.884 282.518C34.4904 278.686 32.5742 277.989 30.1354 277.641C27.3482 277.292 25.6062 278.337 26.9998 283.912C28.3934 289.486 31.529 300.287 35.5356 307.255C37.4518 310.565 40.9358 315.616 46.6845 321.017C50.6911 324.675 54.5235 326.765 59.4011 329.553C60.7947 330.249 61.4915 331.12 63.7562 332.862C66.0208 334.604 69.1564 335.824 71.5952 336.172C74.034 336.346 74.905 336.172 75.0792 335.65C75.4276 335.127 74.905 334.604 73.8598 334.43C72.8146 334.256 70.8984 334.082 68.808 332.862C68.808 332.862 71.0726 333.559 72.6404 333.733C74.034 333.908 75.4276 333.908 76.4728 333.908C77.6922 333.733 78.5632 332.166 77.518 331.817C76.647 331.295 75.776 331.295 73.6856 330.946C71.7694 330.598 70.3758 329.901 70.3758 329.901C70.3758 329.901 72.6404 330.249 74.7308 330.075C76.647 329.901 77.518 329.553 78.0406 329.204C78.5632 328.856 78.7374 327.811 77.3438 327.636C76.1244 327.462 74.3824 327.811 72.1178 327.288C70.3758 326.765 69.3306 326.243 69.5048 326.069C69.8532 325.894 70.7242 326.243 72.292 325.894C73.6856 325.546 74.905 324.327 74.7308 323.63C74.5566 322.759 74.3824 323.281 72.8146 323.456Z" fill="#FFA8A7"/>
<path d="M37.1033 284.435C36.2323 281.299 35.3613 279.905 33.6193 278.512C31.7031 277.292 30.1353 277.292 30.1353 277.292L26.1287 295.061L30.1353 304.119C36.4065 305.687 41.6325 299.067 41.6325 299.067C41.6325 299.067 37.9743 287.222 37.1033 284.435Z" fill="#E4F2F2"/>
<path d="M16.0251 416.827C16.0251 416.827 15.6767 418.395 15.1541 419.44C14.6315 420.66 14.1089 422.576 14.1089 423.795C14.1089 424.84 16.3735 426.582 17.9413 427.105C19.5091 427.628 21.7737 429.718 22.4705 430.937C23.5157 432.854 26.8256 434.596 29.0902 434.596C31.3548 434.596 33.9678 434.596 34.6646 433.725C35.3614 432.854 34.6646 431.808 30.4838 427.802C26.3029 423.795 23.5157 421.182 22.4705 417.872L16.0251 416.827Z" fill="#2D2979"/>
<path d="M4.70203 429.195C4.17943 430.415 3.30843 431.112 3.48263 434.596C3.83103 437.906 3.48263 439.299 3.13423 442.086C2.78582 444.874 4.17943 448.532 5.57304 450.274C6.96665 452.016 10.4507 452.364 11.6701 449.229C12.8895 446.093 13.0637 443.48 12.3669 440.344C11.4959 437.209 12.7153 434.77 12.0185 432.68C11.4959 430.589 10.7991 429.195 10.7991 429.195H4.70203Z" fill="#2D2979"/>
<path d="M4.70205 342.618C4.87626 346.102 5.92146 361.431 6.44406 369.445C6.79247 377.632 7.66347 387.039 7.66347 387.039C7.66347 387.039 5.57306 393.484 4.70205 400.278C3.83105 407.246 4.70205 429.021 4.70205 429.021C4.70205 429.021 7.31507 430.937 10.6249 429.021C10.6249 429.021 14.8057 409.685 16.5477 401.846C18.2897 394.007 20.0317 390.174 20.3801 385.297C20.7285 380.419 22.4705 352.721 22.4705 352.721H23.3416L25.6062 377.806C25.6062 377.806 22.6447 382.684 21.2511 387.561C20.0317 392.439 16.0251 416.305 16.0251 416.305C16.0251 416.305 18.8123 419.44 22.4705 417.35C22.4705 417.35 36.4066 385.297 37.8002 382.161C39.0196 379.026 37.2776 333.908 37.2776 333.908L4.70205 342.618Z" fill="#7FA8E6"/>
<path d="M22.4706 352.895C22.4706 352.895 28.7418 350.457 31.7032 348.366C31.7032 348.366 30.1354 350.805 26.1288 352.895C25.7804 356.205 25.7804 378.155 25.7804 378.155L23.5158 353.07L22.4706 352.895Z" fill="#597BC6"/>
<path d="M13.0637 274.505C13.0637 274.505 13.4121 282.17 13.2379 282.867C13.0637 283.563 9.75386 285.828 8.70865 286.525C7.66344 287.396 13.9347 293.493 17.0703 294.887C20.2059 296.28 29.787 292.622 29.9612 287.918C30.1354 283.215 28.2192 279.208 26.8255 279.034C25.4319 278.86 13.0637 274.505 13.0637 274.505Z" fill="#FFA8A7"/>
<path d="M13.0637 274.505L13.2379 279.905C13.2379 279.905 18.1155 284.609 22.1222 283.912C24.2126 283.563 24.0384 282.17 24.0384 282.17V277.641L13.0637 274.505Z" fill="#F28F8F"/>
<path d="M12.1927 284.086C12.1927 284.086 17.7672 292.448 25.6062 293.145C28.045 290.706 28.2192 282.17 24.9094 279.383C24.9094 279.383 28.045 276.944 30.1354 277.292C30.1354 277.292 33.4452 279.034 35.0131 283.389C36.4067 287.744 37.8003 292.97 37.8003 301.158C37.6261 309.345 37.8003 334.256 37.8003 334.256C37.8003 334.256 36.5809 339.482 29.6128 343.489C22.6448 347.321 17.4188 347.844 12.5411 346.624C8.53451 345.753 5.3989 344.36 4.00529 341.398C4.35369 335.824 6.96671 320.842 5.9215 313.7C5.0505 306.558 3.48269 301.158 3.13429 295.409C2.78588 289.661 3.83109 289.661 6.7925 287.57C10.6249 284.783 12.1927 284.086 12.1927 284.086Z" fill="#F5FBFB"/>
<path d="M25.6063 293.145C25.6063 293.145 26.3031 289.486 26.3031 287.396C26.1289 284.783 24.2126 281.299 24.2126 281.299V279.208C24.2126 279.208 25.7805 279.383 26.9999 281.125C28.3935 282.693 30.3097 286.177 29.7871 289.661C29.7871 289.486 28.7419 291.403 25.6063 293.145Z" fill="#E4F2F2"/>
<path d="M25.6062 293.145C26.1288 292.099 27.174 288.441 27.6966 287.744C28.7418 287.396 29.6128 289.486 29.6128 289.486C29.6128 289.486 29.6128 291.577 28.2192 292.796C27.174 294.016 25.6062 293.145 25.6062 293.145Z" fill="#F5FBFB"/>
<path d="M27.6966 287.744C27.174 288.267 26.1288 291.925 25.6062 293.145C25.6062 293.145 26.1288 292.099 26.8256 291.403C27.3482 290.706 28.045 289.312 29.787 289.486C29.787 289.486 28.7418 287.57 27.6966 287.744Z" fill="#C8DBDA"/>
<path d="M30.4839 263.182C29.6129 257.259 25.2578 252.73 19.1608 253.078C12.5412 253.427 7.66353 259.001 8.01194 265.621C8.18614 269.453 10.2765 272.763 13.238 274.679C13.238 274.679 13.7606 276.77 14.109 277.292C16.1994 279.905 22.819 281.473 24.7352 281.125C27.174 280.776 28.3934 279.731 29.6129 277.118C31.7033 272.415 31.0065 266.143 30.4839 263.182Z" fill="#FFA8A7"/>
<path d="M29.6128 258.304C26.9998 254.472 22.4706 252.207 17.4187 253.252C14.2831 253.949 11.6701 255.866 9.92809 258.304C7.31508 259.175 7.14088 261.092 7.48928 264.227C7.83768 267.537 8.53449 270.673 10.1023 273.46C10.4507 274.505 12.1927 273.982 13.0637 274.505C12.8895 274.157 9.75389 269.453 13.0637 268.408C13.5863 268.931 13.7605 269.976 13.7605 270.847C13.7605 270.847 15.3283 270.673 14.9799 268.931C14.8057 268.408 14.8057 267.885 14.6315 267.537C14.2831 266.143 14.6315 264.576 15.5025 263.356C16.1993 262.311 16.7219 261.092 16.3735 259.524C16.3735 259.524 20.3802 261.266 25.432 260.221C27.5224 259.872 29.0902 259.001 29.6128 258.304Z" fill="#543354"/>
<path d="M9.92816 258.304C9.92816 258.304 9.23136 256.04 12.1928 253.601C15.851 250.814 20.9028 251.511 26.1289 253.601C29.6129 254.995 34.8389 253.253 33.7937 257.259C32.2259 263.008 21.2512 263.53 16.3736 259.524C16.0252 259.524 12.5412 257.782 9.92816 258.304Z" fill="#543354"/>
<path d="M13.0638 274.505C13.0638 274.505 12.7154 275.202 11.6702 275.202C9.57975 275.376 6.96673 271.369 8.70874 268.582C9.75395 266.84 12.1928 267.537 13.0638 268.408V274.505Z" fill="#FFA8A7"/>
<path d="M13.412 281.473C13.5862 282.692 19.8574 287.222 21.2511 287.919C22.8189 288.441 25.6061 293.319 25.6061 293.319C23.3415 292.97 21.5995 293.841 19.8574 295.583C19.8574 295.583 10.9732 291.925 9.57959 285.828C9.57959 285.828 11.1474 282.692 11.4958 281.821C11.67 280.95 12.3668 280.079 13.412 280.079V281.473Z" fill="#E4F2F2"/>
<path d="M19.8575 295.409C19.8575 295.409 20.5543 290.88 21.4254 290.357C22.2964 290.009 25.432 293.144 25.432 293.144C24.3868 294.19 22.6448 295.235 19.8575 295.409Z" fill="#F5FBFB"/>
<path d="M21.5995 290.357C20.7285 290.706 20.0317 295.409 20.0317 295.409C20.0317 295.409 22.4706 293.145 23.3416 292.97C24.0384 292.796 25.7804 293.319 25.7804 293.319C25.7804 293.319 22.4706 290.009 21.5995 290.357Z" fill="#C8DBDA"/>
<path opacity="0.15" d="M183.084 464.733L100.164 512.638C98.9447 513.335 97.2027 513.683 95.6348 513.683C94.067 513.683 92.325 513.335 91.1056 512.638L8.18599 464.733C6.96658 464.036 6.26978 462.991 6.26978 462.12C6.26978 461.423 6.61818 460.726 7.31498 460.203C7.48918 460.029 7.83758 459.681 8.18599 459.507L91.1056 411.601C93.5444 410.208 97.7253 410.208 100.164 411.601L183.084 459.507C185.523 460.9 185.523 463.339 183.084 464.733Z" fill="#6B99D1"/>
<path opacity="0.15" d="M391.814 464.733L308.894 512.638C307.675 513.335 305.933 513.683 304.365 513.683C302.797 513.683 301.055 513.335 299.836 512.638L216.916 464.733C215.697 464.036 215 462.991 215 462.12C215 461.423 215.348 460.726 216.045 460.203C216.219 460.029 216.568 459.681 216.916 459.507L299.836 411.601C302.275 410.208 306.455 410.208 308.894 411.601L391.814 459.507C394.253 460.9 394.253 463.339 391.814 464.733Z" fill="#6B99D1"/>
<path opacity="0.15" d="M391.814 580.176L308.894 628.082C307.675 628.779 305.933 629.127 304.365 629.127C302.797 629.127 301.055 628.779 299.836 628.082L216.916 580.176C215.697 579.48 215 578.434 215 577.563C215 576.867 215.348 576.17 216.045 575.647C216.219 575.473 216.568 575.125 216.916 574.95L299.836 527.045C302.275 525.652 306.455 525.652 308.894 527.045L391.814 574.95C394.253 576.344 394.253 578.783 391.814 580.176Z" fill="#6B99D1"/>
<path opacity="0.15" d="M183.814 579.176L100.894 627.082C99.6749 627.779 97.9329 628.127 96.3651 628.127C94.7973 628.127 93.0553 627.779 91.8358 627.082L8.91621 579.176C7.6968 578.48 7 577.434 7 576.563C7 575.867 7.3484 575.17 8.04521 574.647C8.21941 574.473 8.56781 574.125 8.91621 573.95L91.8358 526.045C94.2747 524.652 98.4555 524.652 100.894 526.045L183.814 573.95C186.253 575.344 186.253 577.783 183.814 579.176Z" fill="#6B99D1"/>
<path opacity="0.15" d="M287.814 522.176L204.894 570.082C203.675 570.779 201.933 571.127 200.365 571.127C198.797 571.127 197.055 570.779 195.836 570.082L112.916 522.176C111.697 521.48 111 520.434 111 519.563C111 518.867 111.348 518.17 112.045 517.647C112.219 517.473 112.568 517.125 112.916 516.95L195.836 469.045C198.275 467.652 202.455 467.652 204.894 469.045L287.814 516.95C290.253 518.344 290.253 520.783 287.814 522.176Z" fill="#6B99D1"/>
<path opacity="0.15" d="M287.814 640.176L204.894 688.082C203.675 688.779 201.933 689.127 200.365 689.127C198.797 689.127 197.055 688.779 195.836 688.082L112.916 640.176C111.697 639.48 111 638.434 111 637.563C111 636.867 111.348 636.17 112.045 635.647C112.219 635.473 112.568 635.125 112.916 634.95L195.836 587.045C198.275 585.652 202.455 585.652 204.894 587.045L287.814 634.95C290.253 636.344 290.253 638.783 287.814 640.176Z" fill="#6B99D1"/>
<path opacity="0.15" d="M496.814 408.176L413.894 456.082C412.675 456.779 410.933 457.127 409.365 457.127C407.797 457.127 406.055 456.779 404.836 456.082L321.916 408.176C320.697 407.48 320 406.434 320 405.563C320 404.867 320.348 404.17 321.045 403.647C321.219 403.473 321.568 403.125 321.916 402.95L404.836 355.045C407.275 353.652 411.455 353.652 413.894 355.045L496.814 402.95C499.253 404.344 499.253 406.783 496.814 408.176Z" fill="#6B99D1"/>
<path opacity="0.15" d="M496.544 638.176L413.625 686.082C412.405 686.779 410.663 687.127 409.095 687.127C407.528 687.127 405.786 686.779 404.566 686.082L321.647 638.176C320.427 637.48 319.73 636.434 319.73 635.563C319.73 634.867 320.079 634.17 320.776 633.647C320.95 633.473 321.298 633.125 321.647 632.95L404.566 585.045C407.005 583.652 411.186 583.652 413.625 585.045L496.544 632.95C498.983 634.344 498.983 636.783 496.544 638.176Z" fill="#6B99D1"/>
<path opacity="0.15" d="M287.814 409.176L204.894 457.082C203.675 457.779 201.933 458.127 200.365 458.127C198.797 458.127 197.055 457.779 195.836 457.082L112.916 409.176C111.697 408.48 111 407.434 111 406.563C111 405.867 111.348 405.17 112.045 404.647C112.219 404.473 112.568 404.125 112.916 403.95L195.836 356.045C198.275 354.652 202.455 354.652 204.894 356.045L287.814 403.95C290.253 405.344 290.253 407.783 287.814 409.176Z" fill="#6B99D1"/>
<path d="M183.084 409.337L100.164 457.242C98.9447 457.939 97.2027 458.287 95.6348 458.287C94.067 458.287 92.325 457.939 91.1056 457.242L8.18599 409.337C6.96658 408.64 6.26978 407.595 6.26978 406.724C6.26978 405.678 6.96658 404.807 8.18599 404.111L21.4253 396.446L91.1056 356.205C93.5444 354.812 97.7253 354.812 100.164 356.205L183.084 404.111C185.523 405.504 185.523 407.769 183.084 409.337Z" fill="#DCEEFF"/>
<path d="M95.6348 439.299V458.113C94.067 458.113 92.325 457.764 91.1056 457.068L8.18599 409.337C6.96658 408.64 6.26978 407.595 6.26978 406.724V390.349C6.26978 389.652 6.61818 388.955 7.31498 388.432L21.4253 396.62L95.6348 439.299Z" fill="#A5CBFA"/>
<path d="M95.6349 439.299V458.113C97.2027 458.113 98.9447 457.764 100.164 457.068L183.084 409.162C184.303 408.466 185 407.42 185 406.549V390.175C185 389.478 184.652 388.781 183.955 388.258L169.844 396.446L95.6349 439.299Z" fill="#C8E2FF"/>
<path d="M183.084 392.962L100.164 440.867C98.9448 441.564 97.2028 441.912 95.635 441.912C94.0672 441.912 92.3251 441.564 91.1057 440.867L8.18611 392.962C6.9667 392.265 6.2699 391.22 6.2699 390.349C6.2699 389.652 6.6183 388.955 7.3151 388.432C7.4893 388.258 7.83771 387.91 8.18611 387.736L91.1057 339.83C93.5446 338.437 97.7254 338.437 100.164 339.83L183.084 387.736C185.523 389.129 185.523 391.568 183.084 392.962Z" fill="#DCEEFF"/>
<path d="M95.635 340.527C97.0286 340.527 98.4222 340.876 99.2932 341.398L182.213 389.303C182.91 389.652 183.258 390.174 183.258 390.349C183.258 390.523 183.084 391.045 182.213 391.394L99.2932 439.299C98.4222 439.822 97.0286 440.17 95.635 440.17C94.2414 440.17 92.8478 439.822 91.9768 439.299L9.05711 391.394C8.36031 391.045 8.01191 390.697 8.01191 390.349C8.01191 390.174 8.18611 389.826 8.36031 389.652C8.53451 389.478 8.70871 389.303 8.88291 389.303L91.8026 341.398C92.8478 340.701 94.2414 340.527 95.635 340.527ZM95.635 338.785C94.0672 338.785 92.3251 339.134 91.1057 339.83L8.18611 387.736C7.83771 387.91 7.4893 388.084 7.3151 388.432C6.6183 388.955 6.2699 389.652 6.2699 390.349C6.2699 391.22 6.9667 392.265 8.18611 392.962L91.1057 440.867C92.3251 441.564 94.0672 441.912 95.635 441.912C97.2028 441.912 98.9448 441.564 100.164 440.867L183.084 392.962C185.523 391.568 185.523 389.129 183.084 387.736L100.164 339.83C98.9448 339.134 97.2028 338.785 95.635 338.785Z" fill="white"/>
<path d="M92.6735 351.153L27.8707 388.607C26.1287 389.652 26.1287 391.046 27.8707 392.091L92.6735 429.544C94.4155 430.589 97.0285 430.589 98.7705 429.544L163.573 392.091C165.315 391.046 165.315 389.652 163.573 388.607L98.5963 351.153C97.0285 350.282 94.2413 350.282 92.6735 351.153Z" fill="#344593"/>
<path d="M163.399 388.607L98.5963 351.154C97.7253 350.631 96.6801 350.457 95.6349 350.457V353.592L162.876 392.265L163.399 391.917C164.967 391.046 164.967 389.478 163.399 388.607Z" fill="#1E3779"/>
<path d="M95.6349 350.457C94.5897 350.457 93.3703 350.631 92.6735 351.154L27.8707 388.607C26.1287 389.652 26.1287 391.046 27.8707 392.091L28.3933 392.439L95.6349 353.592V350.457Z" fill="#031F60"/>
<path d="M74.3822 369.793L95.6347 382.161V316.836L74.3822 304.468V369.793Z" fill="#57F7E0"/>
<path d="M95.6348 382.161L116.887 369.793V304.468L95.6348 316.836V382.161Z" fill="#6CFFE6"/>
<path d="M116.887 304.468L95.6348 292.274L74.3823 304.468L95.6348 316.836L116.887 304.468Z" fill="#ABFFEF"/>
<path d="M95.6348 382.161C95.6348 382.161 95.2864 381.987 95.1122 381.464C94.938 380.942 94.938 380.245 94.938 379.374C94.938 377.632 94.938 375.019 94.938 371.883C94.938 365.786 94.938 357.599 95.1122 349.411C95.2864 341.224 95.2864 333.037 95.4606 326.94C95.6348 320.843 95.6348 316.662 95.6348 316.662C95.6348 316.662 95.6348 320.668 95.809 326.94C95.9832 333.037 95.9832 341.224 96.1574 349.411C96.1574 357.599 96.1574 365.786 96.3316 371.883C96.3316 375.019 96.3316 377.458 96.3316 379.374C96.3316 380.245 96.3316 380.942 96.1574 381.464C95.9832 381.813 95.6348 382.161 95.6348 382.161Z" fill="white"/>
<path d="M116.887 304.468C116.887 304.468 116.887 304.816 116.887 304.99C116.887 305.339 116.539 305.339 116.365 305.513C115.842 305.861 114.971 306.384 113.926 306.906C112.01 308.126 109.222 309.519 106.609 311.087C103.822 312.481 101.209 314.049 99.1188 315.094C97.0284 316.139 95.6348 316.836 95.6348 316.836C95.6348 316.836 96.8542 315.965 98.7704 314.745C100.687 313.526 103.3 311.958 105.913 310.216C108.526 308.648 111.139 307.081 113.229 305.861C114.274 305.339 114.971 304.816 115.668 304.468C116.016 304.293 116.19 304.119 116.365 304.293C116.539 304.293 116.887 304.468 116.887 304.468Z" fill="white"/>
<path d="M109.745 390.349L130.998 402.543V345.405L109.745 333.037V390.349Z" fill="#57F7E0"/>
<path d="M130.998 402.543L152.25 390.349V333.037L130.998 345.405V402.543Z" fill="#6CFFE6"/>
<path d="M152.25 333.037L130.998 320.843L109.745 333.037L130.998 345.405L152.25 333.037Z" fill="#ABFFEF"/>
<path d="M130.998 402.543C130.998 402.543 130.649 402.369 130.475 401.846C130.301 401.498 130.301 400.801 130.301 400.104C130.301 398.536 130.301 396.272 130.301 393.659C130.301 388.258 130.301 381.116 130.475 373.974C130.649 366.832 130.649 359.689 130.823 354.289C130.998 348.889 130.998 345.405 130.998 345.405C130.998 345.405 130.998 349.063 131.172 354.289C131.346 359.689 131.346 366.832 131.52 373.974C131.52 381.116 131.52 388.258 131.694 393.659C131.694 396.272 131.694 398.536 131.694 400.104C131.694 400.801 131.694 401.498 131.52 401.846C131.346 402.369 130.998 402.543 130.998 402.543Z" fill="white"/>
<path d="M152.25 333.037C152.25 333.037 152.25 333.385 152.25 333.559C152.25 333.908 151.902 333.908 151.727 334.082C151.205 334.43 150.334 334.953 149.289 335.475C147.372 336.695 144.585 338.088 141.972 339.656C139.185 341.05 136.572 342.618 134.482 343.663C132.391 344.708 130.998 345.405 130.998 345.405C130.998 345.405 132.217 344.534 134.133 343.314C136.049 342.095 138.662 340.527 141.275 338.785C143.888 337.217 146.501 335.65 148.592 334.43C149.637 333.908 150.334 333.385 151.031 333.037C151.379 332.862 151.553 332.688 151.727 332.862C152.076 332.862 152.25 333.211 152.25 333.037Z" fill="white"/>
<path d="M39.0194 390.349L60.2719 402.543V337.217L39.0194 325.023V390.349Z" fill="#57F7E0"/>
<path d="M60.272 402.543L81.5245 390.349V325.023L60.272 337.217V402.543Z" fill="#6CFFE6"/>
<path d="M81.5246 325.023L60.272 312.655L39.0195 325.023L60.272 337.217L81.5246 325.023Z" fill="#ABFFEF"/>
<path d="M60.272 402.543C60.272 402.543 59.9236 402.369 59.7494 401.846C59.5752 401.323 59.5752 400.627 59.5752 399.756C59.5752 398.014 59.5752 395.401 59.5752 392.265C59.5752 386.168 59.5752 377.98 59.7494 369.793C59.9236 361.606 59.9236 353.418 60.0978 347.321C60.272 341.224 60.272 337.043 60.272 337.043C60.272 337.043 60.272 341.05 60.4462 347.321C60.6204 353.418 60.6204 361.606 60.7946 369.793C60.7946 377.98 60.7946 386.168 60.9688 392.265C60.9688 395.401 60.9688 397.839 60.9688 399.756C60.9688 400.627 60.9688 401.323 60.7946 401.846C60.6204 402.369 60.272 402.543 60.272 402.543Z" fill="white"/>
<path d="M81.5245 325.023C81.5245 325.023 81.5245 325.372 81.5245 325.546C81.5245 325.894 81.1761 325.894 81.0019 326.069C80.4793 326.417 79.6083 326.94 78.5631 327.462C76.6469 328.682 73.8597 330.075 71.2466 331.643C68.4594 333.037 65.8464 334.604 63.756 335.65C61.6656 336.695 60.272 337.392 60.272 337.392C60.272 337.392 61.4914 336.521 63.4076 335.301C65.3238 334.082 67.9368 332.514 70.5498 330.772C73.1628 329.204 75.7759 327.636 77.8663 326.417C78.9115 325.894 79.6083 325.372 80.3051 325.023C80.6535 324.849 80.8277 324.675 81.0019 324.849C81.1761 324.675 81.5245 325.023 81.5245 325.023Z" fill="white"/>
<path d="M74.3822 410.73L95.6347 422.924V373.974L74.3822 361.78V410.73Z" fill="#57F7E0"/>
<path d="M95.6348 422.924L116.887 410.73V361.78L95.6348 373.974V422.924Z" fill="#6CFFE6"/>
<path d="M116.887 361.78L95.6348 349.411L74.3823 361.78L95.6348 373.974L116.887 361.78Z" fill="#ABFFEF"/>
<path d="M95.6348 422.924C95.6348 422.924 95.2864 422.75 95.1122 422.402C94.938 422.053 94.938 421.531 94.938 420.834C94.938 419.44 94.938 417.524 94.938 415.259C94.938 410.73 94.938 404.459 95.1122 398.362C95.2864 392.265 95.2864 386.168 95.4606 381.464C95.6348 376.935 95.6348 373.8 95.6348 373.8C95.6348 373.8 95.6348 376.935 95.809 381.464C95.9832 385.994 95.9832 392.265 96.1574 398.362C96.1574 404.459 96.1574 410.556 96.3316 415.259C96.3316 417.524 96.3316 419.44 96.3316 420.834C96.3316 421.531 96.3316 422.053 96.1574 422.402C95.9832 422.75 95.6348 422.924 95.6348 422.924Z" fill="white"/>
<path d="M116.887 361.78C116.887 361.78 116.887 362.128 116.887 362.302C116.887 362.651 116.539 362.651 116.365 362.825C115.842 363.173 114.971 363.696 113.926 364.219C112.01 365.438 109.222 366.832 106.609 368.399C103.822 369.793 101.209 371.361 99.1188 372.406C97.0284 373.451 95.6348 374.148 95.6348 374.148C95.6348 374.148 96.8542 373.277 98.7704 372.058C100.687 370.838 103.3 369.27 105.913 367.528C108.526 365.961 111.139 364.393 113.229 363.173C114.274 362.651 114.971 362.128 115.668 361.78C116.016 361.606 116.19 361.431 116.365 361.606C116.539 361.431 116.887 361.78 116.887 361.78Z" fill="white"/>
<path opacity="0.3" d="M100.164 269.279C98.7706 270.15 97.377 270.498 95.635 270.324V430.241C96.6802 430.241 97.7254 430.066 98.5964 429.544L162.877 392.265C164.096 391.568 164.619 391.045 164.619 390.174V232L100.164 269.279Z" fill="url(#paint0_linear)"/>
<path opacity="0.5" d="M95.6349 270.324C95.2865 270.324 94.9381 270.324 94.4155 270.324C94.0671 270.324 93.7187 270.15 93.3703 270.15C93.1961 270.15 92.8477 269.976 92.6735 269.976C92.4993 269.976 92.3251 269.976 92.3251 269.802C91.9767 269.627 91.6283 269.453 91.2799 269.279L26.6514 232V390.349C26.6514 391.045 27.174 391.568 27.8708 392.091L92.6735 429.544C93.7187 430.066 94.5897 430.241 95.6349 430.241V270.324Z" fill="url(#paint1_linear)"/>
<path d="M44.5941 338.611C43.0263 338.611 41.8069 338.088 39.5423 338.263C37.626 338.437 36.9292 338.437 35.1872 337.914C33.4452 337.392 29.0902 333.733 25.432 330.075C21.077 325.72 17.4187 318.752 16.1993 315.616C13.7605 309.171 11.6701 299.242 10.4507 295.409C9.23129 291.577 7.31508 290.706 5.05047 290.183C2.26325 289.661 -0.00136065 291.577 1.04384 297.325C2.08905 303.074 4.87627 313.003 8.36028 320.146C9.92809 323.63 13.0637 329.03 18.4639 334.604C22.2964 338.611 25.9546 340.876 30.4838 344.011C31.7032 344.882 32.4 345.753 34.6646 347.669C36.9292 349.586 39.8907 351.153 42.1553 351.502C44.5941 351.85 45.4651 351.676 45.8135 351.153C46.1619 350.631 45.8135 350.108 44.7683 349.76C43.7231 349.411 41.8069 349.063 39.8906 347.844C39.8906 347.844 42.1553 348.54 43.5489 348.889C44.9425 349.237 46.3361 349.411 47.3813 349.237C48.6007 349.237 49.6459 347.669 48.6007 347.321C47.5555 346.973 46.6845 346.973 44.5941 346.45C42.6779 345.927 41.4585 345.231 41.4585 345.231C41.4585 345.231 43.7231 345.753 45.8135 345.753C47.7297 345.753 48.6007 345.405 49.1233 345.056C49.6459 344.708 49.9943 343.663 48.6007 343.489C47.3813 343.314 45.6393 343.489 43.3747 342.792C41.6327 342.269 40.5875 341.572 40.9359 341.398C41.2843 341.224 42.1553 341.572 43.7231 341.398C45.1167 341.224 46.5103 340.179 46.3361 339.308C46.1619 338.437 46.1619 338.611 44.5941 338.611Z" fill="#FFA8A7"/>
<path d="M3.48264 290.009C0.695427 291.228 -0.698181 294.364 0.347025 299.938C1.39223 305.513 3.83104 313.874 3.83104 313.874C3.83104 313.874 9.23127 314.049 14.6315 309.519C14.6315 309.519 12.0185 297.5 10.9733 294.364C9.92808 291.054 7.31506 288.267 3.48264 290.009Z" fill="#E4F2F2"/>
<path opacity="0.15" d="M314.77 836.484L299.947 827.924C289.925 822.078 276.146 820.825 269.047 824.792C261.949 828.759 264.454 836.901 274.476 842.538L289.299 851.098C299.32 856.944 313.1 858.196 320.198 854.23C327.088 850.054 324.582 842.121 314.77 836.484Z" fill="#6B99D1"/>
<g opacity="0.3">
<path opacity="0.3" d="M463.211 614.135L372.393 561.731C369.47 560.061 366.965 561.314 366.965 564.863V630.628C366.965 634.177 369.47 638.353 372.393 640.023L463.211 692.426C466.134 694.097 468.64 692.844 468.64 689.295V623.53C468.64 619.98 466.134 615.805 463.211 614.135Z" fill="#57F7E0"/>
<path opacity="0.3" d="M463.211 614.135L372.393 561.731C369.47 560.061 366.965 561.314 366.965 564.863V630.628C366.965 634.177 369.47 638.353 372.393 640.023L463.211 692.426C466.134 694.097 468.64 692.844 468.64 689.295V623.53C468.64 619.98 466.134 615.805 463.211 614.135Z" stroke="#E9FFFB" stroke-miterlimit="10"/>
<path opacity="0.8" d="M457.366 623.947L420.412 602.652C418.95 601.817 417.698 602.443 417.698 604.322V604.531C417.698 606.201 418.95 608.289 420.412 609.124L457.366 630.419C458.827 631.254 460.08 630.628 460.08 628.749V628.54C460.08 626.87 458.827 624.782 457.366 623.947Z" fill="#0B3FA5"/>
<path opacity="0.8" d="M409.973 596.388L378.03 578.016C376.568 577.181 375.316 577.807 375.316 579.686V579.895C375.316 581.565 376.568 583.653 378.03 584.488L409.973 602.86C411.434 603.696 412.687 603.069 412.687 601.19V600.981C412.687 599.311 411.434 597.223 409.973 596.388Z" fill="#0B3FA5"/>
<g opacity="0.8">
<g opacity="0.8">
<g opacity="0.8">
<path opacity="0.8" d="M457.366 654.011L420.412 632.716C418.95 631.881 417.698 632.507 417.698 634.386V634.595C417.698 636.265 418.95 638.353 420.412 639.188L457.366 660.483C458.827 661.318 460.08 660.692 460.08 658.813V658.604C460.08 656.934 458.827 654.846 457.366 654.011Z" fill="#0B3FA5"/>
</g>
<g opacity="0.8">
<path opacity="0.8" d="M409.973 626.661L378.03 608.289C376.568 607.454 375.316 608.08 375.316 609.959V610.168C375.316 611.838 376.568 613.926 378.03 614.761L409.973 633.133C411.434 633.968 412.687 633.342 412.687 631.463V631.254C412.687 629.584 411.434 627.496 409.973 626.661Z" fill="#0B3FA5"/>
</g>
</g>
</g>
<g opacity="0.8">
<g opacity="0.8">
<g opacity="0.8">
<path opacity="0.8" d="M457.366 638.979L437.323 627.496C435.861 626.661 434.609 627.288 434.609 629.167V629.375C434.609 631.046 435.861 633.133 437.323 633.968L457.366 645.451C458.827 646.286 460.08 645.66 460.08 643.781V643.572C460.08 641.902 458.827 639.814 457.366 638.979Z" fill="#0B3FA5"/>
</g>
<g opacity="0.8">
<path opacity="0.8" d="M428.345 622.277L411.434 612.464C409.973 611.629 408.72 612.255 408.72 613.926V614.134C408.72 615.805 409.973 617.892 411.434 618.936L428.345 628.749C429.807 629.584 431.06 628.958 431.06 627.288V627.079C431.06 625.2 429.807 623.112 428.345 622.277Z" fill="#0B3FA5"/>
</g>
<g opacity="0.8">
<path opacity="0.8" d="M401.83 606.827L378.03 593.257C376.568 592.422 375.316 593.048 375.316 594.927V595.136C375.316 596.806 376.568 598.894 378.03 599.729L401.83 613.299C403.292 614.135 404.545 613.508 404.545 611.629V611.42C404.545 609.75 403.292 607.662 401.83 606.827Z" fill="#0B3FA5"/>
</g>
</g>
</g>
<g opacity="0.8">
<g opacity="0.8">
<g opacity="0.8">
<path opacity="0.8" d="M457.366 669.252L425.214 650.671C423.752 649.836 422.5 650.462 422.5 652.341V652.55C422.5 654.22 423.752 656.308 425.214 657.143L457.366 675.724C458.827 676.559 460.08 675.933 460.08 674.054V673.845C460.08 672.175 458.827 670.087 457.366 669.252Z" fill="#0B3FA5"/>
</g>
<g opacity="0.8">
<path opacity="0.8" d="M416.236 645.451L399.325 635.639C397.864 634.804 396.611 635.43 396.611 637.1V637.309C396.611 638.979 397.864 641.067 399.325 642.111L416.236 651.923C417.698 652.758 418.95 652.132 418.95 650.462V650.253C418.95 648.583 417.698 646.495 416.236 645.451Z" fill="#0B3FA5"/>
</g>
<g opacity="0.8">
<path opacity="0.8" d="M389.513 630.002L378.03 623.321C376.568 622.486 375.316 623.112 375.316 624.991V625.2C375.316 626.87 376.568 628.958 378.03 629.793L389.513 636.474C390.974 637.309 392.227 636.683 392.227 634.804C392.227 633.133 390.974 631.046 389.513 630.002Z" fill="#0B3FA5"/>
</g>
</g>
</g>
</g>
<g opacity="0.5">
<path opacity="0.5" d="M446.3 623.738L355.482 571.335C352.559 569.665 350.054 570.917 350.054 574.467V640.232C350.054 643.781 352.559 647.957 355.482 649.627L446.3 702.03C449.223 703.7 451.729 702.448 451.729 698.899V633.133C451.729 629.793 449.223 625.617 446.3 623.738Z" fill="#57F7E0"/>
<path opacity="0.5" d="M446.3 623.738L355.482 571.335C352.559 569.665 350.054 570.917 350.054 574.467V640.232C350.054 643.781 352.559 647.957 355.482 649.627L446.3 702.03C449.223 703.7 451.729 702.448 451.729 698.899V633.133C451.729 629.793 449.223 625.617 446.3 623.738Z" stroke="#E9FFFB" stroke-miterlimit="10"/>
<path opacity="0.8" d="M440.454 633.76L403.501 612.464C402.039 611.629 400.787 612.256 400.787 614.135V614.343C400.787 616.014 402.039 618.101 403.501 618.936L440.454 640.232C441.916 641.067 443.169 640.441 443.169 638.562V638.353C443.169 636.683 441.916 634.595 440.454 633.76Z" fill="#0B3FA5"/>
<path opacity="0.8" d="M392.853 606.201L360.91 587.828C359.448 586.993 358.196 587.62 358.196 589.499V589.707C358.196 591.378 359.448 593.465 360.91 594.301L392.853 612.673C394.314 613.508 395.567 612.882 395.567 611.003V610.794C395.567 609.124 394.314 607.036 392.853 606.201Z" fill="#0B3FA5"/>
<g opacity="0.8">
<g opacity="0.8">
<g opacity="0.8">
<path opacity="0.8" d="M440.454 663.824L403.501 642.528C402.039 641.693 400.787 642.32 400.787 644.199V644.407C400.787 646.078 402.039 648.165 403.501 649L440.454 670.296C441.916 671.131 443.169 670.505 443.169 668.626V668.417C443.169 666.747 441.916 664.659 440.454 663.824Z" fill="#0B3FA5"/>
</g>
<g opacity="0.8">
<path opacity="0.8" d="M392.853 636.474L360.91 618.101C359.448 617.266 358.196 617.893 358.196 619.772V619.98C358.196 621.651 359.448 623.738 360.91 624.573L392.853 642.946C394.314 643.781 395.567 643.155 395.567 641.276V641.067C395.567 639.397 394.314 637.309 392.853 636.474Z" fill="#0B3FA5"/>
</g>
</g>
</g>
<g opacity="0.8">
<g opacity="0.8">
<g opacity="0.8">
<path opacity="0.8" d="M440.454 648.792L420.412 637.309C418.95 636.474 417.698 637.1 417.698 638.979C417.698 640.649 418.95 642.737 420.412 643.572L440.454 655.055C441.916 655.89 443.169 655.264 443.169 653.385V653.176C443.169 651.715 441.916 649.627 440.454 648.792Z" fill="#0B3FA5"/>
</g>
<g opacity="0.8">
<path opacity="0.8" d="M411.434 632.089L394.523 622.277C393.062 621.442 391.809 622.068 391.809 623.738V623.947C391.809 625.617 393.062 627.705 394.523 628.749L411.434 638.562C412.896 639.397 414.149 638.77 414.149 637.1V636.891C414.149 635.012 412.896 632.925 411.434 632.089Z" fill="#0B3FA5"/>
</g>
<g opacity="0.8">
<path opacity="0.8" d="M384.919 616.64L361.119 603.069C359.657 602.234 358.405 602.86 358.405 604.739V604.948C358.405 606.618 359.657 608.706 361.119 609.541L384.919 623.112C386.381 623.947 387.634 623.321 387.634 621.442V621.233C387.634 619.563 386.381 617.475 384.919 616.64Z" fill="#0B3FA5"/>
</g>
</g>
</g>
<g opacity="0.8">
<g opacity="0.8">
<g opacity="0.8">
<path opacity="0.8" d="M440.454 679.065L408.303 660.483C406.841 659.648 405.588 660.275 405.588 662.154V662.362C405.588 664.033 406.841 666.12 408.303 666.955L440.454 685.537C441.916 686.372 443.169 685.746 443.169 683.867V683.658C443.169 681.988 441.916 679.9 440.454 679.065Z" fill="#0B3FA5"/>
</g>
<g opacity="0.8">
<path opacity="0.8" d="M399.116 655.264L382.205 645.451C380.744 644.616 379.491 645.243 379.491 646.913V647.122C379.491 648.792 380.744 650.88 382.205 651.923L399.116 661.736C400.578 662.571 401.831 661.945 401.831 660.275V660.066C401.831 658.396 400.787 656.099 399.116 655.264Z" fill="#0B3FA5"/>
</g>
<g opacity="0.8">
<path opacity="0.8" d="M372.602 639.814L361.119 633.133C359.657 632.298 358.405 632.925 358.405 634.804V635.012C358.405 636.683 359.657 638.77 361.119 639.606L372.602 646.286C374.063 647.122 375.316 646.495 375.316 644.616V644.407C375.316 642.946 374.063 640.649 372.602 639.814Z" fill="#0B3FA5"/>
</g>
</g>
</g>
</g>
<g opacity="0.7">
<path opacity="0.7" d="M429.181 633.551L338.362 581.148C335.439 579.477 332.934 580.73 332.934 584.279V650.044C332.934 653.594 335.439 657.769 338.362 659.439L429.181 711.843C432.103 713.513 434.609 712.26 434.609 708.711V642.946C434.609 639.605 432.312 635.43 429.181 633.551Z" fill="#57F7E0"/>
<path opacity="0.7" d="M429.181 633.551L338.362 581.148C335.439 579.477 332.934 580.73 332.934 584.279V650.044C332.934 653.594 335.439 657.769 338.362 659.439L429.181 711.843C432.103 713.513 434.609 712.26 434.609 708.711V642.946C434.609 639.605 432.312 635.43 429.181 633.551Z" stroke="#E9FFFB" stroke-miterlimit="10"/>
<path opacity="0.8" d="M423.543 643.363L386.59 622.068C385.128 621.233 383.875 621.859 383.875 623.738V623.947C383.875 625.617 385.128 627.705 386.59 628.54L423.543 649.836C425.005 650.671 426.258 650.044 426.258 648.165V647.957C426.258 646.495 425.005 644.407 423.543 643.363Z" fill="#0B3FA5"/>
<path opacity="0.8" d="M375.942 616.014L343.999 597.641C342.538 596.806 341.285 597.432 341.285 599.311C341.285 600.981 342.538 603.069 343.999 603.904L375.942 622.277C377.404 623.112 378.656 622.486 378.656 620.607V620.398C378.656 618.936 377.404 616.849 375.942 616.014Z" fill="#0B3FA5"/>
<g opacity="0.8">
<g opacity="0.8">
<g opacity="0.8">
<path opacity="0.8" d="M423.543 673.636L386.59 652.341C385.128 651.506 383.875 652.132 383.875 654.011V654.22C383.875 655.89 385.128 657.978 386.59 658.813L423.543 680.108C425.005 680.944 426.258 680.317 426.258 678.438V678.229C426.258 676.559 425.005 674.471 423.543 673.636Z" fill="#0B3FA5"/>
</g>
<g opacity="0.8">
<path opacity="0.8" d="M375.942 646.286L343.999 627.914C342.538 627.079 341.285 627.705 341.285 629.584V629.793C341.285 631.463 342.538 633.551 343.999 634.386L375.942 652.758C377.404 653.594 378.656 652.967 378.656 651.088V650.879C378.656 649.209 377.404 647.121 375.942 646.286Z" fill="#0B3FA5"/>
</g>
</g>
</g>
<g opacity="0.8">
<g opacity="0.8">
<g opacity="0.8">
<path opacity="0.8" d="M423.543 658.604L403.501 647.121C402.039 646.286 400.787 646.913 400.787 648.792V649C400.787 650.671 402.039 652.758 403.501 653.594L423.543 665.076C425.005 665.911 426.258 665.285 426.258 663.406V663.197C426.258 661.527 425.005 659.439 423.543 658.604Z" fill="#0B3FA5"/>
</g>
<g opacity="0.8">
<path opacity="0.8" d="M394.523 641.693L377.612 631.881C376.151 631.046 374.898 631.672 374.898 633.342V633.551C374.898 635.221 376.151 637.309 377.612 638.353L394.523 648.165C395.985 649 397.237 648.374 397.237 646.704V646.495C397.237 644.825 395.985 642.737 394.523 641.693Z" fill="#0B3FA5"/>
</g>
<g opacity="0.8">
<path opacity="0.8" d="M367.8 626.452L343.999 612.882C342.537 612.047 341.285 612.673 341.285 614.552V614.761C341.285 616.431 342.537 618.519 343.999 619.354L367.8 632.925C369.261 633.76 370.514 633.133 370.514 631.254V631.046C370.514 629.375 369.261 627.287 367.8 626.452Z" fill="#0B3FA5"/>
</g>
</g>
</g>
<g opacity="0.8">
<g opacity="0.8">
<g opacity="0.8">
<path opacity="0.8" d="M423.543 688.877L391.392 670.296C389.93 669.461 388.677 670.087 388.677 671.966V672.175C388.677 673.845 389.93 675.933 391.392 676.768L423.543 695.349C425.005 696.184 426.258 695.558 426.258 693.679V693.47C426.258 691.8 425.005 689.712 423.543 688.877Z" fill="#0B3FA5"/>
</g>
<g opacity="0.8">
<path opacity="0.8" d="M382.205 665.076L365.294 655.264C363.833 654.429 362.58 655.055 362.58 656.725V656.934C362.58 658.604 363.833 660.692 365.294 661.736L382.205 671.548C383.667 672.384 384.919 671.757 384.919 670.087V669.878C384.919 667.999 383.667 665.911 382.205 665.076Z" fill="#0B3FA5"/>
</g>
<g opacity="0.8">
<path opacity="0.8" d="M355.69 649.627L344.208 642.946C342.746 642.111 341.494 642.737 341.494 644.616V644.825C341.494 646.495 342.746 648.583 344.208 649.418L355.69 656.099C357.152 656.934 358.405 656.308 358.405 654.429V654.22C358.405 652.55 357.152 650.462 355.69 649.627Z" fill="#0B3FA5"/>
</g>
</g>
</g>
</g>
<g opacity="0.9">
<path opacity="0.9" d="M412.269 643.363L321.451 590.96C318.528 589.29 316.023 590.543 316.023 594.092V659.857C316.023 663.406 318.528 667.582 321.451 669.252L412.269 721.655C415.192 723.326 417.698 722.073 417.698 718.524V652.758C417.698 649.418 415.192 645.242 412.269 643.363Z" fill="#57F7E0"/>
<path opacity="0.9" d="M412.269 643.363L321.451 590.96C318.528 589.29 316.023 590.543 316.023 594.092V659.857C316.023 663.406 318.528 667.582 321.451 669.252L412.269 721.655C415.192 723.326 417.698 722.073 417.698 718.524V652.758C417.698 649.418 415.192 645.242 412.269 643.363Z" stroke="#E9FFFB" stroke-miterlimit="10"/>
<path opacity="0.8" d="M406.424 653.176L369.47 631.881C368.008 631.046 366.756 631.672 366.756 633.551V633.76C366.756 635.43 368.008 637.518 369.47 638.353L406.424 659.648C407.885 660.483 409.138 659.857 409.138 657.978V657.769C409.138 656.308 408.094 654.011 406.424 653.176Z" fill="#0B3FA5"/>
<path opacity="0.8" d="M359.031 625.826L327.088 607.454C325.626 606.618 324.374 607.245 324.374 609.124V609.333C324.374 611.003 325.626 613.091 327.088 613.926L359.031 632.298C360.492 633.133 361.745 632.507 361.745 630.628V630.419C361.745 628.749 360.492 626.661 359.031 625.826Z" fill="#0B3FA5"/>
<g opacity="0.8">
<g opacity="0.8">
<g opacity="0.8">
<path opacity="0.8" d="M406.424 683.449L369.47 662.154C368.008 661.318 366.756 661.945 366.756 663.824V664.033C366.756 665.703 368.008 667.791 369.47 668.626L406.424 689.921C407.885 690.756 409.138 690.13 409.138 688.251V688.042C409.138 686.372 408.094 684.284 406.424 683.449Z" fill="#0B3FA5"/>
</g>
<g opacity="0.8">
<path opacity="0.8" d="M359.031 656.099L327.088 637.726C325.626 636.891 324.374 637.518 324.374 639.397V639.605C324.374 641.276 325.626 643.363 327.088 644.199L359.031 662.571C360.492 663.406 361.745 662.78 361.745 660.901V660.692C361.745 659.022 360.492 656.934 359.031 656.099Z" fill="#0B3FA5"/>
</g>
</g>
</g>
<g opacity="0.8">
<g opacity="0.8">
<g opacity="0.8">
<path opacity="0.8" d="M406.424 668.417L386.381 656.934C384.919 656.099 383.667 656.725 383.667 658.604V658.813C383.667 660.483 384.919 662.571 386.381 663.406L406.424 674.889C407.885 675.724 409.138 675.098 409.138 673.219V673.01C409.138 671.34 408.094 669.252 406.424 668.417Z" fill="#0B3FA5"/>
</g>
<g opacity="0.8">
<path opacity="0.8" d="M377.403 651.506L360.492 641.693C359.031 640.858 357.778 641.484 357.778 643.155V643.363C357.778 645.034 359.031 647.121 360.492 648.165L377.403 657.978C378.865 658.813 380.118 658.187 380.118 656.517V656.308C380.118 654.638 379.074 652.55 377.403 651.506Z" fill="#0B3FA5"/>
</g>
<g opacity="0.8">
<path opacity="0.8" d="M350.889 636.056L327.088 622.486C325.626 621.65 324.374 622.277 324.374 624.156V624.365C324.374 626.035 325.626 628.123 327.088 628.958L350.889 642.528C352.35 643.363 353.603 642.737 353.603 640.858V640.649C353.603 639.188 352.35 637.1 350.889 636.056Z" fill="#0B3FA5"/>
</g>
</g>
</g>
<g opacity="0.8">
<g opacity="0.8">
<g opacity="0.8">
<path opacity="0.8" d="M406.424 698.69L374.272 680.108C372.81 679.273 371.558 679.9 371.558 681.779V681.987C371.558 683.658 372.81 685.746 374.272 686.581L406.424 705.162C407.885 705.997 409.138 705.371 409.138 703.492V703.283C409.138 701.613 408.094 699.525 406.424 698.69Z" fill="#0B3FA5"/>
</g>
<g opacity="0.8">
<path opacity="0.8" d="M365.294 674.889L348.383 665.076C346.922 664.241 345.669 664.868 345.669 666.538V666.747C345.669 668.417 346.922 670.505 348.383 671.549L365.294 681.361C366.756 682.196 368.008 681.57 368.008 679.9V679.691C368.008 677.812 366.756 675.724 365.294 674.889Z" fill="#0B3FA5"/>
</g>
<g opacity="0.8">
<path opacity="0.8" d="M338.571 659.439L327.088 652.758C325.626 651.923 324.374 652.55 324.374 654.429V654.638C324.374 656.308 325.626 658.396 327.088 659.231L338.571 665.912C340.032 666.747 341.285 666.12 341.285 664.241V664.033C341.285 662.362 340.241 660.275 338.571 659.439Z" fill="#0B3FA5"/>
</g>
</g>
</g>
</g>
<path d="M293.683 830.011C292.222 828.341 290.76 821.243 290.76 821.243C290.76 821.243 289.925 818.529 290.134 817.485C290.343 816.441 291.387 808.716 291.387 808.716L283.871 808.09C283.871 808.09 284.288 814.353 284.288 816.441C284.288 818.529 284.08 821.243 283.453 823.33C283.871 824.374 287.837 831.89 287.837 831.89L292.222 832.934L294.31 832.099L293.683 830.011Z" fill="#FFA8A7"/>
<path d="M294.727 834.187C295.771 833.978 299.112 831.682 297.024 830.638C295.354 829.803 293.892 830.22 293.892 830.22C293.892 830.22 294.31 831.055 293.683 831.055C292.431 830.847 291.387 825.001 291.387 823.122L287.629 824.374L289.09 832.517L290.76 833.561L293.683 834.187H294.727Z" fill="#2D2979"/>
<path d="M289.925 826.045C289.925 830.638 290.761 831.264 291.178 832.308C292.013 833.769 293.057 833.978 294.31 834.187C292.848 835.022 285.541 834.813 284.08 833.561C283.245 832.934 283.871 831.264 283.871 829.176C283.871 827.088 283.244 824.792 283.244 823.748C283.244 822.704 289.925 826.045 289.925 826.045Z" fill="#291D51"/>
<path d="M287.42 819.155C289.717 819.155 291.178 821.451 291.387 823.33C291.596 825.209 289.508 825.418 288.046 829.176C287.211 831.055 287.003 834.187 287.003 836.901C287.003 836.901 286.376 837.527 285.75 836.901C285.75 836.901 285.75 834.604 285.541 832.517C285.541 831.264 285.124 828.759 284.915 828.132C284.288 826.045 283.036 825.209 283.244 823.122C283.244 822.078 283.871 820.616 284.497 819.99C284.915 819.364 286.167 819.155 287.42 819.155Z" fill="#2D2979"/>
<path d="M302.034 845.67C302.034 845.67 301.408 846.922 297.65 845.252C296.189 844.626 295.354 844 294.727 843.373C294.31 841.703 293.266 839.406 293.266 839.406C293.266 839.406 293.892 834.605 296.189 836.484C298.485 838.363 302.034 845.67 302.034 845.67Z" fill="#291D51"/>
<path d="M293.683 819.99C293.266 822.704 293.057 824.583 292.848 826.253C292.639 827.297 292.431 828.341 291.804 829.176C290.343 831.264 290.134 832.517 290.134 832.517C290.134 832.517 294.519 833.143 296.606 836.066C298.694 838.989 298.694 841.912 300.782 842.538C302.87 842.956 306.21 840.659 306.21 840.659C306.21 840.659 304.122 840.659 303.287 837.945C302.452 835.231 300.364 829.385 300.155 827.924C299.947 825.836 301.826 821.451 301.826 821.451L293.683 819.99Z" fill="#FFA8A7"/>
<path d="M293.057 828.967C294.936 829.176 297.859 832.099 298.694 834.187C299.738 836.275 301.199 839.406 302.452 840.033C303.705 840.659 305.792 839.824 307.671 839.615C309.55 839.615 310.803 840.45 311.012 841.703C311.012 841.703 305.166 844.417 303.287 845.252C301.617 846.087 299.947 846.087 298.694 842.538C297.233 838.78 295.98 835.648 294.31 838.362C292.848 840.659 292.222 845.043 292.222 845.043C292.222 845.043 291.596 845.67 290.76 844.626C290.76 844.626 291.178 843.164 291.178 840.868C291.178 835.857 289.508 834.813 289.925 832.725C290.343 830.22 290.969 828.967 293.057 828.967Z" fill="#2D2979"/>
<path d="M313.517 636.683C313.517 636.683 318.319 633.76 317.902 629.584C317.484 625.409 311.012 614.97 299.32 619.98C288.673 622.486 313.517 636.683 313.517 636.683Z" fill="#543354"/>
<path d="M285.959 655.473C282.618 656.516 280.739 660.066 277.816 667.999C274.893 675.933 271.762 687.416 272.179 690.339C273.223 697.855 277.816 704.118 285.75 709.337L289.299 702.865C289.299 702.865 281.574 696.602 280.739 689.086C280.322 684.91 285.75 670.713 285.75 670.296C285.75 670.087 285.959 655.473 285.959 655.473Z" fill="#FFA8A7"/>
<path d="M282.409 783.663C283.453 775.311 283.244 771.553 283.244 771.553C283.244 771.553 281.992 759.027 280.948 748.17C279.487 732.303 276.355 728.545 278.025 718.941C279.486 710.59 285.123 704.118 287.629 698.063L313.517 700.151C313.517 700.151 315.814 707.458 318.737 722.282C321.66 736.896 320.616 756.939 318.319 777.399C317.693 783.245 313.935 791.179 309.759 801.409C306.001 810.595 300.155 825.836 300.155 825.836C296.189 828.132 292.848 824.166 292.848 824.166C292.848 824.166 295.771 804.123 297.024 797.442C299.112 785.959 304.331 780.322 304.331 780.322C304.331 780.322 303.078 771.971 302.243 764.664C301.408 756.73 298.694 743.368 298.694 743.368C298.694 743.368 298.485 764.037 298.068 769.883C297.65 775.729 297.441 776.564 295.354 788.047C293.683 797.651 289.925 816.441 289.925 816.441C286.376 817.693 283.871 816.232 283.871 816.232C283.871 816.232 281.365 791.805 282.409 783.663Z" fill="#7FA8E6"/>
<path d="M283.453 728.336C288.673 733.556 297.65 734.808 297.65 734.808L298.903 742.951C299.32 749.632 298.485 757.565 298.485 765.081C298.485 765.081 296.606 745.247 294.101 741.907C291.596 738.566 285.123 732.929 283.453 728.336Z" fill="#597BC6"/>
<path d="M287.42 655.264C292.848 654.846 293.475 655.89 293.892 653.802C294.101 653.176 294.31 648.165 294.31 648.165C293.892 647.748 292.848 646.078 292.848 646.078C289.299 643.781 286.585 640.023 286.167 635.43C285.332 627.705 290.969 620.607 298.903 619.772C306.21 618.936 311.638 624.156 313.1 631.254C313.935 634.804 314.77 641.902 312.473 647.539C311.221 650.88 310.177 652.967 307.254 652.967C306.628 652.967 305.584 652.759 304.331 652.55C304.122 653.594 304.122 655.264 304.122 656.517C304.122 657.978 303.913 658.604 306.627 660.275C309.342 661.945 302.452 665.494 297.859 665.076C293.266 664.659 288.255 661.945 286.794 659.022C285.541 656.308 284.915 655.473 287.42 655.264Z" fill="#FFA8A7"/>
<path d="M291.387 645.034L296.189 645.242H301.408L303.079 643.363C303.079 643.363 303.496 649.418 304.958 650.879C306.628 652.341 308.507 653.176 308.715 653.176C308.298 653.385 307.88 653.385 307.254 653.385C306.628 653.385 305.584 653.176 304.331 652.967C304.122 654.011 304.122 655.681 304.122 656.934C304.122 658.396 303.914 659.022 306.628 660.692C309.342 662.362 302.452 665.912 297.859 665.494C293.266 665.076 288.255 662.362 286.794 659.439C285.332 656.099 284.497 655.264 287.211 655.264C292.64 654.846 293.266 655.89 293.684 653.802C293.892 653.176 294.101 648.165 294.101 648.165C293.683 647.748 292.64 646.078 292.64 646.078C292.431 645.869 291.805 645.451 291.387 645.034Z" fill="#F28F8F"/>
<path d="M291.387 646.704C287.838 643.363 286.794 640.232 286.167 635.639C285.332 627.914 290.969 620.815 298.903 619.98C303.914 619.354 309.342 621.233 311.847 627.496C311.847 627.496 311.43 628.331 310.177 628.54C310.177 628.54 310.594 630.21 309.342 631.463C308.507 632.298 307.671 633.76 307.671 635.43C307.671 636.683 307.88 638.77 307.463 640.232C307.045 642.111 304.958 641.902 304.958 641.902C304.958 641.902 304.749 638.979 304.54 636.056C303.705 633.968 300.156 633.551 299.529 636.265C298.903 638.562 299.529 640.023 300.364 641.693C300.991 642.946 302.035 643.572 303.078 643.155C303.078 646.704 301.826 648.165 298.694 649C295.562 649.836 295.354 648.792 293.683 647.957C292.64 647.748 291.387 646.704 291.387 646.704Z" fill="#543354"/>
<path d="M292.848 655.264C291.804 656.516 291.804 658.187 295.562 659.231C300.782 660.483 304.122 658.604 304.122 658.604C304.122 658.604 309.342 660.901 313.1 663.406C321.869 669.461 323.956 680.108 315.188 683.866C314.561 687.833 313.935 698.063 313.726 700.569C306.21 705.788 290.969 704.118 287.42 698.481C287.42 696.602 287.002 693.47 286.794 692.844C283.244 679.482 280.322 675.933 281.365 665.912C281.992 660.066 282.409 657.352 285.541 655.681C287.629 654.846 291.804 655.055 292.848 655.264Z" fill="#F5FBFB"/>
<path d="M302.87 643.363V678.229C302.87 678.229 299.32 680.735 292.848 677.812C286.585 674.889 286.167 673.01 286.167 669.67V633.968C286.167 633.968 293.475 642.528 298.485 644.199C302.661 645.66 302.87 643.363 302.87 643.363Z" fill="#543354"/>
<path d="M367.382 698.063C365.712 698.69 364.042 698.69 361.536 699.734C359.449 700.778 358.196 701.195 356.108 701.613C354.02 702.03 350.68 700.778 345.252 698.272C338.571 695.14 331.472 689.086 328.758 685.954C322.912 679.273 316.44 669.043 314.352 665.494C311.847 661.11 308.924 659.857 306.21 660.901C303.078 661.945 302.661 665.076 306.21 671.131C309.759 677.186 315.814 685.954 322.704 692.635C326.044 695.767 331.263 700.569 339.823 704.744C345.669 707.667 347.757 708.294 354.229 709.755C355.899 710.173 357.152 710.799 360.492 712.052C363.833 713.095 367.8 713.722 370.514 713.095C373.437 712.469 374.272 711.843 374.481 711.216C374.689 710.381 374.063 709.964 372.602 710.173C371.349 710.381 369.052 710.59 366.338 709.964C366.338 709.964 369.261 709.964 370.931 709.755C372.602 709.546 374.272 709.129 375.524 708.711C376.986 708.085 377.404 705.997 375.942 705.997C374.689 705.997 373.646 706.415 370.931 706.832C368.635 707.041 366.756 706.832 366.756 706.832C366.756 706.832 369.47 706.415 371.767 705.579C374.063 704.744 374.689 703.909 375.316 703.492C375.942 703.074 375.733 701.613 374.063 702.03C372.602 702.239 370.931 703.283 368.008 703.283C365.921 703.283 364.459 703.074 364.668 702.865C364.877 702.448 366.129 702.657 367.8 701.613C369.261 700.778 370.305 699.107 369.679 698.272C369.261 696.811 369.052 697.437 367.382 698.063Z" fill="#FFA8A7"/>
<path opacity="0.15" d="M397.017 218.405L311.188 267.92C309.926 268.64 308.123 269 306.5 269C304.877 269 303.074 268.64 301.812 267.92L215.983 218.405C214.721 217.685 214 216.604 214 215.704C214 214.984 214.361 214.264 215.082 213.724C215.262 213.544 215.623 213.183 215.983 213.003L301.812 163.489C304.336 162.048 308.664 162.048 311.188 163.489L397.017 213.003C399.541 214.444 399.541 216.965 397.017 218.405Z" fill="#6B99D1"/>
<path d="M397.017 208.322L311.188 257.837C309.926 258.557 308.123 258.917 306.5 258.917C304.877 258.917 303.074 258.557 301.812 257.837L215.983 208.322C214.721 207.602 214 206.521 214 205.621C214 204.541 214.721 203.641 215.983 202.92L229.687 194.998L301.992 153.406C304.517 151.965 308.844 151.965 311.368 153.406L397.197 202.92C399.541 204.361 399.541 206.882 397.017 208.322Z" fill="#DCEEFF"/>
<path d="M306.5 239.291V258.737C304.877 258.737 303.074 258.377 301.812 257.657L215.983 208.322C214.721 207.602 214 206.521 214 205.621V188.696C214 187.976 214.361 187.256 215.082 186.716L229.687 195.178L306.5 239.291Z" fill="#A5CBFA"/>
<path d="M306.5 239.291V258.737C308.123 258.737 309.926 258.377 311.188 257.657L397.017 208.142C398.279 207.422 399 206.341 399 205.441V188.516C399 187.796 398.639 187.076 397.918 186.535L383.313 194.998L306.5 239.291Z" fill="#C8E2FF"/>
<path d="M397.017 191.397L311.188 240.912C309.926 241.632 308.123 241.992 306.5 241.992C304.877 241.992 303.074 241.632 301.812 240.912L215.983 191.397C214.721 190.677 214 189.776 214 188.696C214 187.976 214.361 187.256 215.082 186.716C215.262 186.535 215.623 186.175 215.983 185.995L301.812 136.481C304.336 135.04 308.664 135.04 311.188 136.481L397.017 185.995C399.541 187.436 399.541 189.957 397.017 191.397Z" fill="#DCEEFF"/>
<path d="M306.5 137.201C307.942 137.201 309.385 137.561 310.287 138.101L396.115 187.616C396.836 187.976 397.197 188.516 397.197 188.696C397.197 188.876 397.017 189.416 396.115 189.776L310.287 239.291C309.385 239.831 307.942 240.191 306.5 240.191C305.058 240.191 303.615 239.831 302.713 239.291L216.885 189.776C216.164 189.416 215.803 189.056 215.803 188.696C215.803 188.516 215.983 188.156 216.344 187.976C216.524 187.796 216.705 187.616 216.885 187.616L302.713 138.101C303.615 137.561 305.058 137.201 306.5 137.201ZM306.5 135.4C304.877 135.4 303.074 135.76 301.812 136.481L215.983 185.995C215.623 186.175 215.262 186.355 215.082 186.716C214.361 187.256 214 187.976 214 188.696C214 189.776 214.721 190.677 215.983 191.397L301.812 240.912C303.074 241.632 304.877 241.992 306.5 241.992C308.123 241.992 309.926 241.632 311.188 240.912L397.017 191.397C399.541 189.957 399.541 187.436 397.017 185.995L311.188 136.481C309.926 135.76 308.123 135.4 306.5 135.4Z" fill="white"/>
<path d="M303.435 148.184L236.359 186.896C234.556 187.976 234.556 189.416 236.359 190.497L303.435 229.208C305.238 230.289 307.942 230.289 309.746 229.208L376.822 190.497C378.625 189.416 378.625 187.976 376.822 186.896L309.565 148.184C307.943 147.284 305.058 147.284 303.435 148.184Z" fill="#344593"/>
<path d="M376.641 186.896L309.565 148.184C308.664 147.644 307.582 147.464 306.5 147.464V150.705L376.1 190.857L376.641 190.497C378.264 189.416 378.264 187.976 376.641 186.896Z" fill="#1E3779"/>
<path d="M306.5 147.464C305.418 147.464 304.156 147.644 303.435 148.184L236.359 186.896C234.556 187.976 234.556 189.416 236.359 190.497L236.9 190.857L306.5 150.705V147.464Z" fill="#031F60"/>
<path d="M269.897 129.639L321.105 99.9297L343.103 112.713L291.895 142.242L269.897 129.639Z" fill="#ABFFEF"/>
<path d="M269.897 188.156C269.897 193.197 273.323 199.139 277.65 201.66L283.961 205.261C288.289 207.782 295.321 207.782 299.648 205.261L335.17 184.735C339.497 182.214 342.923 176.272 342.923 171.231V112.714L291.895 142.242L269.897 129.639V188.156Z" fill="#6CFFE6"/>
<path d="M277.65 201.66L280.896 203.461L284.141 205.261C286.305 206.521 289.19 207.062 291.895 207.062V142.062L269.897 129.639V188.156C269.897 193.017 273.323 199.139 277.65 201.66Z" fill="#47EACE"/>
<path d="M317.86 148.904C322.728 146.023 326.695 148.364 326.695 153.946C326.695 159.527 322.728 166.369 317.86 169.25C312.991 172.131 309.024 169.791 309.024 164.209C309.024 158.627 312.991 151.785 317.86 148.904Z" fill="#344593"/>
<path d="M314.975 177.353C314.975 179.693 316.237 180.954 317.86 180.054C319.483 179.153 320.745 176.452 320.745 174.112V150.885L314.975 154.126V177.353Z" fill="#344593"/>
<path d="M286.666 126.578C283.781 128.198 283.781 130.899 286.666 132.519C289.551 134.14 294.239 134.14 296.943 132.519C299.828 130.899 299.828 128.198 296.943 126.578C294.239 124.957 289.551 124.957 286.666 126.578Z" fill="#344593"/>
<path d="M315.876 109.653C312.991 111.273 312.991 113.974 315.876 115.594C318.761 117.215 323.449 117.215 326.154 115.594C329.039 113.974 329.039 111.273 326.154 109.653C323.449 108.032 318.761 108.032 315.876 109.653Z" fill="#344593"/>
<path d="M284.502 100.65V129.639H299.107V101.01C299.107 100.29 299.468 99.7497 300.009 99.3896L312.45 92.1874C312.991 91.8273 313.893 92.1874 313.893 92.9076V112.533H328.498V83.1847C328.498 73.822 321.827 69.8608 313.712 74.5422L292.436 86.7858C288.108 89.4866 284.502 95.6084 284.502 100.65Z" fill="#344593"/>
<path opacity="0.3" d="M311.188 38.5315C309.746 39.4317 308.303 39.7918 306.5 39.6118V229.928C307.582 229.928 308.664 229.748 309.565 229.208L376.1 190.857C377.363 190.137 377.904 189.596 377.904 188.696V0L311.188 38.5315Z" fill="url(#paint2_linear)"/>
<path opacity="0.5" d="M306.5 39.6118C306.139 39.6118 305.779 39.6118 305.238 39.6118C304.877 39.6118 304.517 39.4317 304.156 39.4317C303.976 39.4317 303.615 39.2517 303.435 39.2517C303.254 39.2517 303.074 39.2517 303.074 39.0716C302.713 38.8916 302.353 38.7115 301.992 38.5315L235.096 0V188.696C235.096 189.416 235.637 189.957 236.359 190.497L303.435 229.208C304.517 229.748 305.418 229.928 306.5 229.928V39.6118Z" fill="url(#paint3_linear)"/>
<defs>
<linearGradient id="paint0_linear" x1="164.663" y1="391.928" x2="109.606" y2="294.949" gradientUnits="userSpaceOnUse">
<stop stop-color="#57F7E0"/>
<stop offset="0.0777677" stop-color="#57F7E0" stop-opacity="0.9222"/>
<stop offset="1" stop-color="#57F7E0" stop-opacity="0"/>
</linearGradient>
<linearGradient id="paint1_linear" x1="26.6658" y1="392.342" x2="70.8233" y2="313.809" gradientUnits="userSpaceOnUse">
<stop stop-color="#57F7E0"/>
<stop offset="0.0777677" stop-color="#57F7E0" stop-opacity="0.9222"/>
<stop offset="1" stop-color="#57F7E0" stop-opacity="0"/>
</linearGradient>
<linearGradient id="paint2_linear" x1="383.342" y1="187.322" x2="317.901" y2="71.8872" gradientUnits="userSpaceOnUse">
<stop stop-color="#57F7E0"/>
<stop offset="1" stop-color="#57F7E0" stop-opacity="0"/>
</linearGradient>
<linearGradient id="paint3_linear" x1="229.748" y1="187.795" x2="282.236" y2="94.3122" gradientUnits="userSpaceOnUse">
<stop stop-color="#57F7E0"/>
<stop offset="1" stop-color="#57F7E0" stop-opacity="0"/>
</linearGradient>
</defs>
</svg>
