<svg width="26" height="17" viewBox="0 0 26 17" fill="none" xmlns="http://www.w3.org/2000/svg">
<path d="M25.8348 7.78001C25.6025 7.46227 20.0682 0 12.9999 0C5.93157 0 0.397009 7.46227 0.164989 7.7797C-0.0549962 8.08114 -0.0549962 8.48998 0.164989 8.79142C0.397009 9.10916 5.93157 16.5714 12.9999 16.5714C20.0682 16.5714 25.6025 9.10911 25.8348 8.79167C26.055 8.49029 26.055 8.08114 25.8348 7.78001ZM12.9999 14.8572C7.79331 14.8572 3.28388 9.90429 1.94899 8.28513C3.28215 6.66454 7.78214 1.71428 12.9999 1.71428C18.2062 1.71428 22.7153 6.66627 24.0508 8.2863C22.7176 9.90683 18.2176 14.8572 12.9999 14.8572Z" fill="#C4C4C4"/>
<path d="M12.9999 3.14282C10.1641 3.14282 7.85699 5.44997 7.85699 8.2857C7.85699 11.1214 10.1641 13.4286 12.9999 13.4286C15.8356 13.4286 18.1427 11.1214 18.1427 8.2857C18.1427 5.44997 15.8356 3.14282 12.9999 3.14282ZM12.9999 11.7143C11.1093 11.7143 9.57132 10.1762 9.57132 8.2857C9.57132 6.39516 11.1093 4.85715 12.9999 4.85715C14.8904 4.85715 16.4284 6.39516 16.4284 8.2857C16.4284 10.1762 14.8905 11.7143 12.9999 11.7143Z" fill="#C4C4C4"/>
</svg>
